<svg xmlns="http://www.w3.org/2000/svg" viewBox="0 0 114.45 181.94"><defs><style>.cls-1{fill:#d71f26;}</style></defs><g id="Layer_2" data-name="Layer 2"><g id="Layer_1-2" data-name="Layer 1"><path class="cls-1" d="M11.35,158.82a5.2,5.2,0,0,1-1.46,3.9,5.49,5.49,0,0,1-4,1.43,5.53,5.53,0,0,1-4.32-1.73,7.87,7.87,0,0,1,0-9.46,5.46,5.46,0,0,1,4.26-1.74,5.78,5.78,0,0,1,3.66,1.16,4.58,4.58,0,0,1,1.74,3.08H8.69a2.65,2.65,0,0,0-1-1.45,3,3,0,0,0-1.81-.52,2.8,2.8,0,0,0-2.35,1.11,5.84,5.84,0,0,0,0,6.15,2.91,2.91,0,0,0,2.42,1.14A3,3,0,0,0,8,161.2a2.35,2.35,0,0,0,.85-1.79v-.23H6.19v-1.93h5.16Z"/><path class="cls-1" d="M19.83,162.74a4.47,4.47,0,0,1-3.4,1.3,4.45,4.45,0,0,1-3.4-1.3,5,5,0,0,1-1.23-3.61A5,5,0,0,1,13,155.54a4.47,4.47,0,0,1,3.39-1.31,4.47,4.47,0,0,1,3.39,1.31,5.86,5.86,0,0,1,0,7.2Zm-3.4-.73a1.77,1.77,0,0,0,1.53-.75A4.36,4.36,0,0,0,18,157a1.93,1.93,0,0,0-3.07,0,4.43,4.43,0,0,0,0,4.24A1.78,1.78,0,0,0,16.43,162Z"/><path class="cls-1" d="M20.57,154.44h2.67l2,7h.15l1.93-7h2.61l-3.24,9.4h-2.8Z"/><path class="cls-1" d="M36,161.16h2.31a3.29,3.29,0,0,1-1.43,2.11A5,5,0,0,1,34,164a4.38,4.38,0,0,1-3.35-1.28,5,5,0,0,1-1.2-3.58,5.18,5.18,0,0,1,1.21-3.62,4.24,4.24,0,0,1,3.31-1.33,4.23,4.23,0,0,1,3.24,1.25,4.93,4.93,0,0,1,1.16,3.5v.76H31.88v.13a2.42,2.42,0,0,0,.6,1.65,2,2,0,0,0,1.55.61,2.67,2.67,0,0,0,1.23-.25A1.42,1.42,0,0,0,36,161.16Zm-2-5a1.91,1.91,0,0,0-1.41.56,2.14,2.14,0,0,0-.63,1.46h4a2.2,2.2,0,0,0-.57-1.48A1.87,1.87,0,0,0,33.93,156.13Z"/><path class="cls-1" d="M39.05,163.84v-9.4h2.41v1.5h.15a2,2,0,0,1,.86-1.19,2.63,2.63,0,0,1,1.55-.47,3,3,0,0,1,1,.12v2.26a3.45,3.45,0,0,0-1.17-.15,2.37,2.37,0,0,0-1.66.57,2,2,0,0,0-.63,1.55v5.21Z"/><path class="cls-1" d="M45.42,163.84v-9.4h2.41v1.5H48a2.69,2.69,0,0,1,1-1.26,3.22,3.22,0,0,1,1.74-.45,3.07,3.07,0,0,1,2.39.92,3.77,3.77,0,0,1,.82,2.61v6.08H51.49v-5.49c0-1.32-.57-2-1.73-2a1.74,1.74,0,0,0-1.36.56,2.16,2.16,0,0,0-.5,1.49v5.42Z"/><path class="cls-1" d="M55.07,163.84v-9.4h2.4V156h.15a2.56,2.56,0,0,1,1-1.27,2.82,2.82,0,0,1,1.61-.47,2.79,2.79,0,0,1,1.65.46,2.38,2.38,0,0,1,1,1.28H63a2.68,2.68,0,0,1,1.09-1.27,3.24,3.24,0,0,1,1.74-.47,3,3,0,0,1,2.22.85,3.18,3.18,0,0,1,.82,2.31v6.45H66.37V158c0-1.11-.52-1.67-1.57-1.67a1.57,1.57,0,0,0-1.2.48,1.73,1.73,0,0,0-.45,1.23v5.76H60.76v-5.9a1.61,1.61,0,0,0-.41-1.16,1.71,1.71,0,0,0-2.33.1,1.83,1.83,0,0,0-.47,1.3v5.66Z"/><path class="cls-1" d="M76,161.16h2.31a3.25,3.25,0,0,1-1.43,2.11A5,5,0,0,1,74,164a4.37,4.37,0,0,1-3.35-1.28,5.05,5.05,0,0,1-1.21-3.58,5.18,5.18,0,0,1,1.22-3.62,4.8,4.8,0,0,1,6.55-.08,5,5,0,0,1,1.16,3.5v.76H72v.13a2.33,2.33,0,0,0,.6,1.65,2,2,0,0,0,1.54.61,2.67,2.67,0,0,0,1.23-.25A1.42,1.42,0,0,0,76,161.16Zm-2-5a1.94,1.94,0,0,0-1.42.56,2.24,2.24,0,0,0-.63,1.46h4a2.2,2.2,0,0,0-.57-1.48A1.85,1.85,0,0,0,74,156.13Z"/><path class="cls-1" d="M79.13,163.84v-9.4h2.4v1.5h.16a2.69,2.69,0,0,1,1-1.26,3.18,3.18,0,0,1,1.73-.45,3.06,3.06,0,0,1,2.39.92,3.77,3.77,0,0,1,.83,2.61v6.08H85.2v-5.49c0-1.32-.58-2-1.73-2a1.73,1.73,0,0,0-1.36.56,2.16,2.16,0,0,0-.5,1.49v5.42Z"/><path class="cls-1" d="M89.48,152.2H92v2.33h2v1.95H92v4.23a1.23,1.23,0,0,0,.29.9,1.27,1.27,0,0,0,.93.29c.28,0,.52,0,.73,0v1.89a6,6,0,0,1-1.24.11,4,4,0,0,1-2.45-.59,2.42,2.42,0,0,1-.74-2v-4.82H88v-1.95h1.47Z"/><path class="cls-1" d="M105.42,162.74a5.08,5.08,0,0,1-6.79,0,5,5,0,0,1-1.23-3.61,5,5,0,0,1,1.24-3.59,5,5,0,0,1,6.77,0,5,5,0,0,1,1.24,3.59A5,5,0,0,1,105.42,162.74ZM102,162a1.79,1.79,0,0,0,1.53-.75,4.36,4.36,0,0,0,0-4.24,1.93,1.93,0,0,0-3.07,0,4.43,4.43,0,0,0,0,4.24A1.78,1.78,0,0,0,102,162Z"/><path class="cls-1" d="M108.09,163.84v-7.36h-1.52v-1.95h1.52v-.92a2.43,2.43,0,0,1,.83-2,4,4,0,0,1,2.51-.65,7.57,7.57,0,0,1,1.16.1v1.78a3.75,3.75,0,0,0-.81-.07,1.41,1.41,0,0,0-1,.27,1.08,1.08,0,0,0-.3.84v.69h2v1.95h-1.94v7.36Z"/><path class="cls-1" d="M42.71,181.8H37.19V169.5h5.38a4.32,4.32,0,0,1,2.8.82,2.73,2.73,0,0,1,1,2.25,2.58,2.58,0,0,1-.64,1.73,2.54,2.54,0,0,1-1.59.89v.15a3,3,0,0,1,2,.93,2.79,2.79,0,0,1,.8,2,3.18,3.18,0,0,1-1.14,2.57A4.76,4.76,0,0,1,42.71,181.8Zm-3-10.33v3.12H41.7a2.6,2.6,0,0,0,1.59-.41,1.34,1.34,0,0,0,.56-1.15,1.41,1.41,0,0,0-.51-1.15,2.18,2.18,0,0,0-1.43-.41Zm0,8.36h2.3a2.66,2.66,0,0,0,1.69-.46,1.54,1.54,0,0,0,.59-1.32,1.48,1.48,0,0,0-.6-1.28,2.94,2.94,0,0,0-1.74-.44H39.76Z"/><path class="cls-1" d="M49,171.08a1.55,1.55,0,0,1-1.07-.35,1.22,1.22,0,0,1,0-1.81,1.85,1.85,0,0,1,2.14,0,1.16,1.16,0,0,1,.4.91,1.13,1.13,0,0,1-.41.9A1.53,1.53,0,0,1,49,171.08ZM47.76,181.8v-9.41h2.48v9.41Z"/><path class="cls-1" d="M51.52,181.8v-13H54v5.13h.15a2.66,2.66,0,0,1,1.07-1.27,3.33,3.33,0,0,1,1.77-.45,3,3,0,0,1,2.37.92,3.67,3.67,0,0,1,.85,2.6v6.06H57.69v-5.47a2.19,2.19,0,0,0-.44-1.47,1.62,1.62,0,0,0-1.29-.5,1.85,1.85,0,0,0-1.44.55A2.1,2.1,0,0,0,54,176.4v5.4Z"/><path class="cls-1" d="M63.84,181.94a3.21,3.21,0,0,1-2.22-.77,2.66,2.66,0,0,1-.86-2.06,2.4,2.4,0,0,1,.94-2,4.88,4.88,0,0,1,2.7-.83l2.28-.13v-.77a1.1,1.1,0,0,0-.41-.91,1.93,1.93,0,0,0-1.18-.32c-.92,0-1.49.29-1.7.87H61.11A2.71,2.71,0,0,1,62.34,173a5,5,0,0,1,2.89-.76,4.37,4.37,0,0,1,2.87.84,2.86,2.86,0,0,1,1,2.35v6.42h-2.4v-1.23h-.15a2.51,2.51,0,0,1-1.1,1A3.59,3.59,0,0,1,63.84,181.94Zm.82-1.87a2.2,2.2,0,0,0,1.44-.48,1.53,1.53,0,0,0,.58-1.2v-.69l-1.9.12c-1.06.07-1.59.45-1.59,1.13a1,1,0,0,0,.4.82A1.78,1.78,0,0,0,64.66,180.07Z"/><path class="cls-1" d="M70.25,181.8v-9.41h2.4v1.51h.16a2.05,2.05,0,0,1,.85-1.19,2.69,2.69,0,0,1,1.56-.47,3,3,0,0,1,1,.12v2.26a3.45,3.45,0,0,0-1.17-.15,2.37,2.37,0,0,0-1.66.57,2,2,0,0,0-.63,1.55v5.21Z"/><path class="cls-1" d="M1.92,25.83a17.26,17.26,0,0,1,4.24,1.38,14.54,14.54,0,0,1,4.5,3.1,10.29,10.29,0,0,1,2.78,6.19,17.91,17.91,0,0,1-.65,7,.82.82,0,0,0,0,.38,7.67,7.67,0,0,1,.27.76,4.18,4.18,0,0,0,2.3,2.87c.85.47,1.76.82,2.62,1.28a14.78,14.78,0,0,1,4.69,3.81c.39.48.81.94,1.23,1.4a5.7,5.7,0,0,0,2.74,1.74,4.91,4.91,0,0,1,1,.37,9.24,9.24,0,0,1,.9.59c.09-.34.2-.69.27-1.06a.49.49,0,0,0-.14-.3A19.36,19.36,0,0,1,24,48a13.92,13.92,0,0,1-.4-1.44,5.84,5.84,0,0,0-.86-2,16.39,16.39,0,0,1-2.4-5.85,4.31,4.31,0,0,1,0-2.14c-.85-.63-1.71-1.21-2.5-1.87a13.55,13.55,0,0,1-4.05-5.16,10.89,10.89,0,0,1-.38-7A17.68,17.68,0,0,1,16,16.61a.76.76,0,0,1,.1-.14l.55.28a17.89,17.89,0,0,1,5.44,4.54,10.55,10.55,0,0,1,2.09,9.3,19,19,0,0,1-2.4,5.86,1.77,1.77,0,0,0-.18.83,9.56,9.56,0,0,0,1,4.5,12.26,12.26,0,0,0,1.05,1.87,8.66,8.66,0,0,1,1.12,2.53,16.92,16.92,0,0,0,3,6c.52.64,1.16,1.19,1.74,1.78s1,1,1.55,1.55a1.17,1.17,0,0,0,.46.26,16.68,16.68,0,0,1,5.74,3,10.38,10.38,0,0,1,3.68,6.82,18,18,0,0,1-.34,6.54.39.39,0,0,0,.16.47,6.55,6.55,0,0,1,.65.64,34.3,34.3,0,0,0,6.43,5.41c1.07.74,2.16,1.45,3.31,2.21,0-.19,0-.29,0-.39.08-3.51.14-7,.25-10.54a31.81,31.81,0,0,1,.52-5.5.46.46,0,0,0-.15-.35C50,62.52,48.16,61,46.37,59.4c-.47-.41-.9-.86-1.36-1.28a.81.81,0,0,0-.46-.21A18.21,18.21,0,0,1,37.36,56a10.58,10.58,0,0,1-5.52-7.48,18.11,18.11,0,0,1-.3-6.48l.06-.17c.72.06,1.46.09,2.2.18a17.13,17.13,0,0,1,5.88,1.78,10.68,10.68,0,0,1,5.54,7.52,17.73,17.73,0,0,1,.38,5.53.64.64,0,0,0,.29.63c1.52,1.24,3,2.51,4.53,3.77.61.5,1.21,1,1.86,1.57l.49-2.21c.35-1.61.68-3.22,1.06-4.82a1.62,1.62,0,0,0-.1-.93c-.19-.62-.32-1.26-.53-1.87a15.31,15.31,0,0,0-4.86-7c-.38-.31-.7-.68-1.08-1s-.65-.38-.95-.61a6.15,6.15,0,0,1-.85-.76,5.44,5.44,0,0,1-.81-1.11c-.27-.57-.76-.63-1.27-.74A17.36,17.36,0,0,1,37.09,39a10.44,10.44,0,0,1-4.23-7.1,18,18,0,0,1,.3-7,2.44,2.44,0,0,1,.1-.33,16.27,16.27,0,0,1,3.67.82,16.26,16.26,0,0,1,4.22,2.08,10.43,10.43,0,0,1,4.44,7.16,17.8,17.8,0,0,1-.26,7,.4.4,0,0,0,.17.46c.3.25.53.56.83.81a2,2,0,0,0,.72.44,2.11,2.11,0,0,1,1,.61,17.13,17.13,0,0,0,1.52,1.43,16.35,16.35,0,0,1,4.78,6.81c0,.14.11.27.19.5.06-.19.08-.3.11-.41.51-2,1-3.91,1.54-5.87a.5.5,0,0,0,0-.24A45.63,45.63,0,0,0,52.36,36a21.43,21.43,0,0,0-4.72-5.74,3.54,3.54,0,0,0-1.07-.61A18.39,18.39,0,0,1,40.45,26,10.46,10.46,0,0,1,37,17.58a17.76,17.76,0,0,1,1.49-6.7l.09-.2.06-.08a16.22,16.22,0,0,1,3.27,1.32,14.94,14.94,0,0,1,5.18,4.22,10.57,10.57,0,0,1,2,6.82,18.19,18.19,0,0,1-1.19,5.92l-.07.22a19,19,0,0,1,6.13,7.26c.64,1.25,1.16,2.58,1.72,3.87l.14.33h.11c0-.76.11-1.52.06-2.27-.27-3.59-.57-7.17-.85-10.76-.06-.75-.1-1.51-.16-2.26a.65.65,0,0,0-.17-.34,22,22,0,0,1-4.34-8.26A15.44,15.44,0,0,1,51.56,6,21.73,21.73,0,0,1,55.24.33L55.56,0c.21.24.43.46.63.7a21.06,21.06,0,0,1,4.73,9.57,15.23,15.23,0,0,1-1,8.67,22.54,22.54,0,0,1-3.24,5.55.72.72,0,0,0-.17.59,4.91,4.91,0,0,1,0,1.27,13.65,13.65,0,0,0-.05,3.83c.13,1.43.25,2.87.38,4.3a4.17,4.17,0,0,0,.06.43c.12-.35.2-.6.29-.85a25,25,0,0,1,4.12-8,19.56,19.56,0,0,1,1.44-1.57.62.62,0,0,0,.19-.64A16.51,16.51,0,0,1,63.41,15a10.56,10.56,0,0,1,5.43-5.83,18,18,0,0,1,6.3-1.9.55.55,0,0,1,.17,0c.12.66.26,1.32.35,2a17.12,17.12,0,0,1-.35,6.57,10.41,10.41,0,0,1-5.09,6.51A18.05,18.05,0,0,1,64,24.53a.81.81,0,0,0-.46.23,55.37,55.37,0,0,0-4.12,6.69,24.21,24.21,0,0,0-2.17,7.3,6.48,6.48,0,0,0,.05,1.16c0,.68.09,1.36.17,2.05.9-2.46,2.46-4.17,5.16-4.59,0-.44-.06-.85-.08-1.27a17.34,17.34,0,0,1,.64-5.82,10.47,10.47,0,0,1,5.85-6.71,17.62,17.62,0,0,1,6.76-1.71h.3c.07.51.16,1,.2,1.51a17.36,17.36,0,0,1-.76,7.12,10.34,10.34,0,0,1-5.22,6,19.46,19.46,0,0,1-6.59,1.92A10.17,10.17,0,0,0,60,39.56a1.78,1.78,0,0,0-.8.85c-.49,1.4-.9,2.83-1.34,4.25a.26.26,0,0,0,.06.22A1.36,1.36,0,0,1,58.27,46c0,2.45,0,4.91,0,7.36a1.19,1.19,0,0,0,.07.47l.25-.35a6.65,6.65,0,0,1,3.25-2.62c.23-.09.21-.23.2-.4a18.44,18.44,0,0,1,.75-6.18A10.78,10.78,0,0,1,70,37.05,18.33,18.33,0,0,1,75.89,36h.29c0,.42.11.82.13,1.23a17.29,17.29,0,0,1-1,7.37,10.34,10.34,0,0,1-5.73,5.89A17.27,17.27,0,0,1,62.85,52a2,2,0,0,0-1.22.41A16,16,0,0,0,59,55.06a3,3,0,0,0-.74,2.15c.05,4.3,0,8.59,0,12.89v.32a15.88,15.88,0,0,1,1.36-1.23c.68-.51,1.41-1,2.13-1.4a.41.41,0,0,0,.25-.42,18.57,18.57,0,0,1,1.26-6.2,10.67,10.67,0,0,1,7.42-6.55,19.07,19.07,0,0,1,5-.7c.12,0,.24,0,.4,0,0-.52-.08-1-.11-1.49a16.79,16.79,0,0,1,.72-6.14,10.53,10.53,0,0,1,6-6.53A3.33,3.33,0,0,0,84,38.92a14,14,0,0,1,4.18-3.37c-.24-.54-.49-1.06-.71-1.58A16.19,16.19,0,0,1,86.1,27.5a10.23,10.23,0,0,1,2.76-6.8A17.7,17.7,0,0,1,95,16.26a1,1,0,0,1,.2-.05c.4.85.85,1.7,1.22,2.59a15.91,15.91,0,0,1,1.3,5.89,10.5,10.5,0,0,1-3.2,7.73A17.92,17.92,0,0,1,89,36.31a3.73,3.73,0,0,1-.44.14,8,8,0,0,0-2.81,2.21l3.67-.59A18.86,18.86,0,0,1,89.22,46c.31-.17.57-.29.81-.44,1-.59,2-1.18,3-1.8a1.24,1.24,0,0,0,.47-.61,17.92,17.92,0,0,1,3-5.5,10.46,10.46,0,0,1,7.61-3.85,17.86,17.86,0,0,1,7,.88l.28.1s0,0,.09.08c-.08.33-.15.68-.25,1a16.78,16.78,0,0,1-4,7.3,10.19,10.19,0,0,1-6.57,3,17.54,17.54,0,0,1-7.36-.87c-.13,0-.25-.11-.37-.16-.78.5-1.57,1-2.38,1.53a3.09,3.09,0,0,1-.81.41,2.17,2.17,0,0,0-1.42,1.35,10.59,10.59,0,0,1-5.5,4.92,18.4,18.4,0,0,1-5,1.41l-.28,0-.17,2.38a20.9,20.9,0,0,1,2.49-.1c1.62.11,3.25.29,4.87.49,1,.13,1,.16,1.59-.65A19.41,19.41,0,0,1,91.48,52,12.61,12.61,0,0,1,100,50.24a19.64,19.64,0,0,1,7.43,2.53l.3.19A20.2,20.2,0,0,1,102,59.32a12.65,12.65,0,0,1-5.48,2.31,15.27,15.27,0,0,1-6.41-.46,23.14,23.14,0,0,1-4.9-2,6.45,6.45,0,0,0-2.81-.81c-1.1,0-2.19-.19-3.28-.29a1,1,0,0,0-.68.16,5.15,5.15,0,0,1-1.19.55.46.46,0,0,0-.36.38,13.12,13.12,0,0,1-2.27,5.1,10.82,10.82,0,0,1-5.88,3.82,17.87,17.87,0,0,1-6.63.63.46.46,0,0,0-.25.08,14,14,0,0,0-3.34,3.36,1.34,1.34,0,0,0-.2.67c0,3.74.08,7.47.14,11.21,0,.83.08,1.66.13,2.49a4.8,4.8,0,0,0,.08.52c.76-.82,1.49-1.56,2.16-2.37a.77.77,0,0,0,.05-1,1.17,1.17,0,0,1,.38-1.55.81.81,0,0,0,.31-.4c.14-.44.23-.9.34-1.34a1.26,1.26,0,0,1,.13-.34,16.69,16.69,0,0,1,1-1.51,17.67,17.67,0,0,1,1.58-1.77,2.09,2.09,0,0,1,1.88-.32,3.45,3.45,0,0,1,2.22,1.36l.36.46c.6-.23,1.2-.45,1.78-.7a.47.47,0,0,0,.18-.34A20,20,0,0,1,72,73,11.8,11.8,0,0,1,76,67.38,11.67,11.67,0,0,1,81,65.28a18.64,18.64,0,0,1,6.41,0c-.06.64-.1,1.28-.19,1.92a17.66,17.66,0,0,1-1.7,5.53,10.57,10.57,0,0,1-7.5,5.77,18,18,0,0,1-6.62.24,1.33,1.33,0,0,0-.56.07c-.38.13-.75.3-1.12.46,0,0,0,0-.05,0,.28.73.59,1.46.84,2.2a23.23,23.23,0,0,1,1,5c.11,1.13.14,2.26.22,3.39,0,.16.06.31.07.47a5.71,5.71,0,0,1,0,.83c-.05.61-.14,1.23-.2,1.84a.56.56,0,0,0,.1.27,1.5,1.5,0,0,1-.2,1.91.6.6,0,0,0-.17.3c-.06.48-.07,1-.15,1.45A7,7,0,0,1,71,98c0,.13-.12.25-.15.37A13.36,13.36,0,0,1,69,102.61a4.39,4.39,0,0,1-1.8,1.56.86.86,0,0,0-.29.22,1.64,1.64,0,0,1-2.72-.61,1.39,1.39,0,0,0-.22-.37c-.38-.52-.77-1-1.16-1.55-.19-.26-.39-.52-.57-.79a2.8,2.8,0,0,1-.32-.65c-.22-.88-.42-1.77-.63-2.66a31.54,31.54,0,0,1-.81-7.51c0-.21-.08-.42-.1-.64a4.5,4.5,0,0,1,0-1c.1-.67.25-1.34.38-2l-.11,0a14.24,14.24,0,0,1-1,1.17,2.26,2.26,0,0,0-.7,2c.27,5.37.48,10.73.7,16.1.11,2.81.19,5.61.29,8.42,0,.06,0,.12,0,.22H83.81v31.21H31.57v-31.2H50.34c.33,0,.43-.09.47-.42a81.8,81.8,0,0,0,.49-10.38c0-3.63-.09-7.27-.14-10.91,0,0,0-.1,0-.13L45.54,91a.84.84,0,0,0,.27.81,1.12,1.12,0,0,1,.13,1.58.76.76,0,0,0-.2.63,3.23,3.23,0,0,1,0,.44,1.13,1.13,0,0,0,.36,1,1.68,1.68,0,0,1-.22,2.28,1,1,0,0,0-.23.46c-.1.68-.17,1.38-.24,2.07a.71.71,0,0,0,.1.37,1.32,1.32,0,0,1-.33,1.68,1,1,0,0,0-.24.38c-.11.34-.19.68-.28,1a2.6,2.6,0,0,0-.15,1.18,1.16,1.16,0,0,1-.61,1.2,1.23,1.23,0,0,0-.29.31,7.26,7.26,0,0,0-.38.67,11.78,11.78,0,0,0-.55,1.13,1.63,1.63,0,0,1-1.55,1.09,7.42,7.42,0,0,1-1.56-.13,9,9,0,0,1-1.32-.5c-.54.33-1,.33-1.28,0s-.32-.82.1-1.34a1.71,1.71,0,0,0-.83-.89,1.38,1.38,0,0,1-.64-1.93.73.73,0,0,0-.33-.9,1.27,1.27,0,0,1-.46-1.95.67.67,0,0,0-.3-1A1.65,1.65,0,0,1,33.35,99a1.58,1.58,0,0,1,.88-1.66.41.41,0,0,0,.24-.43c0-.61,0-1.22,0-1.83a.6.6,0,0,0-.19-.38,1.66,1.66,0,0,1,.13-2.79.79.79,0,0,0,.14-1.07,1.6,1.6,0,0,1,.44-2.57.56.56,0,0,0,.25-.31c.12-.34.19-.7.29-1.06A.87.87,0,0,0,35,85.77c-1.27-.9-2.52-1.83-3.8-2.73a.9.9,0,0,0-.56-.13,18.19,18.19,0,0,1-7-.48,10.72,10.72,0,0,1-7.32-6.76,18.79,18.79,0,0,1-1.33-6v-.27c.35,0,.69-.12,1-.16A17.21,17.21,0,0,1,24,70.1a10.55,10.55,0,0,1,6.07,6.05,18.32,18.32,0,0,1,1.4,5.39.73.73,0,0,0,.37.62c1.17.72,2.32,1.47,3.5,2.22a1.66,1.66,0,0,1,1.29-.63c.09,0,.19-.12.25-.21a5.41,5.41,0,0,1,1.92-2,.6.6,0,0,0,.19-.25,1.35,1.35,0,0,1,1.47-.9,1.33,1.33,0,0,1,1.19,1.11.78.78,0,0,0,.2.32c.35.37.72.72,1.06,1.1.13.15.23.25.45.22a.87.87,0,0,1,.9.51,1,1,0,0,1,0,1.1.44.44,0,0,0-.07.49,1.43,1.43,0,0,0,.74.9,1.54,1.54,0,0,1,.48,2.28c-.34.49-.24.82.31,1l5.09,1.73.33.1a1.11,1.11,0,0,0,0-.23c0-2.69,0-5.37,0-8.06a.87.87,0,0,0-.33-.76c-.44-.32-.87-.67-1.33-1a55.28,55.28,0,0,1-7.55-5.72c-.51-.45-1-.91-1.52-1.38a1.71,1.71,0,0,1-.45-.56c-.21-.49-.6-.6-1.06-.74a35.19,35.19,0,0,1-3.45-1.2,7,7,0,0,0-1.78-.33,32.62,32.62,0,0,1-10.12-2.88,31.73,31.73,0,0,1-2.94-1.56,2.72,2.72,0,0,1-1.4-1.83l-.83,0a17.15,17.15,0,0,1-6.67-.88,10.45,10.45,0,0,1-6.1-5.72,18.31,18.31,0,0,1-1.66-6.74v-.31c.59-.07,1.16-.17,1.74-.2a17.51,17.51,0,0,1,6.82.8,10.57,10.57,0,0,1,6.44,6.2,18,18,0,0,1,1.47,6.3.78.78,0,0,0,.17.42,10.76,10.76,0,0,0,.95,1,5.81,5.81,0,0,0,1.16.82,32,32,0,0,0,9.1,3l.22,0a1.38,1.38,0,0,0,.21,0l-.74-.66a10.09,10.09,0,0,1-3.14-6.48,33.61,33.61,0,0,1-.08-3.76.59.59,0,0,0-.26-.59A20.43,20.43,0,0,0,25.9,57a9.27,9.27,0,0,1-3.25-2.5c-.42-.49-.86-1-1.28-1.45a13.76,13.76,0,0,0-5.3-3.83,6,6,0,0,1-3.66-3.86c-.15-.43-.21-1-.52-1.26s-.83-.27-1.26-.4A17.12,17.12,0,0,1,4.5,40.39,10.12,10.12,0,0,1,1.08,34,17.4,17.4,0,0,1,1.84,26C1.86,26,1.89,25.91,1.92,25.83Zm55,23h0c0,.11-.07.22-.1.33Q55.34,55.59,53.87,62a31.7,31.7,0,0,0-.78,3.83c-.23,2.39-.39,4.79-.44,7.19-.1,5.54-.17,11.09-.16,16.63,0,4.6.16,9.2.19,13.8a88.28,88.28,0,0,1-.42,10c0,.34-.08.69-.11,1h6.34c0-.16,0-.29,0-.43q-.23-6.91-.47-13.83c-.09-2.5-.19-5-.33-7.5-.12-2.13-.35-4.25-.44-6.39-.12-2.54-.2-5.09-.21-7.64q-.07-14.58-.1-29.15ZM81.37,117H34v26.23H81.37ZM55.87,23.26,56.1,23a21.29,21.29,0,0,0,2.56-4.59,14,14,0,0,0,.87-8.1,19.87,19.87,0,0,0-3.87-8.08.57.57,0,0,0-.14-.11,21.43,21.43,0,0,0-3.09,5.31,14,14,0,0,0-1,7.2,18.27,18.27,0,0,0,3,7.54s.06.05.1.1c0-.88.07-1.72.14-2.56s.13-1.7.24-2.55.25-1.66.41-2.49.34-1.63.51-2.45c-.09,1.85-.26,3.68-.33,5.52A24.75,24.75,0,0,0,55.87,23.26ZM39.46,107.33a1.73,1.73,0,0,1,2-1.29c.13,0,.34.06.41,0a.47.47,0,0,0,.12-.61,1.23,1.23,0,0,1,.57-1.68.88.88,0,0,0,.58-.74,4.44,4.44,0,0,0,.16-.6,1.26,1.26,0,0,0-.08-.58,1.33,1.33,0,0,1,.34-1.62.75.75,0,0,0,.23-.38c.09-.58.15-1.16.19-1.74a.48.48,0,0,0-.13-.34,1.64,1.64,0,0,1-.07-2.23,1.27,1.27,0,0,0,.33-1.08,2.16,2.16,0,0,0,0-.51,1.3,1.3,0,0,0-.22-.51,1.27,1.27,0,0,1-.13-1.34,1.79,1.79,0,0,0,.15-.72c0-.27-.09-.55-.1-.83s-.14-.34-.35-.44c-2-.93-4-1.88-5.93-2.83l-.37-.2c-.12.44-.24.83-.31,1.22a.88.88,0,0,0,.09.53A1.6,1.6,0,0,1,36.53,91a.64.64,0,0,0,0,1,1.73,1.73,0,0,1-.24,2.9.44.44,0,0,0-.18.33c0,.64,0,1.27.06,1.9a.74.74,0,0,0,.2.44,1.73,1.73,0,0,1,.29,2,2,2,0,0,0,.13,1.88,2,2,0,0,1,.24,1.11,1.19,1.19,0,0,0,.57,1.14,1.39,1.39,0,0,1,.71.88,4.76,4.76,0,0,1,.11.64c1,.14,1.23.8.71,1.79ZM69.77,95.39a.54.54,0,0,0,0-.11c-.73-1-.69-1.48.23-2.39a.49.49,0,0,0-.07-.7A1.47,1.47,0,0,1,69,90.8,1.44,1.44,0,0,1,70,89.44c.09,0,.13-.18.23-.31-1.2-.09-1.9-.61-2-1.52a2.3,2.3,0,0,1,.2-1.12,1.63,1.63,0,0,1,1.41-.92l-.16-1c-1,0-1.5-.31-1.67-1a1.43,1.43,0,0,1,1-1.81l-.38-1a1.56,1.56,0,0,1-1.47,0,.4.4,0,0,0-.49,0,16.32,16.32,0,0,0-3.48,2.88,1.72,1.72,0,0,0-.53,1.16.54.54,0,0,0,.13.37,1.11,1.11,0,0,1-.23,1.86.51.51,0,0,0-.23.31c0,.07.14.19.24.24A1.57,1.57,0,0,1,63.44,89a1.49,1.49,0,0,1-.76,1.41,5.07,5.07,0,0,1-.64.29c.09.19.13.5.26.54a1.17,1.17,0,0,1,.93,1.09,1.42,1.42,0,0,1-.7,1.46c-.23.13-.3.25-.17.48,1.1.06,1.75.48,1.89,1.32a2.28,2.28,0,0,1-.09,1.1,1.59,1.59,0,0,1-1.21,1l.25.86c1.53.14,2,1.22,1.14,2.66l.35.49a4.5,4.5,0,0,1,1.32-.13,4.7,4.7,0,0,1,1.17.58l.22-.23a1.42,1.42,0,0,1-.28-1.64,1.31,1.31,0,0,1,1.38-.69.32.32,0,0,0,.25-.17c.14-.36.24-.74.38-1.11A.28.28,0,0,0,69,98a1.35,1.35,0,0,1-.51-1.47A1.48,1.48,0,0,1,69.77,95.39ZM87.15,58.05A32.63,32.63,0,0,0,97,55.39a34.93,34.93,0,0,1-8.71,3.74l.26.12a17.2,17.2,0,0,0,4.06,1,11.51,11.51,0,0,0,7.13-1.16,17.49,17.49,0,0,0,6-5.59,1.74,1.74,0,0,0,.07-.23c-1.17-.41-2.31-.87-3.49-1.21a13.48,13.48,0,0,0-6.15-.46,12.14,12.14,0,0,0-5.9,2.89A17.06,17.06,0,0,0,87.15,58.05ZM63.31,50.16l.12.05a27.9,27.9,0,0,0,5.88-6.84,28,28,0,0,1-4.44,7.15,17.09,17.09,0,0,0,3.63-1,9.56,9.56,0,0,0,5.4-5.08A14,14,0,0,0,75,39.48c0-.73,0-1.46,0-2.21a1.2,1.2,0,0,0-.19,0,17.58,17.58,0,0,0-5.15,1.31,9.6,9.6,0,0,0-5,4.55,13.37,13.37,0,0,0-1.27,4.59C63.39,48.53,63.36,49.35,63.31,50.16Zm11-41.53a17,17,0,0,0-6.08,2.43,9.33,9.33,0,0,0-3.83,5.18,14.72,14.72,0,0,0-.56,4.38c0,.7.08,1.39.13,2.09l.1,0a27.93,27.93,0,0,0,5.16-7.47,28,28,0,0,1-3.68,7.6,1.33,1.33,0,0,0,.28-.06,16.77,16.77,0,0,0,3.81-1.67,9.43,9.43,0,0,0,4.41-5.82,15.56,15.56,0,0,0,.43-4.9C74.45,9.84,74.38,9.26,74.32,8.63ZM96,44.64l0,.15c1.19.05,2.38.17,3.57.13a9.47,9.47,0,0,0,6.69-2.78,13.61,13.61,0,0,0,2.7-4c.37-.82.68-1.66,1-2.51l-.36-.11a17.15,17.15,0,0,0-5.34-.44,9.47,9.47,0,0,0-6.1,2.67,15.32,15.32,0,0,0-3.57,6,.94.94,0,0,0,0,.17,28.1,28.1,0,0,0,7.89-4.52A27.92,27.92,0,0,1,96,44.64ZM44.37,56.18a3,3,0,0,0,0-.46c-.14-1.31-.19-2.63-.44-3.92a9.54,9.54,0,0,0-3.26-5.69,12.85,12.85,0,0,0-5.53-2.55c-.8-.18-1.62-.29-2.47-.44,0,.24,0,.4,0,.55A17.41,17.41,0,0,0,33.08,48a10,10,0,0,0,3.28,5.7,13,13,0,0,0,5.21,2.46c.4.1.81.18,1.31.28a28,28,0,0,1-4.52-7.3A27.8,27.8,0,0,0,44.37,56.18ZM86.13,66.36l-.34,0a17,17,0,0,0-4.45.24,9.78,9.78,0,0,0-6.67,4.15,13.38,13.38,0,0,0-1.83,4.08c-.2.75-.36,1.51-.53,2.26l.1,0a28.12,28.12,0,0,0,7-5.76,28.16,28.16,0,0,1-5.63,6.29c.22,0,.34,0,.45,0,1.11-.13,2.24-.17,3.33-.4a9.4,9.4,0,0,0,6.19-4.08,14.84,14.84,0,0,0,2-4.74C85.89,67.74,86,67.06,86.13,66.36ZM77.3,53l.13,0a28.28,28.28,0,0,0,5.51-7.17,28.17,28.17,0,0,1-4,7.38,3.1,3.1,0,0,0,.37-.07c1.07-.38,2.17-.68,3.2-1.15a9.46,9.46,0,0,0,5.28-5.85,16.06,16.06,0,0,0,.66-5.93l-.06-.71c-.07,0-.11,0-.14,0l-.26,0a17.89,17.89,0,0,0-4.83,1.53,9.54,9.54,0,0,0-4.77,4.84,13.29,13.29,0,0,0-1,4.8C77.28,51.48,77.3,52.24,77.3,53ZM65.45,36.79v.09c1.07-.36,2.15-.67,3.19-1.1a9.62,9.62,0,0,0,5.84-6.38,16.32,16.32,0,0,0,.56-5.94,2.51,2.51,0,0,0,0-.27h-.29a17.73,17.73,0,0,0-4.88,1.46,9.62,9.62,0,0,0-4.92,4.85,13.73,13.73,0,0,0-1.08,4.93c0,.7,0,1.4,0,2.1l.13.08c.72-.74,1.47-1.45,2.13-2.23s1.27-1.61,1.86-2.45,1.1-1.71,1.65-2.58A24.24,24.24,0,0,1,68.46,32c-.43.84-.91,1.66-1.42,2.47S66,36,65.45,36.79ZM29.89,56.59c-.05.2-.08.3-.1.41a16.92,16.92,0,0,0-.16,5.5,9.48,9.48,0,0,0,2.2,5,12.94,12.94,0,0,0,5,3.36l1.15.43a28.88,28.88,0,0,1-3.39-8,27.94,27.94,0,0,0,4.89,7.9c0-.12.06-.16.07-.21a17.24,17.24,0,0,0,.15-4.81A9.73,9.73,0,0,0,37.5,61a12.33,12.33,0,0,0-4.78-3.35C31.8,57.23,30.85,56.93,29.89,56.59ZM21.17,35a17.45,17.45,0,0,0,1.68-4.54A9.59,9.59,0,0,0,22,23.58a15.32,15.32,0,0,0-5.43-5.42s-.05,0-.07,0l-.1,0c-.46,1.13-1,2.23-1.37,3.38a10.91,10.91,0,0,0-.45,6.12,11.15,11.15,0,0,0,3.51,5.58c.48.45,1,.86,1.52,1.3a32.43,32.43,0,0,1-.73-8.4c.26,1.46.48,3,.79,4.46A16.79,16.79,0,0,0,21.17,35Zm18-2.41a27.75,27.75,0,0,0,5.17,7.65,17.69,17.69,0,0,0,0-5,9.61,9.61,0,0,0-4.38-7,16.61,16.61,0,0,0-5.23-2.19c-.17,0-.35-.06-.54-.09A17.35,17.35,0,0,0,34,30.67,10.4,10.4,0,0,0,36,36a11.49,11.49,0,0,0,4.87,3.56c.61.25,1.24.46,1.86.69A31,31,0,0,1,39.16,32.56Zm-27.38,25,.1-.08A27.24,27.24,0,0,0,19,63.38a16.62,16.62,0,0,0-2-5.82,9.35,9.35,0,0,0-5.29-4.31A15.66,15.66,0,0,0,7,52.51c-.59,0-1.19,0-1.8.05a17.06,17.06,0,0,0,1.88,6,9.28,9.28,0,0,0,4.73,4.28,13.9,13.9,0,0,0,4.59,1c.35,0,.69,0,1,0-1-1-2-2-3-3S12.67,58.64,11.78,57.53Zm-9-30.24a16.64,16.64,0,0,0-.34,6.58,9.21,9.21,0,0,0,2.74,5.29,13.93,13.93,0,0,0,4,2.62c.34.16.69.3,1.09.46-.35-.69-.68-1.32-1-2S8.67,39,8.42,38.34s-.48-1.36-.69-2-.37-1.33-.55-2a29.1,29.1,0,0,0,4.62,8,16.32,16.32,0,0,0,.2-6.37,9,9,0,0,0-2.23-4.57A15.27,15.27,0,0,0,2.76,27.29ZM23,75.35a28.47,28.47,0,0,0,7.14,5.9,2.31,2.31,0,0,0,0-.27,17.94,17.94,0,0,0-1.23-4.2A9.66,9.66,0,0,0,22.42,71a16.61,16.61,0,0,0-4.81-.59l-1.2,0a1.59,1.59,0,0,0,0,.22,17.28,17.28,0,0,0,1.07,4.17,10.3,10.3,0,0,0,3.8,5,12.41,12.41,0,0,0,6.09,1.86c.41,0,.83,0,1.18,0-1-1-2-2-3-3A22.94,22.94,0,0,1,23,75.35ZM90.59,34c.49-.38,1-.74,1.48-1.12A13.42,13.42,0,0,0,94.81,30a9.1,9.1,0,0,0,1.56-5.5,16.41,16.41,0,0,0-1.74-6.62,3.6,3.6,0,0,0-.4.22c-.88.6-1.79,1.15-2.61,1.82A11,11,0,0,0,88,24.69a10.75,10.75,0,0,0-.09,6.59c.28,1,.67,2,1,3.07l.14,0a28.17,28.17,0,0,0,2.74-8.83c0,1-.05,1.92-.14,2.87A36.83,36.83,0,0,1,90.59,34ZM64.86,67.46c.25,0,.41,0,.56,0,1-.19,2-.32,2.9-.59a9.55,9.55,0,0,0,6-4.42,14.77,14.77,0,0,0,1.79-5.72c.06-.49.09-1,.14-1.49l-.35,0a17.08,17.08,0,0,0-4.61.68,9.92,9.92,0,0,0-5.36,3.5,12.75,12.75,0,0,0-2.2,5.29c-.14.77-.23,1.55-.36,2.42a12.2,12.2,0,0,0,2.54-1.9c.74-.69,1.46-1.43,2.15-2.19s1.3-1.53,1.95-2.3A28.32,28.32,0,0,1,64.86,67.46ZM39.33,12.13a1.83,1.83,0,0,0-.1.25,17,17,0,0,0-.92,5.23,9.62,9.62,0,0,0,1.48,5.53,13.57,13.57,0,0,0,5.38,4.5.35.35,0,0,0,.15,0,28.53,28.53,0,0,1-2.27-8.3,27.52,27.52,0,0,0,3.83,8.58,16.11,16.11,0,0,0,.8-6.35,8.88,8.88,0,0,0-1.1-3.69C44.93,15,42.29,13.41,39.33,12.13Zm3.2,76.09.09-.1a1.49,1.49,0,0,1,.14-1.56.29.29,0,0,0,0-.24,7.58,7.58,0,0,0-1.69-2.95,1.42,1.42,0,0,0-2,0A2.89,2.89,0,0,0,38,86ZM64.71,79c-.12.18-.24.34-.34.5a.92.92,0,0,0-.19.87.92.92,0,0,1-.49,1.12c-.38.19-.43.5-.53.91.19-.16.31-.28.44-.38.73-.59,1.44-1.2,2.19-1.77.38-.28.76-.52.75-1.08a1.44,1.44,0,0,1,.24-.56l.13-.23C66,79.35,65.67,79.43,64.71,79Z"/><path class="cls-1" d="M88.19,90.43h7V99.7h2.14V90.45h17v7h-9.25v2.22h9.3v17h-7v-9.25h-2.24v9.23H88.1v-7.06h9.27v-2.16H88.19Zm1.37,1.4v14.31h9.18V111H89.48v4.33h14.36v-9.23h5v9.26h4.33V101.08h-9.31v-5h9.26V91.84H98.74v9.26H93.87V91.83Z"/><path class="cls-1" d="M27.28,99.67v17H20.19v-9.26H18v9.24H.92v-7h9.26v-2.17H1v-17H8.05V99.7h2.13V90.45H27.23v7H18v2.21ZM2.28,111v4.33H16.61v-9.23h5v9.26h4.33V101.08h-9.3v-5h9.26V91.84H11.56v9.25H6.68V91.83H2.37v14.31h9.16V111Z"/><path class="cls-1" d="M79.86,119v22.14H35.54V119ZM38,121.5v17.21H77.38V121.5Z"/><path class="cls-1" d="M53.44,137.65v-7.71h-2.7v7.71H39.17v-15h36.9v15H63.34v-3.6H60.71v3.6Zm-.5-12.88H46.49v7.68h-3v-7.68H40.75v10.56H49v-7.27h3.91Zm5.3,10.58V124.78H55.42v10.57Zm7.25.78H68V124.78H65.49Zm4.44-11.37v7.41h2.72v-7.41Zm-9.23,0v7.39h2.59v-7.39Z"/></g></g></svg>