<svg xmlns="http://www.w3.org/2000/svg" viewBox="0 0 210.42 73.22"><defs><style>.cls-1{fill:#43b649;}.cls-2{fill:#128442;}</style></defs><g id="Layer_2" data-name="Layer 2"><g id="Layer_1-2" data-name="Layer 1"><path class="cls-1" d="M.06,64.65a4.16,4.16,0,0,1,0-.45c0-2.28-.08-4.56,0-6.84.09-2,.39-4,.63-6a42.27,42.27,0,0,1,.62-4.21c.64-2.83,1.3-5.65,2.13-8.42a37.2,37.2,0,0,1,2.23-5.57,58.69,58.69,0,0,1,3.31-6c1.5-2.33,3.19-4.54,4.76-6.83a2.88,2.88,0,0,0,.44-1.28c.17-1.43.32-2.87.39-4.3a2.52,2.52,0,0,1,1.24-2.11,13.52,13.52,0,0,1,4.74-1.39,6.46,6.46,0,0,0-1.27.67,2,2,0,0,0-.66,1c-.21.92,0,1.23.9,1.45q4.25,1,8.52,2c1.56.35,3.13.63,4.7.94v.2c-3.45,0-6.91,0-10.35,0a22.42,22.42,0,0,0-3.34.49,1.81,1.81,0,0,0-1.23.87c-1.56,2.38-3.22,4.69-4.7,7.11a50,50,0,0,0-4.24,8.58,28.93,28.93,0,0,0-2,8.18c-.4,5.83,1.65,10.5,6.64,13.75A26.55,26.55,0,0,0,22,59.8a56.78,56.78,0,0,0,5.65,1.06,79.24,79.24,0,0,0,12.13.57l.65,0,.05-.21-1.07-.4c-1.54-.53-3.09-1-4.61-1.6a10.59,10.59,0,0,1-5.05-4,3.7,3.7,0,0,1-.24-.43c1.28.95,2.44,1.9,3.7,2.72a17.1,17.1,0,0,0,11.59,2.66,51.12,51.12,0,0,0,8-1.67,19.49,19.49,0,0,0,5.44-2.15,27.28,27.28,0,0,0,7.1-6.19,3.77,3.77,0,0,0,.92-2.6,2,2,0,0,0-1.49-1.66c-.69-.14-1.17.15-1.59.93-.18.32-.4.61-.6.91l-.16-.1c.43-.67.82-1.37,1.31-2s1-.34,1.52-.19a4.69,4.69,0,0,0,1.15.23c.64,0,.88-.34.68-.93a5.26,5.26,0,0,0-3.23-3.28c-1.65-.67-3.33-1.21-5-1.82a1.82,1.82,0,0,0-1.79.17c-.91.67-1.83,1.32-2.7,2a13.62,13.62,0,0,1-4.56,2.3,26.57,26.57,0,0,1-8,1.35,23.15,23.15,0,0,1-4.57-.68,10.81,10.81,0,0,0-4.46,0,8.26,8.26,0,0,1-6.4-.9,8.45,8.45,0,0,0-3.18-1c-.37-.07-.74-.12-1.1-.21a1.32,1.32,0,0,1-.35-.23c.09-.12.16-.3.28-.35.77-.31,1.54-.61,2.33-.88.53-.18,1.09-.29,1.62-.48a.51.51,0,0,0,.29-.41.53.53,0,0,0-.36-.35,3.56,3.56,0,0,0-1.3,0c-1.43.4-2.82.9-4.24,1.32a14.52,14.52,0,0,1-4.27.89.71.71,0,0,1-.79-.54,18.5,18.5,0,0,0-.64-1.76,4.09,4.09,0,0,1,0-3.29A18.09,18.09,0,0,0,16,29.81a3.45,3.45,0,0,1,.22-1.15c.66-1.62,1.31-3.25,2.06-4.83A9.26,9.26,0,0,1,19.62,22a.53.53,0,0,1,.47-.19.56.56,0,0,1,.21.45c-.07.64-.2,1.28-.27,1.92a4.12,4.12,0,0,0,2.19,4.56,4.58,4.58,0,0,0,3.86.06,25.12,25.12,0,0,0,7-4,2.53,2.53,0,0,0,1.13-2,3,3,0,0,1,1.15-2.15l1.14-1.07a1.36,1.36,0,0,0,.06-2.29A2.26,2.26,0,0,0,36.3,17a25.29,25.29,0,0,1-4-3.69c-.59-.56-.52-1.11.23-1.35a4.89,4.89,0,0,1,4.56.41A4.67,4.67,0,0,1,38.27,14c.3.52.44,1.13.71,1.67a2,2,0,0,0,1.64,1.29c1.34,0,2.68.08,4,0a4.68,4.68,0,0,0,2.79-1.56,7.39,7.39,0,0,0,1.33-1.57,4.77,4.77,0,0,0,.63-1.67,2.72,2.72,0,0,1,2.41-2.29,5.5,5.5,0,0,1,3.58.4,42.4,42.4,0,0,1,11.74,8.13,44.83,44.83,0,0,1,7.72,10.22,51.3,51.3,0,0,1,4.45,10.33c.88,2.93,1.63,5.91,2.38,8.88.31,1.25.48,2.54.7,3.81a2.3,2.3,0,0,1-.64,2C80.76,54.72,80,56,79,57A39,39,0,0,1,74.28,61a43.49,43.49,0,0,1-5.09,2.95,12.7,12.7,0,0,1-2.88,1c-2.37.57-4.74,1.17-7.14,1.52a40.45,40.45,0,0,1-9.07.23c-1.79-.14-3.58-.27-5.36-.53-2.18-.32-4.35-.73-6.51-1.19-2.57-.55-5.12-1.2-7.68-1.79-2.72-.62-5.45-1.25-8.18-1.83a42.28,42.28,0,0,0-8.31-1,24.75,24.75,0,0,0-9.35,1.78,14.09,14.09,0,0,0-1.79.75C2,63.39,1,64,.06,64.65ZM36.73,29.12a2.5,2.5,0,0,0-2.17.73.65.65,0,0,0-.06.6,2.9,2.9,0,0,0,3.36-.17,1.43,1.43,0,0,0,.19-.92c0-.1-.41-.19-.63-.23A3.72,3.72,0,0,0,36.73,29.12ZM21.18,37.78c-.15-.08-.21-.13-.26-.13l-2.73.15a1.06,1.06,0,0,0-.31.05c-.59.19-.71.69-.24,1.08a1.28,1.28,0,0,0,.74.27,3.62,3.62,0,0,0,2.38-.79A2,2,0,0,0,21.18,37.78Z"/><path class="cls-2" d="M1.3,69.12a17.47,17.47,0,0,1,5.6-2.69,25.78,25.78,0,0,1,9.24-.93,41.72,41.72,0,0,1,6,.8c3.72.78,7.39,1.75,11.1,2.54,2.83.61,5.69,1.1,8.55,1.61a65.32,65.32,0,0,0,12.41,1,44.2,44.2,0,0,0,8-.83,31.42,31.42,0,0,0,15.38-7.53c1.18-1.06,2.22-2.27,3.32-3.41a3,3,0,0,1,.67-.6c-.12.22-.24.45-.38.66a28.85,28.85,0,0,1-6.86,7.66,23.62,23.62,0,0,1-6.8,3.42,44.86,44.86,0,0,1-10.95,2.23,45.22,45.22,0,0,1-9-.17c-2.4-.29-4.81-.55-7.18-1-3.36-.66-6.67-1.51-10-2.26-3.9-.88-7.8-1.8-11.73-2.6a26.84,26.84,0,0,0-8.85-.43,28.43,28.43,0,0,0-7.39,2.07C2.07,68.83,1.69,69,1.3,69.12Z"/><path class="cls-2" d="M1.21,65.46c1-.53,2-1.12,3.11-1.58A24.74,24.74,0,0,1,14.45,62a50.77,50.77,0,0,1,11.44,1.63c3.51.85,7,1.68,10.56,2.41,2.55.52,5.12,1,7.7,1.29a95.79,95.79,0,0,0,9.56.69,39,39,0,0,0,12-1.68A32.1,32.1,0,0,0,78.88,58.5c.91-.9,1.93-1.69,2.91-2.53l-.16-.18a17.24,17.24,0,0,1-1.28,2c-1.28,1.52-2.56,3-3.95,4.45a21.42,21.42,0,0,1-8.18,5,46.11,46.11,0,0,1-18.49,2.49A75.43,75.43,0,0,1,38.33,68c-3.91-.84-7.78-1.89-11.68-2.79-2.54-.59-5.09-1.14-7.66-1.58a45.15,45.15,0,0,0-5.9-.67,22.21,22.21,0,0,0-8.3,1.34c-1.17.43-2.33.88-3.49,1.32Z"/><path class="cls-1" d="M31.78,15.82c-1.57-.31-3.14-.59-4.7-1-1.3-.29-2.58-.67-3.87-1a2.92,2.92,0,0,1-.63-.27c-.87-.5-.94-1-.16-1.63a28.08,28.08,0,0,1,2.52-1.85,42.86,42.86,0,0,1,7-3.82,24.49,24.49,0,0,1,7.17-1.87,23.54,23.54,0,0,1,3.74-.18,19.12,19.12,0,0,1,9.11,2.82c-.19,0-.38-.09-.55-.15a27.58,27.58,0,0,0-10.2-1.69A24.32,24.32,0,0,0,30.42,7.76a19.7,19.7,0,0,0-5.5,4.18c-.37.4-.36.7.1,1a29.2,29.2,0,0,0,2.68,1.35c1.34.55,2.73,1,4.1,1.49Z"/><path class="cls-1" d="M37.94,2.87a8.38,8.38,0,0,1,0-1.75,1.19,1.19,0,0,1,.7-.77A7.28,7.28,0,0,1,41.07,0a16.54,16.54,0,0,1,5,1,16.2,16.2,0,0,1,6.22,4.5,2.18,2.18,0,0,1,.16.41A25.29,25.29,0,0,0,37.94,2.87Z"/><path class="cls-1" d="M38.67,49.18c-.81.29-1.64.6-2.47.88-1.85.62-3.59.44-4.72-.92a1.36,1.36,0,0,1,.29-2.22,10.41,10.41,0,0,0,1.09,1.69,2.92,2.92,0,0,0,3.41.6c.78-.3,1.55-.7,2.36-.08C38.67,49.16,38.7,49.21,38.67,49.18Z"/><path class="cls-1" d="M45.2,48.92a.9.9,0,0,1,1.21-.19c.05,0,0,.3,0,.34C46,49.34,45.63,49.18,45.2,48.92Z"/><path class="cls-1" d="M95.41,21.64H98a1.64,1.64,0,0,0,.82,1.24,3.37,3.37,0,0,0,1.86.46,2.9,2.9,0,0,0,1.71-.46,1.38,1.38,0,0,0,.67-1.18,1.18,1.18,0,0,0-.52-1,4.32,4.32,0,0,0-1.69-.63l-1.67-.36c-2.32-.48-3.47-1.7-3.47-3.65A3.56,3.56,0,0,1,97,13.17a5.47,5.47,0,0,1,3.56-1.1,5.41,5.41,0,0,1,3.47,1.08,3.53,3.53,0,0,1,1.42,2.78H103a1.72,1.72,0,0,0-.75-1.22,3.09,3.09,0,0,0-3.23,0,1.35,1.35,0,0,0-.61,1.16,1.15,1.15,0,0,0,.49,1,4.43,4.43,0,0,0,1.62.6l1.55.33a5.58,5.58,0,0,1,2.8,1.28,3.15,3.15,0,0,1,.87,2.35,3.71,3.71,0,0,1-1.38,3.05,7,7,0,0,1-7.47.07A3.57,3.57,0,0,1,95.41,21.64Z"/><path class="cls-1" d="M109.18,25.35a3.29,3.29,0,0,1-2.31-.81A2.73,2.73,0,0,1,106,22.4a2.48,2.48,0,0,1,1-2.08,5,5,0,0,1,2.8-.86l2.37-.14v-.8a1.13,1.13,0,0,0-.43-.95,2,2,0,0,0-1.22-.33c-1,0-1.55.3-1.76.91h-2.38A2.78,2.78,0,0,1,107.62,16a5.19,5.19,0,0,1,3-.8,4.57,4.57,0,0,1,3,.87,3,3,0,0,1,1.06,2.45v6.67h-2.5V23.92H112a2.56,2.56,0,0,1-1.13,1A3.76,3.76,0,0,1,109.18,25.35Zm.85-2a2.32,2.32,0,0,0,1.5-.5,1.59,1.59,0,0,0,.6-1.25v-.72l-2,.12c-1.1.08-1.65.47-1.65,1.18a1,1,0,0,0,.42.86A1.8,1.8,0,0,0,110,23.4Z"/><path class="cls-1" d="M115.85,25.19V15.41h2.5V17h.16a2.79,2.79,0,0,1,1.08-1.31,3.36,3.36,0,0,1,1.81-.47,3.15,3.15,0,0,1,2.48,1,3.92,3.92,0,0,1,.86,2.71v6.32h-2.58V19.48c0-1.37-.6-2.05-1.8-2.05A1.77,1.77,0,0,0,119,18a2.22,2.22,0,0,0-.52,1.55v5.63Z"/><path class="cls-1" d="M128.48,15.41V25.5a2.86,2.86,0,0,1-.88,2.26,4.91,4.91,0,0,1-3.27.73v-2h.33a1.42,1.42,0,0,0,1-.25,1.1,1.1,0,0,0,.29-.85v-10Zm-1.29-1.36a1.65,1.65,0,0,1-1.11-.36,1.29,1.29,0,0,1,0-1.89,1.89,1.89,0,0,1,2.22,0,1.19,1.19,0,0,1,.42.95,1.18,1.18,0,0,1-.43.94A1.62,1.62,0,0,1,127.19,14.05Z"/><path class="cls-1" d="M132.4,25.35a3.29,3.29,0,0,1-2.31-.81,2.76,2.76,0,0,1-.89-2.14,2.48,2.48,0,0,1,1-2.08,5,5,0,0,1,2.8-.86l2.37-.14v-.8a1.15,1.15,0,0,0-.42-.95,2,2,0,0,0-1.23-.33c-1,0-1.54.3-1.76.91h-2.38A2.78,2.78,0,0,1,130.84,16a5.19,5.19,0,0,1,3-.8,4.62,4.62,0,0,1,3,.87,3,3,0,0,1,1.06,2.45v6.67h-2.5V23.92h-.16a2.64,2.64,0,0,1-1.14,1A3.76,3.76,0,0,1,132.4,25.35Zm.85-2a2.28,2.28,0,0,0,1.5-.5,1.59,1.59,0,0,0,.6-1.25v-.72l-2,.12c-1.1.08-1.64.47-1.64,1.18a1,1,0,0,0,.42.86A1.79,1.79,0,0,0,133.25,23.4Z"/><path class="cls-1" d="M140,28.75a8.74,8.74,0,0,1-1,0V26.65a5.36,5.36,0,0,0,.59,0,2.2,2.2,0,0,0,1.15-.26,1.32,1.32,0,0,0,.58-.8l.09-.35L138,15.41h2.84l2.06,7.42h.16l2.06-7.42h2.73l-3.37,9.94A5.37,5.37,0,0,1,142.86,28,4.61,4.61,0,0,1,140,28.75Z"/><path class="cls-1" d="M163.1,20A5.41,5.41,0,0,1,161.58,24a5.7,5.7,0,0,1-4.15,1.49,5.8,5.8,0,0,1-4.5-1.8,7.06,7.06,0,0,1-1.64-4.94,7,7,0,0,1,1.64-4.9,5.74,5.74,0,0,1,4.44-1.81,5.92,5.92,0,0,1,3.8,1.21,4.78,4.78,0,0,1,1.82,3.2h-2.66A2.79,2.79,0,0,0,159.26,15a3.24,3.24,0,0,0-1.89-.54,2.9,2.9,0,0,0-2.44,1.16,5,5,0,0,0-.9,3.17A5.06,5.06,0,0,0,155,22a3,3,0,0,0,2.51,1.18,3.17,3.17,0,0,0,2.15-.71,2.44,2.44,0,0,0,.88-1.87v-.23h-2.78v-2h5.37Z"/><path class="cls-1" d="M166.64,25.35a3.29,3.29,0,0,1-2.31-.81,2.74,2.74,0,0,1-.9-2.14,2.5,2.5,0,0,1,1-2.08,5.06,5.06,0,0,1,2.81-.86l2.37-.14v-.8a1.13,1.13,0,0,0-.43-.95,2,2,0,0,0-1.22-.33c-1,0-1.55.3-1.77.91H163.8A2.78,2.78,0,0,1,165.08,16a5.19,5.19,0,0,1,3-.8,4.57,4.57,0,0,1,3,.87,3,3,0,0,1,1.06,2.45v6.67h-2.5V23.92h-.16a2.56,2.56,0,0,1-1.13,1A3.76,3.76,0,0,1,166.64,25.35Zm.85-2a2.27,2.27,0,0,0,1.49-.5,1.57,1.57,0,0,0,.61-1.25v-.72l-2,.12c-1.1.08-1.65.47-1.65,1.18a1,1,0,0,0,.42.86A1.8,1.8,0,0,0,167.49,23.4Z"/><path class="cls-1" d="M173.31,25.19V15.41h2.5V17H176a2.79,2.79,0,0,1,1.08-1.31,3.36,3.36,0,0,1,1.81-.47,3.15,3.15,0,0,1,2.48,1,3.92,3.92,0,0,1,.86,2.71v6.32h-2.58V19.48c0-1.37-.6-2.05-1.8-2.05a1.77,1.77,0,0,0-1.41.58,2.22,2.22,0,0,0-.52,1.55v5.63Z"/><path class="cls-1" d="M186.84,25.35A3.51,3.51,0,0,1,183.93,24a5.86,5.86,0,0,1-1.07-3.7,5.8,5.8,0,0,1,1.07-3.68,3.51,3.51,0,0,1,2.91-1.35,3.41,3.41,0,0,1,1.76.45A2.91,2.91,0,0,1,189.76,17h.15v-5.3h2.58V25.19H190V23.66h-.16a2.88,2.88,0,0,1-1.18,1.24A3.6,3.6,0,0,1,186.84,25.35Zm2.5-7.16a2,2,0,0,0-1.62-.77,1.9,1.9,0,0,0-1.62.77,3.39,3.39,0,0,0-.59,2.11,3.42,3.42,0,0,0,.59,2.12,2.09,2.09,0,0,0,3.24,0,3.33,3.33,0,0,0,.59-2.11A3.4,3.4,0,0,0,189.34,18.19Z"/><path class="cls-1" d="M193.89,25.19V11.68h2.54V17h.16a2.76,2.76,0,0,1,1.11-1.32,3.47,3.47,0,0,1,1.84-.47,3.19,3.19,0,0,1,2.47,1,3.83,3.83,0,0,1,.88,2.71v6.29h-2.58V19.51a2.24,2.24,0,0,0-.46-1.53,1.69,1.69,0,0,0-1.34-.53A1.94,1.94,0,0,0,197,18a2.16,2.16,0,0,0-.54,1.54v5.61Z"/><path class="cls-1" d="M205.34,14.05a1.65,1.65,0,0,1-1.11-.36,1.29,1.29,0,0,1,0-1.89,1.89,1.89,0,0,1,2.22,0,1.19,1.19,0,0,1,.42.95,1.18,1.18,0,0,1-.43.94A1.62,1.62,0,0,1,205.34,14.05Zm-1.29,11.14V15.41h2.58v9.78Z"/><path class="cls-1" d="M101.73,43.87H96V31.08h5.59a4.48,4.48,0,0,1,2.91.85,2.83,2.83,0,0,1,1.06,2.34,2.66,2.66,0,0,1-.67,1.8,2.61,2.61,0,0,1-1.65.93v.16a3.17,3.17,0,0,1,2.1,1,2.91,2.91,0,0,1,.83,2.09A3.31,3.31,0,0,1,105,42.89,5,5,0,0,1,101.73,43.87ZM98.67,33.13v3.25h2a2.81,2.81,0,0,0,1.66-.42,1.43,1.43,0,0,0,.57-1.2,1.47,1.47,0,0,0-.52-1.2,2.3,2.3,0,0,0-1.49-.43Zm0,8.7h2.38a2.83,2.83,0,0,0,1.77-.48,1.64,1.64,0,0,0,.61-1.37,1.54,1.54,0,0,0-.63-1.33,3,3,0,0,0-1.81-.46H98.67Z"/><path class="cls-1" d="M108.27,32.73a1.65,1.65,0,0,1-1.11-.36,1.29,1.29,0,0,1,0-1.89,1.89,1.89,0,0,1,2.22,0,1.27,1.27,0,0,1,0,1.89A1.65,1.65,0,0,1,108.27,32.73ZM107,43.87V34.09h2.58v9.78Z"/><path class="cls-1" d="M118.67,42.73a5.27,5.27,0,0,1-7.07,0A5.25,5.25,0,0,1,110.32,39a5.23,5.23,0,0,1,1.29-3.74,5.25,5.25,0,0,1,7,0A5.23,5.23,0,0,1,120,39,5.2,5.2,0,0,1,118.67,42.73ZM115.14,42a1.83,1.83,0,0,0,1.59-.79A3.7,3.7,0,0,0,117.3,39a3.71,3.71,0,0,0-.57-2.2,2,2,0,0,0-3.19,0A3.71,3.71,0,0,0,113,39a3.7,3.7,0,0,0,.56,2.21A1.84,1.84,0,0,0,115.14,42Z"/><path class="cls-1" d="M120.78,43.87V30.36h2.58V43.87Z"/><path class="cls-1" d="M132.55,42.73a5.27,5.27,0,0,1-7.07,0A5.2,5.2,0,0,1,124.2,39a5.23,5.23,0,0,1,1.29-3.74,5.25,5.25,0,0,1,7,0A5.23,5.23,0,0,1,133.83,39,5.25,5.25,0,0,1,132.55,42.73ZM129,42a1.85,1.85,0,0,0,1.6-.79,3.7,3.7,0,0,0,.57-2.21,3.71,3.71,0,0,0-.58-2.2,2,2,0,0,0-3.18,0,3.71,3.71,0,0,0-.57,2.2,3.78,3.78,0,0,0,.56,2.21A1.85,1.85,0,0,0,129,42Z"/><path class="cls-1" d="M138.87,47.58a5.73,5.73,0,0,1-3.14-.78,2.71,2.71,0,0,1-1.33-2.08H137a1.05,1.05,0,0,0,.62.71,3,3,0,0,0,1.36.27,2.49,2.49,0,0,0,1.61-.46,1.52,1.52,0,0,0,.58-1.28V42.15H141a3,3,0,0,1-3,1.58,3.52,3.52,0,0,1-2.89-1.31,5.39,5.39,0,0,1-1.06-3.52,5.6,5.6,0,0,1,1.08-3.62,3.53,3.53,0,0,1,2.93-1.35,3.45,3.45,0,0,1,1.78.47A2.89,2.89,0,0,1,141,35.66h.16V34.09h2.5v9.75a3.27,3.27,0,0,1-1.31,2.73A5.62,5.62,0,0,1,138.87,47.58Zm1.68-6.64a3.17,3.17,0,0,0,.59-2,3.27,3.27,0,0,0-.59-2,2,2,0,0,0-1.64-.75,1.94,1.94,0,0,0-1.62.75,3.9,3.9,0,0,0,0,4.09,1.91,1.91,0,0,0,1.62.75A2,2,0,0,0,140.55,40.94Z"/><path class="cls-1" d="M146.24,32.73a1.65,1.65,0,0,1-1.11-.36,1.27,1.27,0,0,1,0-1.89,1.89,1.89,0,0,1,2.22,0,1.22,1.22,0,0,1,.41.95,1.2,1.2,0,0,1-.42.94A1.64,1.64,0,0,1,146.24,32.73Zm-1.3,11.14V34.09h2.58v9.78Z"/><path class="cls-1" d="M157.42,37.54H155a1.87,1.87,0,0,0-.63-1.13,2.05,2.05,0,0,0-1.31-.41,1.89,1.89,0,0,0-1.61.76,3.63,3.63,0,0,0-.57,2.2,3.73,3.73,0,0,0,.57,2.23,1.86,1.86,0,0,0,1.61.78,2.13,2.13,0,0,0,1.3-.38,1.8,1.8,0,0,0,.64-1.1h2.41a3.78,3.78,0,0,1-1.31,2.63,5.3,5.3,0,0,1-6.58-.37A5.34,5.34,0,0,1,148.29,39a5.28,5.28,0,0,1,1.24-3.76,4.63,4.63,0,0,1,3.54-1.32,4.49,4.49,0,0,1,3.05,1A3.84,3.84,0,0,1,157.42,37.54Z"/><path class="cls-1" d="M160.75,44a3.28,3.28,0,0,1-2.31-.8,2.76,2.76,0,0,1-.89-2.14,2.48,2.48,0,0,1,1-2.08,5,5,0,0,1,2.8-.86L163.7,38v-.8a1.14,1.14,0,0,0-.42-1,2,2,0,0,0-1.23-.33c-1,0-1.54.3-1.76.91h-2.38a2.78,2.78,0,0,1,1.28-2.15,5.19,5.19,0,0,1,3-.8,4.62,4.62,0,0,1,3,.87,3,3,0,0,1,1.06,2.45v6.67h-2.5V42.6h-.16a2.64,2.64,0,0,1-1.14,1A3.76,3.76,0,0,1,160.75,44Zm.85-1.94a2.28,2.28,0,0,0,1.5-.5,1.59,1.59,0,0,0,.6-1.25v-.72l-2,.12c-1.1.08-1.65.47-1.65,1.18a1,1,0,0,0,.43.86A1.77,1.77,0,0,0,161.6,42.08Z"/><path class="cls-1" d="M167.51,43.87V30.36h2.58V43.87Z"/><path class="cls-1" d="M175,31.08h5.34a4.35,4.35,0,0,1,3.2,1.22,4.3,4.3,0,0,1,1.23,3.2,4.2,4.2,0,0,1-1.27,3.19,4.55,4.55,0,0,1-3.3,1.21h-2.52v4H175Zm2.68,2.2v4.45h1.94a2.58,2.58,0,0,0,1.79-.57,2.08,2.08,0,0,0,.64-1.65,2.11,2.11,0,0,0-.63-1.65,2.54,2.54,0,0,0-1.79-.58Z"/><path class="cls-1" d="M187.92,44a3.28,3.28,0,0,1-2.31-.8,2.76,2.76,0,0,1-.89-2.14,2.5,2.5,0,0,1,1-2.08,5,5,0,0,1,2.81-.86l2.36-.14v-.8a1.14,1.14,0,0,0-.42-1,2,2,0,0,0-1.23-.33c-.95,0-1.54.3-1.76.91h-2.38a2.81,2.81,0,0,1,1.28-2.15,5.23,5.23,0,0,1,3-.8,4.62,4.62,0,0,1,3,.87,3,3,0,0,1,1.06,2.45v6.67h-2.5V42.6h-.16a2.64,2.64,0,0,1-1.14,1A3.76,3.76,0,0,1,187.92,44Zm.85-1.94a2.28,2.28,0,0,0,1.5-.5,1.59,1.59,0,0,0,.6-1.25v-.72l-2,.12c-1.09.08-1.64.47-1.64,1.18a1,1,0,0,0,.42.86A1.79,1.79,0,0,0,188.77,42.08Z"/><path class="cls-1" d="M194.59,43.87V34.09h2.5v1.57h.16a2.18,2.18,0,0,1,.89-1.24,2.79,2.79,0,0,1,1.62-.49,3.21,3.21,0,0,1,1,.13v2.35a3.45,3.45,0,0,0-1.22-.16,2.5,2.5,0,0,0-1.73.59,2.11,2.11,0,0,0-.65,1.62v5.41Z"/><path class="cls-1" d="M204,37.92l3.27-3.83h2.93l-3.72,4.2,4,5.58h-3.06l-2.85-4-.71.73v3.24h-2.58V30.36h2.58v7.56Z"/><path class="cls-2" d="M104,56.88a3.85,3.85,0,0,1-1.07,2.86,4,4,0,0,1-2.92,1,4.08,4.08,0,0,1-3.16-1.27,5.74,5.74,0,0,1,0-6.92,4,4,0,0,1,3.12-1.27,4.22,4.22,0,0,1,2.67.84,3.36,3.36,0,0,1,1.28,2.26H102a1.91,1.91,0,0,0-.76-1.07A2.26,2.26,0,0,0,99.92,53a2.07,2.07,0,0,0-1.72.82A3.54,3.54,0,0,0,97.57,56a3.62,3.62,0,0,0,.65,2.27,2.15,2.15,0,0,0,1.77.83,2.25,2.25,0,0,0,1.51-.5,1.73,1.73,0,0,0,.62-1.32v-.16h-2V55.73H104Z"/><path class="cls-2" d="M110.15,59.75a3.7,3.7,0,0,1-5,0,4.31,4.31,0,0,1,0-5.27,3.71,3.71,0,0,1,5,0,4.29,4.29,0,0,1,0,5.27Zm-2.49-.53a1.31,1.31,0,0,0,1.13-.55,2.68,2.68,0,0,0,.39-1.56,2.56,2.56,0,0,0-.4-1.54,1.4,1.4,0,0,0-2.24,0,2.56,2.56,0,0,0-.4,1.54,2.61,2.61,0,0,0,.4,1.56A1.29,1.29,0,0,0,107.66,59.22Z"/><path class="cls-2" d="M110.7,53.68h2l1.42,5.12h.11l1.41-5.12h1.92l-2.38,6.88h-2Z"/><path class="cls-2" d="M121.94,58.6h1.69a2.36,2.36,0,0,1-1,1.54,3.66,3.66,0,0,1-2.1.57,3.22,3.22,0,0,1-2.45-.94,3.68,3.68,0,0,1-.88-2.62,3.79,3.79,0,0,1,.89-2.65,3.52,3.52,0,0,1,4.79-.06,3.63,3.63,0,0,1,.85,2.56v.56H119v.09a1.73,1.73,0,0,0,.44,1.21,1.48,1.48,0,0,0,1.13.45,1.87,1.87,0,0,0,.9-.19A1,1,0,0,0,121.94,58.6Zm-1.47-3.68a1.43,1.43,0,0,0-1,.4A1.62,1.62,0,0,0,119,56.4h2.93a1.61,1.61,0,0,0-.42-1.09A1.35,1.35,0,0,0,120.47,54.92Z"/><path class="cls-2" d="M124.22,60.56V53.68H126v1.09h.11a1.54,1.54,0,0,1,.62-.86,2,2,0,0,1,1.14-.35,2.15,2.15,0,0,1,.71.09V55.3a2.59,2.59,0,0,0-.86-.11,1.73,1.73,0,0,0-1.21.42,1.45,1.45,0,0,0-.46,1.13v3.82Z"/><path class="cls-2" d="M128.88,60.56V53.68h1.76v1.1h.11a2,2,0,0,1,.76-.92,2.33,2.33,0,0,1,1.27-.33,2.24,2.24,0,0,1,1.75.67,2.75,2.75,0,0,1,.6,1.91v4.45h-1.81v-4c0-1-.42-1.45-1.27-1.45a1.26,1.26,0,0,0-1,.41,1.55,1.55,0,0,0-.37,1.09v4Z"/><path class="cls-2" d="M135.93,60.56V53.68h1.76V54.8h.11a1.87,1.87,0,0,1,.72-.93,2.3,2.3,0,0,1,2.39,0,1.81,1.81,0,0,1,.7.94h.11a2,2,0,0,1,.8-.93,2.34,2.34,0,0,1,1.27-.34,2.17,2.17,0,0,1,1.63.62,2.33,2.33,0,0,1,.6,1.68v4.73H144.2V56.31c0-.81-.38-1.22-1.14-1.22a1.16,1.16,0,0,0-.88.35,1.27,1.27,0,0,0-.33.91v4.21H140.1V56.24a1.18,1.18,0,0,0-.3-.85,1.25,1.25,0,0,0-1.71.08,1.33,1.33,0,0,0-.34.94v4.15Z"/><path class="cls-2" d="M151.27,58.6H153a2.41,2.41,0,0,1-1.05,1.54,3.66,3.66,0,0,1-2.1.57,3.23,3.23,0,0,1-2.45-.94,3.72,3.72,0,0,1-.88-2.62,3.79,3.79,0,0,1,.89-2.65,3.52,3.52,0,0,1,4.79-.06A3.63,3.63,0,0,1,153,57v.56h-4.72v.09a1.73,1.73,0,0,0,.44,1.21,1.48,1.48,0,0,0,1.13.45,1.87,1.87,0,0,0,.9-.19A1,1,0,0,0,151.27,58.6Zm-1.48-3.68a1.39,1.39,0,0,0-1,.4,1.58,1.58,0,0,0-.46,1.08h2.93a1.61,1.61,0,0,0-.42-1.09A1.35,1.35,0,0,0,149.79,54.92Z"/><path class="cls-2" d="M153.54,60.56V53.68h1.76v1.1h.11a2,2,0,0,1,.76-.92,2.33,2.33,0,0,1,1.27-.33,2.24,2.24,0,0,1,1.75.67,2.75,2.75,0,0,1,.6,1.91v4.45H158v-4c0-1-.42-1.45-1.27-1.45a1.26,1.26,0,0,0-1,.41,1.55,1.55,0,0,0-.37,1.09v4Z"/><path class="cls-2" d="M161.11,52h1.82v1.71h1.42v1.42h-1.42v3.1a.9.9,0,0,0,.21.66,1,1,0,0,0,.68.21l.53,0V60.5a5.05,5.05,0,0,1-.91.08,2.88,2.88,0,0,1-1.79-.44,1.75,1.75,0,0,1-.54-1.44V55.17H160V53.75h1.07Z"/><path class="cls-2" d="M172.78,59.75a3.7,3.7,0,0,1-5,0,3.64,3.64,0,0,1-.91-2.64,3.7,3.7,0,0,1,.91-2.63,3.71,3.71,0,0,1,5,0,4.29,4.29,0,0,1,0,5.27Zm-2.49-.53a1.29,1.29,0,0,0,1.12-.55,2.61,2.61,0,0,0,.4-1.56,2.56,2.56,0,0,0-.4-1.54,1.4,1.4,0,0,0-2.24,0,2.56,2.56,0,0,0-.4,1.54,2.61,2.61,0,0,0,.4,1.56A1.28,1.28,0,0,0,170.29,59.22Z"/><path class="cls-2" d="M174.73,60.56V55.17h-1.11V53.75h1.11v-.68a1.77,1.77,0,0,1,.6-1.49,3,3,0,0,1,1.84-.47,4.88,4.88,0,0,1,.85.07v1.3a3.25,3.25,0,0,0-.59,0,1,1,0,0,0-.7.2.76.76,0,0,0-.23.61v.51H178v1.42h-1.42v5.39Z"/><path class="cls-2" d="M185,60.56h-4v-9h3.93a3.19,3.19,0,0,1,2,.6,2,2,0,0,1,.74,1.64,1.87,1.87,0,0,1-.47,1.27,1.84,1.84,0,0,1-1.16.65v.11a2.21,2.21,0,0,1,1.48.68,2,2,0,0,1,.58,1.47,2.33,2.33,0,0,1-.83,1.88A3.49,3.49,0,0,1,185,60.56ZM182.85,53v2.29h1.42a1.93,1.93,0,0,0,1.16-.3,1,1,0,0,0,.41-.85,1,1,0,0,0-.37-.84,1.64,1.64,0,0,0-1.05-.3Zm0,6.12h1.68a2,2,0,0,0,1.24-.34,1.13,1.13,0,0,0,.43-1,1.1,1.1,0,0,0-.44-.94,2.09,2.09,0,0,0-1.27-.32h-1.64Z"/><path class="cls-2" d="M189.61,52.72a1.13,1.13,0,0,1-.78-.26.82.82,0,0,1-.29-.66.8.8,0,0,1,.29-.66,1.13,1.13,0,0,1,.78-.26,1.17,1.17,0,0,1,.78.26.83.83,0,0,1,.29.66.85.85,0,0,1-.29.66A1.17,1.17,0,0,1,189.61,52.72Zm-.91,7.84V53.68h1.81v6.88Z"/><path class="cls-2" d="M191.45,60.56V51.05h1.78v3.76h.12a1.88,1.88,0,0,1,.78-.93,2.43,2.43,0,0,1,1.29-.33,2.23,2.23,0,0,1,1.74.67,2.73,2.73,0,0,1,.62,1.91v4.43H196v-4a1.55,1.55,0,0,0-.33-1.08,1.16,1.16,0,0,0-.94-.37,1.36,1.36,0,0,0-1,.41,1.49,1.49,0,0,0-.38,1.09v4Z"/><path class="cls-2" d="M200.47,60.66a2.33,2.33,0,0,1-1.63-.57,1.91,1.91,0,0,1-.63-1.5,1.74,1.74,0,0,1,.69-1.46,3.5,3.5,0,0,1,2-.61l1.66-.1v-.56a.77.77,0,0,0-.3-.66,1.34,1.34,0,0,0-.86-.24c-.67,0-1.09.21-1.24.64h-1.67a2,2,0,0,1,.9-1.51,3.6,3.6,0,0,1,2.11-.56,3.24,3.24,0,0,1,2.11.61,2.12,2.12,0,0,1,.74,1.72v4.7h-1.76v-.9h-.11a1.86,1.86,0,0,1-.8.74A2.7,2.7,0,0,1,200.47,60.66Zm.59-1.36a1.58,1.58,0,0,0,1.06-.36,1.11,1.11,0,0,0,.42-.88v-.5l-1.39.08c-.77.06-1.16.33-1.16.83a.69.69,0,0,0,.3.6A1.22,1.22,0,0,0,201.06,59.3Z"/><path class="cls-2" d="M205.16,60.56V53.68h1.76v1.09H207a1.54,1.54,0,0,1,.62-.86,2,2,0,0,1,1.14-.35,2.15,2.15,0,0,1,.71.09V55.3a2.59,2.59,0,0,0-.86-.11,1.73,1.73,0,0,0-1.21.42,1.45,1.45,0,0,0-.46,1.13v3.82Z"/></g></g></svg>