<svg xmlns="http://www.w3.org/2000/svg" viewBox="0 0 106.89 114.36"><defs><style>.cls-1{fill:#128442;}.cls-2{fill:#43b649;}</style></defs><g id="Layer_2" data-name="Layer 2"><g id="Layer_1-2" data-name="Layer 1"><path class="cls-1" d="M1.69,89.5A22.57,22.57,0,0,1,8.93,86a33.64,33.64,0,0,1,12-1.21,54.88,54.88,0,0,1,7.78,1c4.81,1,9.57,2.26,14.37,3.3,3.67.79,7.37,1.42,11.07,2.08a85.62,85.62,0,0,0,16.06,1.32,56.72,56.72,0,0,0,10.4-1.08,40.79,40.79,0,0,0,19.92-9.75c1.52-1.38,2.87-2.94,4.3-4.42a3.84,3.84,0,0,1,.87-.77c-.17.29-.32.58-.5.86a37.57,37.57,0,0,1-8.89,9.92,30.9,30.9,0,0,1-8.79,4.42A57.72,57.72,0,0,1,73.31,94.6a58.23,58.23,0,0,1-11.66-.21c-3.11-.39-6.24-.71-9.31-1.32-4.34-.86-8.63-2-13-2.94C34.33,89,29.28,87.81,24.2,86.78a34.2,34.2,0,0,0-11.46-.56A36.76,36.76,0,0,0,3.17,88.9C2.68,89.11,2.18,89.3,1.69,89.5Z" transform="translate(0 0)"/><path class="cls-1" d="M1.57,84.75c1.33-.68,2.64-1.44,4-2a32,32,0,0,1,13.12-2.46,65.5,65.5,0,0,1,14.81,2.11c4.54,1.1,9.09,2.17,13.67,3.11,3.3.69,6.63,1.3,10,1.67a119.24,119.24,0,0,0,12.37.9,51.18,51.18,0,0,0,15.53-2.17,41.6,41.6,0,0,0,17.06-10.13c1.18-1.16,2.5-2.18,3.76-3.27l-.2-.23A25.49,25.49,0,0,1,104,74.76c-1.66,2-3.31,3.94-5.11,5.76a27.65,27.65,0,0,1-10.59,6.42,59.44,59.44,0,0,1-24,3.22,97.57,97.57,0,0,1-14.75-2.1C44.56,87,39.56,85.6,34.5,84.44c-3.28-.76-6.59-1.47-9.91-2A58,58,0,0,0,17,81.53,28.81,28.81,0,0,0,6.2,83.27c-1.51.55-3,1.13-4.52,1.7Z" transform="translate(0 0)"/><path class="cls-2" d="M.07,83.7c0-.11,0-.34,0-.58,0-3-.11-5.91,0-8.85.13-2.61.51-5.21.82-7.81A54.62,54.62,0,0,1,1.7,61c.83-3.66,1.67-7.32,2.75-10.91a48.65,48.65,0,0,1,2.89-7.21,77.28,77.28,0,0,1,4.29-7.71c1.94-3,4.13-5.89,6.16-8.85a3.7,3.7,0,0,0,.57-1.66c.22-1.85.41-3.71.51-5.57a3.21,3.21,0,0,1,1.61-2.72,17.35,17.35,0,0,1,6.13-1.8,9,9,0,0,0-1.65.86,2.56,2.56,0,0,0-.85,1.3c-.28,1.19,0,1.6,1.16,1.88q5.51,1.32,11,2.54c2,.45,4.06.81,6.09,1.21v.27c-4.46,0-8.93-.06-13.4,0a27.68,27.68,0,0,0-4.31.64,2.31,2.31,0,0,0-1.6,1.12c-2,3.08-4.16,6.07-6.08,9.21a64.73,64.73,0,0,0-5.49,11.1A37.4,37.4,0,0,0,9,55.34c-.52,7.54,2.13,13.59,8.59,17.8a34,34,0,0,0,11,4.28,69.69,69.69,0,0,0,7.31,1.37,101.76,101.76,0,0,0,15.71.74c.28,0,.56,0,.84-.06l.06-.27L51,78.68c-2-.69-4-1.32-6-2.07a13.71,13.71,0,0,1-6.54-5.22,6.07,6.07,0,0,1-.31-.56c1.65,1.23,3.16,2.46,4.78,3.53A22.16,22.16,0,0,0,58,77.8a66.91,66.91,0,0,0,10.38-2.16,25.19,25.19,0,0,0,7-2.79,35.37,35.37,0,0,0,9.19-8,4.85,4.85,0,0,0,1.19-3.36,2.63,2.63,0,0,0-1.93-2.15c-.89-.19-1.51.19-2.06,1.19a13.43,13.43,0,0,1-.77,1.19l-.21-.14c.56-.86,1.06-1.77,1.7-2.57.51-.62,1.27-.44,2-.25a6.48,6.48,0,0,0,1.49.31c.83,0,1.14-.44.88-1.21a6.83,6.83,0,0,0-4.19-4.25c-2.13-.86-4.31-1.57-6.47-2.36a2.35,2.35,0,0,0-2.32.23c-1.17.86-2.36,1.7-3.49,2.62a17.8,17.8,0,0,1-5.9,3,34.53,34.53,0,0,1-10.35,1.76,29.93,29.93,0,0,1-5.91-.88,14.07,14.07,0,0,0-5.78,0,10.72,10.72,0,0,1-8.29-1.16,10.55,10.55,0,0,0-4.11-1.35c-.48-.09-1-.16-1.44-.28a1.53,1.53,0,0,1-.44-.29c.11-.16.2-.39.36-.46,1-.4,2-.78,3-1.13.68-.24,1.4-.38,2.09-.62a.68.68,0,0,0,.38-.53.64.64,0,0,0-.47-.46,4.33,4.33,0,0,0-1.68,0c-1.85.51-3.66,1.16-5.49,1.7a18.69,18.69,0,0,1-5.53,1.16.93.93,0,0,1-1-.7c-.25-.77-.51-1.54-.83-2.28a5.25,5.25,0,0,1,.06-4.27,23.49,23.49,0,0,0,1.65-8.61A4.43,4.43,0,0,1,21,37.11c.85-2.1,1.69-4.21,2.66-6.26a12.35,12.35,0,0,1,1.72-2.34.7.7,0,0,1,.61-.25.71.71,0,0,1,.27.59c-.09.83-.25,1.65-.35,2.48-.3,2.51.38,4.58,2.84,5.9a5.89,5.89,0,0,0,5,.09,32.91,32.91,0,0,0,9.11-5.22,3.27,3.27,0,0,0,1.46-2.6,3.93,3.93,0,0,1,1.49-2.78l1.48-1.39c1.1-1,1.13-1.9.07-3a2.64,2.64,0,0,0-.37-.31c-2-1.25-3.45-3.17-5.15-4.79-.76-.73-.68-1.44.29-1.75,2-.63,4.09-.79,5.91.53a6.4,6.4,0,0,1,1.5,2.05c.38.68.57,1.46.92,2.16a2.51,2.51,0,0,0,2.13,1.67c1.72.07,3.46.11,5.19,0,1.49-.07,2.56-1.09,3.61-2a9.85,9.85,0,0,0,1.72-2,6.17,6.17,0,0,0,.81-2.15,3.55,3.55,0,0,1,3.12-3,7.19,7.19,0,0,1,4.64.53A55.11,55.11,0,0,1,86.9,23.81,58.09,58.09,0,0,1,96.88,37a66.74,66.74,0,0,1,5.77,13.37c1.13,3.81,2.11,7.65,3.07,11.5.41,1.62.63,3.29.91,4.94a2.92,2.92,0,0,1-.83,2.57c-1.24,1.43-2.22,3.11-3.56,4.42a49.8,49.8,0,0,1-6.06,5.09,56,56,0,0,1-6.6,3.81,16.23,16.23,0,0,1-3.72,1.35c-3.07.74-6.14,1.52-9.25,2a52.45,52.45,0,0,1-11.75.31c-2.31-.19-4.63-.36-6.93-.7-2.82-.42-5.64-1-8.43-1.54-3.33-.71-6.63-1.55-9.94-2.31C36,81,32.5,80.2,29,79.45a54,54,0,0,0-10.75-1.37A32.19,32.19,0,0,0,6.1,80.39a18.29,18.29,0,0,0-2.32,1C2.53,82.08,1.33,82.9.07,83.7Zm47.49-46a3.23,3.23,0,0,0-2.81.95.8.8,0,0,0-.08.77c.88.88,3.59.76,4.35-.22A1.81,1.81,0,0,0,49.26,38c0-.13-.52-.25-.82-.31A4.88,4.88,0,0,0,47.56,37.7ZM27.43,48.91c-.21-.1-.28-.17-.35-.16l-3.53.19a1.76,1.76,0,0,0-.4.07c-.76.24-.92.89-.31,1.39a1.74,1.74,0,0,0,.95.36,4.75,4.75,0,0,0,3.08-1A2.87,2.87,0,0,0,27.43,48.91Z" transform="translate(0 0)"/><path class="cls-2" d="M41.15,20.49c-2-.41-4.07-.78-6.09-1.23-1.68-.39-3.34-.87-5-1.32a4.17,4.17,0,0,1-.81-.36c-1.13-.65-1.23-1.27-.21-2.11a36.45,36.45,0,0,1,3.26-2.4,55.24,55.24,0,0,1,9-4.93A31.41,31.41,0,0,1,50.6,5.71a30.37,30.37,0,0,1,4.85-.24A24.74,24.74,0,0,1,67.23,9.12c-.24-.06-.48-.11-.71-.19a35.69,35.69,0,0,0-13.2-2.18,31.42,31.42,0,0,0-13.93,3.3,25.3,25.3,0,0,0-7.13,5.41c-.47.52-.46.9.13,1.22,1.15.61,2.27,1.27,3.47,1.76,1.74.71,3.54,1.29,5.31,1.93Z" transform="translate(0 0)"/><path class="cls-2" d="M49.13,3.71a11.11,11.11,0,0,1,0-2.25,1.52,1.52,0,0,1,.91-1A9.4,9.4,0,0,1,53.17,0a20.93,20.93,0,0,1,6.48,1.3A20.93,20.93,0,0,1,67.7,7.14a2.59,2.59,0,0,1,.21.54A32.8,32.8,0,0,0,49.13,3.71Z" transform="translate(0 0)"/><path class="cls-2" d="M50.07,63.67c-1,.38-2.12.78-3.2,1.14-2.4.81-4.64.57-6.11-1.19a1.75,1.75,0,0,1,.37-2.87,14,14,0,0,0,1.42,2.19,3.75,3.75,0,0,0,4.41.77c1-.39,2-.9,3.06-.1C50.07,63.65,50.11,63.72,50.07,63.67Z" transform="translate(0 0)"/><path class="cls-2" d="M58.52,63.33a1.19,1.19,0,0,1,1.57-.24.49.49,0,0,1,0,.45C59.54,63.88,59.07,63.68,58.52,63.33Z" transform="translate(0 0)"/><path class="cls-1" d="M.45,103.63H1.64a.78.78,0,0,0,.38.58,1.59,1.59,0,0,0,.86.21,1.33,1.33,0,0,0,.78-.21.63.63,0,0,0,.31-.55.55.55,0,0,0-.24-.46,2.16,2.16,0,0,0-.78-.29l-.76-.16c-1.07-.22-1.61-.78-1.61-1.68a1.65,1.65,0,0,1,.62-1.34,2.49,2.49,0,0,1,1.64-.51,2.51,2.51,0,0,1,1.6.5A1.61,1.61,0,0,1,5.09,101H3.93a.78.78,0,0,0-.34-.56,1.27,1.27,0,0,0-.74-.21,1.23,1.23,0,0,0-.75.2.61.61,0,0,0-.28.53.53.53,0,0,0,.23.44,2,2,0,0,0,.74.28l.71.15a2.58,2.58,0,0,1,1.3.59,1.46,1.46,0,0,1,.4,1.09,1.69,1.69,0,0,1-.64,1.4,2.72,2.72,0,0,1-1.75.51,2.73,2.73,0,0,1-1.69-.48A1.62,1.62,0,0,1,.45,103.63Z" transform="translate(0 0)"/><path class="cls-1" d="M6.79,105.34A1.51,1.51,0,0,1,5.73,105a1.25,1.25,0,0,1-.41-1,1.14,1.14,0,0,1,.45-1,2.22,2.22,0,0,1,1.29-.4l1.09-.07v-.36a.52.52,0,0,0-.19-.44.92.92,0,0,0-.57-.15c-.44,0-.71.14-.81.41H5.48a1.32,1.32,0,0,1,.6-1,2.4,2.4,0,0,1,1.38-.36,2.12,2.12,0,0,1,1.38.4,1.38,1.38,0,0,1,.49,1.13v3.07H8.17v-.59H8.1a1.23,1.23,0,0,1-.52.49A1.83,1.83,0,0,1,6.79,105.34Zm.39-.89a1,1,0,0,0,.7-.24.71.71,0,0,0,.27-.57v-.33l-.91,0c-.5,0-.76.22-.76.55a.46.46,0,0,0,.2.39A.78.78,0,0,0,7.18,104.45Z" transform="translate(0 0)"/><path class="cls-1" d="M9.87,105.27v-4.5H11v.72h.07a1.37,1.37,0,0,1,.5-.61,1.59,1.59,0,0,1,.84-.21,1.44,1.44,0,0,1,1.14.44,1.82,1.82,0,0,1,.4,1.25v2.91H12.78v-2.63c0-.63-.28-1-.83-1a.8.8,0,0,0-.65.27,1,1,0,0,0-.24.71v2.6Z" transform="translate(0 0)"/><path class="cls-1" d="M15.69,100.77v4.64a1.33,1.33,0,0,1-.41,1,1.78,1.78,0,0,1-1.19.35l-.31,0v-.91h.15a.66.66,0,0,0,.44-.12.5.5,0,0,0,.13-.39v-4.61Zm-.59-.63a.77.77,0,0,1-.52-.17.57.57,0,0,1-.19-.43.58.58,0,0,1,.19-.44.77.77,0,0,1,.52-.17.77.77,0,0,1,.51.17.58.58,0,0,1,.19.44.55.55,0,0,1-.2.43A.74.74,0,0,1,15.1,100.14Z" transform="translate(0 0)"/><path class="cls-1" d="M17.5,105.34a1.53,1.53,0,0,1-1.07-.37,1.28,1.28,0,0,1-.41-1,1.14,1.14,0,0,1,.45-1,2.23,2.23,0,0,1,1.3-.4l1.09-.07v-.36a.53.53,0,0,0-.2-.44.91.91,0,0,0-.56-.15c-.44,0-.72.14-.82.41H16.19a1.31,1.31,0,0,1,.59-1,2.42,2.42,0,0,1,1.38-.36,2.08,2.08,0,0,1,1.38.4A1.35,1.35,0,0,1,20,102.2v3.07H18.88v-.59H18.8a1.18,1.18,0,0,1-.52.49A1.79,1.79,0,0,1,17.5,105.34Zm.39-.89a1,1,0,0,0,.69-.24.72.72,0,0,0,.28-.57v-.33l-.91,0c-.51,0-.76.22-.76.55a.45.45,0,0,0,.19.39A.81.81,0,0,0,17.89,104.45Z" transform="translate(0 0)"/><path class="cls-1" d="M21,106.91h-.46v-1h.27a1,1,0,0,0,.54-.12.61.61,0,0,0,.26-.37l0-.16-1.58-4.53h1.31l.95,3.41h.07l.95-3.41h1.26l-1.55,4.57a2.41,2.41,0,0,1-.75,1.22A2.17,2.17,0,0,1,21,106.91Z" transform="translate(0 0)"/><path class="cls-1" d="M31.65,102.87a2.54,2.54,0,0,1-.7,1.87,3,3,0,0,1-4-.15,3.8,3.8,0,0,1,0-4.53A2.63,2.63,0,0,1,29,99.22a2.76,2.76,0,0,1,1.75.56,2.21,2.21,0,0,1,.84,1.48H30.37a1.28,1.28,0,0,0-.49-.7,1.46,1.46,0,0,0-.87-.25,1.35,1.35,0,0,0-1.13.53,2.4,2.4,0,0,0-.41,1.47,2.31,2.31,0,0,0,.43,1.48,1.37,1.37,0,0,0,1.15.55,1.44,1.44,0,0,0,1-.33,1.16,1.16,0,0,0,.41-.86V103H29.17v-.93h2.48Z" transform="translate(0 0)"/><path class="cls-1" d="M33.28,105.34a1.53,1.53,0,0,1-1.07-.37,1.28,1.28,0,0,1-.41-1,1.14,1.14,0,0,1,.45-1,2.25,2.25,0,0,1,1.3-.4l1.09-.07v-.36a.53.53,0,0,0-.2-.44.91.91,0,0,0-.56-.15c-.44,0-.71.14-.82.41H32a1.31,1.31,0,0,1,.59-1,2.44,2.44,0,0,1,1.38-.36,2.08,2.08,0,0,1,1.38.4,1.35,1.35,0,0,1,.49,1.13v3.07H34.66v-.59h-.08a1.18,1.18,0,0,1-.52.49A1.79,1.79,0,0,1,33.28,105.34Zm.39-.89a1,1,0,0,0,.69-.24.69.69,0,0,0,.28-.57v-.33l-.91,0c-.51,0-.76.22-.76.55a.45.45,0,0,0,.19.39A.81.81,0,0,0,33.67,104.45Z" transform="translate(0 0)"/><path class="cls-1" d="M36.35,105.27v-4.5H37.5v.72h.08a1.25,1.25,0,0,1,.5-.61,1.55,1.55,0,0,1,.83-.21,1.42,1.42,0,0,1,1.14.44,1.77,1.77,0,0,1,.4,1.25v2.91H39.26v-2.63c0-.63-.27-1-.83-1a.83.83,0,0,0-.65.27,1,1,0,0,0-.24.71v2.6Z" transform="translate(0 0)"/><path class="cls-1" d="M42.59,105.34a1.62,1.62,0,0,1-1.34-.62,3.16,3.16,0,0,1,0-3.41,1.62,1.62,0,0,1,1.34-.62,1.55,1.55,0,0,1,.81.21,1.29,1.29,0,0,1,.53.58H44V99h1.19v6.23H44v-.7H44a1.31,1.31,0,0,1-.55.57A1.73,1.73,0,0,1,42.59,105.34Zm1.15-3.29a.88.88,0,0,0-.75-.36.9.9,0,0,0-.74.35,1.58,1.58,0,0,0-.27,1,1.61,1.61,0,0,0,.27,1,1,1,0,0,0,1.49,0,1.84,1.84,0,0,0,0-2Z" transform="translate(0 0)"/><path class="cls-1" d="M45.84,105.27V99H47v2.46h.07a1.27,1.27,0,0,1,.52-.6,1.5,1.5,0,0,1,.84-.22,1.48,1.48,0,0,1,1.14.44,1.78,1.78,0,0,1,.41,1.25v2.9H48.8v-2.62a1,1,0,0,0-.21-.7.8.8,0,0,0-.62-.25.89.89,0,0,0-.69.27,1,1,0,0,0-.25.72v2.58Z" transform="translate(0 0)"/><path class="cls-1" d="M51.12,100.14a.75.75,0,0,1-.51-.17.55.55,0,0,1-.2-.43.56.56,0,0,1,.2-.44.75.75,0,0,1,.51-.17.77.77,0,0,1,.51.17.55.55,0,0,1,.19.44.54.54,0,0,1-.19.43A.77.77,0,0,1,51.12,100.14Zm-.6,5.13v-4.5h1.19v4.5Z" transform="translate(0 0)"/><path class="cls-1" d="M56.58,105.27H53.93V99.38h2.58a2.08,2.08,0,0,1,1.34.39,1.29,1.29,0,0,1,.49,1.08,1.29,1.29,0,0,1-1.07,1.26v.07a1.49,1.49,0,0,1,1,.44,1.35,1.35,0,0,1,.38,1,1.53,1.53,0,0,1-.55,1.24A2.27,2.27,0,0,1,56.58,105.27Zm-1.41-5v1.5h.92a1.29,1.29,0,0,0,.77-.2.63.63,0,0,0,.26-.55.66.66,0,0,0-.24-.55,1.06,1.06,0,0,0-.68-.2Zm0,4h1.1a1.28,1.28,0,0,0,.81-.22.75.75,0,0,0,.28-.63.7.7,0,0,0-.29-.62,1.39,1.39,0,0,0-.83-.21H55.17Z" transform="translate(0 0)"/><path class="cls-1" d="M59.59,100.14a.77.77,0,0,1-.51-.17.57.57,0,0,1-.19-.43.58.58,0,0,1,.19-.44.77.77,0,0,1,.51-.17.77.77,0,0,1,.52.17.58.58,0,0,1,.19.44.55.55,0,0,1-.2.43A.77.77,0,0,1,59.59,100.14ZM59,105.27v-4.5h1.19v4.5Z" transform="translate(0 0)"/><path class="cls-1" d="M64.39,104.75a2.45,2.45,0,0,1-3.26,0,2.83,2.83,0,0,1,0-3.46,2.17,2.17,0,0,1,1.63-.62,2.13,2.13,0,0,1,1.62.62A2.41,2.41,0,0,1,65,103,2.45,2.45,0,0,1,64.39,104.75Zm-1.63-.35a.85.85,0,0,0,.73-.36,1.67,1.67,0,0,0,.27-1,1.69,1.69,0,0,0-.27-1,.85.85,0,0,0-.73-.36A.87.87,0,0,0,62,102a1.77,1.77,0,0,0-.26,1,1.75,1.75,0,0,0,.26,1A.85.85,0,0,0,62.76,104.4Z" transform="translate(0 0)"/><path class="cls-1" d="M65.36,105.27V99h1.19v6.23Z" transform="translate(0 0)"/><path class="cls-1" d="M70.78,104.75a2.44,2.44,0,0,1-3.25,0,2.79,2.79,0,0,1,0-3.46,2.44,2.44,0,0,1,3.25,0,2.45,2.45,0,0,1,.59,1.73A2.41,2.41,0,0,1,70.78,104.75Zm-1.63-.35a.85.85,0,0,0,.74-.36,1.75,1.75,0,0,0,.26-1,1.77,1.77,0,0,0-.26-1,.87.87,0,0,0-.74-.36.85.85,0,0,0-.73.36,1.69,1.69,0,0,0-.26,1,1.67,1.67,0,0,0,.26,1A.84.84,0,0,0,69.15,104.4Z" transform="translate(0 0)"/><path class="cls-1" d="M73.7,107a2.64,2.64,0,0,1-1.45-.36,1.23,1.23,0,0,1-.61-1h1.17a.49.49,0,0,0,.29.33,1.4,1.4,0,0,0,.62.12,1.19,1.19,0,0,0,.75-.21.72.72,0,0,0,.26-.59v-.83h-.07a1.42,1.42,0,0,1-1.36.73A1.61,1.61,0,0,1,72,104.6a2.47,2.47,0,0,1-.49-1.62,2.6,2.6,0,0,1,.5-1.67,1.64,1.64,0,0,1,1.35-.62,1.61,1.61,0,0,1,.82.21,1.42,1.42,0,0,1,.55.59h.07v-.72h1.15v4.49a1.5,1.5,0,0,1-.6,1.25A2.52,2.52,0,0,1,73.7,107Zm.77-3.06a1.72,1.72,0,0,0,0-1.88,1,1,0,0,0-1.5,0,1.51,1.51,0,0,0-.27,1,1.48,1.48,0,0,0,.27.94.89.89,0,0,0,.75.35A.9.9,0,0,0,74.47,103.92Z" transform="translate(0 0)"/><path class="cls-1" d="M77.09,100.14a.77.77,0,0,1-.51-.17.54.54,0,0,1-.19-.43.55.55,0,0,1,.19-.44.77.77,0,0,1,.51-.17.73.73,0,0,1,.51.17.56.56,0,0,1,.2.44.55.55,0,0,1-.2.43A.77.77,0,0,1,77.09,100.14Zm-.59,5.13v-4.5h1.19v4.5Z" transform="translate(0 0)"/><path class="cls-1" d="M82.25,102.35H81.14a.83.83,0,0,0-.3-.52.94.94,0,0,0-.6-.19.85.85,0,0,0-.74.36,1.69,1.69,0,0,0-.26,1,1.76,1.76,0,0,0,.26,1,.87.87,0,0,0,.74.35.93.93,0,0,0,.6-.17.88.88,0,0,0,.3-.51h1.11a1.72,1.72,0,0,1-.61,1.21,2.08,2.08,0,0,1-1.4.45,2.13,2.13,0,0,1-1.63-.61A2.49,2.49,0,0,1,78,103a2.42,2.42,0,0,1,.57-1.73,2.12,2.12,0,0,1,1.63-.61,2.09,2.09,0,0,1,1.41.45A1.77,1.77,0,0,1,82.25,102.35Z" transform="translate(0 0)"/><path class="cls-1" d="M83.78,105.34a1.51,1.51,0,0,1-1.06-.37,1.25,1.25,0,0,1-.41-1,1.14,1.14,0,0,1,.45-1,2.22,2.22,0,0,1,1.29-.4l1.09-.07v-.36a.52.52,0,0,0-.19-.44.92.92,0,0,0-.57-.15c-.44,0-.71.14-.81.41h-1.1a1.32,1.32,0,0,1,.6-1,2.4,2.4,0,0,1,1.38-.36,2.12,2.12,0,0,1,1.38.4,1.38,1.38,0,0,1,.49,1.13v3.07H85.16v-.59h-.07a1.23,1.23,0,0,1-.52.49A1.83,1.83,0,0,1,83.78,105.34Zm.39-.89a1,1,0,0,0,.69-.24.69.69,0,0,0,.28-.57v-.33l-.91,0c-.51,0-.76.22-.76.55a.46.46,0,0,0,.2.39A.76.76,0,0,0,84.17,104.45Z" transform="translate(0 0)"/><path class="cls-1" d="M86.9,105.27V99h1.19v6.23Z" transform="translate(0 0)"/><path class="cls-1" d="M90.34,99.38H92.8a2,2,0,0,1,1.48.56,2,2,0,0,1,.57,1.47,1.94,1.94,0,0,1-.59,1.47,2.08,2.08,0,0,1-1.52.56H91.58v1.83H90.34Zm1.24,1v2h.89a1.23,1.23,0,0,0,.83-.26,1,1,0,0,0,.29-.76,1,1,0,0,0-.29-.77,1.2,1.2,0,0,0-.82-.26Z" transform="translate(0 0)"/><path class="cls-1" d="M96.31,105.34a1.53,1.53,0,0,1-1.07-.37,1.28,1.28,0,0,1-.41-1,1.14,1.14,0,0,1,.45-1,2.23,2.23,0,0,1,1.3-.4l1.09-.07v-.36a.53.53,0,0,0-.2-.44.91.91,0,0,0-.56-.15c-.44,0-.72.14-.82.41H95a1.31,1.31,0,0,1,.59-1,2.42,2.42,0,0,1,1.38-.36,2.08,2.08,0,0,1,1.38.4,1.35,1.35,0,0,1,.49,1.13v3.07H97.69v-.59h-.08a1.18,1.18,0,0,1-.52.49A1.79,1.79,0,0,1,96.31,105.34Zm.39-.89a1,1,0,0,0,.69-.24.72.72,0,0,0,.28-.57v-.33l-.91,0c-.51,0-.76.22-.76.55a.45.45,0,0,0,.19.39A.81.81,0,0,0,96.7,104.45Z" transform="translate(0 0)"/><path class="cls-1" d="M99.38,105.27v-4.5h1.15v.71h.08a1,1,0,0,1,.41-.56,1.25,1.25,0,0,1,.74-.23,1.41,1.41,0,0,1,.47.06v1.08a1.62,1.62,0,0,0-.56-.07,1.16,1.16,0,0,0-.8.27,1,1,0,0,0-.3.75v2.49Z" transform="translate(0 0)"/><path class="cls-1" d="M103.7,102.53l1.51-1.76h1.35l-1.72,1.93,1.84,2.57h-1.41L104,103.44l-.33.34v1.49h-1.18V99h1.18v3.49Z" transform="translate(0 0)"/><path class="cls-1" d="M46.23,114.21v-4.7h-.08l-1.44,1v-1.15l1.52-1h1.23v5.9Z" transform="translate(0 0)"/><path class="cls-1" d="M50.63,114.36a2.28,2.28,0,0,1-1.44-.46,1.8,1.8,0,0,1-.72-1.19h1.22a.79.79,0,0,0,.34.46,1,1,0,0,0,.6.18,1.07,1.07,0,0,0,.95-.55,2.61,2.61,0,0,0,.33-1.46h-.07a1.49,1.49,0,0,1-.6.64,1.81,1.81,0,0,1-.91.23,1.88,1.88,0,0,1-1.94-1.95,2,2,0,0,1,.63-1.51,2.53,2.53,0,0,1,2.76-.32,2,2,0,0,1,.81.79,4.3,4.3,0,0,1-.16,4.3A2.15,2.15,0,0,1,50.63,114.36Zm-.74-3.4a1,1,0,0,0,.76.3,1.08,1.08,0,0,0,.77-.29,1,1,0,0,0,.31-.74,1,1,0,0,0-1.07-1.06,1,1,0,0,0-.76.3,1.06,1.06,0,0,0,0,1.49Z" transform="translate(0 0)"/><path class="cls-1" d="M53.66,114.21l2.52-4.81v-.08h-3v-1h4.22v1L55,114.21Z" transform="translate(0 0)"/><path class="cls-1" d="M57.77,110.08a1.78,1.78,0,0,1,.6-1.39,2.24,2.24,0,0,1,1.55-.53,2.27,2.27,0,0,1,1.5.48,1.53,1.53,0,0,1,.59,1.24,1.73,1.73,0,0,1-.31,1A6.63,6.63,0,0,1,60.64,112l-1.13,1.08v.07h2.58v1H57.84v-.86l1.92-1.89a6.17,6.17,0,0,0,.83-.91,1,1,0,0,0,.21-.59.74.74,0,0,0-.26-.58,1,1,0,0,0-.66-.23,1,1,0,0,0-.7.26.87.87,0,0,0-.27.66v0H57.77Z" transform="translate(0 0)"/><rect class="cls-1" x="0.45" y="111.44" width="41.92" height="0.56"/><rect class="cls-1" x="64.98" y="111.44" width="41.92" height="0.56"/></g></g></svg>