<?xml version="1.0" encoding="utf-8"?>
<!-- Generator: Adobe Illustrator 26.0.1, SVG Export Plug-In . SVG Version: 6.00 Build 0)  -->
<svg version="1.1" id="Layer_1" xmlns="http://www.w3.org/2000/svg" xmlns:xlink="http://www.w3.org/1999/xlink" x="0px" y="0px"
	 viewBox="0 0 114.4 145.7" style="enable-background:new 0 0 114.4 145.7;" xml:space="preserve">
<style type="text/css">
	.st0{fill:#D71F26;}
</style>
<g id="Layer_2_00000123441822601067843110000008011494660757360539_">
	<g id="Layer_1-2">
		<path class="st0" d="M1.9,25.8c1.5,0.3,2.9,0.7,4.2,1.4c1.7,0.7,3.2,1.8,4.5,3.1c1.6,1.7,2.6,3.9,2.8,6.2c0.2,2.4,0,4.7-0.6,7
			c0,0.1,0,0.3,0,0.4c0.1,0.2,0.2,0.5,0.3,0.8c0.3,1.3,1.1,2.3,2.3,2.9c0.9,0.5,1.8,0.8,2.6,1.3c1.8,0.9,3.4,2.2,4.7,3.8
			c0.4,0.5,0.8,0.9,1.2,1.4c0.7,0.8,1.7,1.4,2.7,1.7c0.3,0.1,0.7,0.2,1,0.4c0.3,0.2,0.6,0.4,0.9,0.6c0.1-0.3,0.2-0.7,0.3-1.1
			c0-0.1-0.1-0.2-0.1-0.3C26.6,53.3,25,50.8,24,48c-0.2-0.5-0.3-1-0.4-1.4c-0.2-0.7-0.5-1.4-0.9-2c-1.2-1.8-2-3.8-2.4-5.8
			c-0.2-0.7-0.2-1.4,0-2.1c-0.9-0.6-1.7-1.2-2.5-1.9c-1.8-1.4-3.1-3.1-4.1-5.2c-0.9-2.2-1-4.7-0.4-7c0.5-2.1,1.4-4.1,2.6-5.9
			c0-0.1,0.1-0.1,0.1-0.1l0.5,0.3c2.1,1.1,3.9,2.7,5.4,4.5c2.1,2.6,2.9,6,2.1,9.3c-0.5,2.1-1.3,4.1-2.4,5.9
			c-0.1,0.3-0.2,0.5-0.2,0.8c0,1.6,0.3,3.1,1,4.5c0.3,0.7,0.6,1.3,1,1.9c0.5,0.8,0.9,1.6,1.1,2.5c0.6,2.2,1.6,4.2,3,6
			c0.5,0.6,1.2,1.2,1.7,1.8s1,1,1.5,1.5c0.1,0.1,0.3,0.2,0.5,0.3c2.1,0.6,4,1.6,5.7,3c2.1,1.7,3.4,4.2,3.7,6.8
			c0.3,2.2,0.2,4.4-0.3,6.5c-0.1,0.2,0,0.4,0.2,0.5c0.2,0.2,0.4,0.4,0.7,0.6c1.9,2.1,4.1,3.9,6.4,5.4c1.1,0.7,2.2,1.4,3.3,2.2
			c0-0.2,0-0.3,0-0.4c0.1-3.5,0.1-7,0.2-10.5c0-1.8,0.2-3.7,0.5-5.5c0-0.1-0.1-0.3-0.2-0.3c-1.8-1.6-3.6-3.1-5.4-4.7
			c-0.5-0.4-0.9-0.9-1.4-1.3c-0.1-0.1-0.3-0.2-0.5-0.2c-2.5-0.1-5-0.8-7.2-1.9c-2.9-1.5-4.9-4.3-5.5-7.5c-0.5-2.1-0.6-4.3-0.3-6.5
			l0.1-0.2c0.7,0.1,1.5,0.1,2.2,0.2c2.1,0.2,4,0.8,5.9,1.8c2.9,1.5,4.9,4.3,5.5,7.5c0.4,1.8,0.5,3.7,0.4,5.5c0,0.2,0.1,0.5,0.3,0.6
			c1.5,1.2,3,2.5,4.5,3.8c0.6,0.5,1.2,1,1.9,1.6l0.5-2.2c0.3-1.6,0.7-3.2,1.1-4.8c0.1-0.3,0-0.6-0.1-0.9c-0.2-0.6-0.3-1.3-0.5-1.9
			c-0.9-2.7-2.6-5.2-4.9-7c-0.4-0.3-0.7-0.7-1.1-1s-0.7-0.4-1-0.6c-0.3-0.2-0.6-0.5-0.8-0.8c-0.3-0.3-0.6-0.7-0.8-1.1
			c-0.3-0.6-0.8-0.6-1.3-0.7c-2.3-0.5-4.4-1.5-6.3-2.8c-2.3-1.7-3.9-4.3-4.2-7.1c-0.4-2.3-0.3-4.7,0.3-7c0-0.1,0.1-0.2,0.1-0.3
			c1.3,0.1,2.5,0.4,3.7,0.8c1.5,0.5,2.9,1.2,4.2,2.1c2.4,1.7,4,4.3,4.4,7.2c0.4,2.3,0.3,4.7-0.3,7c-0.1,0.2,0,0.4,0.2,0.5
			c0.3,0.2,0.5,0.6,0.8,0.8c0.2,0.2,0.5,0.3,0.7,0.4c0.4,0.1,0.7,0.3,1,0.6c0.5,0.5,1,1,1.5,1.4c2.2,1.8,3.8,4.2,4.8,6.8
			c0,0.1,0.1,0.3,0.2,0.5c0.1-0.2,0.1-0.3,0.1-0.4c0.5-2,1-3.9,1.5-5.9c0-0.1,0-0.2,0-0.2c-0.9-3.5-2.2-6.9-3.8-10.2
			c-1.2-2.2-2.8-4.1-4.7-5.7c-0.3-0.3-0.7-0.5-1.1-0.6c-2.3-0.8-4.3-2-6.1-3.6c-2.4-2.1-3.6-5.2-3.5-8.4c0.1-2.3,0.6-4.6,1.5-6.7
			l0.1-0.2l0.1-0.1c1.1,0.3,2.2,0.8,3.3,1.3c2,1,3.8,2.4,5.2,4.2c1.4,2,2.1,4.4,2,6.8c-0.1,2-0.5,4-1.2,5.9l-0.1,0.2
			c2.6,1.9,4.7,4.4,6.1,7.3c0.6,1.2,1.2,2.6,1.7,3.9l0.1,0.3h0.1c0-0.8,0.1-1.5,0.1-2.3c-0.3-3.6-0.6-7.2-0.8-10.8
			C55.1,26.8,55,26,55,25.3c0-0.1-0.1-0.2-0.2-0.3c-2-2.4-3.5-5.2-4.3-8.3c-0.9-3.6-0.5-7.4,1.1-10.7c0.9-2.1,2.2-4,3.7-5.7L55.6,0
			c0.2,0.2,0.4,0.5,0.6,0.7c2.4,2.7,4,6,4.7,9.6c0.5,2.9,0.2,5.9-1,8.7c-0.8,2-1.9,3.9-3.2,5.5c-0.1,0.2-0.2,0.4-0.2,0.6
			c0.1,0.4,0.1,0.8,0,1.3c-0.2,1.3-0.2,2.6,0,3.8c0.1,1.4,0.2,2.9,0.4,4.3c0,0.1,0,0.3,0.1,0.4c0.1-0.3,0.2-0.6,0.3-0.8
			c0.9-2.9,2.3-5.6,4.1-8c0.5-0.5,0.9-1.1,1.4-1.6c0.2-0.2,0.3-0.4,0.2-0.6c-0.7-2.9-0.5-6,0.5-8.9c1-2.6,2.9-4.7,5.4-5.8
			c2-1,4.1-1.7,6.3-1.9c0.1,0,0.1,0,0.2,0c0.1,0.7,0.3,1.3,0.3,2c0.3,2.2,0.2,4.4-0.3,6.6c-0.7,2.8-2.6,5.1-5.1,6.5
			c-1.9,1.1-4,1.8-6.2,2.2c-0.2,0-0.3,0.1-0.5,0.2c-1.5,2.1-2.9,4.4-4.1,6.7c-1.1,2.3-1.8,4.8-2.2,7.3c0,0.4,0,0.8,0,1.2
			c0,0.7,0.1,1.4,0.2,2c0.9-2.5,2.5-4.2,5.2-4.6c0-0.4-0.1-0.8-0.1-1.3c-0.1-2,0.1-3.9,0.6-5.8c0.9-3,3-5.5,5.8-6.7
			c2.1-1,4.4-1.6,6.8-1.7h0.3c0.1,0.5,0.2,1,0.2,1.5c0.2,2.4,0,4.8-0.8,7.1c-0.9,2.6-2.7,4.8-5.2,6c-2.1,1-4.3,1.7-6.6,1.9
			c-1.3,0.1-2.6,0.5-3.7,1.2c-0.4,0.2-0.6,0.5-0.8,0.8c-0.5,1.4-0.9,2.8-1.3,4.2c0,0.1,0,0.2,0.1,0.2c0.3,0.3,0.4,0.7,0.3,1.1
			c0,2.5,0,4.9,0,7.4c0,0.2,0,0.3,0.1,0.5l0.2-0.3c0.8-1.2,1.9-2.1,3.2-2.6c0.2-0.1,0.2-0.2,0.2-0.4c-0.1-2.1,0.2-4.2,0.8-6.2
			c1-3.5,3.7-6.2,7.2-7.2c1.9-0.7,3.9-1,5.9-1h0.3c0,0.4,0.1,0.8,0.1,1.2c0.2,2.5-0.1,5-1,7.4c-1,2.7-3.1,4.8-5.7,5.9
			c-2.1,1-4.4,1.5-6.7,1.5c-0.4,0-0.9,0.1-1.2,0.4c-1,0.8-1.9,1.7-2.6,2.7c-0.5,0.6-0.8,1.4-0.7,2.2c0,4.3,0,8.6,0,12.9v0.3
			c0.4-0.4,0.9-0.8,1.4-1.2c0.7-0.5,1.4-1,2.1-1.4c0.2-0.1,0.3-0.2,0.2-0.4c0.1-2.1,0.5-4.2,1.3-6.2c1.2-3.3,4-5.7,7.4-6.5
			c1.6-0.5,3.3-0.7,5-0.7c0.1,0,0.2,0,0.4,0c0-0.5-0.1-1-0.1-1.5c-0.1-2.1,0.1-4.2,0.7-6.1c0.9-3,3.1-5.3,6-6.5
			c0.5-0.2,0.9-0.5,1.3-0.8c1.2-1.4,2.6-2.5,4.2-3.4c-0.2-0.5-0.5-1.1-0.7-1.6c-0.9-2-1.4-4.2-1.4-6.5c0-2.5,1-5,2.8-6.8
			c1.7-1.9,3.8-3.4,6.1-4.4c0.1,0,0.1,0,0.2,0c0.4,0.9,0.8,1.7,1.2,2.6c0.8,1.9,1.2,3.9,1.3,5.9c0.1,2.9-1.1,5.7-3.2,7.7
			c-1.6,1.6-3.5,3-5.5,3.9c-0.1,0.1-0.3,0.1-0.4,0.1c-1.1,0.5-2.1,1.3-2.8,2.2l3.7-0.6c0.5,2.6,0.4,5.3-0.2,7.9
			c0.3-0.2,0.6-0.3,0.8-0.4c1-0.6,2-1.2,3-1.8c0.2-0.1,0.4-0.4,0.5-0.6c0.7-2,1.7-3.9,3-5.5c1.9-2.3,4.6-3.7,7.6-3.8
			c2.4-0.2,4.7,0.1,7,0.9l0.3,0.1c0,0,0,0,0.1,0.1c-0.1,0.3-0.2,0.7-0.2,1c-0.7,2.7-2.1,5.2-4,7.3c-1.8,1.8-4.1,2.8-6.6,3
			c-2.5,0.2-5-0.1-7.4-0.9c-0.1,0-0.2-0.1-0.4-0.2c-0.8,0.5-1.6,1-2.4,1.5c-0.2,0.2-0.5,0.3-0.8,0.4c-0.7,0.2-1.2,0.7-1.4,1.3
			c-1.2,2.2-3.1,4-5.5,4.9c-1.6,0.7-3.3,1.2-5,1.4h-0.3l-0.2,2.4C78.2,57,79,57,79.9,57c1.6,0.1,3.2,0.3,4.9,0.5
			c1,0.1,1,0.2,1.6-0.7c1.4-1.9,3.2-3.6,5.2-4.9c2.5-1.6,5.6-2.2,8.5-1.8c2.6,0.3,5.1,1.2,7.4,2.5l0.3,0.2c-1.4,2.5-3.4,4.7-5.7,6.4
			c-1.6,1.2-3.5,2-5.5,2.3c-2.1,0.3-4.3,0.1-6.4-0.5c-1.7-0.5-3.3-1.1-4.9-2c-0.9-0.5-1.8-0.8-2.8-0.8c-1.1,0-2.2-0.2-3.3-0.3
			c-0.2,0-0.5,0-0.7,0.2c-0.4,0.2-0.8,0.4-1.2,0.5c-0.2,0-0.3,0.2-0.4,0.4c-0.4,1.8-1.2,3.6-2.3,5.1c-1.5,1.9-3.6,3.2-5.9,3.8
			c-2.2,0.6-4.4,0.8-6.6,0.6c-0.1,0-0.2,0-0.2,0.1c-1.3,0.9-2.4,2.1-3.3,3.4c-0.1,0.2-0.2,0.4-0.2,0.7c0,3.7,0.1,7.5,0.1,11.2
			c0,0.8,0.1,1.7,0.1,2.5c0,0.2,0,0.3,0.1,0.5c0.8-0.8,1.5-1.6,2.2-2.4c0.3-0.3,0.3-0.7,0-1c-0.3-0.5-0.1-1.2,0.4-1.6
			c0.1-0.1,0.3-0.2,0.3-0.4c0.1-0.4,0.2-0.9,0.3-1.3c0-0.1,0.1-0.2,0.1-0.3c0.3-0.5,0.6-1,1-1.5c0.5-0.6,1-1.2,1.6-1.8
			c0.5-0.4,1.2-0.5,1.9-0.3c0.9,0.1,1.7,0.6,2.2,1.4l0.4,0.5c0.6-0.2,1.2-0.4,1.8-0.7c0.1-0.1,0.2-0.2,0.2-0.3
			c0.2-1.4,0.5-2.9,1-4.2c0.7-2.2,2.1-4.2,4-5.6c1.5-1.1,3.2-1.8,5-2.1c2.1-0.4,4.3-0.4,6.4,0c-0.1,0.6-0.1,1.3-0.2,1.9
			c-0.3,1.9-0.8,3.8-1.7,5.5c-1.5,3-4.2,5.1-7.5,5.8c-2.2,0.5-4.4,0.6-6.6,0.2c-0.2,0-0.4,0-0.6,0.1c-0.4,0.1-0.8,0.3-1.1,0.5
			c0,0,0,0-0.1,0c0.3,0.7,0.6,1.5,0.8,2.2c0.5,1.6,0.9,3.3,1,5c0.1,1.1,0.1,2.3,0.2,3.4c0,0.2,0.1,0.3,0.1,0.5c0,0.3,0,0.6,0,0.8
			c-0.1,0.6-0.1,1.2-0.2,1.8c0,0.1,0,0.2,0.1,0.3c0.4,0.6,0.3,1.4-0.2,1.9c-0.1,0.1-0.1,0.2-0.2,0.3c-0.1,0.5-0.1,1-0.2,1.4
			c0,0.4-0.1,0.7-0.2,1.1c0,0.1-0.1,0.2-0.2,0.4c-0.4,1.5-1,2.9-1.8,4.2c-0.4,0.7-1.1,1.2-1.8,1.6c-0.1,0.1-0.2,0.1-0.3,0.2
			c-0.6,0.6-1.7,0.7-2.3,0c-0.2-0.2-0.3-0.4-0.4-0.6c-0.1-0.1-0.1-0.3-0.2-0.4c-0.4-0.5-0.8-1-1.2-1.6c-0.2-0.3-0.4-0.5-0.6-0.8
			c-0.1-0.2-0.2-0.4-0.3-0.7c-0.2-0.9-0.4-1.8-0.6-2.7c-0.6-2.5-0.8-5-0.8-7.5c0-0.2-0.1-0.4-0.1-0.6c0-0.3,0-0.7,0-1
			c0.1-0.7,0.2-1.3,0.4-2h-0.1c-0.3,0.4-0.6,0.8-1,1.2c-0.6,0.5-0.8,1.3-0.7,2c0.3,5.4,0.5,10.7,0.7,16.1c0.1,2.8,0.2,5.6,0.3,8.4
			c0,0.1,0,0.1,0,0.2h23.9v31.2H31.6v-31.2h18.8c0.3,0,0.4-0.1,0.5-0.4c0.4-3.4,0.5-6.9,0.5-10.4c0-3.6-0.1-7.3-0.1-10.9
			c0,0,0-0.1,0-0.1L45.5,91c-0.1,0.3,0,0.6,0.3,0.8c0.5,0.4,0.5,1.1,0.1,1.6c0,0,0,0,0,0c-0.2,0.2-0.2,0.4-0.2,0.6
			c0,0.1,0,0.3,0,0.4c-0.1,0.4,0.1,0.7,0.4,1c0.5,0.7,0.4,1.7-0.2,2.3c-0.1,0.1-0.2,0.3-0.2,0.5c-0.1,0.7-0.2,1.4-0.2,2.1
			c0,0.1,0,0.3,0.1,0.4c0.3,0.6,0.2,1.3-0.3,1.7c-0.1,0.1-0.2,0.2-0.2,0.4c-0.1,0.3-0.2,0.7-0.3,1c-0.1,0.4-0.2,0.8-0.2,1.2
			c0.1,0.5-0.2,1-0.6,1.2c-0.1,0.1-0.2,0.2-0.3,0.3c-0.1,0.2-0.3,0.4-0.4,0.7c-0.2,0.4-0.4,0.7-0.5,1.1c-0.2,0.7-0.9,1.1-1.5,1.1
			c-0.5,0-1,0-1.6-0.1c-0.5-0.1-0.9-0.3-1.3-0.5c-0.5,0.3-1,0.3-1.3,0s-0.3-0.8,0.1-1.3c-0.2-0.4-0.5-0.7-0.8-0.9
			c-0.7-0.3-1-1.1-0.7-1.8c0,0,0-0.1,0.1-0.1c0.1-0.3,0-0.7-0.3-0.9c-0.6-0.3-0.9-1-0.6-1.7c0-0.1,0.1-0.2,0.2-0.3
			c0.2-0.3,0.1-0.7-0.2-0.9c0,0-0.1-0.1-0.1-0.1c-0.7-0.2-1.2-0.9-1.2-1.6c-0.1-0.7,0.3-1.4,0.9-1.7c0.2-0.1,0.3-0.2,0.2-0.4
			c0-0.6,0-1.2,0-1.8c0-0.1-0.1-0.3-0.2-0.4c-0.7-0.5-0.9-1.6-0.4-2.3c0.1-0.2,0.3-0.4,0.5-0.5c0.3-0.3,0.4-0.7,0.1-1.1
			c-0.6-0.6-0.6-1.6,0-2.3c0.1-0.1,0.3-0.2,0.4-0.3c0.1-0.1,0.2-0.2,0.2-0.3c0.1-0.3,0.2-0.7,0.3-1.1c0.2-0.4-0.1-1-0.5-1.1
			c0,0,0,0,0,0c-1.3-0.9-2.5-1.8-3.8-2.7c-0.2-0.1-0.4-0.1-0.6-0.1c-2.3,0.3-4.7,0.1-7-0.5c-3.4-0.9-6.1-3.4-7.3-6.8
			c-0.8-1.9-1.2-3.9-1.3-6v-0.3c0.4,0,0.7-0.1,1-0.2c2.7-0.4,5.4-0.1,8,0.9c2.8,1.1,5,3.3,6.1,6.1c0.7,1.7,1.2,3.5,1.4,5.4
			c0,0.3,0.1,0.5,0.4,0.6c1.2,0.7,2.3,1.5,3.5,2.2c0.3-0.4,0.8-0.6,1.3-0.6c0.1,0,0.2-0.1,0.2-0.2c0.5-0.8,1.1-1.5,1.9-2
			c0.1-0.1,0.1-0.2,0.2-0.2c0.2-0.6,0.8-1,1.5-0.9c0.6,0.1,1.1,0.5,1.2,1.1c0,0.1,0.1,0.2,0.2,0.3c0.3,0.4,0.7,0.7,1.1,1.1
			c0.1,0.2,0.2,0.2,0.5,0.2c0.4,0,0.7,0.2,0.9,0.5c0.2,0.3,0.2,0.8,0,1.1c-0.1,0.1-0.1,0.3-0.1,0.5c0.1,0.4,0.4,0.7,0.7,0.9
			c0.7,0.4,1,1.3,0.6,2.1c0,0.1-0.1,0.1-0.1,0.2c-0.3,0.5-0.2,0.8,0.3,1l5.1,1.7l0.3,0.1c0-0.1,0-0.2,0-0.2c0-2.7,0-5.4,0-8.1
			c0-0.3-0.1-0.6-0.3-0.8c-0.4-0.3-0.9-0.7-1.3-1c-2.7-1.7-5.2-3.6-7.5-5.7c-0.5-0.4-1-0.9-1.5-1.4c-0.2-0.2-0.3-0.3-0.5-0.6
			c-0.2-0.5-0.6-0.6-1.1-0.7c-1.2-0.3-2.3-0.7-3.5-1.2c-0.6-0.2-1.2-0.3-1.8-0.3c-3.5-0.4-6.9-1.4-10.1-2.9c-1-0.5-2-1-2.9-1.6
			c-0.7-0.4-1.2-1-1.4-1.8h-0.8c-2.3,0.1-4.5-0.1-6.7-0.9c-2.7-1-5-3-6.1-5.7c-1-2.1-1.5-4.4-1.7-6.7v-0.3c0.6-0.1,1.2-0.2,1.7-0.2
			C8,51,10.3,51.2,12.5,52c3,1,5.3,3.3,6.4,6.2c0.9,2,1.4,4.1,1.5,6.3c0,0.2,0.1,0.3,0.2,0.4c0.3,0.4,0.6,0.7,1,1
			c0.4,0.3,0.7,0.6,1.2,0.8c2.9,1.5,5.9,2.5,9.1,3H32c0.1,0,0.1,0,0.2,0L31.5,69c-1.8-1.7-2.9-4-3.1-6.5c-0.1-1.3-0.1-2.5-0.1-3.8
			c0-0.2-0.1-0.5-0.3-0.6c-0.7-0.4-1.4-0.8-2.1-1.2c-1.3-0.6-2.4-1.4-3.2-2.5c-0.4-0.5-0.9-1-1.3-1.5c-1.4-1.7-3.3-3-5.3-3.8
			c-1.8-0.6-3.1-2.1-3.7-3.9c-0.1-0.4-0.2-1-0.5-1.3s-0.8-0.3-1.3-0.4c-2.2-0.7-4.3-1.8-6.1-3.3c-1.9-1.6-3.1-3.9-3.4-6.4
			c-0.4-2.7-0.1-5.4,0.8-8C1.9,26,1.9,25.9,1.9,25.8z M56.9,48.8L56.9,48.8c0,0.1-0.1,0.2-0.1,0.3c-1,4.3-2,8.6-3,12.8
			c-0.3,1.3-0.6,2.5-0.8,3.8c-0.2,2.4-0.4,4.8-0.4,7.2c-0.1,5.5-0.2,11.1-0.2,16.6c0,4.6,0.2,9.2,0.2,13.8c0,3.3-0.1,6.7-0.4,10
			c0,0.3-0.1,0.7-0.1,1h6.3c0-0.2,0-0.3,0-0.4c-0.2-4.6-0.3-9.2-0.5-13.8c-0.1-2.5-0.2-5-0.3-7.5c-0.1-2.1-0.3-4.2-0.4-6.4
			c-0.1-2.5-0.2-5.1-0.2-7.6c0-9.7-0.1-19.4-0.1-29.2L56.9,48.8z M81.4,117H34v26.2h47.4V117z M55.9,23.3l0.2-0.3
			c1-1.4,1.9-3,2.6-4.6c1.1-2.6,1.4-5.4,0.9-8.1c-0.7-3-2-5.7-3.9-8.1c0,0-0.1-0.1-0.1-0.1c-1.3,1.6-2.3,3.4-3.1,5.3
			c-1,2.3-1.3,4.8-1,7.2c0.4,2.7,1.4,5.3,3,7.5c0,0,0.1,0,0.1,0.1c0-0.9,0.1-1.7,0.1-2.6s0.1-1.7,0.2-2.5s0.2-1.7,0.4-2.5
			s0.3-1.6,0.5-2.4c-0.1,1.9-0.3,3.7-0.3,5.5C55.4,19.6,55.5,21.4,55.9,23.3z M39.5,107.3c0.2-0.9,1.1-1.5,2-1.3
			c0.1,0,0.3,0.1,0.4,0c0.2-0.1,0.2-0.4,0.1-0.6c-0.3-0.6-0.1-1.3,0.5-1.7c0,0,0,0,0,0c0.3-0.1,0.5-0.4,0.6-0.7
			c0.1-0.2,0.1-0.4,0.2-0.6c0-0.2,0-0.4-0.1-0.6c-0.3-0.6-0.1-1.2,0.3-1.6c0.1-0.1,0.2-0.2,0.2-0.4c0.1-0.6,0.2-1.2,0.2-1.7
			c0-0.1,0-0.2-0.1-0.3c-0.6-0.6-0.6-1.6-0.1-2.2c0.3-0.3,0.4-0.7,0.3-1.1c0-0.2,0-0.3,0-0.5c0-0.2-0.1-0.4-0.2-0.5
			c-0.3-0.4-0.3-0.9-0.1-1.3c0.1-0.2,0.2-0.5,0.2-0.7c0-0.3-0.1-0.6-0.1-0.8s-0.1-0.3-0.3-0.4c-2-0.9-4-1.9-5.9-2.8l-0.4-0.2
			c-0.1,0.4-0.2,0.8-0.3,1.2c0,0.2,0,0.4,0.1,0.5c0.5,0.7,0.3,1.7-0.4,2.2c-0.3,0.2-0.3,0.6-0.1,0.9c0,0,0.1,0.1,0.1,0.1
			c0.8,0.6,0.9,1.7,0.3,2.4c-0.2,0.2-0.3,0.4-0.6,0.5c-0.1,0.1-0.2,0.2-0.2,0.3c0,0.6,0,1.3,0.1,1.9c0,0.2,0.1,0.3,0.2,0.4
			c0.5,0.5,0.6,1.3,0.3,2c-0.3,0.6-0.2,1.3,0.1,1.9c0.2,0.3,0.3,0.7,0.2,1.1c0,0.5,0.2,0.9,0.6,1.1c0.4,0.2,0.6,0.5,0.7,0.9
			c0.1,0.2,0.1,0.4,0.1,0.6c1,0.1,1.2,0.8,0.7,1.8L39.5,107.3z M69.8,95.4c0,0,0-0.1,0-0.1c-0.7-1-0.7-1.5,0.2-2.4
			c0.2-0.2,0.1-0.5-0.1-0.7c0,0,0,0,0,0C69.4,92,69,91.4,69,90.8c0-0.6,0.4-1.2,1-1.4c0.1,0,0.1-0.2,0.2-0.3c-1.2-0.1-1.9-0.6-2-1.5
			c0-0.4,0-0.8,0.2-1.1c0.3-0.5,0.8-0.9,1.4-0.9l-0.2-1c-1,0-1.5-0.3-1.7-1c-0.2-0.8,0.2-1.6,0.9-1.8c0,0,0,0,0.1,0l-0.4-1
			c-0.5,0.2-1,0.2-1.5,0c-0.1-0.1-0.3-0.1-0.5,0c-1.3,0.8-2.5,1.8-3.5,2.9c-0.3,0.3-0.5,0.7-0.5,1.2c0,0.1,0,0.3,0.1,0.4
			c0.5,0.4,0.5,1.1,0.2,1.6c-0.1,0.1-0.2,0.2-0.4,0.3c-0.1,0.1-0.2,0.2-0.2,0.3c0,0.1,0.1,0.2,0.2,0.2c0.5,0.3,0.9,0.8,0.9,1.4
			c0,0.6-0.3,1.1-0.8,1.4c-0.2,0.1-0.4,0.2-0.6,0.3c0.1,0.2,0.1,0.5,0.3,0.5c0.5,0.1,0.9,0.6,0.9,1.1c0.1,0.6-0.2,1.2-0.7,1.5
			c-0.2,0.1-0.3,0.2-0.2,0.5c1.1,0.1,1.8,0.5,1.9,1.3c0.1,0.4,0,0.7-0.1,1.1c-0.2,0.5-0.7,0.9-1.2,1l0.2,0.9c1.5,0.1,2,1.2,1.1,2.7
			l0.3,0.5c0.4-0.1,0.9-0.2,1.3-0.1c0.4,0.1,0.8,0.3,1.2,0.6l0.2-0.2c-0.4-0.4-0.6-1.1-0.3-1.6c0.3-0.5,0.8-0.8,1.4-0.7
			c0.1,0,0.2-0.1,0.2-0.2c0.1-0.4,0.2-0.7,0.4-1.1c0-0.1,0-0.2-0.1-0.3c-0.5-0.3-0.7-0.9-0.5-1.5C68.6,95.9,69.1,95.5,69.8,95.4z
			 M87.2,58c3.4-0.4,6.7-1.3,9.8-2.7c-2.7,1.6-5.7,2.9-8.7,3.7l0.3,0.1c1.3,0.5,2.7,0.8,4.1,1c2.4,0.4,4.9,0,7.1-1.2
			c2.4-1.4,4.5-3.3,6-5.6c0-0.1,0.1-0.2,0.1-0.2c-1.2-0.4-2.3-0.9-3.5-1.2c-2-0.6-4.1-0.8-6.2-0.5C94,52,91.9,53,90.3,54.5
			C89.1,55.5,88,56.7,87.2,58z M63.3,50.2l0.1,0c2.3-1.9,4.3-4.3,5.9-6.8c-1.1,2.6-2.6,5-4.4,7.2c1.2-0.2,2.5-0.5,3.6-1
			c2.4-0.9,4.4-2.7,5.4-5.1c0.7-1.6,1-3.3,1.1-5c0-0.7,0-1.5,0-2.2c-0.1,0-0.1,0-0.2,0c-1.8,0.2-3.5,0.6-5.2,1.3
			c-2.2,0.9-3.9,2.5-5,4.5c-0.7,1.4-1.1,3-1.3,4.6C63.4,48.5,63.4,49.3,63.3,50.2z M74.3,8.6c-2.2,0.4-4.2,1.2-6.1,2.4
			c-1.9,1.2-3.2,3.1-3.8,5.2c-0.4,1.4-0.6,2.9-0.6,4.4c0,0.7,0.1,1.4,0.1,2.1h0.1c2.1-2.2,3.9-4.7,5.2-7.5c-0.8,2.7-2.1,5.3-3.7,7.6
			c0.1,0,0.2,0,0.3-0.1c1.3-0.4,2.6-1,3.8-1.7c2.2-1.3,3.8-3.4,4.4-5.8c0.4-1.6,0.5-3.3,0.4-4.9C74.4,9.8,74.4,9.3,74.3,8.6
			L74.3,8.6z M96,44.6v0.2c1.2,0,2.4,0.2,3.6,0.1c2.5,0,4.9-1,6.7-2.8c1.1-1.2,2-2.5,2.7-4c0.4-0.8,0.7-1.7,1-2.5l-0.4-0.1
			c-1.7-0.4-3.5-0.6-5.3-0.4c-2.3,0.1-4.5,1.1-6.1,2.7c-1.6,1.7-2.9,3.8-3.6,6c0,0.1,0,0.1,0,0.2c2.9-1.1,5.5-2.6,7.9-4.5
			C100.6,41.5,98.4,43.2,96,44.6z M44.4,56.2c0-0.2,0-0.3,0-0.5c-0.1-1.3-0.2-2.6-0.4-3.9c-0.4-2.2-1.5-4.2-3.3-5.7
			c-1.6-1.3-3.5-2.2-5.5-2.5c-0.8-0.2-1.6-0.3-2.5-0.4c0,0.2,0,0.4,0,0.5c0,1.5,0.1,2.9,0.4,4.3c0.4,2.2,1.6,4.2,3.3,5.7
			c1.5,1.2,3.3,2,5.2,2.5c0.4,0.1,0.8,0.2,1.3,0.3c-1.9-2.2-3.4-4.6-4.5-7.3C40,51.8,42,54.2,44.4,56.2z M86.1,66.4h-0.3
			c-1.5-0.1-3,0-4.4,0.2c-2.7,0.4-5.1,1.9-6.7,4.2c-0.8,1.2-1.5,2.6-1.8,4.1c-0.2,0.8-0.4,1.5-0.5,2.3h0.1c2.6-1.5,5-3.5,7-5.8
			c-1.5,2.4-3.4,4.5-5.6,6.3c0.2,0,0.3,0,0.4,0c1.1-0.1,2.2-0.2,3.3-0.4c2.5-0.5,4.8-1.9,6.2-4.1c0.9-1.5,1.6-3.1,2-4.7
			C85.9,67.7,86,67.1,86.1,66.4z M77.3,53h0.1c2.2-2.1,4.1-4.5,5.5-7.2c-1,2.6-2.3,5.1-4,7.4c0.1,0,0.2,0,0.4-0.1
			c1.1-0.4,2.2-0.7,3.2-1.2c2.5-1.1,4.5-3.2,5.3-5.8c0.6-1.9,0.8-3.9,0.7-5.9l-0.1-0.7c-0.1,0-0.1,0-0.1,0H88
			c-1.7,0.3-3.3,0.8-4.8,1.5c-2.1,1-3.8,2.7-4.8,4.8c-0.6,1.5-1,3.2-1,4.8C77.3,51.5,77.3,52.2,77.3,53z M65.4,36.8L65.4,36.8
			c1.1-0.3,2.2-0.6,3.2-1c2.8-1.1,5-3.4,5.8-6.4c0.6-1.9,0.7-3.9,0.6-5.9c0-0.1,0-0.2,0-0.3h-0.3c-1.7,0.2-3.3,0.7-4.9,1.5
			c-2.2,1-3.9,2.7-4.9,4.9c-0.7,1.6-1,3.2-1.1,4.9c0,0.7,0,1.4,0,2.1l0.1,0.1c0.7-0.7,1.5-1.5,2.1-2.2s1.3-1.6,1.9-2.5
			s1.1-1.7,1.7-2.6c-0.3,0.9-0.7,1.8-1.2,2.6c-0.4,0.8-0.9,1.7-1.4,2.5S66,36,65.4,36.8z M29.9,56.6c0,0.2-0.1,0.3-0.1,0.4
			c-0.4,1.8-0.4,3.7-0.2,5.5c0.2,1.8,1,3.6,2.2,5c1.4,1.5,3.1,2.6,5,3.4l1.2,0.4c-1.5-2.5-2.7-5.2-3.4-8c1.2,2.9,2.8,5.6,4.9,7.9
			c0-0.1,0.1-0.2,0.1-0.2c0.3-1.6,0.3-3.2,0.2-4.8c-0.2-1.9-1-3.7-2.2-5.2c-1.3-1.5-2.9-2.6-4.8-3.3C31.8,57.2,30.9,56.9,29.9,56.6z
			 M21.2,35c0.8-1.4,1.3-3,1.7-4.5c0.6-2.3,0.3-4.8-0.9-6.9c-1.3-2.2-3.2-4.1-5.4-5.4c0,0,0,0-0.1,0h-0.1c-0.5,1.1-1,2.2-1.4,3.4
			c-0.7,2-0.9,4.1-0.4,6.1c0.6,2.2,1.8,4.1,3.5,5.6c0.5,0.5,1,0.9,1.5,1.3c-0.6-2.8-0.9-5.6-0.7-8.4c0.3,1.5,0.5,3,0.8,4.5
			C20,32.1,20.5,33.6,21.2,35z M39.2,32.6c1.3,2.8,3,5.4,5.2,7.7c0.2-1.7,0.2-3.3,0-5c-0.3-2.9-1.9-5.4-4.4-7
			c-1.6-1-3.4-1.8-5.2-2.2c-0.2,0-0.3-0.1-0.5-0.1c-0.3,1.6-0.3,3.1-0.2,4.7c0.2,1.9,0.9,3.8,2,5.3c1.3,1.6,3,2.8,4.9,3.6
			c0.6,0.2,1.2,0.5,1.9,0.7C41.2,37.9,40,35.3,39.2,32.6L39.2,32.6z M11.8,57.6l0.1-0.1c2,2.3,4.4,4.3,7.1,5.9c-0.3-2-1-4-2-5.8
			c-1.2-2.1-3-3.6-5.3-4.3c-1.5-0.5-3.1-0.7-4.7-0.7c-0.6,0-1.2,0-1.8,0c0.2,2.1,0.9,4.1,1.9,6c1,1.9,2.7,3.5,4.7,4.3
			c1.5,0.6,3,0.9,4.6,1c0.4,0,0.7,0,1,0c-1-1-2-2-3-3S12.7,58.6,11.8,57.6L11.8,57.6z M2.8,27.4c-0.6,2.1-0.7,4.4-0.3,6.6
			c0.3,2,1.3,3.9,2.7,5.3c1.2,1.1,2.5,2,4,2.6c0.3,0.2,0.7,0.3,1.1,0.5c-0.4-0.7-0.7-1.3-1-2s-0.6-1.3-0.9-2s-0.5-1.4-0.7-2
			s-0.4-1.3-0.6-2c1.1,2.9,2.7,5.6,4.6,8c0.5-2.1,0.6-4.3,0.2-6.4c-0.3-1.7-1.1-3.3-2.2-4.6C7.8,29.4,5.4,28,2.8,27.4L2.8,27.4z
			 M23,75.3c2,2.3,4.5,4.3,7.1,5.9c0-0.1,0-0.2,0-0.3c-0.2-1.4-0.7-2.9-1.2-4.2c-1.1-2.8-3.5-5-6.5-5.8c-1.6-0.4-3.2-0.6-4.8-0.6
			h-1.2c0,0.1,0,0.1,0,0.2c0.2,1.4,0.5,2.8,1.1,4.2c0.7,2,2,3.8,3.8,5c1.8,1.1,3.9,1.8,6.1,1.9c0.4,0,0.8,0,1.2,0c-1-1-2-2-3-3
			C24.6,77.6,23.7,76.5,23,75.3z M90.6,34c0.5-0.4,1-0.7,1.5-1.1c1.1-0.8,2-1.8,2.7-2.9c1.1-1.6,1.6-3.5,1.6-5.5
			c-0.1-2.3-0.7-4.6-1.7-6.6c-0.1,0.1-0.3,0.1-0.4,0.2c-0.9,0.6-1.8,1.1-2.6,1.8c-1.6,1.2-2.9,2.9-3.6,4.8c-0.7,2.1-0.8,4.4-0.1,6.6
			c0.3,1,0.7,2,1,3.1h0.1c1.4-2.8,2.3-5.8,2.7-8.8c0,1-0.1,1.9-0.1,2.9C91.4,30.3,91.1,32.2,90.6,34z M64.9,67.5c0.2,0,0.4,0,0.6,0
			c1-0.2,2-0.3,2.9-0.6c2.5-0.6,4.7-2.2,6-4.4c1-1.8,1.6-3.7,1.8-5.7c0.1-0.5,0.1-1,0.1-1.5h-0.3c-1.6,0-3.1,0.2-4.6,0.7
			c-2.1,0.5-4,1.8-5.4,3.5c-1.1,1.6-1.9,3.4-2.2,5.3c-0.1,0.8-0.2,1.6-0.4,2.4c0.9-0.5,1.8-1.2,2.5-1.9c0.7-0.7,1.5-1.4,2.2-2.2
			s1.3-1.5,1.9-2.3C68.6,63.2,66.9,65.5,64.9,67.5z M39.3,12.1c0,0.1-0.1,0.2-0.1,0.2c-0.6,1.7-0.9,3.4-0.9,5.2
			c-0.1,2,0.4,3.9,1.5,5.5c1.4,1.9,3.2,3.5,5.4,4.5c0,0,0.1,0,0.2,0c-1.2-2.6-1.9-5.4-2.3-8.3c0.8,3.1,2.1,6,3.8,8.6
			c0.7-2,1-4.2,0.8-6.4c-0.1-1.3-0.5-2.6-1.1-3.7C44.9,15,42.3,13.4,39.3,12.1z M42.5,88.2L42.5,88.2c-0.2-0.6-0.1-1.2,0.2-1.7
			c0-0.1,0-0.2,0-0.2c-0.3-1.1-0.9-2.1-1.7-2.9c-0.6-0.5-1.4-0.5-2,0C38.3,84,37.9,85,38,86L42.5,88.2z M64.7,79
			c-0.1,0.2-0.2,0.3-0.3,0.5c-0.2,0.2-0.3,0.6-0.2,0.9c0.1,0.4-0.1,0.9-0.5,1.1c-0.4,0.2-0.4,0.5-0.5,0.9c0.2-0.2,0.3-0.3,0.4-0.4
			c0.7-0.6,1.4-1.2,2.2-1.8c0.4-0.3,0.8-0.5,0.8-1.1c0-0.2,0.1-0.4,0.2-0.6l0.1-0.2C66,79.3,65.7,79.4,64.7,79z"/>
		<path class="st0" d="M88.2,90.4h7v9.3h2.1v-9.2h17v7h-9.2v2.2h9.3v17h-7v-9.2h-2.2v9.2h-17v-7.1h9.3v-2.2h-9.2V90.4z M89.6,91.8
			v14.3h9.2v4.9h-9.3v4.3h14.4v-9.2h5v9.3h4.3v-14.3h-9.3v-5h9.3v-4.2H98.7v9.3h-4.9v-9.3H89.6z"/>
		<path class="st0" d="M27.3,99.7v17h-7.1v-9.3H18v9.2H0.9v-7h9.3v-2.2H1v-17h7.1v9.2h2.1v-9.2h17v7H18v2.2L27.3,99.7z M2.3,111v4.3
			h14.3v-9.2h5v9.3h4.3v-14.3h-9.3v-5h9.3v-4.2H11.6v9.2H6.7v-9.3H2.4v14.3h9.2v4.9H2.3z"/>
		<path class="st0" d="M79.9,119v22.1H35.5V119H79.9z M38,121.5v17.2h39.4v-17.2H38z"/>
		<path class="st0" d="M53.4,137.6v-7.7h-2.7v7.7H39.2v-15h36.9v15H63.3V134h-2.6v3.6H53.4z M52.9,124.8h-6.4v7.7h-3v-7.7h-2.7v10.6
			H49v-7.3h3.9L52.9,124.8z M58.2,135.3v-10.6h-2.8v10.6L58.2,135.3z M65.5,136.1H68v-11.3h-2.5V136.1z M69.9,124.8v7.4h2.7v-7.4
			L69.9,124.8z M60.7,124.8v7.4h2.6v-7.4L60.7,124.8z"/>
	</g>
</g>
</svg>
