<?xml version="1.0" encoding="utf-8"?>
<!-- Generator: Adobe Illustrator 26.0.1, SVG Export Plug-In . SVG Version: 6.00 Build 0)  -->
<svg version="1.1" id="Layer_1" xmlns="http://www.w3.org/2000/svg" xmlns:xlink="http://www.w3.org/1999/xlink" x="0px" y="0px"
	 viewBox="0 0 644 320" style="enable-background:new 0 0 644 320;" xml:space="preserve">
<style type="text/css">
	.st0{fill:#FFFFFF;}
	.st1{fill:#868686;}
	.st2{fill:#1D1D1B;}
	.st3{fill:#D2110C;}
	.st4{fill:#3A3838;}
	.st5{enable-background:new    ;}
	.st6{fill:none;stroke:#4D4D4D;stroke-miterlimit:10;}
	.st7{fill:none;stroke:#4D4D4D;stroke-width:0.25;stroke-miterlimit:10;}
</style>
<g id="Layer_2_00000068668339392911072910000012277238531248570023_">
	<g id="Layer_1-2">
		<rect class="st0" width="644" height="320"/>
		<rect x="25.8" y="169.7" class="st1" width="65.7" height="33.8"/>
		<rect x="91.6" y="169.7" class="st1" width="65.7" height="33.8"/>
		<rect x="552.5" y="169.7" class="st2" width="65.7" height="33.8"/>
		<circle class="st3" cx="35.4" cy="81.9" r="11.7"/>
		<path class="st3" d="M47.1,56.4c0,6.5-5.2,11.7-11.7,11.7c-6.5,0-11.7-5.2-11.7-11.7S29,44.7,35.4,44.7h0h11.7V56.4z"/>
		<circle class="st3" cx="56.6" cy="60.8" r="7.3"/>
		<ellipse transform="matrix(0.7067 -0.7075 0.7075 0.7067 -14.608 59.7585)" class="st3" cx="64.8" cy="47.5" rx="4.7" ry="3.5"/>
		<ellipse transform="matrix(0.7067 -0.7075 0.7075 0.7067 -18.165 53.9139)" class="st3" cx="55.9" cy="48.9" rx="4.7" ry="3.5"/>
		<ellipse transform="matrix(0.7067 -0.7075 0.7075 0.7067 -16.8453 65.1215)" class="st3" cx="70.1" cy="52.9" rx="4.7" ry="3.5"/>
		<ellipse transform="matrix(0.7067 -0.7075 0.7075 0.7067 -23.4479 66.6844)" class="st3" cx="68.7" cy="61.6" rx="4.7" ry="3.5"/>
		<path class="st0" d="M36.7,84.4c-1.4,2.5-4.4,3.3-6.9,2s-3.3-4.4-2-6.9c1.4-2.5,4.4-3.3,6.9-2c0.8,0.5,1.5,1.2,2,2h-1.6
			c-1.4-1.5-3.7-1.7-5.2-0.3s-1.7,3.7-0.3,5.2c0.7,0.8,1.7,1.3,2.8,1.3c1.1,0,2.1-0.5,2.8-1.3H36.7z"/>
		<path id="R" d="M49.8,71.9h4.7c1.6,0,3.2,0.8,3.2,2.6c0.1,1-0.5,1.9-1.5,2.3l0,0c1,0.2,1.3,1.3,1.3,2.2c0,0.4,0.1,1.8,0.4,2.1
			h-2.4c-0.2-0.5-0.3-1-0.3-1.5c-0.1-0.9-0.2-1.9-1.4-1.9h-1.8v3.4h-2.4V71.9z M52.2,75.9h2c0.5,0.1,1-0.3,1.1-0.9
			c0-0.1,0-0.1,0-0.2c0-0.7-0.5-1-1.2-1h-1.9V75.9L52.2,75.9z"/>
		<path id="E" d="M59,71.9h7.4v1.9h-5v1.6H66v1.9h-4.6v1.8h5.1v2.1H59V71.9z"/>
		<path id="D" d="M67.5,71.9h4c2.3-0.2,4.4,1.5,4.6,3.8c0,0.3,0,0.5,0,0.8c0,3.1-1.7,4.7-4.6,4.7h-4V71.9z M70,79.1h1.1
			c1.8,0,2.6-0.8,2.6-2.6c0.1-1.2-0.8-2.4-2-2.5c-0.2,0-0.4,0-0.6,0H70V79.1z"/>
		<path id="L" d="M49.8,82.1h2.4v7.2h4.3v2.1h-6.8V82.1z"/>
		<path id="I" d="M57.2,82.1h2.4v9.3h-2.4V82.1z"/>
		<path id="S" d="M62.7,88.3c0,1.1,0.7,1.4,1.8,1.4c0.7,0,1.5-0.3,1.5-0.9s-1.3-1-2.7-1.3s-2.7-1-2.7-2.7c0-2,2-2.8,3.8-2.8
			s3.7,0.9,3.7,3h-2.4c0-0.8-0.8-1.1-1.5-1.1c-0.5,0-1.2,0.2-1.2,0.8s1.3,0.8,2.7,1.2s2.7,1,2.7,2.7c0,2.4-2,3.1-4,3.1s-4-0.9-4-3.3
			L62.7,88.3z"/>
		<path id="T" d="M76,84.2h-2.8v7.2h-2.4v-7.2H68v-2.1h8V84.2z"/>
		<g>
			<path d="M77.1,71.5c0.2,0,0.4,0.1,0.6,0.2c0.2,0.1,0.4,0.3,0.5,0.4c0.1,0.2,0.2,0.4,0.2,0.6c0,0.2-0.1,0.4-0.2,0.6
				c-0.1,0.2-0.3,0.3-0.4,0.4c-0.4,0.2-0.8,0.2-1.2,0c-0.2-0.1-0.3-0.3-0.4-0.4c-0.1-0.2-0.2-0.4-0.2-0.6c0-0.2,0.1-0.4,0.2-0.6
				c0.1-0.2,0.3-0.4,0.5-0.4C76.6,71.5,76.8,71.5,77.1,71.5z M77.1,71.7c-0.2,0-0.3,0.1-0.5,0.1c-0.2,0.1-0.3,0.2-0.4,0.4
				c-0.1,0.2-0.1,0.3-0.1,0.5c0,0.2,0,0.4,0.1,0.5c0.1,0.2,0.2,0.3,0.4,0.4c0.2,0.1,0.3,0.1,0.5,0.1c0.2,0,0.4,0,0.5-0.1
				c0.2-0.1,0.3-0.2,0.4-0.4c0.1-0.2,0.1-0.3,0.1-0.5c0-0.2-0.1-0.4-0.1-0.5c-0.1-0.2-0.2-0.3-0.4-0.4
				C77.4,71.7,77.2,71.7,77.1,71.7z M77.4,72.9l0.2,0.1c0,0.1-0.1,0.2-0.2,0.3c-0.1,0.1-0.3,0.1-0.4,0.1c-0.2,0-0.3-0.1-0.5-0.2
				c-0.1-0.1-0.2-0.3-0.2-0.5c0-0.1,0-0.3,0.1-0.4c0-0.1,0.1-0.2,0.2-0.2c0.1-0.1,0.2-0.1,0.3-0.1c0.1,0,0.2,0,0.3,0.1
				c0.1,0.1,0.2,0.2,0.2,0.3h-0.2c0-0.1-0.1-0.1-0.1-0.2c-0.1,0-0.1-0.1-0.2-0.1c-0.1,0-0.2,0-0.3,0.1c-0.1,0.1-0.1,0.2-0.1,0.4
				c0,0.1,0,0.3,0.1,0.4c0.1,0.1,0.2,0.1,0.3,0.1c0.1,0,0.2,0,0.3-0.1C77.4,73,77.4,73,77.4,72.9z"/>
		</g>
		<path id="I-2" class="st0" d="M30.1,83.2v-2.4h0.5v2.4H30.1"/>
		<path id="U" class="st0" d="M31,80.8h0.5v1.3c0,0.1,0,0.3,0,0.4c0,0.1,0.1,0.2,0.1,0.2c0.2,0.1,0.4,0.1,0.6,0
			c0.1,0,0.1-0.1,0.1-0.2c0-0.1,0-0.3,0-0.4v-1.3H33v1.2c0,0.2,0,0.4,0,0.6c0,0.1-0.1,0.2-0.2,0.3c-0.1,0.1-0.2,0.2-0.3,0.2
			c-0.3,0.1-0.7,0.1-1,0c-0.1,0-0.2-0.1-0.3-0.2c-0.1-0.1-0.1-0.2-0.1-0.3c0-0.2-0.1-0.4,0-0.6L31,80.8"/>
		<path id="C" class="st0" d="M33.3,82c0-0.2,0-0.4,0.1-0.6c0.1-0.1,0.1-0.2,0.2-0.3c0.1-0.1,0.2-0.2,0.3-0.2
			c0.2-0.1,0.3-0.1,0.5-0.1c0.3,0,0.6,0.1,0.8,0.3c0.1,0.1,0.2,0.3,0.3,0.5h-0.5c0-0.1-0.1-0.2-0.1-0.2c-0.1-0.1-0.3-0.2-0.5-0.2
			c-0.2,0-0.4,0.1-0.5,0.2c-0.1,0.2-0.2,0.4-0.2,0.6 M33.8,82c0,0.2,0.1,0.4,0.2,0.6c0.1,0.1,0.3,0.2,0.5,0.2c0.2,0,0.4-0.1,0.5-0.2
			c0.1-0.1,0.1-0.2,0.1-0.3h0.5c0,0.2-0.1,0.4-0.3,0.6c-0.2,0.2-0.5,0.3-0.8,0.3c-0.3,0-0.6-0.1-0.8-0.3c-0.2-0.3-0.3-0.6-0.3-0.9"
			/>
		<path id="N" class="st0" d="M35.9,83.2v-2.4h0.4l1.1,1.7v-1.7h0.4v2.4h-0.4l-1.1-1.7v1.7H35.9"/>
		<path class="st3" d="M99.7,63.8h-3.8V45.6h3.8L99.7,63.8z"/>
		<path class="st3" d="M106.7,45.6v11.5c-0.1,1,0.3,2,1,2.8c1.6,1.3,4,1.3,5.6,0c0.7-0.7,1.1-1.7,1-2.8V45.6h3.8v11.9
			c0.1,1.9-0.7,3.7-2.1,4.9c-3.3,2.5-7.8,2.5-11.1,0c-1.4-1.2-2.1-3-2.1-4.9V45.6H106.7z"/>
		<path class="st3" d="M129,64.3c-2.4,0.1-4.6-0.8-6.2-2.6c-1.6-2-2.4-4.5-2.3-7c-0.1-2.5,0.7-5,2.3-7c1.6-1.7,3.9-2.7,6.2-2.6
			c2-0.1,3.9,0.6,5.5,1.9c1.5,1.2,2.3,3,2.4,4.9h-3.7c-0.2-1-0.7-1.9-1.4-2.5c-0.8-0.7-1.8-1-2.8-1c-1.3,0-2.6,0.6-3.4,1.7
			c-0.9,1.3-1.3,2.9-1.2,4.5c-0.1,1.6,0.4,3.2,1.2,4.5c0.8,1.1,2,1.8,3.4,1.7c1,0,2-0.3,2.8-0.9c0.8-0.6,1.3-1.5,1.4-2.4h3.7
			c-0.1,1.9-1,3.6-2.4,4.8C132.9,63.7,131,64.3,129,64.3z"/>
		<path class="st3" d="M142.8,63.8h-3.6V45.6h3.2l8.4,11.3h0.2V45.6h3.6v18.2h-3.1L143,52.4h-0.2L142.8,63.8z"/>
		<path class="st3" d="M170.8,64.3c-2.4,0.1-4.6-0.8-6.2-2.6c-1.6-2-2.4-4.5-2.3-7c-0.1-2.5,0.7-5,2.3-7c1.6-1.7,3.9-2.7,6.2-2.6
			c2-0.1,3.9,0.6,5.4,1.9c1.5,1.2,2.3,3,2.4,4.9H175c-0.2-1-0.7-1.9-1.4-2.5c-0.8-0.7-1.8-1-2.8-1c-1.3,0-2.6,0.6-3.4,1.7
			c-0.9,1.3-1.3,2.9-1.2,4.5c-0.1,1.6,0.3,3.2,1.2,4.5c0.8,1.1,2.1,1.7,3.4,1.7c1,0,2-0.3,2.8-0.9c0.7-0.6,1.3-1.5,1.4-2.4h3.7
			c-0.1,1.9-1,3.6-2.4,4.8C174.7,63.6,172.8,64.3,170.8,64.3z"/>
		<path class="st3" d="M184.3,64c-1.2,0.1-2.4-0.4-3.3-1.2c-0.8-0.8-1.3-1.9-1.3-3c-0.1-1.2,0.5-2.3,1.4-3c1.2-0.8,2.6-1.2,4-1.2
			l3.4-0.2v-1.1c0-0.5-0.2-1-0.6-1.3c-0.5-0.3-1.1-0.5-1.7-0.5c-1.4,0-2.2,0.4-2.5,1.3h-3.4c0.1-1.2,0.8-2.4,1.8-3.1
			c1.3-0.8,2.8-1.2,4.3-1.1c1.5-0.1,3,0.3,4.3,1.2c1,0.9,1.6,2.1,1.5,3.5v9.5h-3.6V62h-0.2c-0.4,0.6-0.9,1.2-1.6,1.5
			C186,63.8,185.2,64,184.3,64z M185.6,61.2c0.8,0,1.5-0.2,2.1-0.7c0.5-0.4,0.9-1.1,0.9-1.8v-1l-2.8,0.2c-1.6,0.1-2.3,0.7-2.3,1.7
			c0,0.5,0.2,0.9,0.6,1.2C184.5,61.1,185,61.3,185.6,61.2L185.6,61.2z"/>
		<path class="st3" d="M195.5,46.6h3.7V50h2.9v2.9h-2.9v6.3c0,0.5,0.1,1,0.4,1.3c0.4,0.3,0.9,0.5,1.4,0.4c0.4,0,0.8,0,1.1,0v2.8
			c-0.6,0.1-1.2,0.2-1.8,0.2c-1.3,0.1-2.5-0.2-3.6-0.9c-0.8-0.8-1.2-1.9-1.1-3v-7.1h-2.2V50h2.2V46.6z"/>
		<path class="st3" d="M212.7,59.8h3.4c-0.2,1.3-1,2.5-2.2,3.2c-1.3,0.8-2.7,1.2-4.2,1.2c-1.9,0.1-3.7-0.6-5-1.9
			c-1.3-1.5-1.9-3.4-1.8-5.3c-0.1-1.9,0.5-3.9,1.8-5.4c1.3-1.4,3.1-2.1,4.9-2c1.8-0.1,3.5,0.6,4.8,1.8c1.2,1.4,1.8,3.3,1.7,5.2v1.1
			h-9.6v0.2c0,0.9,0.3,1.8,0.9,2.5c0.6,0.6,1.4,0.9,2.3,0.9c0.6,0,1.2-0.1,1.8-0.4C212.1,60.7,212.5,60.3,212.7,59.8z M209.7,52.4
			c-0.8,0-1.5,0.3-2.1,0.8c-0.6,0.6-0.9,1.4-0.9,2.2h5.9c0-0.8-0.3-1.6-0.8-2.2C211.3,52.7,210.5,52.4,209.7,52.4L209.7,52.4z"/>
		<path class="st3" d="M224.1,69.1c-1.6,0.1-3.1-0.3-4.5-1.1c-1.1-0.6-1.8-1.8-1.9-3h3.6c0.1,0.5,0.4,0.8,0.9,1
			c0.6,0.3,1.3,0.4,1.9,0.4c0.8,0,1.6-0.2,2.3-0.7c0.5-0.4,0.9-1.1,0.8-1.8v-2.6h-0.2c-0.8,1.5-2.5,2.4-4.2,2.2
			c-1.6,0.1-3.1-0.6-4.1-1.9c-1.1-1.4-1.6-3.2-1.5-5c-0.1-1.8,0.4-3.7,1.5-5.2c1-1.3,2.6-2,4.2-1.9c0.9,0,1.8,0.2,2.5,0.7
			c0.7,0.4,1.3,1,1.7,1.8h0.2v-2.2h3.6v13.9c0.1,1.5-0.6,3-1.9,3.9C227.7,68.7,225.9,69.2,224.1,69.1z M226.5,59.6
			c0.6-0.8,0.9-1.9,0.8-2.9c0.1-1-0.2-2.1-0.9-2.9c-1.1-1.3-2.9-1.5-4.2-0.4c-0.1,0.1-0.3,0.3-0.4,0.4c-1.1,1.8-1.1,4,0,5.8
			c0.5,0.7,1.4,1.1,2.3,1.1C225.1,60.7,225.9,60.3,226.5,59.6z"/>
		<path class="st3" d="M244.6,62.2c-2.9,2.6-7.2,2.6-10.1,0c-1.3-1.5-1.9-3.4-1.8-5.3c-0.1-1.9,0.5-3.8,1.8-5.3
			c2.8-2.6,7.2-2.6,10,0c1.3,1.5,1.9,3.4,1.8,5.3C246.5,58.8,245.8,60.7,244.6,62.2z M239.6,61.1c0.9,0,1.7-0.4,2.2-1.1
			c0.6-0.9,0.9-2,0.8-3.2c0.1-1.1-0.2-2.2-0.8-3.1c-1-1.3-2.8-1.5-4-0.5c-0.2,0.2-0.4,0.3-0.5,0.5c-0.6,0.9-0.9,2-0.8,3.1
			c-0.1,1.1,0.2,2.2,0.8,3.2C237.8,60.7,238.6,61.1,239.6,61.1L239.6,61.1z"/>
		<path class="st3" d="M248.1,63.8V49.9h3.6v2.2h0.2c0.2-0.7,0.6-1.3,1.3-1.8c0.7-0.5,1.5-0.7,2.3-0.7c0.5,0,1,0,1.4,0.2v3.3
			c-0.6-0.2-1.2-0.2-1.7-0.2c-0.9,0-1.8,0.3-2.4,0.8c-0.6,0.6-1,1.4-0.9,2.3v7.7L248.1,63.8z"/>
		<path class="st3" d="M260,47.9c-0.6,0-1.1-0.2-1.6-0.5c-0.7-0.7-0.8-1.8-0.1-2.6c0,0,0.1-0.1,0.1-0.1c0.4-0.4,1-0.5,1.6-0.5
			c0.6,0,1.1,0.2,1.6,0.5c0.7,0.7,0.8,1.8,0.1,2.5c0,0-0.1,0.1-0.1,0.1C261.1,47.8,260.6,48,260,47.9z M258.2,63.8V49.9h3.7v13.9
			H258.2z"/>
		<path class="st3" d="M273.2,59.8h3.4c-0.2,1.3-1,2.4-2.1,3.2c-1.3,0.8-2.7,1.2-4.2,1.2c-1.9,0.1-3.7-0.6-5-1.9
			c-1.3-1.5-1.9-3.4-1.8-5.3c-0.1-1.9,0.5-3.9,1.8-5.4c1.3-1.4,3.1-2.1,4.9-2c1.8-0.1,3.5,0.6,4.8,1.8c1.2,1.4,1.8,3.3,1.7,5.2v1.1
			h-9.5v0.2c0,0.9,0.3,1.8,0.9,2.5c0.6,0.6,1.4,0.9,2.3,0.9c0.6,0,1.2-0.1,1.8-0.4C272.7,60.7,273,60.3,273.2,59.8z M270.2,52.4
			c-0.8,0-1.5,0.3-2.1,0.8c-0.6,0.6-0.9,1.4-0.9,2.2h5.9c0-0.8-0.3-1.6-0.8-2.2C271.8,52.7,271,52.4,270.2,52.4L270.2,52.4z"/>
		<path class="st3" d="M278.2,54c0-1.3,0.6-2.5,1.6-3.2c1.2-0.8,2.7-1.3,4.2-1.2c1.5-0.1,2.9,0.3,4.1,1.1c1,0.7,1.6,1.8,1.7,3.1
			h-3.4c-0.1-0.4-0.4-0.8-0.8-1.1c-0.5-0.3-1.1-0.4-1.6-0.4c-0.6,0-1.1,0.1-1.6,0.4c-0.4,0.2-0.6,0.6-0.6,1.1c0,0.3,0.2,0.7,0.5,0.8
			c0.4,0.3,0.9,0.5,1.4,0.5l2.6,0.6c1.1,0.2,2.1,0.6,3,1.3c0.6,0.6,1,1.5,0.9,2.5c0,1.3-0.6,2.6-1.7,3.3c-1.3,0.9-2.9,1.3-4.4,1.2
			c-1.5,0.1-3.1-0.3-4.4-1.1c-1-0.7-1.7-1.8-1.8-3.1h3.6c0.3,1,1.2,1.5,2.6,1.5c0.6,0,1.2-0.1,1.7-0.4c0.4-0.2,0.7-0.6,0.7-1.1
			c0-0.3-0.1-0.6-0.4-0.8c-0.4-0.3-0.9-0.4-1.3-0.5l-2.5-0.5c-1.1-0.2-2.2-0.7-3-1.4C278.5,55.9,278.1,55,278.2,54z"/>
		<path class="st4" d="M97.4,77.5h-0.9V73h0.8l2.1,2.8h0.1V73h0.9v4.6h-0.8l-2.1-2.8h-0.1V77.5z"/>
		<path class="st4" d="M103.8,77.1c-0.3,0.3-0.8,0.5-1.3,0.5c-0.5,0-0.9-0.1-1.3-0.5c-0.6-0.8-0.6-1.9,0-2.7
			c0.3-0.3,0.8-0.5,1.3-0.5c0.5,0,0.9,0.2,1.2,0.5c0.3,0.4,0.5,0.8,0.5,1.3C104.3,76.3,104.1,76.8,103.8,77.1z M102.6,76.9
			c0.2,0,0.4-0.1,0.6-0.3c0.3-0.5,0.3-1.1,0-1.6c-0.1-0.2-0.3-0.3-0.6-0.3c-0.2,0-0.4,0.1-0.6,0.3c-0.1,0.2-0.2,0.5-0.2,0.8
			c0,0.3,0.1,0.6,0.2,0.8C102.1,76.8,102.3,76.9,102.6,76.9z"/>
		<path class="st4" d="M105,73.2h0.9v0.9h0.7v0.7h-0.7v1.6c0,0.1,0,0.2,0.1,0.3c0.1,0.1,0.2,0.1,0.3,0.1h0.3v0.7c-0.2,0-0.3,0-0.5,0
			c-0.3,0-0.6,0-0.9-0.2c-0.2-0.2-0.3-0.5-0.3-0.7v-1.8h-0.5v-0.7h0.5V73.2z"/>
		<path class="st4" d="M111.5,76.7v0.8h-3V73h3v0.8h-2.1v1.1h2v0.8h-2v1.1L111.5,76.7z"/>
		<path class="st4" d="M111.8,74.1h1l0.7,2.6h0.1l0.7-2.6h1l-1.2,3.5h-1L111.8,74.1z"/>
		<path class="st4" d="M116.4,77.6c-0.3,0-0.6-0.1-0.8-0.3c-0.2-0.2-0.3-0.5-0.3-0.8c0-0.3,0.1-0.6,0.3-0.8c0.3-0.2,0.6-0.3,1-0.3
			h0.8v-0.3c0-0.1,0-0.3-0.2-0.3c-0.1-0.1-0.3-0.1-0.4-0.1c-0.3,0-0.6,0.1-0.6,0.3h-0.8c0-0.3,0.2-0.6,0.5-0.8
			c0.3-0.2,0.7-0.3,1.1-0.3c0.4,0,0.8,0.1,1.1,0.3c0.3,0.2,0.4,0.5,0.4,0.9v2.4h-0.9v-0.4h-0.1c-0.1,0.2-0.2,0.3-0.4,0.4
			C116.8,77.6,116.6,77.6,116.4,77.6z M116.7,76.9c0.2,0,0.4-0.1,0.5-0.2c0.1-0.1,0.2-0.3,0.2-0.4V76h-0.7c-0.4,0-0.6,0.2-0.6,0.4
			c0,0.1,0.1,0.2,0.2,0.3C116.4,76.8,116.5,76.9,116.7,76.9z"/>
		<path class="st4" d="M119,77.5v-4.8h0.9v4.8H119z"/>
		<path class="st4" d="M123.7,74.1v3.5h-0.9V77l0,0c-0.2,0.4-0.6,0.7-1,0.6c-0.3,0-0.7-0.1-0.9-0.3c-0.2-0.3-0.3-0.6-0.3-0.9v-2.3
			h0.9v2c0,0.5,0.2,0.7,0.6,0.7c0.2,0,0.4-0.1,0.5-0.2c0.1-0.2,0.2-0.4,0.2-0.6v-2L123.7,74.1z"/>
		<path class="st4" d="M125.2,77.6c-0.3,0-0.6-0.1-0.8-0.3c-0.2-0.2-0.3-0.5-0.3-0.8c0-0.3,0.1-0.6,0.3-0.8c0.3-0.2,0.6-0.3,1-0.3
			h0.8v-0.3c0-0.1,0-0.3-0.2-0.3c-0.1-0.1-0.3-0.1-0.4-0.1c-0.3,0-0.6,0.1-0.6,0.3h-0.8c0-0.3,0.2-0.6,0.4-0.8
			c0.3-0.2,0.7-0.3,1.1-0.3c0.4,0,0.8,0.1,1.1,0.3c0.3,0.2,0.4,0.5,0.4,0.9v2.4h-0.9v-0.4l0,0c-0.1,0.2-0.2,0.3-0.4,0.4
			C125.7,77.6,125.4,77.6,125.2,77.6z M125.5,76.9c0.2,0,0.4-0.1,0.5-0.2c0.1-0.1,0.2-0.3,0.2-0.4V76h-0.7c-0.4,0-0.6,0.2-0.6,0.4
			c0,0.1,0.1,0.2,0.2,0.3C125.2,76.8,125.4,76.9,125.5,76.9z"/>
		<path class="st4" d="M128,73.2h0.9v0.9h0.7v0.7h-0.7v1.6c0,0.1,0,0.2,0.1,0.3c0.1,0.1,0.2,0.1,0.3,0.1h0.3v0.7c-0.2,0-0.3,0-0.5,0
			c-0.3,0-0.6,0-0.9-0.2c-0.2-0.2-0.3-0.5-0.3-0.7v-1.8h-0.6v-0.7h0.6V73.2z"/>
		<path class="st4" d="M132.3,76.5h0.9c-0.1,0.3-0.3,0.6-0.5,0.8c-0.3,0.2-0.7,0.3-1.1,0.3c-0.5,0-0.9-0.1-1.2-0.5
			c-0.3-0.4-0.5-0.8-0.4-1.3c0-0.5,0.1-1,0.4-1.3c0.7-0.6,1.7-0.6,2.4,0c0.3,0.4,0.5,0.8,0.4,1.3V76h-2.4l0,0c0,0.2,0.1,0.4,0.2,0.6
			c0.2,0.2,0.4,0.2,0.6,0.2c0.2,0,0.3,0,0.4-0.1C132.2,76.7,132.3,76.6,132.3,76.5z M131.6,74.7c-0.2,0-0.4,0.1-0.5,0.2
			c-0.1,0.1-0.2,0.3-0.2,0.5h1.5c0-0.2-0.1-0.4-0.2-0.5C132,74.7,131.8,74.7,131.6,74.7z"/>
		<path class="st4" d="M134.9,77.6c-0.4,0-0.8-0.2-1-0.5c-0.5-0.8-0.5-1.8,0-2.6c0.2-0.3,0.6-0.5,1-0.5c0.2,0,0.4,0.1,0.6,0.2
			c0.2,0.1,0.3,0.3,0.4,0.4l0,0v-1.9h0.9v4.8H136V77l0,0c-0.1,0.2-0.2,0.3-0.4,0.4C135.4,77.6,135.1,77.6,134.9,77.6z M135.8,75
			c-0.1-0.2-0.4-0.3-0.6-0.3c-0.2,0-0.4,0.1-0.6,0.3c-0.2,0.2-0.2,0.5-0.2,0.8c0,0.3,0.1,0.5,0.2,0.8c0.3,0.3,0.7,0.4,1,0.1
			c0,0,0.1-0.1,0.1-0.1C136.1,76.1,136.1,75.5,135.8,75z"/>
		<path class="st4" d="M138.3,78.8h-0.7l0.2-2h0.9L138.3,78.8z"/>
		<path class="st4" d="M140.9,73h1.8c0.6,0,1.2,0.2,1.6,0.6c0.4,0.5,0.6,1.1,0.6,1.7c0,0.6-0.2,1.2-0.6,1.7c-0.4,0.4-1,0.6-1.6,0.6
			h-1.8L140.9,73z M141.9,73.8v2.9h0.7c0.4,0,0.7-0.1,1-0.4c0.2-0.3,0.4-0.7,0.3-1.1c0-0.4-0.1-0.8-0.4-1.1c-0.3-0.3-0.6-0.4-1-0.4
			L141.9,73.8z"/>
		<path class="st4" d="M146.2,77.6c-0.3,0-0.6-0.1-0.8-0.3c-0.2-0.2-0.3-0.5-0.3-0.8c0-0.3,0.1-0.6,0.4-0.8c0.3-0.2,0.6-0.3,1-0.3
			h0.8v-0.3c0-0.1,0-0.3-0.1-0.3c-0.1-0.1-0.3-0.1-0.4-0.1c-0.3,0-0.6,0.1-0.6,0.3h-0.9c0-0.3,0.2-0.6,0.5-0.8
			c0.3-0.2,0.7-0.3,1.1-0.3c0.4,0,0.8,0.1,1.1,0.3c0.3,0.2,0.4,0.5,0.4,0.9v2.4h-0.9v-0.4h-0.1c-0.1,0.2-0.2,0.3-0.4,0.4
			C146.6,77.6,146.4,77.6,146.2,77.6z M146.5,76.9c0.2,0,0.4-0.1,0.5-0.2c0.1-0.1,0.2-0.3,0.2-0.4V76h-0.7c-0.4,0-0.6,0.2-0.6,0.4
			c0,0.1,0.1,0.2,0.1,0.3C146.2,76.8,146.4,76.9,146.5,76.9z"/>
		<path class="st4" d="M149,73.2h1v0.9h0.7v0.7H150v1.6c0,0.1,0,0.2,0.1,0.3c0.1,0.1,0.2,0.1,0.3,0.1h0.3v0.7c-0.2,0-0.3,0-0.5,0
			c-0.3,0-0.6,0-0.9-0.2c-0.2-0.2-0.3-0.5-0.3-0.7v-1.8h-0.5v-0.7h0.5V73.2z"/>
		<path class="st4" d="M152.1,77.6c-0.3,0-0.6-0.1-0.8-0.3c-0.2-0.2-0.3-0.5-0.3-0.8c0-0.3,0.1-0.6,0.4-0.8c0.3-0.2,0.6-0.3,1-0.3
			h0.8v-0.3c0-0.1,0-0.3-0.1-0.3c-0.1-0.1-0.3-0.1-0.4-0.1c-0.3,0-0.6,0.1-0.6,0.3h-0.9c0-0.3,0.2-0.6,0.5-0.8
			c0.3-0.2,0.7-0.3,1.1-0.3c0.4,0,0.8,0.1,1.1,0.3c0.3,0.2,0.4,0.5,0.4,0.9v2.4h-0.9v-0.4h-0.1c-0.1,0.2-0.2,0.3-0.4,0.4
			C152.5,77.6,152.3,77.6,152.1,77.6z M152.4,76.9c0.2,0,0.4-0.1,0.5-0.2c0.1-0.1,0.2-0.3,0.2-0.4V76h-0.7c-0.4,0-0.6,0.2-0.6,0.4
			c0,0.1,0.1,0.2,0.1,0.3C152.1,76.8,152.2,76.9,152.4,76.9L152.4,76.9z"/>
		<path class="st4" d="M156.1,73h1.8c0.6,0,1.2,0.2,1.6,0.6c0.4,0.5,0.6,1.1,0.6,1.7c0,0.6-0.2,1.2-0.6,1.7c-0.4,0.4-1,0.6-1.6,0.6
			h-1.8V73z M157,73.8v2.9h0.7c0.4,0,0.7-0.1,1-0.4c0.5-0.6,0.5-1.5,0-2.2c-0.3-0.3-0.6-0.4-1-0.4L157,73.8z"/>
		<path class="st4" d="M162.7,76.5h0.9c-0.1,0.3-0.3,0.6-0.5,0.8c-0.3,0.2-0.7,0.3-1.1,0.3c-0.5,0-0.9-0.1-1.2-0.5
			c-0.3-0.4-0.5-0.8-0.4-1.3c0-0.5,0.1-1,0.4-1.3c0.7-0.6,1.7-0.6,2.4,0c0.3,0.4,0.5,0.8,0.4,1.3V76h-2.4l0,0c0,0.2,0.1,0.4,0.2,0.6
			c0.1,0.2,0.4,0.2,0.6,0.2c0.2,0,0.3,0,0.5-0.1C162.6,76.7,162.7,76.6,162.7,76.5z M162,74.7c-0.2,0-0.4,0.1-0.5,0.2
			c-0.1,0.1-0.2,0.3-0.2,0.5h1.5c0-0.2-0.1-0.4-0.2-0.5C162.4,74.7,162.2,74.7,162,74.7z"/>
		<path class="st4" d="M164.3,77.5v-2.7h-0.6v-0.7h0.6v-0.3c0-0.3,0.1-0.6,0.3-0.8c0.3-0.2,0.6-0.3,0.9-0.2c0.1,0,0.3,0,0.4,0v0.7
			c-0.1,0-0.2,0-0.3,0c-0.1,0-0.2,0-0.4,0.1c-0.1,0.1-0.1,0.2-0.1,0.3v0.2h0.7v0.7h-0.7v2.7L164.3,77.5z"/>
		<path class="st4" d="M166.8,73.6c-0.1,0-0.3,0-0.4-0.1c-0.1-0.1-0.2-0.2-0.1-0.3c0-0.1,0-0.3,0.1-0.3c0.1-0.1,0.2-0.1,0.4-0.1
			c0.1,0,0.3,0,0.4,0.1c0.1,0.1,0.2,0.2,0.1,0.3c0,0.1-0.1,0.2-0.1,0.3C167.1,73.5,167,73.6,166.8,73.6z M166.3,77.6v-3.5h0.9v3.5
			L166.3,77.6z"/>
		<path class="st4" d="M171,75.3h-0.9c0-0.2-0.1-0.3-0.2-0.4c-0.1-0.1-0.3-0.2-0.5-0.1c-0.2,0-0.4,0.1-0.6,0.3
			c-0.1,0.2-0.2,0.5-0.2,0.8c0,0.3,0.1,0.6,0.2,0.8c0.1,0.2,0.4,0.3,0.6,0.3c0.2,0,0.3,0,0.5-0.1c0.1-0.1,0.2-0.2,0.2-0.4h0.9
			c0,0.4-0.2,0.7-0.5,0.9c-0.3,0.2-0.7,0.4-1.1,0.3c-0.5,0-0.9-0.1-1.3-0.5c-0.3-0.4-0.5-0.9-0.4-1.3c0-0.5,0.1-1,0.4-1.3
			c0.7-0.6,1.6-0.6,2.4-0.1C170.8,74.6,171,74.9,171,75.3z"/>
		<path class="st4" d="M171.8,73.6c-0.1,0-0.3,0-0.4-0.1c-0.1-0.1-0.2-0.2-0.1-0.3c0-0.1,0-0.3,0.1-0.3c0.1-0.1,0.2-0.1,0.4-0.1
			c0.1,0,0.3,0,0.4,0.1c0.1,0.1,0.1,0.2,0.1,0.3c0,0.1-0.1,0.2-0.1,0.3C172.1,73.5,172,73.6,171.8,73.6z M171.4,77.6v-3.5h0.9v3.5
			L171.4,77.6z"/>
		<path class="st4" d="M175.1,76.5h0.9c-0.1,0.3-0.3,0.6-0.5,0.8c-0.3,0.2-0.7,0.3-1.1,0.3c-0.5,0-0.9-0.1-1.2-0.5
			c-0.3-0.4-0.5-0.8-0.4-1.3c0-0.5,0.1-1,0.4-1.3c0.7-0.6,1.7-0.6,2.4,0c0.3,0.4,0.5,0.8,0.4,1.3V76h-2.4l0,0c0,0.2,0.1,0.4,0.2,0.6
			c0.1,0.2,0.4,0.2,0.6,0.2c0.2,0,0.3,0,0.5-0.1C175,76.7,175.1,76.6,175.1,76.5z M174.4,74.7c-0.2,0-0.4,0.1-0.5,0.2
			c-0.1,0.1-0.2,0.3-0.2,0.5h1.5c0-0.2-0.1-0.4-0.2-0.5C174.8,74.7,174.6,74.7,174.4,74.7z"/>
		<path class="st4" d="M176.4,77.5v-3.5h0.9v0.6h0.1c0.1-0.2,0.2-0.4,0.4-0.5c0.2-0.1,0.4-0.2,0.6-0.2c0.3,0,0.7,0.1,0.9,0.3
			c0.2,0.3,0.3,0.6,0.3,1v2.2h-0.9v-2c0-0.5-0.2-0.7-0.6-0.7c-0.2,0-0.4,0.1-0.5,0.2c-0.1,0.2-0.2,0.4-0.2,0.6v2L176.4,77.5z"/>
		<path class="st4" d="M180.4,73.2h0.9v0.9h0.7v0.7h-0.7v1.6c0,0.1,0,0.2,0.1,0.3c0.1,0.1,0.2,0.1,0.4,0.1h0.3v0.7
			c-0.2,0-0.3,0-0.5,0c-0.3,0-0.6,0-0.9-0.2c-0.2-0.2-0.3-0.5-0.3-0.7v-1.8h-0.6v-0.7h0.6V73.2z"/>
		<path class="st4" d="M183.3,78.8h-0.7l0.2-2h0.9L183.3,78.8z"/>
		<path class="st4" d="M188.9,76.7v0.8h-3V73h1v3.7H188.9z"/>
		<path class="st4" d="M191.4,76.5h0.9c-0.1,0.3-0.3,0.6-0.5,0.8c-0.3,0.2-0.7,0.3-1.1,0.3c-0.5,0-0.9-0.1-1.2-0.5
			c-0.3-0.4-0.5-0.8-0.4-1.3c0-0.5,0.1-1,0.4-1.3c0.7-0.6,1.7-0.6,2.4,0c0.3,0.4,0.5,0.8,0.4,1.3V76h-2.4l0,0c0,0.2,0.1,0.4,0.2,0.6
			c0.2,0.2,0.4,0.2,0.6,0.2c0.2,0,0.3,0,0.4-0.1C191.3,76.7,191.4,76.6,191.4,76.5z M190.7,74.7c-0.2,0-0.4,0.1-0.5,0.2
			c-0.1,0.1-0.2,0.3-0.2,0.5h1.5c0-0.2-0.1-0.4-0.2-0.5C191.1,74.7,190.9,74.7,190.7,74.7z"/>
		<path class="st4" d="M193.7,77.6c-0.3,0-0.6-0.1-0.8-0.3c-0.2-0.2-0.3-0.5-0.3-0.8c0-0.3,0.1-0.6,0.4-0.8c0.3-0.2,0.6-0.3,1-0.3
			h0.9v-0.3c0-0.1,0-0.3-0.1-0.3c-0.1-0.1-0.3-0.1-0.4-0.1c-0.3,0-0.6,0.1-0.6,0.3h-0.9c0-0.3,0.2-0.6,0.5-0.8
			c0.3-0.2,0.7-0.3,1.1-0.3c0.4,0,0.8,0.1,1.1,0.3c0.3,0.2,0.4,0.5,0.4,0.9v2.4h-0.9v-0.4h-0.1c-0.1,0.2-0.2,0.3-0.4,0.4
			C194.1,77.6,193.9,77.6,193.7,77.6z M194,76.9c0.2,0,0.4-0.1,0.5-0.2c0.1-0.1,0.2-0.3,0.2-0.4V76H194c-0.4,0-0.6,0.2-0.6,0.4
			c0,0.1,0,0.2,0.1,0.3C193.7,76.8,193.9,76.9,194,76.9L194,76.9z"/>
		<path class="st4" d="M196.1,75.1c0-0.3,0.1-0.6,0.4-0.8c0.3-0.2,0.7-0.3,1.1-0.3c0.4,0,0.7,0.1,1,0.3c0.2,0.2,0.4,0.5,0.4,0.8
			h-0.9c0-0.1-0.1-0.2-0.2-0.3c-0.1-0.1-0.3-0.1-0.4-0.1c-0.1,0-0.3,0-0.4,0.1c-0.1,0.1-0.1,0.1-0.1,0.3c0,0.1,0,0.2,0.1,0.2
			c0.1,0.1,0.2,0.1,0.4,0.1l0.6,0.1c0.3,0,0.5,0.2,0.8,0.3c0.2,0.2,0.2,0.4,0.2,0.6c0,0.3-0.2,0.6-0.4,0.8c-0.3,0.2-0.7,0.3-1.1,0.3
			c-0.4,0-0.8-0.1-1.1-0.3c-0.3-0.2-0.4-0.5-0.4-0.8h0.9c0.1,0.2,0.3,0.4,0.7,0.4c0.1,0,0.3,0,0.4-0.1c0.1-0.1,0.2-0.2,0.2-0.3
			c0-0.1,0-0.2-0.1-0.2c-0.1-0.1-0.2-0.1-0.3-0.1l-0.6-0.1c-0.3-0.1-0.5-0.2-0.8-0.4C196.2,75.5,196.1,75.3,196.1,75.1z"/>
		<path class="st4" d="M199.8,73.2h0.9v0.9h0.7v0.7h-0.7v1.6c0,0.1,0,0.2,0.1,0.3c0.1,0.1,0.2,0.1,0.3,0.1h0.3v0.7
			c-0.2,0-0.3,0-0.5,0c-0.3,0-0.6,0-0.9-0.2c-0.2-0.2-0.3-0.5-0.3-0.7v-1.8h-0.5v-0.7h0.5L199.8,73.2z"/>
		<path class="st4" d="M205.3,77.7c-0.6,0-1.2-0.2-1.6-0.7c-0.8-1-0.8-2.5,0-3.5c0.4-0.4,1-0.7,1.6-0.6c0.5,0,1,0.2,1.4,0.5
			c0.4,0.3,0.6,0.7,0.6,1.2h-0.9c0-0.2-0.2-0.5-0.4-0.6c-0.2-0.2-0.4-0.2-0.7-0.2c-0.3,0-0.7,0.1-0.9,0.4c-0.4,0.7-0.4,1.6,0,2.3
			c0.2,0.3,0.5,0.4,0.9,0.4c0.2,0,0.5-0.1,0.7-0.2c0.2-0.2,0.3-0.4,0.4-0.6h0.9c0,0.5-0.2,0.9-0.6,1.2
			C206.3,77.5,205.8,77.7,205.3,77.7z"/>
		<path class="st4" d="M210.5,77.1c-0.7,0.7-1.8,0.7-2.5,0c-0.6-0.8-0.6-1.9,0-2.7c0.7-0.7,1.8-0.7,2.5,0
			C211.1,75.2,211.1,76.3,210.5,77.1z M209.2,76.9c0.2,0,0.4-0.1,0.6-0.3c0.3-0.5,0.3-1.1,0-1.6c-0.2-0.3-0.7-0.4-1-0.1
			c-0.1,0-0.1,0.1-0.1,0.1c-0.2,0.2-0.2,0.5-0.2,0.8c0,0.3,0.1,0.6,0.2,0.8C208.8,76.8,209,76.9,209.2,76.9z"/>
		<path class="st4" d="M211.4,77.5v-3.5h0.9v0.6h0.1c0.1-0.2,0.2-0.4,0.4-0.5c0.2-0.1,0.4-0.2,0.6-0.2c0.3,0,0.7,0.1,0.9,0.3
			c0.2,0.3,0.3,0.6,0.3,1v2.2h-0.9v-2c0-0.5-0.2-0.7-0.6-0.7c-0.2,0-0.4,0.1-0.5,0.2c-0.1,0.2-0.2,0.3-0.2,0.6v2L211.4,77.5z"/>
		<path class="st4" d="M218.2,75.3h-0.9c0-0.2-0.1-0.3-0.2-0.4c-0.1-0.1-0.3-0.2-0.5-0.1c-0.2,0-0.4,0.1-0.6,0.3
			c-0.1,0.2-0.2,0.5-0.2,0.8c0,0.3,0.1,0.6,0.2,0.8c0.1,0.2,0.3,0.3,0.6,0.3c0.2,0,0.3,0,0.5-0.1c0.1-0.1,0.2-0.2,0.2-0.4h0.9
			c0,0.4-0.2,0.7-0.5,0.9c-0.7,0.5-1.7,0.5-2.4-0.1c-0.3-0.4-0.5-0.9-0.4-1.3c0-0.5,0.1-1,0.4-1.3c0.3-0.3,0.8-0.5,1.3-0.5
			c0.4,0,0.8,0.1,1.1,0.3C218,74.6,218.2,74.9,218.2,75.3z"/>
		<path class="st4" d="M220.9,76.5h0.9c-0.1,0.3-0.3,0.6-0.5,0.8c-0.3,0.2-0.7,0.3-1.1,0.3c-0.5,0-0.9-0.1-1.2-0.5
			c-0.3-0.4-0.5-0.8-0.4-1.3c0-0.5,0.1-1,0.4-1.3c0.7-0.6,1.7-0.6,2.4,0c0.3,0.4,0.5,0.8,0.4,1.3V76h-2.4l0,0c0,0.2,0.1,0.4,0.2,0.6
			c0.1,0.2,0.4,0.2,0.6,0.2c0.2,0,0.3,0,0.4-0.1C220.7,76.7,220.8,76.6,220.9,76.5z M220.1,74.7c-0.2,0-0.4,0.1-0.5,0.2
			c-0.1,0.1-0.2,0.3-0.2,0.5h1.5c0-0.2-0.1-0.4-0.2-0.5C220.5,74.7,220.3,74.7,220.1,74.7z"/>
		<path class="st4" d="M222.2,77.5v-3.5h0.9v0.6h0.1c0.1-0.2,0.2-0.3,0.3-0.4c0.2-0.1,0.4-0.2,0.6-0.2c0.1,0,0.2,0,0.4,0v0.8
			c-0.1,0-0.3-0.1-0.4-0.1c-0.2,0-0.5,0.1-0.6,0.2c-0.2,0.1-0.2,0.4-0.2,0.6v1.9L222.2,77.5z"/>
		<path class="st4" d="M224.7,77.5v-3.5h0.9v0.6l0,0c0.1-0.2,0.2-0.4,0.4-0.5c0.2-0.1,0.4-0.2,0.6-0.2c0.3,0,0.7,0.1,0.9,0.3
			c0.2,0.3,0.3,0.6,0.3,1v2.2h-0.9v-2c0-0.5-0.2-0.7-0.6-0.7c-0.2,0-0.4,0.1-0.5,0.2c-0.1,0.2-0.2,0.3-0.2,0.6v2L224.7,77.5z"/>
		<path class="st4" d="M229.2,78.8h-0.7l0.2-2h0.9L229.2,78.8z"/>
		<path class="st4" d="M97.4,85.1h-0.9v-4.6h0.8l2.1,2.8h0.1v-2.8h0.9v4.6h-0.8l-2.1-2.9h-0.1V85.1z"/>
		<path class="st4" d="M103.3,84.1h0.8c-0.1,0.3-0.3,0.6-0.5,0.8c-0.3,0.2-0.7,0.3-1.1,0.3c-0.5,0-0.9-0.1-1.2-0.5
			c-0.3-0.4-0.5-0.8-0.4-1.3c0-0.5,0.1-1,0.4-1.3c0.3-0.3,0.8-0.5,1.2-0.5c0.4,0,0.9,0.1,1.2,0.5c0.3,0.4,0.5,0.8,0.4,1.3v0.3h-2.4
			v0.1c0,0.2,0.1,0.4,0.2,0.6c0.2,0.2,0.4,0.2,0.6,0.2c0.2,0,0.3,0,0.4-0.1C103.1,84.3,103.2,84.2,103.3,84.1z M102.5,82.3
			c-0.2,0-0.4,0.1-0.5,0.2c-0.1,0.1-0.2,0.3-0.2,0.5h1.5c0-0.2-0.1-0.4-0.2-0.6C102.9,82.3,102.7,82.3,102.5,82.3z"/>
		<path class="st4" d="M105.5,85.2c-0.3,0-0.6-0.1-0.8-0.3c-0.2-0.2-0.3-0.5-0.3-0.8c0-0.3,0.1-0.6,0.3-0.7c0.3-0.2,0.6-0.3,1-0.3
			h0.8v-0.3c0-0.1,0-0.3-0.2-0.3c-0.1-0.1-0.3-0.1-0.4-0.1c-0.3,0-0.6,0.1-0.6,0.3h-0.8c0-0.3,0.2-0.6,0.5-0.8
			c0.3-0.2,0.7-0.3,1.1-0.3c0.4,0,0.8,0.1,1.1,0.3c0.3,0.2,0.4,0.5,0.4,0.9v2.4h-0.9v-0.5h-0.1c-0.1,0.2-0.2,0.3-0.4,0.4
			C106,85.2,105.7,85.2,105.5,85.2z M105.8,84.5c0.2,0,0.4-0.1,0.5-0.2c0.1-0.1,0.2-0.3,0.2-0.4v-0.2h-0.7c-0.4,0-0.6,0.2-0.6,0.4
			c0,0.1,0.1,0.2,0.2,0.3C105.6,84.4,105.7,84.5,105.8,84.5z"/>
		<path class="st4" d="M108.1,85.1v-3.5h0.9v0.6l0,0c0-0.2,0.2-0.3,0.3-0.4c0.2-0.1,0.4-0.2,0.6-0.2c0.1,0,0.2,0,0.4,0v0.8
			c-0.1,0-0.3-0.1-0.4-0.1c-0.2,0-0.4,0.1-0.6,0.2c-0.2,0.2-0.2,0.4-0.2,0.6v1.9L108.1,85.1z"/>
		<path class="st4" d="M114.1,85.1h-1v-3.8h-1.4v-0.8h3.7v0.8H114L114.1,85.1z"/>
		<path class="st4" d="M115.9,85.1v-4.8h0.9v1.9h0.1c0.1-0.2,0.2-0.4,0.4-0.5c0.2-0.1,0.4-0.2,0.7-0.2c0.3,0,0.6,0.1,0.9,0.3
			c0.2,0.3,0.3,0.6,0.3,1v2.2h-0.9v-2c0-0.2,0-0.4-0.2-0.5c-0.1-0.1-0.3-0.2-0.5-0.2c-0.2,0-0.4,0.1-0.5,0.2
			c-0.1,0.1-0.2,0.3-0.2,0.6v2L115.9,85.1z"/>
		<path class="st4" d="M119.7,85.1v-3.5h0.9v0.6h0.1c0-0.2,0.2-0.3,0.3-0.4c0.2-0.1,0.4-0.2,0.6-0.2c0.1,0,0.2,0,0.4,0v0.8
			c-0.1,0-0.3-0.1-0.4-0.1c-0.2,0-0.4,0.1-0.6,0.2c-0.2,0.2-0.2,0.4-0.2,0.6v1.9L119.7,85.1z"/>
		<path class="st4" d="M124.3,84.1h0.9c-0.1,0.3-0.3,0.6-0.5,0.8c-0.3,0.2-0.7,0.3-1.1,0.3c-0.5,0-0.9-0.1-1.2-0.5
			c-0.3-0.4-0.5-0.8-0.4-1.3c0-0.5,0.1-1,0.4-1.3c0.7-0.6,1.7-0.6,2.4,0c0.3,0.4,0.5,0.8,0.4,1.3v0.3h-2.4v0.1
			c0,0.2,0.1,0.4,0.2,0.6c0.1,0.2,0.4,0.2,0.6,0.2c0.2,0,0.3,0,0.5-0.1C124.2,84.4,124.3,84.3,124.3,84.1z M123.6,82.3
			c-0.2,0-0.4,0.1-0.5,0.2c-0.1,0.1-0.2,0.3-0.2,0.5h1.5c0-0.2-0.1-0.4-0.2-0.6C124,82.3,123.8,82.3,123.6,82.3z"/>
		<path class="st4" d="M126.6,85.2c-0.3,0-0.6-0.1-0.8-0.3c-0.2-0.2-0.3-0.5-0.3-0.8c0-0.3,0.1-0.6,0.3-0.7c0.3-0.2,0.6-0.3,1-0.3
			h0.8v-0.3c0-0.1,0-0.3-0.2-0.3c-0.1-0.1-0.3-0.1-0.4-0.1c-0.3,0-0.6,0.1-0.6,0.3h-0.8c0-0.3,0.2-0.6,0.5-0.8
			c0.3-0.2,0.7-0.3,1.1-0.3c0.4,0,0.8,0.1,1.1,0.3c0.3,0.2,0.4,0.5,0.4,0.9v2.4h-0.9v-0.5h-0.1c-0.1,0.2-0.2,0.3-0.4,0.4
			C127,85.2,126.8,85.2,126.6,85.2z M126.9,84.5c0.2,0,0.4-0.1,0.5-0.2c0.1-0.1,0.2-0.3,0.2-0.4v-0.2H127c-0.4,0-0.6,0.2-0.6,0.4
			c0,0.1,0.1,0.2,0.2,0.3C126.6,84.4,126.8,84.5,126.9,84.5z"/>
		<path class="st4" d="M129.4,80.8h0.9v0.9h0.7v0.7h-0.7V84c0,0.1,0,0.2,0.1,0.3c0.1,0.1,0.2,0.1,0.3,0.1h0.3v0.7
			c-0.2,0-0.3,0-0.5,0c-0.3,0-0.6,0-0.9-0.2c-0.2-0.2-0.3-0.5-0.3-0.7v-1.8h-0.5v-0.7h0.5L129.4,80.8z"/>
		<path class="st4" d="M133.7,84.1h0.9c-0.1,0.3-0.3,0.6-0.5,0.8c-0.3,0.2-0.7,0.3-1.1,0.3c-0.5,0-0.9-0.1-1.2-0.5
			c-0.6-0.8-0.6-1.9,0-2.7c0.3-0.3,0.8-0.5,1.2-0.5c0.4,0,0.9,0.1,1.2,0.5c0.3,0.4,0.5,0.8,0.4,1.3v0.3h-2.4v0.1
			c0,0.2,0.1,0.4,0.2,0.6c0.1,0.2,0.4,0.2,0.6,0.2c0.2,0,0.3,0,0.5-0.1C133.6,84.3,133.7,84.2,133.7,84.1z M133,82.3
			c-0.2,0-0.4,0.1-0.5,0.2c-0.1,0.1-0.2,0.3-0.2,0.5h1.5c0-0.2-0.1-0.4-0.2-0.6C133.4,82.3,133.2,82.3,133,82.3z"/>
		<path class="st4" d="M135,85.1v-3.5h0.9v0.6h0.1c0.1-0.2,0.2-0.4,0.4-0.5c0.2-0.1,0.4-0.2,0.6-0.2c0.3,0,0.7,0.1,0.9,0.3
			c0.2,0.3,0.3,0.6,0.3,1v2.2h-0.9v-2c0-0.5-0.2-0.7-0.6-0.7c-0.2,0-0.4,0.1-0.5,0.2c-0.1,0.2-0.2,0.3-0.2,0.6v2L135,85.1z"/>
		<path class="st4" d="M141,84.1h0.9c-0.1,0.3-0.3,0.6-0.5,0.8c-0.3,0.2-0.7,0.3-1.1,0.3c-0.5,0-0.9-0.1-1.2-0.5
			c-0.6-0.8-0.6-1.9,0-2.7c0.3-0.3,0.8-0.5,1.2-0.5c0.4,0,0.9,0.1,1.2,0.5c0.3,0.4,0.5,0.8,0.4,1.3v0.3h-2.4v0.1
			c0,0.2,0.1,0.4,0.2,0.6c0.1,0.2,0.4,0.2,0.6,0.2c0.2,0,0.3,0,0.5-0.1C140.9,84.3,140.9,84.2,141,84.1z M140.3,82.3
			c-0.2,0-0.4,0.1-0.5,0.2c-0.1,0.1-0.2,0.3-0.2,0.5h1.5c0-0.2-0.1-0.4-0.2-0.6C140.7,82.3,140.5,82.3,140.3,82.3L140.3,82.3z"/>
		<path class="st4" d="M143.6,85.2c-0.4,0-0.8-0.2-1-0.5c-0.5-0.8-0.5-1.8,0-2.6c0.2-0.3,0.6-0.5,1-0.5c0.2,0,0.4,0,0.6,0.2
			c0.2,0.1,0.3,0.3,0.4,0.4l0,0v-1.9h0.9v4.8h-0.9v-0.6h-0.1c-0.1,0.2-0.2,0.3-0.4,0.4C144,85.1,143.8,85.2,143.6,85.2z M144.5,82.6
			c-0.3-0.3-0.7-0.4-1.1-0.1c0,0-0.1,0.1-0.1,0.1c-0.3,0.5-0.3,1,0,1.5c0.3,0.3,0.7,0.4,1.1,0.1c0,0,0.1-0.1,0.1-0.1
			c0.2-0.2,0.2-0.5,0.2-0.8C144.7,83.1,144.6,82.8,144.5,82.6z"/>
		<path class="st4" d="M147,86.3h-0.7l0.2-2h0.9L147,86.3z"/>
		<path class="st4" d="M152,85.1h-1.2l-1.5-4.6h1.1l1,3.5h0.1l1-3.5h1L152,85.1z"/>
		<path class="st4" d="M156.8,81.6v3.5H156v-0.6h-0.1c-0.2,0.4-0.6,0.7-1,0.6c-0.3,0-0.7-0.1-0.9-0.3c-0.2-0.3-0.4-0.6-0.3-0.9v-2.3
			h0.9v2c0,0.5,0.2,0.7,0.6,0.7c0.2,0,0.4-0.1,0.5-0.2c0.1-0.2,0.2-0.4,0.2-0.6v-2L156.8,81.6z"/>
		<path class="st4" d="M157.5,85.1v-4.8h0.9v4.8H157.5z"/>
		<path class="st4" d="M159,85.1v-3.5h0.9v0.6h0.1c0.1-0.2,0.2-0.4,0.4-0.5c0.2-0.1,0.4-0.2,0.6-0.2c0.3,0,0.7,0.1,0.9,0.3
			c0.2,0.3,0.3,0.6,0.3,1v2.2h-0.9v-2c0-0.5-0.2-0.7-0.6-0.7c-0.2,0-0.4,0.1-0.5,0.2c-0.1,0.2-0.2,0.4-0.2,0.6v2L159,85.1z"/>
		<path class="st4" d="M165,84.1h0.9c-0.1,0.3-0.3,0.6-0.5,0.8c-0.3,0.2-0.7,0.3-1.1,0.3c-0.5,0-0.9-0.1-1.2-0.5
			c-0.3-0.4-0.5-0.8-0.4-1.3c0-0.5,0.1-1,0.4-1.3c0.3-0.3,0.8-0.5,1.2-0.5c0.4,0,0.9,0.1,1.2,0.5c0.3,0.4,0.5,0.8,0.4,1.3v0.3h-2.4
			v0.1c0,0.2,0.1,0.4,0.2,0.6c0.1,0.2,0.4,0.2,0.6,0.2c0.2,0,0.3,0,0.5-0.1C164.9,84.3,164.9,84.2,165,84.1z M164.2,82.3
			c-0.2,0-0.4,0.1-0.5,0.2c-0.1,0.1-0.2,0.3-0.2,0.5h1.5c0-0.2-0.1-0.4-0.2-0.6C164.6,82.3,164.5,82.3,164.2,82.3L164.2,82.3z"/>
		<path class="st4" d="M166.3,85.1v-3.5h0.9v0.6h0.1c0-0.2,0.2-0.3,0.3-0.4c0.2-0.1,0.4-0.2,0.6-0.2c0.1,0,0.2,0,0.4,0v0.8
			c-0.1,0-0.3-0.1-0.4-0.1c-0.2,0-0.4,0.1-0.6,0.2c-0.2,0.1-0.2,0.4-0.2,0.6v1.9L166.3,85.1z"/>
		<path class="st4" d="M169.7,85.2c-0.3,0-0.6-0.1-0.8-0.3c-0.2-0.2-0.3-0.5-0.3-0.8c0-0.3,0.1-0.6,0.4-0.7c0.3-0.2,0.6-0.3,1-0.3
			h0.8v-0.3c0-0.1,0-0.3-0.1-0.3c-0.1-0.1-0.3-0.1-0.4-0.1c-0.3,0-0.6,0.1-0.6,0.3h-0.9c0-0.3,0.2-0.6,0.5-0.8
			c0.3-0.2,0.7-0.3,1.1-0.3c0.4,0,0.8,0.1,1.1,0.3c0.3,0.2,0.4,0.5,0.4,0.9v2.4h-0.9v-0.5h-0.1c-0.1,0.2-0.2,0.3-0.4,0.4
			C170.1,85.2,169.9,85.2,169.7,85.2z M170,84.5c0.2,0,0.4-0.1,0.5-0.2c0.1-0.1,0.2-0.3,0.2-0.4v-0.2h-0.7c-0.4,0-0.6,0.2-0.6,0.4
			c0,0.1,0.1,0.2,0.1,0.3C169.7,84.4,169.9,84.5,170,84.5z"/>
		<path class="st4" d="M174.3,85.2c-0.2,0-0.5,0-0.6-0.2c-0.2-0.1-0.3-0.3-0.4-0.4h-0.1v0.6h-0.9v-4.8h0.9v1.9h0.1
			c0.1-0.2,0.2-0.3,0.4-0.4c0.2-0.1,0.4-0.2,0.6-0.2c0.4,0,0.8,0.2,1,0.5c0.5,0.8,0.5,1.8,0,2.6C175,85,174.7,85.2,174.3,85.2z
			 M174.5,82.6c-0.1-0.2-0.4-0.3-0.6-0.3c-0.2,0-0.4,0.1-0.6,0.3c-0.3,0.5-0.3,1,0,1.5c0.3,0.3,0.7,0.4,1.1,0.1c0,0,0.1-0.1,0.1-0.1
			C174.8,83.7,174.8,83.1,174.5,82.6L174.5,82.6z"/>
		<path class="st4" d="M176.2,85.1v-4.8h0.9v4.8H176.2z"/>
		<path class="st4" d="M180,84.1h0.9c-0.1,0.3-0.3,0.6-0.5,0.8c-0.3,0.2-0.7,0.3-1.1,0.3c-0.5,0-0.9-0.1-1.2-0.5
			c-0.6-0.8-0.6-1.9,0-2.7c0.7-0.6,1.7-0.6,2.4,0c0.3,0.4,0.5,0.8,0.4,1.3v0.3h-2.4v0.1c0,0.2,0.1,0.4,0.2,0.6
			c0.1,0.2,0.4,0.2,0.6,0.2c0.2,0,0.3,0,0.5-0.1C179.9,84.4,180,84.3,180,84.1z M179.3,82.3c-0.2,0-0.4,0.1-0.5,0.2
			c-0.1,0.1-0.2,0.3-0.2,0.5h1.5c0-0.2-0.1-0.4-0.2-0.6C179.6,82.3,179.4,82.2,179.3,82.3L179.3,82.3z"/>
		<path class="st4" d="M182,86.3h-0.7l0.2-2h0.9L182,86.3z"/>
		<path class="st4" d="M187.7,84.3v0.8h-3v-4.6h3v0.8h-2.1v1.1h1.9v0.8h-1.9v1.1H187.7z"/>
		<path class="st4" d="M188.2,85.1v-3.5h0.9v0.6h0.1c0.1-0.2,0.2-0.4,0.4-0.5c0.2-0.1,0.4-0.2,0.6-0.2c0.3,0,0.7,0.1,0.9,0.3
			c0.2,0.3,0.3,0.6,0.3,1v2.2h-0.9v-2c0-0.5-0.2-0.7-0.6-0.7c-0.2,0-0.4,0.1-0.5,0.2c-0.1,0.2-0.2,0.3-0.2,0.6v2L188.2,85.1z"/>
		<path class="st4" d="M193.2,85.2c-0.4,0-0.8-0.2-1-0.5c-0.5-0.8-0.5-1.8,0-2.6c0.2-0.3,0.6-0.5,1-0.5c0.2,0,0.4,0.1,0.6,0.2
			c0.2,0.1,0.3,0.3,0.4,0.4l0,0v-1.9h0.9v4.8h-0.9v-0.6h-0.1c-0.1,0.2-0.2,0.3-0.4,0.4C193.6,85.1,193.4,85.2,193.2,85.2z
			 M194.1,82.6c-0.3-0.3-0.7-0.4-1.1-0.1c0,0-0.1,0.1-0.1,0.1c-0.2,0.2-0.2,0.5-0.2,0.8c0,0.3,0.1,0.5,0.2,0.8
			c0.1,0.2,0.4,0.3,0.6,0.3c0.2,0,0.4-0.1,0.6-0.3c0.2-0.2,0.2-0.5,0.2-0.8C194.3,83.1,194.3,82.8,194.1,82.6z"/>
		<path class="st4" d="M196.8,85.2c-0.3,0-0.6-0.1-0.8-0.3c-0.2-0.2-0.3-0.5-0.3-0.8c0-0.3,0.1-0.6,0.3-0.7c0.3-0.2,0.6-0.3,1-0.3
			h0.9v-0.3c0-0.1,0-0.3-0.1-0.3c-0.1-0.1-0.3-0.1-0.4-0.1c-0.3,0-0.6,0.1-0.6,0.3h-0.9c0-0.3,0.2-0.6,0.5-0.8
			c0.3-0.2,0.7-0.3,1.1-0.3c0.4,0,0.8,0.1,1.1,0.3c0.3,0.2,0.4,0.5,0.4,0.9v2.4h-0.9v-0.5l0,0c-0.1,0.2-0.2,0.3-0.4,0.4
			C197.3,85.2,197,85.2,196.8,85.2z M197.1,84.5c0.2,0,0.4-0.1,0.5-0.2c0.1-0.1,0.2-0.3,0.2-0.4v-0.2h-0.7c-0.4,0-0.6,0.2-0.6,0.4
			c0,0.1,0.1,0.2,0.1,0.3C196.9,84.4,197,84.5,197.1,84.5z"/>
		<path class="st4" d="M199.4,85.1v-3.5h0.9v0.6h0.1c0.1-0.2,0.2-0.4,0.4-0.5c0.2-0.1,0.4-0.2,0.6-0.2c0.3,0,0.7,0.1,0.9,0.3
			c0.2,0.3,0.3,0.6,0.3,1v2.2h-0.9v-2c0-0.5-0.2-0.7-0.6-0.7c-0.2,0-0.4,0.1-0.5,0.2c-0.1,0.2-0.2,0.3-0.2,0.6v2L199.4,85.1z"/>
		<path class="st4" d="M204.6,86.4c-0.4,0-0.8-0.1-1.1-0.3c-0.3-0.2-0.4-0.4-0.5-0.7h1c0,0.1,0.1,0.2,0.2,0.2
			c0.3,0.2,0.7,0.1,1.1-0.1c0.1-0.1,0.2-0.3,0.2-0.5v-0.7h-0.1c-0.2,0.4-0.6,0.6-1,0.6c-0.4,0-0.8-0.2-1-0.5
			c-0.3-0.4-0.4-0.8-0.4-1.2c0-0.5,0.1-0.9,0.4-1.3c0.2-0.3,0.6-0.5,1-0.5c0.2,0,0.4,0.1,0.6,0.2c0.2,0.1,0.3,0.3,0.4,0.4h0.1v-0.6
			h0.9v3.5c0,0.4-0.1,0.8-0.5,1C205.6,86.4,205.1,86.5,204.6,86.4z M205.2,84.1c0.3-0.4,0.3-1,0-1.4c-0.3-0.3-0.8-0.4-1.1-0.1
			c0,0-0.1,0-0.1,0.1c-0.2,0.2-0.2,0.5-0.2,0.7c0,0.3,0.1,0.5,0.2,0.7C204.3,84.4,204.8,84.4,205.2,84.1
			C205.2,84.1,205.2,84.1,205.2,84.1L205.2,84.1z"/>
		<path class="st4" d="M209.2,84.1h0.9c-0.1,0.3-0.3,0.6-0.5,0.8c-0.3,0.2-0.7,0.3-1.1,0.3c-0.5,0-0.9-0.1-1.2-0.5
			c-0.3-0.4-0.5-0.8-0.4-1.3c0-0.5,0.1-1,0.4-1.3c0.3-0.3,0.8-0.5,1.2-0.5c0.4,0,0.9,0.1,1.2,0.5c0.3,0.4,0.5,0.8,0.4,1.3v0.3h-2.4
			v0.1c0,0.2,0.1,0.4,0.2,0.6c0.1,0.2,0.4,0.2,0.6,0.2c0.2,0,0.3,0,0.5-0.1C209.1,84.3,209.2,84.2,209.2,84.1z M208.5,82.3
			c-0.2,0-0.4,0.1-0.5,0.2c-0.1,0.1-0.2,0.3-0.2,0.5h1.5c0-0.2-0.1-0.4-0.2-0.6C208.8,82.3,208.7,82.3,208.5,82.3L208.5,82.3z"/>
		<path class="st4" d="M210.5,85.1v-3.5h0.9v0.6h0.1c0.1-0.2,0.2-0.3,0.3-0.4c0.2-0.1,0.4-0.2,0.6-0.2c0.1,0,0.2,0,0.4,0v0.8
			c-0.1,0-0.3-0.1-0.4-0.1c-0.2,0-0.4,0.1-0.6,0.2c-0.2,0.1-0.2,0.4-0.2,0.6v1.9L210.5,85.1z"/>
		<path class="st4" d="M215.2,84.1h0.8c-0.1,0.3-0.3,0.6-0.5,0.8c-0.3,0.2-0.7,0.3-1.1,0.3c-0.5,0-0.9-0.1-1.2-0.5
			c-0.6-0.8-0.6-1.9,0-2.7c0.3-0.3,0.8-0.5,1.2-0.5c0.4,0,0.9,0.1,1.2,0.5c0.3,0.4,0.5,0.8,0.4,1.3v0.3h-2.4v0.1
			c0,0.2,0.1,0.4,0.2,0.6c0.1,0.2,0.4,0.2,0.6,0.2c0.2,0,0.3,0,0.5-0.1C215,84.3,215.1,84.3,215.2,84.1z M214.4,82.3
			c-0.2,0-0.4,0.1-0.5,0.2c-0.1,0.1-0.2,0.3-0.2,0.5h1.5c0-0.2-0.1-0.4-0.2-0.6C214.8,82.3,214.6,82.3,214.4,82.3L214.4,82.3z"/>
		<path class="st4" d="M217.7,85.2c-0.4,0-0.8-0.2-1-0.5c-0.5-0.8-0.5-1.8,0-2.6c0.2-0.3,0.6-0.5,1-0.5c0.2,0,0.4,0,0.6,0.2
			c0.2,0.1,0.3,0.3,0.4,0.4h0.1v-1.9h0.9v4.8h-0.9v-0.6h-0.1c-0.1,0.2-0.2,0.3-0.4,0.4C218.2,85.1,218,85.2,217.7,85.2z M218.6,82.6
			c-0.3-0.3-0.7-0.4-1.1-0.1c0,0-0.1,0.1-0.1,0.1c-0.3,0.5-0.3,1,0,1.5c0.3,0.3,0.7,0.4,1.1,0.1c0,0,0.1-0.1,0.1-0.1
			c0.2-0.2,0.2-0.5,0.2-0.8C218.9,83.1,218.8,82.8,218.6,82.6z"/>
		<path class="st4" d="M221.1,86.3h-0.7l0.2-2h0.9L221.1,86.3z"/>
		<path class="st4" d="M98.4,92.8c-0.6,0-1.2-0.2-1.6-0.6c-0.8-1-0.8-2.5,0-3.5c0.4-0.4,1-0.7,1.6-0.7c0.5,0,1,0.2,1.4,0.5
			c0.4,0.3,0.6,0.8,0.6,1.2h-0.9c-0.1-0.5-0.5-0.9-1-0.9c-0.3,0-0.7,0.1-0.8,0.4c-0.2,0.3-0.3,0.7-0.3,1.1c0,0.4,0.1,0.8,0.3,1.1
			c0.2,0.3,0.5,0.4,0.8,0.4c0.2,0,0.5-0.1,0.7-0.2c0.2-0.2,0.3-0.4,0.4-0.6h0.9c0,0.5-0.3,0.9-0.6,1.2
			C99.4,92.7,98.9,92.8,98.4,92.8z"/>
		<path class="st4" d="M100.8,92.7v-3.5h0.9v0.6h0.1c0-0.2,0.2-0.3,0.3-0.4c0.2-0.1,0.4-0.2,0.6-0.2c0.1,0,0.2,0,0.4,0V90
			c-0.1,0-0.3-0.1-0.4-0.1c-0.2,0-0.4,0.1-0.6,0.2c-0.2,0.1-0.2,0.4-0.2,0.6v2H100.8z"/>
		<path class="st4" d="M103.8,88.7c-0.1,0-0.3,0-0.4-0.1c-0.1-0.1-0.2-0.2-0.2-0.3c0-0.1,0.1-0.3,0.2-0.3c0.1-0.1,0.2-0.1,0.4-0.1
			c0.1,0,0.3,0,0.4,0.1c0.1,0.1,0.1,0.2,0.1,0.3c0,0.1-0.1,0.3-0.2,0.3C104.1,88.7,104,88.7,103.8,88.7z M103.4,92.7v-3.5h0.9v3.5
			L103.4,92.7z"/>
		<path class="st4" d="M105.2,88.4h0.9v0.9h0.7V90h-0.7v1.6c0,0.1,0,0.2,0.1,0.3c0.1,0.1,0.2,0.1,0.3,0.1h0.3v0.7
			c-0.2,0-0.3,0-0.5,0c-0.3,0-0.6-0.1-0.9-0.2c-0.2-0.2-0.3-0.5-0.3-0.7V90h-0.6v-0.7h0.6V88.4z"/>
		<path class="st4" d="M107.7,88.7c-0.1,0-0.3,0-0.4-0.1c-0.1-0.1-0.2-0.2-0.2-0.3c0-0.1,0.1-0.3,0.2-0.3c0.1-0.1,0.3-0.1,0.4-0.1
			c0.1,0,0.3,0,0.4,0.1c0.1,0.1,0.2,0.2,0.2,0.3c0,0.1-0.1,0.3-0.2,0.3C108,88.7,107.9,88.7,107.7,88.7z M107.3,92.7v-3.5h0.9v3.5
			L107.3,92.7z"/>
		<path class="st4" d="M111.9,90.4H111c0-0.2-0.1-0.3-0.2-0.4c-0.1-0.1-0.3-0.2-0.5-0.2c-0.2,0-0.4,0.1-0.6,0.3
			c-0.2,0.2-0.2,0.5-0.2,0.8c0,0.3,0,0.6,0.2,0.8c0.1,0.2,0.3,0.3,0.6,0.3c0.2,0,0.3,0,0.5-0.1c0.1-0.1,0.2-0.2,0.2-0.4h0.9
			c0,0.4-0.2,0.7-0.5,0.9c-0.3,0.2-0.7,0.4-1.1,0.3c-0.5,0-0.9-0.1-1.3-0.5c-0.3-0.4-0.5-0.9-0.4-1.4c0-0.5,0.1-1,0.4-1.3
			c0.3-0.3,0.8-0.5,1.3-0.5c0.4,0,0.8,0.1,1.1,0.4C111.7,89.7,111.8,90.1,111.9,90.4z"/>
		<path class="st4" d="M113.2,92.8c-0.3,0-0.6-0.1-0.8-0.3c-0.2-0.2-0.3-0.5-0.3-0.8c0-0.3,0.1-0.6,0.3-0.7c0.3-0.2,0.6-0.3,1-0.3
			h0.8v-0.3c0-0.1,0-0.3-0.2-0.3c-0.1-0.1-0.3-0.1-0.4-0.1c-0.3,0-0.6,0.1-0.6,0.3h-0.8c0-0.3,0.2-0.6,0.5-0.8
			c0.3-0.2,0.7-0.3,1.1-0.3c0.4,0,0.8,0.1,1.1,0.3c0.3,0.2,0.4,0.5,0.4,0.9v2.3h-0.9v-0.4h-0.1c-0.1,0.2-0.2,0.3-0.4,0.4
			C113.6,92.7,113.4,92.8,113.2,92.8z M113.5,92.1c0.2,0,0.4-0.1,0.5-0.2c0.1-0.1,0.2-0.3,0.2-0.4v-0.2h-0.7c-0.4,0-0.6,0.2-0.6,0.4
			c0,0.1,0.1,0.2,0.2,0.3C113.2,92,113.4,92.1,113.5,92.1z"/>
		<path class="st4" d="M115.8,92.7v-4.8h0.9v4.8H115.8z"/>
		<path class="st4" d="M117.4,92.7v-4.8h0.9v4.8H117.4z"/>
		<path class="st4" d="M119.3,94H119v-0.7h0.2c0.1,0,0.3,0,0.4-0.1c0.1-0.1,0.2-0.2,0.2-0.3v-0.1l-1.2-3.5h1l0.7,2.6h0.1l0.7-2.6h1
			l-1.2,3.5c-0.1,0.4-0.3,0.7-0.6,0.9C120.1,93.9,119.7,94,119.3,94z"/>
		<path class="st4" d="M126.9,91.9v0.8h-3v-4.5h3V89h-2.1v1h2v0.8h-2v1.1L126.9,91.9z"/>
		<path class="st4" d="M127.5,92.7v-3.5h0.9v0.6h0.1c0.1-0.2,0.2-0.4,0.4-0.5c0.2-0.1,0.4-0.2,0.6-0.2c0.3,0,0.7,0.1,0.9,0.3
			c0.2,0.3,0.3,0.6,0.3,1v2.2h-0.9v-2c0-0.5-0.2-0.7-0.6-0.7c-0.2,0-0.4,0.1-0.5,0.2c-0.1,0.2-0.2,0.4-0.2,0.6v2L127.5,92.7z"/>
		<path class="st4" d="M132.5,92.8c-0.4,0-0.8-0.2-1-0.5c-0.3-0.4-0.4-0.9-0.4-1.3c0-0.5,0.1-0.9,0.4-1.3c0.2-0.3,0.6-0.5,1-0.5
			c0.2,0,0.4,0.1,0.6,0.2c0.2,0.1,0.3,0.3,0.4,0.4l0,0v-1.9h0.9v4.8h-0.9v-0.5h-0.1c-0.1,0.2-0.2,0.3-0.4,0.4
			C132.9,92.7,132.7,92.8,132.5,92.8z M133.4,90.2c-0.2-0.3-0.7-0.4-1-0.1c0,0-0.1,0.1-0.1,0.1c-0.2,0.2-0.2,0.5-0.2,0.8
			c0,0.3,0.1,0.5,0.2,0.8c0.1,0.2,0.4,0.3,0.6,0.3c0.2,0,0.4-0.1,0.6-0.3C133.6,91.3,133.6,90.7,133.4,90.2L133.4,90.2z"/>
		<path class="st4" d="M136.1,92.8c-0.3,0-0.6-0.1-0.8-0.3c-0.2-0.2-0.3-0.5-0.3-0.8c0-0.3,0.1-0.6,0.4-0.7c0.3-0.2,0.6-0.3,1-0.3
			h0.9v-0.3c0-0.1,0-0.3-0.1-0.4c-0.1-0.1-0.3-0.1-0.4-0.1c-0.3,0-0.6,0.1-0.6,0.3h-0.8c0-0.3,0.2-0.6,0.4-0.8
			c0.3-0.2,0.7-0.3,1.1-0.3c0.4,0,0.8,0.1,1.1,0.3c0.3,0.2,0.4,0.5,0.4,0.9v2.4h-0.9v-0.4l0,0c-0.1,0.2-0.2,0.3-0.4,0.4
			C136.5,92.7,136.3,92.8,136.1,92.8z M136.4,92.1c0.2,0,0.4-0.1,0.5-0.2c0.1-0.1,0.2-0.3,0.2-0.4v-0.2h-0.7c-0.4,0-0.6,0.2-0.6,0.4
			c0,0.1,0.1,0.2,0.1,0.3C136.1,92,136.2,92.1,136.4,92.1z"/>
		<path class="st4" d="M138.6,92.7v-3.5h0.9v0.6h0.1c0.1-0.2,0.2-0.4,0.4-0.5c0.2-0.1,0.4-0.2,0.6-0.2c0.3,0,0.7,0.1,0.9,0.3
			c0.2,0.3,0.3,0.6,0.3,1v2.2h-0.9v-2c0-0.5-0.2-0.7-0.6-0.7c-0.2,0-0.4,0.1-0.5,0.2c-0.1,0.2-0.2,0.4-0.2,0.6v2L138.6,92.7z"/>
		<path class="st4" d="M143.9,94c-0.4,0-0.8-0.1-1.1-0.3c-0.3-0.2-0.4-0.4-0.5-0.7h0.9c0,0.1,0.1,0.2,0.2,0.2
			c0.2,0.1,0.3,0.1,0.5,0.1c0.2,0,0.4,0,0.6-0.2c0.1-0.1,0.2-0.3,0.2-0.4v-0.7h-0.1c-0.2,0.4-0.6,0.6-1,0.6c-0.4,0-0.8-0.2-1-0.5
			c-0.3-0.4-0.4-0.8-0.4-1.3c0-0.5,0.1-0.9,0.4-1.3c0.2-0.3,0.6-0.5,1-0.5c0.2,0,0.4,0.1,0.6,0.2c0.2,0.1,0.3,0.3,0.4,0.4h0.1v-0.6
			h0.9v3.5c0,0.4-0.1,0.8-0.5,1C144.8,93.9,144.3,94,143.9,94z M144.5,91.6c0.2-0.2,0.2-0.5,0.2-0.7c0-0.3-0.1-0.5-0.2-0.7
			c-0.1-0.2-0.4-0.3-0.6-0.3c-0.2,0-0.4,0.1-0.6,0.3c-0.3,0.4-0.3,1,0,1.5C143.6,92,144.1,92,144.5,91.6
			C144.4,91.7,144.5,91.7,144.5,91.6z"/>
		<path class="st4" d="M148.4,91.7h0.9c-0.1,0.3-0.3,0.6-0.5,0.8c-0.3,0.2-0.7,0.3-1.1,0.3c-0.5,0-0.9-0.1-1.2-0.5
			c-0.3-0.4-0.5-0.8-0.5-1.3c0-0.5,0.1-1,0.4-1.3c0.3-0.3,0.8-0.5,1.2-0.5c0.4,0,0.9,0.1,1.2,0.5c0.3,0.4,0.5,0.8,0.4,1.3v0.3H147
			l0,0c0,0.2,0.1,0.4,0.2,0.6c0.1,0.2,0.4,0.2,0.6,0.2c0.2,0,0.3,0,0.5-0.1C148.3,91.9,148.4,91.8,148.4,91.7z M147.7,89.8
			c-0.2,0-0.4,0.1-0.5,0.2c-0.1,0.2-0.2,0.3-0.2,0.6h1.5c0-0.2-0.1-0.4-0.2-0.6C148.1,89.9,147.9,89.8,147.7,89.8L147.7,89.8z"/>
		<path class="st4" d="M149.8,92.7v-3.5h0.9v0.6h0.1c0-0.2,0.2-0.3,0.3-0.4c0.2-0.1,0.4-0.2,0.6-0.2c0.1,0,0.2,0,0.4,0V90
			c-0.1,0-0.3-0.1-0.4-0.1c-0.2,0-0.4,0.1-0.6,0.2c-0.2,0.1-0.2,0.4-0.2,0.6v2H149.8z"/>
		<path class="st4" d="M154.4,91.7h0.9c-0.1,0.3-0.3,0.6-0.5,0.8c-0.3,0.2-0.7,0.3-1.1,0.3c-0.5,0-0.9-0.1-1.2-0.5
			c-0.6-0.8-0.6-1.9,0-2.7c0.7-0.6,1.7-0.6,2.4,0c0.3,0.4,0.5,0.8,0.4,1.3v0.3h-2.4l0,0c0,0.2,0.1,0.4,0.2,0.6
			c0.1,0.2,0.4,0.2,0.6,0.2c0.2,0,0.3,0,0.5-0.1C154.3,91.9,154.4,91.8,154.4,91.7z M153.7,89.8c-0.2,0-0.4,0.1-0.5,0.2
			c-0.1,0.1-0.2,0.3-0.2,0.6h1.5c0-0.2-0.1-0.4-0.2-0.6C154.1,89.9,153.9,89.8,153.7,89.8L153.7,89.8z"/>
		<path class="st4" d="M157,92.8c-0.4,0-0.8-0.2-1-0.5c-0.3-0.4-0.4-0.8-0.4-1.3c0-0.5,0.1-0.9,0.4-1.3c0.2-0.3,0.6-0.5,1-0.5
			c0.2,0,0.4,0.1,0.6,0.2c0.2,0.1,0.3,0.3,0.4,0.4h0.1v-1.9h0.9v4.8h-0.9v-0.5h-0.1c-0.1,0.2-0.2,0.3-0.4,0.4
			C157.4,92.7,157.2,92.8,157,92.8z M157.9,90.2c-0.2-0.3-0.7-0.4-1-0.1c0,0-0.1,0.1-0.1,0.1c-0.2,0.2-0.2,0.5-0.2,0.8
			c0,0.3,0.1,0.5,0.2,0.8c0.1,0.2,0.4,0.3,0.6,0.3c0.2,0,0.4-0.1,0.6-0.3C158.2,91.3,158.2,90.7,157.9,90.2L157.9,90.2z"/>
		<path class="st4" d="M160.4,93.9h-0.7l0.2-2h0.9L160.4,93.9z"/>
		<path class="st4" d="M166,91.9v0.8h-3v-4.5h3V89h-2v1h2v0.8h-2v1.1L166,91.9z"/>
		<path class="st4" d="M168,91.6L168,91.6l-0.6,1.1h-1l1.1-1.7l-1.1-1.8h1.1l0.6,1.1h0.1l0.6-1.1h1l-1.1,1.7l1.1,1.8h-1L168,91.6z"
			/>
		<path class="st4" d="M170.3,88.4h0.9v0.9h0.8V90h-0.7v1.6c0,0.1,0,0.2,0.1,0.3c0.1,0.1,0.2,0.1,0.3,0.1h0.3v0.7
			c-0.2,0-0.3,0-0.5,0c-0.3,0-0.6-0.1-0.9-0.2c-0.2-0.2-0.3-0.5-0.3-0.7V90h-0.5v-0.7h0.5L170.3,88.4z"/>
		<path class="st4" d="M172.9,88.7c-0.1,0-0.3,0-0.4-0.1c-0.1-0.1-0.2-0.2-0.1-0.3c0-0.1,0.1-0.3,0.1-0.3c0.1-0.1,0.3-0.1,0.4-0.1
			c0.1,0,0.3,0,0.4,0.1c0.1,0.1,0.2,0.2,0.1,0.3c0,0.1-0.1,0.3-0.1,0.3C173.1,88.7,173,88.7,172.9,88.7z M172.4,92.7v-3.5h0.9v3.5
			L172.4,92.7z"/>
		<path class="st4" d="M173.9,92.7v-3.5h0.9v0.6h0.1c0.1-0.2,0.2-0.4,0.4-0.5c0.2-0.1,0.4-0.2,0.6-0.2c0.3,0,0.6,0.1,0.9,0.3
			c0.2,0.3,0.3,0.6,0.3,1v2.2h-0.9v-2c0-0.5-0.2-0.7-0.6-0.7c-0.2,0-0.4,0.1-0.5,0.2c-0.1,0.2-0.2,0.4-0.2,0.6v2L173.9,92.7z"/>
		<path class="st4" d="M180.7,90.4h-0.9c0-0.2-0.1-0.3-0.2-0.4c-0.3-0.2-0.7-0.2-1,0.1c-0.1,0.2-0.2,0.5-0.2,0.8
			c0,0.3,0.1,0.6,0.2,0.8c0.1,0.2,0.4,0.3,0.6,0.3c0.2,0,0.3,0,0.5-0.1c0.1-0.1,0.2-0.2,0.2-0.4h0.9c0,0.4-0.2,0.7-0.5,0.9
			c-0.3,0.2-0.7,0.4-1.1,0.3c-0.5,0-0.9-0.1-1.3-0.5c-0.3-0.4-0.5-0.9-0.4-1.4c0-0.5,0.1-1,0.4-1.3c0.3-0.3,0.8-0.5,1.3-0.5
			c0.4,0,0.8,0.1,1.1,0.4C180.6,89.7,180.7,90.1,180.7,90.4z"/>
		<path class="st4" d="M181.4,88.4h0.9v0.9h0.7V90h-0.7v1.6c0,0.1,0,0.2,0.1,0.3c0.1,0.1,0.2,0.1,0.4,0.1h0.3v0.7
			c-0.2,0-0.3,0-0.5,0c-0.3,0-0.6-0.1-0.9-0.2c-0.2-0.2-0.3-0.5-0.3-0.7V90h-0.5v-0.7h0.5V88.4z"/>
		<path class="st4" d="M185.3,88.7c-0.1,0-0.3,0-0.4-0.1c-0.1-0.1-0.1-0.2-0.1-0.3c0-0.1,0-0.3,0.1-0.3c0.1-0.1,0.3-0.1,0.4-0.1
			c0.1,0,0.3,0,0.4,0.1c0.1,0.1,0.2,0.2,0.1,0.3c0,0.1-0.1,0.3-0.1,0.3C185.6,88.7,185.5,88.7,185.3,88.7z M184.9,92.7v-3.5h0.9v3.5
			L184.9,92.7z"/>
		<path class="st4" d="M186.4,92.7v-3.5h0.9v0.6h0.1c0.1-0.2,0.2-0.4,0.4-0.5c0.2-0.1,0.4-0.2,0.6-0.2c0.3,0,0.7,0.1,0.9,0.3
			c0.2,0.3,0.3,0.6,0.3,1v2.2h-0.9v-2c0-0.5-0.2-0.7-0.6-0.7c-0.2,0-0.4,0.1-0.5,0.2c-0.1,0.2-0.2,0.4-0.2,0.6v2L186.4,92.7z"/>
		<path class="st4" d="M191.7,88.4h0.9v0.9h0.7V90h-0.7v1.6c0,0.1,0,0.2,0.1,0.3c0.1,0.1,0.2,0.1,0.4,0.1h0.3v0.7
			c-0.2,0-0.3,0-0.5,0c-0.3,0-0.6-0.1-0.9-0.2c-0.2-0.2-0.3-0.5-0.3-0.7V90h-0.5v-0.7h0.5V88.4z"/>
		<path class="st4" d="M193.8,92.7v-4.8h0.9v1.9h0.1c0.1-0.2,0.2-0.4,0.4-0.5c0.2-0.1,0.4-0.2,0.6-0.2c0.3,0,0.7,0.1,0.9,0.3
			c0.2,0.3,0.4,0.6,0.3,1v2.2h-0.9v-2c0-0.2,0-0.4-0.2-0.6c-0.1-0.1-0.3-0.2-0.5-0.2c-0.2,0-0.4,0.1-0.5,0.2
			c-0.1,0.2-0.2,0.4-0.2,0.6v2L193.8,92.7z"/>
		<path class="st4" d="M199.9,91.7h0.9c-0.1,0.3-0.3,0.6-0.5,0.8c-0.3,0.2-0.7,0.3-1.1,0.3c-0.5,0-0.9-0.1-1.2-0.5
			c-0.3-0.4-0.5-0.8-0.4-1.3c0-0.5,0.1-1,0.4-1.3c0.3-0.3,0.8-0.5,1.2-0.5c0.4,0,0.9,0.1,1.2,0.5c0.3,0.4,0.5,0.8,0.4,1.3v0.3h-2.4
			l0,0c0,0.2,0.1,0.4,0.2,0.6c0.2,0.2,0.4,0.2,0.6,0.2c0.2,0,0.3,0,0.4-0.1C199.7,91.9,199.8,91.8,199.9,91.7z M199.1,89.8
			c-0.2,0-0.4,0.1-0.5,0.2c-0.1,0.2-0.2,0.3-0.2,0.6h1.5c0-0.2-0.1-0.4-0.2-0.6C199.5,89.9,199.3,89.8,199.1,89.8z"/>
		<path class="st4" d="M205.3,89.7l-0.9,3h-0.9l-1.2-4.6h1l0.7,3.2h0.1l0.8-3.2h0.8l0.9,3.2l0,0l0.7-3.2h1l-1.2,4.6h-0.9L205.3,89.7
			L205.3,89.7z"/>
		<path class="st4" d="M209.2,88.7c-0.1,0-0.3,0-0.4-0.1c-0.1-0.1-0.2-0.2-0.1-0.3c0-0.1,0.1-0.3,0.1-0.3c0.1-0.1,0.3-0.1,0.4-0.1
			c0.1,0,0.3,0,0.4,0.1c0.1,0.1,0.2,0.2,0.1,0.3c0,0.1-0.1,0.3-0.1,0.3C209.5,88.7,209.3,88.7,209.2,88.7z M208.7,92.7v-3.5h0.9v3.5
			L208.7,92.7z"/>
		<path class="st4" d="M210.3,92.7v-4.8h0.9v4.8H210.3z"/>
		<path class="st4" d="M213.1,92.8c-0.4,0-0.8-0.2-1-0.5c-0.3-0.4-0.4-0.9-0.4-1.3c0-0.5,0.1-0.9,0.4-1.3c0.4-0.5,1.1-0.6,1.7-0.3
			c0.2,0.1,0.3,0.3,0.4,0.4h0.1v-1.9h0.9v4.8h-0.9v-0.5h-0.1c-0.1,0.2-0.2,0.3-0.4,0.4C213.6,92.7,213.3,92.8,213.1,92.8z M214,90.2
			c-0.1-0.2-0.4-0.3-0.6-0.3c-0.2,0-0.4,0.1-0.6,0.3c-0.2,0.2-0.2,0.5-0.2,0.8c0,0.3,0.1,0.5,0.2,0.8c0.1,0.2,0.4,0.3,0.6,0.3
			c0.2,0,0.4-0.1,0.6-0.3C214.3,91.3,214.3,90.7,214,90.2z"/>
		<path class="st4" d="M218,92.8c-0.3,0-0.6-0.1-0.8-0.3c-0.2-0.2-0.3-0.5-0.3-0.8c0-0.3,0.1-0.6,0.4-0.7c0.3-0.2,0.6-0.3,1-0.3h0.8
			v-0.3c0-0.1,0-0.3-0.1-0.3c-0.1-0.1-0.3-0.1-0.4-0.1c-0.3,0-0.6,0.1-0.6,0.3H217c0-0.3,0.2-0.6,0.5-0.8c0.3-0.2,0.7-0.3,1.1-0.3
			c0.4,0,0.8,0.1,1.1,0.3c0.3,0.2,0.4,0.5,0.4,0.9v2.3h-0.9v-0.4H219c-0.1,0.2-0.2,0.3-0.4,0.4C218.4,92.7,218.2,92.8,218,92.8z
			 M218.3,92.1c0.2,0,0.4-0.1,0.5-0.2c0.1-0.1,0.2-0.3,0.2-0.4v-0.2h-0.7c-0.4,0-0.6,0.2-0.6,0.4c0,0.1,0.1,0.2,0.1,0.3
			C218,92,218.2,92.1,218.3,92.1L218.3,92.1z"/>
		<path class="st4" d="M220.6,92.7v-3.5h0.9v0.6h0.1c0.1-0.2,0.2-0.4,0.4-0.5c0.2-0.1,0.4-0.2,0.6-0.2c0.3,0,0.6,0.1,0.9,0.3
			c0.2,0.3,0.3,0.6,0.3,1v2.2h-0.9v-2c0-0.5-0.2-0.7-0.6-0.7c-0.2,0-0.4,0.1-0.5,0.2c-0.1,0.2-0.2,0.4-0.2,0.6v2L220.6,92.7z"/>
		<path class="st4" d="M225.6,92.8c-0.4,0-0.8-0.2-1-0.5c-0.3-0.4-0.4-0.9-0.4-1.3c0-0.5,0.1-0.9,0.4-1.3c0.2-0.3,0.6-0.5,1-0.5
			c0.2,0,0.4,0.1,0.6,0.2c0.2,0.1,0.3,0.3,0.4,0.4l0,0v-1.9h0.9v4.8h-0.9v-0.5l0,0c-0.1,0.2-0.2,0.3-0.4,0.4
			C226,92.7,225.8,92.8,225.6,92.8z M226.4,90.2c-0.2-0.3-0.7-0.4-1-0.1c0,0-0.1,0.1-0.1,0.1c-0.2,0.2-0.2,0.5-0.2,0.8
			c0,0.3,0.1,0.5,0.2,0.8c0.3,0.3,0.7,0.4,1.1,0.1c0,0,0.1-0.1,0.1-0.1C226.7,91.3,226.7,90.7,226.4,90.2z"/>
		<path class="st4" d="M232.6,91.9v0.8h-3v-4.5h3V89h-2.1v1h1.9v0.8h-1.9v1.1L232.6,91.9z"/>
		<path class="st4" d="M234.7,91.6L234.7,91.6l-0.7,1.1h-1l1.1-1.7l-1.1-1.8h1l0.6,1.1h0.1l0.6-1.1h1l-1.1,1.7l1.1,1.8h-1
			L234.7,91.6z"/>
		<path class="st4" d="M236.9,88.4h0.9v0.9h0.7V90h-0.7v1.6c0,0.1,0,0.2,0.1,0.3c0.1,0.1,0.2,0.1,0.3,0.1h0.3v0.7
			c-0.2,0-0.3,0-0.5,0c-0.3,0-0.6-0.1-0.9-0.2c-0.2-0.2-0.3-0.5-0.3-0.7V90h-0.6v-0.7h0.6L236.9,88.4z"/>
		<path class="st4" d="M239.5,88.7c-0.1,0-0.3,0-0.4-0.1c-0.1-0.1-0.2-0.2-0.1-0.3c0-0.1,0.1-0.3,0.1-0.3c0.1-0.1,0.3-0.1,0.4-0.1
			c0.1,0,0.3,0,0.4,0.1c0.1,0.1,0.2,0.2,0.1,0.3c0,0.1-0.1,0.3-0.1,0.3C239.8,88.7,239.6,88.7,239.5,88.7z M239,92.7v-3.5h1v3.5
			L239,92.7z"/>
		<path class="st4" d="M240.6,92.7v-3.5h0.9v0.6h0.1c0.1-0.2,0.2-0.4,0.4-0.5c0.2-0.1,0.4-0.2,0.6-0.2c0.3,0,0.6,0.1,0.9,0.3
			c0.2,0.3,0.3,0.6,0.3,1v2.2h-0.9v-2c0-0.5-0.2-0.7-0.6-0.7c-0.2,0-0.4,0.1-0.5,0.2c-0.1,0.2-0.2,0.4-0.2,0.6v2L240.6,92.7z"/>
		<path class="st4" d="M247.4,90.4h-0.9c0-0.2-0.1-0.3-0.2-0.4c-0.1-0.1-0.3-0.2-0.5-0.2c-0.2,0-0.4,0.1-0.6,0.3
			c-0.2,0.2-0.3,0.5-0.2,0.8c0,0.3,0.1,0.6,0.2,0.8c0.1,0.2,0.3,0.3,0.6,0.3c0.2,0,0.3,0,0.5-0.1c0.1-0.1,0.2-0.2,0.2-0.4h0.9
			c0,0.4-0.2,0.7-0.5,0.9c-0.3,0.2-0.7,0.4-1.1,0.3c-0.5,0-0.9-0.1-1.3-0.5c-0.3-0.4-0.5-0.9-0.4-1.4c0-0.5,0.1-1,0.4-1.3
			c0.3-0.3,0.8-0.5,1.3-0.5c0.4,0,0.8,0.1,1.1,0.4C247.1,89.8,247.3,90.1,247.4,90.4z"/>
		<path class="st4" d="M248.1,88.4h0.9v0.9h0.7V90H249v1.6c0,0.1,0,0.2,0.1,0.3c0.1,0.1,0.2,0.1,0.3,0.1h0.3v0.7c-0.2,0-0.3,0-0.5,0
			c-0.3,0-0.6-0.1-0.9-0.2c-0.2-0.2-0.3-0.5-0.3-0.7V90h-0.6v-0.7h0.6L248.1,88.4z"/>
		<path class="st4" d="M251.2,92.6c-0.1,0.1-0.3,0.2-0.4,0.2c-0.1,0-0.3,0-0.4-0.2c-0.1-0.1-0.2-0.3-0.2-0.4c0-0.1,0.1-0.3,0.2-0.4
			c0.1-0.1,0.2-0.2,0.4-0.2c0.3,0,0.5,0.2,0.6,0.5c0,0,0,0,0,0.1C251.4,92.4,251.3,92.5,251.2,92.6z"/>
		<path class="st3" d="M559.2,27.5h58.9l0,0v58.9c0,32.5-26.4,58.9-58.9,58.9l0,0c-32.5,0-58.9-26.4-58.9-58.9l0,0
			C500.3,53.9,526.7,27.5,559.2,27.5z"/>
		<g class="st5">
			<path class="st0" d="M548.2,103.8h-8.8L527.6,69h8.2l7.9,26.6h0.4l7.8-26.6h7.8L548.2,103.8z"/>
			<path class="st0" d="M570.6,69v22.1c0,2.2,0.6,4,1.9,5.3c1.3,1.3,3.1,1.9,5.4,1.9c2.3,0,4.1-0.6,5.4-1.9c1.3-1.3,1.9-3,1.9-5.3
				V69h7.3v22.8c0,3.9-1.3,7-4,9.4c-2.6,2.4-6.2,3.5-10.6,3.5c-4.4,0-8-1.2-10.6-3.5c-2.6-2.4-4-5.5-4-9.4V69H570.6z"/>
		</g>
		<rect x="85.6" y="44.7" width="0.5" height="47.2"/>
		<line class="st6" x1="25.8" y1="169.7" x2="618.2" y2="169.7"/>
		<line class="st6" x1="25.8" y1="203.7" x2="618.2" y2="203.7"/>
		<g class="st5">
			<path class="st0" d="M37.1,184.6h-1.2v-5.9h1l2.7,3.7h0.1v-3.7h1.2v5.9h-1l-2.7-3.7h-0.1V184.6z"/>
		</g>
		<g class="st5">
			<path class="st0" d="M44.5,178.6c0.9,0,1.6,0.3,2.1,0.8s0.8,1.3,0.8,2.3c0,1-0.3,1.7-0.8,2.3c-0.5,0.6-1.2,0.8-2.1,0.8
				c-0.9,0-1.6-0.3-2.1-0.8c-0.5-0.6-0.8-1.3-0.8-2.3c0-1,0.3-1.7,0.8-2.3C42.9,178.8,43.6,178.6,44.5,178.6z M45.6,180.2
				c-0.3-0.4-0.7-0.5-1.1-0.5s-0.9,0.2-1.1,0.5c-0.3,0.4-0.4,0.9-0.4,1.5c0,0.6,0.1,1.1,0.4,1.5c0.3,0.4,0.7,0.5,1.1,0.5
				c0.5,0,0.9-0.2,1.1-0.5c0.3-0.4,0.4-0.9,0.4-1.5C46.1,181,45.9,180.6,45.6,180.2z"/>
		</g>
		<g class="st5">
			<path class="st0" d="M50.5,184.6h-1.2v-4.8h-1.8v-1.1h4.8v1.1h-1.8V184.6z"/>
		</g>
		<g class="st5">
			<path class="st0" d="M39.8,193.3v1.1h-3.9v-5.9h3.9v1.1h-2.7v1.4h2.5v1h-2.5v1.4H39.8z"/>
		</g>
		<g class="st5">
			<path class="st0" d="M43.8,194.3h-1.5l-2-5.9h1.4l1.3,4.5h0.1l1.3-4.5h1.3L43.8,194.3z"/>
		</g>
		<g class="st5">
			<path class="st0" d="M49.5,194.3l-0.4-1.4H47l-0.5,1.4h-1.2l2-5.9h1.4l2,5.9H49.5z M48,189.7l-0.7,2.3h1.5L48,189.7L48,189.7z"/>
		</g>
		<g class="st5">
			<path class="st0" d="M55.3,193.2v1.1h-3.8v-5.9h1.2v4.8H55.3z"/>
		</g>
		<g class="st5">
			<path class="st0" d="M57.1,188.4v3.7c0,0.4,0.1,0.7,0.3,0.9c0.2,0.2,0.5,0.3,0.9,0.3c0.4,0,0.7-0.1,0.9-0.3
				c0.2-0.2,0.3-0.5,0.3-0.9v-3.7h1.2v3.8c0,0.7-0.2,1.2-0.7,1.6c-0.4,0.4-1,0.6-1.8,0.6c-0.7,0-1.3-0.2-1.8-0.6
				c-0.4-0.4-0.7-0.9-0.7-1.6v-3.8H57.1z"/>
		</g>
		<g class="st5">
			<path class="st0" d="M65.5,194.3l-0.4-1.4H63l-0.5,1.4h-1.2l2-5.9h1.4l2,5.9H65.5z M64,189.7l-0.7,2.3h1.5L64,189.7L64,189.7z"/>
		</g>
		<g class="st5">
			<path class="st0" d="M69.4,194.3h-1.2v-4.8h-1.8v-1.1h4.8v1.1h-1.8V194.3z"/>
			<path class="st0" d="M75.7,193.3v1.1h-3.9v-5.9h3.9v1.1h-2.7v1.4h2.5v1h-2.5v1.4H75.7z"/>
			<path class="st0" d="M76.6,188.4h2.3c0.9,0,1.6,0.3,2,0.8c0.5,0.5,0.7,1.2,0.7,2.1c0,1-0.2,1.7-0.7,2.2c-0.5,0.5-1.2,0.8-2,0.8
				h-2.3V188.4z M77.9,189.5v3.8h0.9c0.5,0,1-0.2,1.3-0.5c0.3-0.3,0.4-0.8,0.4-1.4c0-0.6-0.1-1.1-0.4-1.4s-0.7-0.5-1.2-0.5H77.9z"/>
		</g>
		<g class="st5">
			<path class="st1" d="M46.2,232.8h-3.9v-19.7h3.4l9,12.2H55v-12.2h3.9v19.7h-3.4l-9.1-12.3h-0.2V232.8z"/>
			<path class="st1" d="M75.3,229.3v3.5h-13v-19.7h13v3.5h-8.9v4.6h8.4v3.3h-8.4v4.8H75.3z"/>
		</g>
		<g class="st5">
			<path class="st1" d="M106.2,213.1h7.7c2.9,0,5.2,0.8,6.8,2.5s2.4,4.1,2.4,7.2c0,3.2-0.8,5.6-2.4,7.4s-3.9,2.6-6.8,2.6h-7.7V213.1
				z M110.3,216.6v12.6h3c1.8,0,3.2-0.5,4.2-1.6c1-1.1,1.5-2.7,1.5-4.7c0-2-0.5-3.5-1.5-4.6c-1-1.1-2.4-1.6-4.2-1.6H110.3z"/>
			<path class="st1" d="M125.7,213.1h7.7c2.9,0,5.2,0.8,6.8,2.5s2.4,4.1,2.4,7.2c0,3.2-0.8,5.6-2.4,7.4s-3.9,2.6-6.8,2.6h-7.7V213.1
				z M129.8,216.6v12.6h3c1.8,0,3.2-0.5,4.2-1.6c1-1.1,1.5-2.7,1.5-4.7c0-2-0.5-3.5-1.5-4.6c-1-1.1-2.4-1.6-4.2-1.6H129.8z"/>
		</g>
		<g class="st5">
			<path class="st1" d="M187.9,229.2v3.6H175v-19.7h4.1v16.1H187.9z"/>
		</g>
		<g class="st5">
			<path class="st1" d="M198,233.3c-2.9,0-5.1-0.9-6.7-2.8c-1.6-1.8-2.5-4.4-2.5-7.6c0-3.2,0.8-5.7,2.5-7.6c1.6-1.8,3.9-2.8,6.7-2.8
				c2.3,0,4.3,0.7,5.9,2.1s2.5,3.1,2.6,5.3h-4c-0.2-1.1-0.7-2-1.5-2.7c-0.8-0.7-1.8-1-3-1c-1.5,0-2.8,0.6-3.7,1.8
				c-0.9,1.2-1.3,2.8-1.3,4.9c0,2.1,0.4,3.7,1.3,4.9c0.9,1.2,2.1,1.8,3.7,1.8c1.2,0,2.2-0.3,3-1c0.8-0.6,1.3-1.5,1.5-2.6h4
				c-0.2,2.1-1,3.9-2.6,5.2S200.4,233.3,198,233.3z"/>
		</g>
		<g class="st5">
			<path class="st1" d="M243,232.8H239v-19.7h3.4l9,12.2h0.2v-12.2h3.9v19.7h-3.4l-9.1-12.3H243V232.8z"/>
			<path class="st1" d="M267.9,232.8h-4.1v-16.1h-5.9v-3.5h15.9v3.5h-5.9V232.8z"/>
		</g>
		<g class="st5">
			<path class="st3" d="M316.4,232.8h-5l-6.6-19.7h4.6l4.5,15h0.2l4.4-15h4.4L316.4,232.8z"/>
			<path class="st3" d="M329.1,213.1v12.4c0,1.3,0.4,2.2,1.1,3c0.7,0.7,1.7,1.1,3,1.1c1.3,0,2.3-0.4,3-1.1s1.1-1.7,1.1-3v-12.4h4.1
				V226c0,2.2-0.7,3.9-2.2,5.3s-3.5,2-6,2c-2.5,0-4.5-0.7-6-2c-1.5-1.3-2.2-3.1-2.2-5.3v-12.9H329.1z"/>
		</g>
		<g class="st5">
			<path class="st1" d="M383.3,229.3v3.5h-13v-19.7h13v3.5h-8.9v4.6h8.4v3.3h-8.4v4.8H383.3z"/>
			<path class="st1" d="M390.1,232.8h-3.9v-19.7h3.4l9,12.2h0.2v-12.2h3.9v19.7h-3.4l-9.1-12.3h-0.2V232.8z"/>
		</g>
		<g class="st5">
			<path class="st1" d="M447.4,233.3c-2.9,0-5.1-0.9-6.7-2.8c-1.6-1.8-2.5-4.4-2.5-7.6c0-3.2,0.8-5.7,2.5-7.6
				c1.6-1.8,3.9-2.8,6.7-2.8c2.3,0,4.3,0.7,5.9,2.1c1.6,1.4,2.5,3.1,2.6,5.3h-4c-0.2-1.1-0.7-2-1.5-2.7c-0.8-0.7-1.8-1-3-1
				c-1.5,0-2.8,0.6-3.7,1.8c-0.9,1.2-1.3,2.8-1.3,4.9c0,2.1,0.4,3.7,1.3,4.9c0.9,1.2,2.1,1.8,3.7,1.8c1.2,0,2.2-0.3,3-1
				c0.8-0.6,1.3-1.5,1.5-2.6h4c-0.2,2.1-1,3.9-2.6,5.2C451.7,232.6,449.8,233.3,447.4,233.3z"/>
			<path class="st1" d="M462.4,225.7v7.1h-4.1v-19.7h8.3c2.2,0,3.9,0.6,5.1,1.7c1.2,1.1,1.9,2.7,1.9,4.6c0,1.3-0.3,2.4-0.9,3.4
				s-1.5,1.7-2.6,2.2l4.1,7.8h-4.7l-3.7-7.1H462.4z M462.4,216.5v6h3.6c1,0,1.8-0.3,2.4-0.8c0.6-0.5,0.9-1.3,0.9-2.2
				c0-0.9-0.3-1.7-0.9-2.2c-0.6-0.5-1.4-0.8-2.4-0.8H462.4z"/>
		</g>
		<g class="st5">
			<path class="st1" d="M516.1,229.3v3.5h-13v-19.7h13v3.5h-8.9v4.6h8.4v3.3h-8.4v4.8H516.1z"/>
			<path class="st1" d="M530.6,219.8l-3.7,13H523l-5.2-19.7h4.3l3.1,13.8h0.2l3.6-13.8h3.5l3.6,13.8h0.2l3-13.8h4.2l-5.2,19.7h-3.9
				l-3.7-13H530.6z"/>
		</g>
		<g class="st5">
			<path class="st1" d="M582.2,229.3v3.5h-13v-19.7h13v3.5h-8.9v4.6h8.4v3.3h-8.4v4.8H582.2z"/>
			<path class="st1" d="M583.9,232.8l6.3-9.9l-6.2-9.8h4.8l4.1,6.9h0.2l4.1-6.9h4.6l-6.5,9.8l6.4,9.8h-4.7l-4.2-6.7h-0.2l-4.3,6.7
				H583.9z"/>
		</g>
		<g class="st5">
			<path class="st0" d="M105.6,178.9h2.3c0.9,0,1.6,0.3,2,0.8c0.5,0.5,0.7,1.2,0.7,2.1c0,1-0.2,1.7-0.7,2.2c-0.5,0.5-1.2,0.8-2,0.8
				h-2.3V178.9z M106.9,179.9v3.8h0.9c0.5,0,1-0.2,1.3-0.5c0.3-0.3,0.4-0.8,0.4-1.4c0-0.6-0.1-1.1-0.4-1.4c-0.3-0.3-0.7-0.5-1.3-0.5
				H106.9z"/>
		</g>
		<g class="st5">
			<path class="st0" d="M115,184.8l-0.4-1.4h-2.1l-0.5,1.4h-1.2l2-5.9h1.4l2,5.9H115z M113.5,180.1l-0.7,2.3h1.5L113.5,180.1
				L113.5,180.1z"/>
			<path class="st0" d="M118.2,184.8H117v-4.8h-1.8v-1.1h4.8v1.1h-1.8V184.8z"/>
		</g>
		<g class="st5">
			<path class="st0" d="M124.5,184.8l-0.4-1.4H122l-0.5,1.4h-1.2l2-5.9h1.4l2,5.9H124.5z M123,180.1l-0.7,2.3h1.5L123,180.1
				L123,180.1z"/>
		</g>
		<g class="st5">
			<path class="st0" d="M105.6,188.6h2.3c0.9,0,1.6,0.3,2,0.8c0.5,0.5,0.7,1.2,0.7,2.1c0,1-0.2,1.7-0.7,2.2c-0.5,0.5-1.2,0.8-2,0.8
				h-2.3V188.6z M106.9,189.6v3.8h0.9c0.5,0,1-0.2,1.3-0.5c0.3-0.3,0.4-0.8,0.4-1.4c0-0.6-0.1-1.1-0.4-1.4c-0.3-0.3-0.7-0.5-1.3-0.5
				H106.9z"/>
			<path class="st0" d="M115.3,193.4v1.1h-3.9v-5.9h3.9v1.1h-2.7v1.4h2.5v1h-2.5v1.4H115.3z"/>
			<path class="st0" d="M117.4,194.5h-1.2v-5.9h3.8v1.1h-2.6v1.5h2.4v1h-2.4V194.5z"/>
			<path class="st0" d="M122,194.5h-1.2v-5.9h1.2V194.5z"/>
			<path class="st0" d="M125.5,194.6c-0.9,0-1.5-0.3-2-0.8c-0.5-0.6-0.7-1.3-0.7-2.3c0-1,0.2-1.7,0.7-2.3c0.5-0.6,1.2-0.8,2-0.8
				c0.7,0,1.3,0.2,1.8,0.6s0.7,0.9,0.8,1.6h-1.2c-0.1-0.3-0.2-0.6-0.5-0.8c-0.2-0.2-0.5-0.3-0.9-0.3c-0.5,0-0.8,0.2-1.1,0.5
				c-0.3,0.4-0.4,0.8-0.4,1.5s0.1,1.1,0.4,1.5c0.3,0.4,0.6,0.5,1.1,0.5c0.4,0,0.7-0.1,0.9-0.3s0.4-0.5,0.5-0.8h1.2
				c-0.1,0.6-0.3,1.2-0.8,1.5C126.8,194.4,126.2,194.6,125.5,194.6z"/>
			<path class="st0" d="M130,194.5h-1.2v-5.9h1.2V194.5z"/>
			<path class="st0" d="M134.9,193.4v1.1H131v-5.9h3.9v1.1h-2.7v1.4h2.5v1h-2.5v1.4H134.9z"/>
			<path class="st0" d="M137,194.5h-1.2v-5.9h1l2.7,3.7h0.1v-3.7h1.2v5.9h-1l-2.7-3.7H137V194.5z"/>
			<path class="st0" d="M144.4,194.5h-1.2v-4.8h-1.8v-1.1h4.8v1.1h-1.8V194.5z"/>
		</g>
		<g class="st5">
			<path d="M175.4,183.7v1.1h-3.8v-5.9h1.2v4.8H175.4z"/>
			<path d="M180,183.7v1.1h-3.9v-5.9h3.9v1.1h-2.7v1.4h2.5v1h-2.5v1.4H180z"/>
			<path d="M184.6,184.8l-0.4-1.4h-2.1l-0.5,1.4h-1.2l2-5.9h1.4l2,5.9H184.6z M183.1,180.1l-0.7,2.3h1.5L183.1,180.1L183.1,180.1z"
				/>
			<path d="M186.3,183.1h1.2c0,0.2,0.2,0.4,0.4,0.6c0.2,0.1,0.5,0.2,0.9,0.2c0.3,0,0.6-0.1,0.8-0.2s0.3-0.3,0.3-0.5
				c0-0.2-0.1-0.3-0.2-0.5c-0.2-0.1-0.4-0.2-0.8-0.3l-0.8-0.2c-1.1-0.2-1.6-0.8-1.6-1.7c0-0.6,0.2-1,0.6-1.3c0.4-0.3,1-0.5,1.6-0.5
				c0.6,0,1.2,0.2,1.6,0.5c0.4,0.3,0.6,0.8,0.7,1.3h-1.2c0-0.2-0.1-0.4-0.3-0.6c-0.2-0.1-0.4-0.2-0.7-0.2c-0.3,0-0.6,0.1-0.7,0.2
				c-0.2,0.1-0.3,0.3-0.3,0.5c0,0.2,0.1,0.3,0.2,0.4c0.2,0.1,0.4,0.2,0.7,0.3l0.7,0.2c0.6,0.1,1,0.3,1.3,0.6
				c0.3,0.3,0.4,0.6,0.4,1.1c0,0.6-0.2,1.1-0.6,1.4c-0.4,0.3-1,0.5-1.7,0.5c-0.7,0-1.3-0.2-1.7-0.5
				C186.5,184.1,186.3,183.7,186.3,183.1z"/>
			<path d="M194.4,184.8h-1.2v-4.8h-1.8v-1.1h4.8v1.1h-1.8V184.8z"/>
		</g>
		<g class="st5">
			<path d="M174,194.6c-0.9,0-1.5-0.3-2-0.8c-0.5-0.6-0.7-1.3-0.7-2.3c0-1,0.2-1.7,0.7-2.3c0.5-0.6,1.2-0.8,2-0.8
				c0.7,0,1.3,0.2,1.8,0.6s0.7,0.9,0.8,1.6h-1.2c-0.1-0.3-0.2-0.6-0.5-0.8c-0.2-0.2-0.5-0.3-0.9-0.3c-0.5,0-0.8,0.2-1.1,0.5
				c-0.3,0.4-0.4,0.8-0.4,1.5s0.1,1.1,0.4,1.5c0.3,0.4,0.6,0.5,1.1,0.5c0.4,0,0.7-0.1,0.9-0.3s0.4-0.5,0.5-0.8h1.2
				c-0.1,0.6-0.3,1.2-0.8,1.5C175.3,194.4,174.7,194.6,174,194.6z"/>
			<path d="M179.9,188.4c0.9,0,1.6,0.3,2.1,0.8s0.8,1.3,0.8,2.3c0,1-0.3,1.7-0.8,2.3c-0.5,0.6-1.2,0.8-2.1,0.8
				c-0.9,0-1.6-0.3-2.1-0.8c-0.5-0.6-0.8-1.3-0.8-2.3c0-1,0.3-1.7,0.8-2.3C178.3,188.7,179,188.4,179.9,188.4z M181,190.1
				c-0.3-0.4-0.7-0.5-1.1-0.5s-0.9,0.2-1.1,0.5c-0.3,0.4-0.4,0.9-0.4,1.5c0,0.6,0.1,1.1,0.4,1.5c0.3,0.4,0.7,0.5,1.1,0.5
				c0.5,0,0.9-0.2,1.1-0.5c0.3-0.4,0.4-0.9,0.4-1.5C181.4,190.9,181.3,190.4,181,190.1z"/>
			<path d="M184.6,194.5h-1.2v-5.9h1l2.7,3.7h0.1v-3.7h1.2v5.9h-1l-2.7-3.7h-0.1V194.5z"/>
			<path d="M191.9,194.6c-0.9,0-1.5-0.3-2-0.8c-0.5-0.6-0.7-1.3-0.7-2.3c0-1,0.2-1.7,0.7-2.3c0.5-0.6,1.2-0.8,2-0.8
				c0.7,0,1.3,0.2,1.8,0.6s0.7,0.9,0.8,1.6h-1.2c-0.1-0.3-0.2-0.6-0.5-0.8c-0.2-0.2-0.5-0.3-0.9-0.3c-0.5,0-0.8,0.2-1.1,0.5
				c-0.3,0.4-0.4,0.8-0.4,1.5s0.1,1.1,0.4,1.5c0.3,0.4,0.6,0.5,1.1,0.5c0.4,0,0.7-0.1,0.9-0.3s0.4-0.5,0.5-0.8h1.2
				c-0.1,0.6-0.3,1.2-0.8,1.5C193.2,194.4,192.6,194.6,191.9,194.6z"/>
			<path d="M199.1,193.4v1.1h-3.9v-5.9h3.9v1.1h-2.7v1.4h2.5v1h-2.5v1.4H199.1z"/>
			<path d="M201.2,192.3v2.1H200v-5.9h2.5c0.6,0,1.2,0.2,1.5,0.5s0.6,0.8,0.6,1.4c0,0.4-0.1,0.7-0.3,1c-0.2,0.3-0.5,0.5-0.8,0.6
				l1.2,2.3h-1.4l-1.1-2.1H201.2z M201.2,189.6v1.8h1.1c0.3,0,0.6-0.1,0.7-0.2c0.2-0.2,0.3-0.4,0.3-0.7c0-0.3-0.1-0.5-0.3-0.7
				c-0.2-0.2-0.4-0.2-0.7-0.2H201.2z"/>
			<path d="M206.5,194.5h-1.2v-5.9h1l2.7,3.7h0.1v-3.7h1.2v5.9h-1l-2.7-3.7h-0.1V194.5z"/>
		</g>
		<g class="st5">
			<path d="M28.1,305.4h1.2c0,0.2,0.2,0.4,0.4,0.6c0.2,0.1,0.5,0.2,0.9,0.2c0.3,0,0.6-0.1,0.8-0.2s0.3-0.3,0.3-0.5
				c0-0.2-0.1-0.3-0.2-0.5c-0.2-0.1-0.4-0.2-0.8-0.3l-0.8-0.2c-1.1-0.2-1.6-0.8-1.6-1.7c0-0.6,0.2-1,0.6-1.3c0.4-0.3,1-0.5,1.6-0.5
				c0.6,0,1.2,0.2,1.6,0.5c0.4,0.3,0.6,0.8,0.7,1.3h-1.2c0-0.2-0.1-0.4-0.3-0.6c-0.2-0.1-0.4-0.2-0.7-0.2c-0.3,0-0.6,0.1-0.7,0.2
				c-0.2,0.1-0.3,0.3-0.3,0.5c0,0.2,0.1,0.3,0.2,0.4c0.2,0.1,0.4,0.2,0.7,0.3l0.7,0.2c0.6,0.1,1,0.3,1.3,0.6
				c0.3,0.3,0.4,0.6,0.4,1.1c0,0.6-0.2,1.1-0.6,1.4c-0.4,0.3-1,0.5-1.7,0.5c-0.7,0-1.3-0.2-1.7-0.5C28.3,306.4,28.1,306,28.1,305.4z
				"/>
			<path d="M37.4,307l-0.4-1.4h-2.1l-0.5,1.4h-1.2l2-5.9h1.4l2,5.9H37.4z M35.8,302.4l-0.7,2.3h1.5L35.8,302.4L35.8,302.4z"/>
			<path d="M40.4,307h-1.2v-5.9h1l2.7,3.7h0.1v-3.7h1.2v5.9h-1l-2.7-3.7h-0.1V307z"/>
		</g>
		<g class="st5">
			<path d="M44.8,305.3H46c0,0.2,0.1,0.4,0.2,0.6c0.1,0.1,0.3,0.2,0.6,0.2c0.3,0,0.4-0.1,0.6-0.2c0.1-0.2,0.2-0.4,0.2-0.7v-4h1.2
				v4.1c0,0.6-0.2,1.1-0.5,1.5c-0.4,0.3-0.8,0.5-1.5,0.5c-0.6,0-1.1-0.2-1.5-0.5C45,306.4,44.8,305.9,44.8,305.3z"/>
		</g>
		<g class="st5">
			<path d="M53.5,307l-0.4-1.4H51l-0.5,1.4h-1.2l2-5.9h1.4l2,5.9H53.5z M52,302.4l-0.7,2.3h1.5L52,302.4L52,302.4z"/>
		</g>
		<g class="st5">
			<path d="M57.6,307h-1.2v-2.2l-2-3.7h1.3l1.3,2.5H57l1.3-2.5h1.3l-2,3.7V307z"/>
		</g>
		<g class="st5">
			<path d="M67.1,304.7c0,0.8-0.2,1.4-0.7,1.9c-0.5,0.5-1.1,0.7-1.9,0.7c-0.9,0-1.6-0.3-2.1-0.8c-0.5-0.6-0.8-1.3-0.8-2.3
				c0-0.9,0.3-1.7,0.8-2.3c0.5-0.6,1.2-0.8,2-0.8c0.7,0,1.3,0.2,1.7,0.6c0.5,0.4,0.7,0.9,0.8,1.5h-1.2c-0.1-0.3-0.3-0.5-0.5-0.7
				s-0.5-0.2-0.9-0.2c-0.5,0-0.8,0.2-1.1,0.5s-0.4,0.8-0.4,1.5c0,0.6,0.1,1.1,0.4,1.5c0.3,0.4,0.7,0.5,1.2,0.5c0.4,0,0.7-0.1,1-0.3
				c0.3-0.2,0.4-0.5,0.4-0.9l0-0.1h-1.3v-0.9h2.5V304.7z"/>
		</g>
		<g class="st5">
			<path d="M71.5,307l-0.4-1.4H69l-0.5,1.4h-1.2l2-5.9h1.4l2,5.9H71.5z M70,302.4l-0.7,2.3h1.5L70,302.4L70,302.4z"/>
			<path d="M74.6,307h-1.2v-5.9h1l2.7,3.7h0.1v-3.7h1.2v5.9h-1l-2.7-3.7h-0.1V307z"/>
			<path d="M79.4,301.2h2.3c0.9,0,1.6,0.3,2,0.8c0.5,0.5,0.7,1.2,0.7,2.1c0,1-0.2,1.7-0.7,2.2c-0.5,0.5-1.2,0.8-2,0.8h-2.3V301.2z
				 M80.6,302.2v3.8h0.9c0.5,0,1-0.2,1.3-0.5c0.3-0.3,0.4-0.8,0.4-1.4c0-0.6-0.1-1.1-0.4-1.4c-0.3-0.3-0.7-0.5-1.3-0.5H80.6z"/>
			<path d="M90.3,307h-1.2v-2.5h-2.6v2.5h-1.2v-5.9h1.2v2.4h2.6v-2.4h1.2V307z"/>
			<path d="M92.6,307h-1.2v-5.9h1.2V307z"/>
			<path d="M97.9,307h-2.6v-5.9h2.6c0.6,0,1,0.1,1.3,0.4c0.3,0.3,0.5,0.6,0.5,1.1c0,0.3-0.1,0.6-0.3,0.8c-0.2,0.2-0.5,0.4-0.8,0.4
				v0.1c0.4,0,0.7,0.2,1,0.4c0.3,0.3,0.4,0.6,0.4,1c0,0.5-0.2,0.9-0.5,1.2S98.6,307,97.9,307z M96.5,302.1v1.5h0.9
				c0.3,0,0.6-0.1,0.8-0.2c0.2-0.1,0.3-0.3,0.3-0.5s-0.1-0.4-0.2-0.6s-0.4-0.2-0.7-0.2H96.5z M96.5,306.1h1.1c0.4,0,0.6-0.1,0.8-0.2
				c0.2-0.1,0.3-0.4,0.3-0.6c0-0.3-0.1-0.5-0.3-0.6s-0.5-0.2-0.8-0.2h-1.1V306.1z"/>
			<path d="M101.9,307h-1.2v-5.9h1.2V307z"/>
			<path d="M105.5,301c0.9,0,1.6,0.3,2.1,0.8s0.8,1.3,0.8,2.3c0,1-0.3,1.7-0.8,2.3c-0.5,0.6-1.2,0.8-2.1,0.8c-0.9,0-1.6-0.3-2.1-0.8
				c-0.5-0.6-0.8-1.3-0.8-2.3c0-1,0.3-1.7,0.8-2.3C103.9,301.3,104.6,301,105.5,301z M106.6,302.6c-0.3-0.4-0.7-0.5-1.1-0.5
				s-0.9,0.2-1.1,0.5c-0.3,0.4-0.4,0.9-0.4,1.5c0,0.6,0.1,1.1,0.4,1.5c0.3,0.4,0.7,0.5,1.1,0.5c0.5,0,0.9-0.2,1.1-0.5
				c0.3-0.4,0.4-0.9,0.4-1.5C107,303.5,106.9,303,106.6,302.6z"/>
		</g>
		<g class="st5">
			<path d="M112.9,306v1.1H109v-5.9h1.2v4.8H112.9z"/>
		</g>
		<g class="st5">
			<path d="M116,301c0.9,0,1.6,0.3,2.1,0.8s0.8,1.3,0.8,2.3c0,1-0.3,1.7-0.8,2.3c-0.5,0.6-1.2,0.8-2.1,0.8c-0.9,0-1.6-0.3-2.1-0.8
				c-0.5-0.6-0.8-1.3-0.8-2.3c0-1,0.3-1.7,0.8-2.3C114.4,301.3,115.1,301,116,301z M117.1,302.6c-0.3-0.4-0.7-0.5-1.1-0.5
				s-0.9,0.2-1.1,0.5c-0.3,0.4-0.4,0.9-0.4,1.5c0,0.6,0.1,1.1,0.4,1.5c0.3,0.4,0.7,0.5,1.1,0.5c0.5,0,0.9-0.2,1.1-0.5
				c0.3-0.4,0.4-0.9,0.4-1.5C117.5,303.5,117.4,303,117.1,302.6z"/>
			<path d="M124.7,304.7c0,0.8-0.2,1.4-0.7,1.9c-0.5,0.5-1.1,0.7-1.9,0.7c-0.9,0-1.6-0.3-2.1-0.8c-0.5-0.6-0.8-1.3-0.8-2.3
				c0-0.9,0.3-1.7,0.8-2.3c0.5-0.6,1.2-0.8,2-0.8c0.7,0,1.3,0.2,1.7,0.6c0.5,0.4,0.7,0.9,0.8,1.5h-1.2c-0.1-0.3-0.3-0.5-0.5-0.7
				s-0.5-0.2-0.9-0.2c-0.5,0-0.8,0.2-1.1,0.5s-0.4,0.8-0.4,1.5c0,0.6,0.1,1.1,0.4,1.5c0.3,0.4,0.7,0.5,1.2,0.5c0.4,0,0.7-0.1,1-0.3
				c0.3-0.2,0.4-0.5,0.4-0.9l0-0.1h-1.3v-0.9h2.5V304.7z"/>
			<path d="M126.7,307h-1.2v-5.9h1.2V307z"/>
		</g>
		<g class="st5">
			<path d="M130.2,307.2c-0.9,0-1.5-0.3-2-0.8c-0.5-0.6-0.7-1.3-0.7-2.3c0-1,0.2-1.7,0.7-2.3c0.5-0.6,1.2-0.8,2-0.8
				c0.7,0,1.3,0.2,1.8,0.6s0.7,0.9,0.8,1.6h-1.2c-0.1-0.3-0.2-0.6-0.5-0.8c-0.2-0.2-0.5-0.3-0.9-0.3c-0.5,0-0.8,0.2-1.1,0.5
				c-0.3,0.4-0.4,0.8-0.4,1.5s0.1,1.1,0.4,1.5c0.3,0.4,0.6,0.5,1.1,0.5c0.4,0,0.7-0.1,0.9-0.3s0.4-0.5,0.5-0.8h1.2
				c-0.1,0.6-0.3,1.2-0.8,1.5C131.5,307,130.9,307.2,130.2,307.2z"/>
		</g>
		<g class="st5">
			<path d="M137,307l-0.4-1.4h-2.1l-0.5,1.4h-1.2l2-5.9h1.4l2,5.9H137z M135.5,302.4l-0.7,2.3h1.5L135.5,302.4L135.5,302.4z"/>
			<path d="M142.8,306v1.1H139v-5.9h1.2v4.8H142.8z"/>
		</g>
		<g class="st5">
			<path d="M145.2,301.2h2.5c0.6,0,1.1,0.2,1.5,0.6s0.6,0.9,0.6,1.5c0,0.6-0.2,1.1-0.6,1.5c-0.4,0.4-0.9,0.6-1.5,0.6h-1.2v1.8h-1.2
				V301.2z M146.5,302.2v2h0.9c0.4,0,0.6-0.1,0.8-0.3c0.2-0.2,0.3-0.4,0.3-0.8c0-0.3-0.1-0.6-0.3-0.8s-0.5-0.3-0.8-0.3H146.5z"/>
		</g>
		<g class="st5">
			<path d="M153.8,307l-0.4-1.4h-2.1l-0.5,1.4h-1.2l2-5.9h1.4l2,5.9H153.8z M152.3,302.4l-0.7,2.3h1.5L152.3,302.4L152.3,302.4z"/>
			<path d="M156.9,304.9v2.1h-1.2v-5.9h2.5c0.6,0,1.2,0.2,1.5,0.5s0.6,0.8,0.6,1.4c0,0.4-0.1,0.7-0.3,1c-0.2,0.3-0.5,0.5-0.8,0.6
				l1.2,2.3H159l-1.1-2.1H156.9z M156.9,302.2v1.8h1.1c0.3,0,0.6-0.1,0.7-0.2c0.2-0.2,0.3-0.4,0.3-0.7c0-0.3-0.1-0.5-0.3-0.7
				c-0.2-0.2-0.4-0.2-0.7-0.2H156.9z"/>
			<path d="M162.3,307h-1.2v-5.9h1.2v2.6h0.1l2.2-2.6h1.4l-2.1,2.6l2.3,3.3h-1.5l-1.7-2.5l-0.6,0.7V307z"/>
			<path d="M167.4,308.6h-0.9l0.3-2.6h1.2L167.4,308.6z"/>
			<path d="M176,304.7c0,0.8-0.2,1.4-0.7,1.9c-0.5,0.5-1.1,0.7-1.9,0.7c-0.9,0-1.6-0.3-2.1-0.8c-0.5-0.6-0.8-1.3-0.8-2.3
				c0-0.9,0.3-1.7,0.8-2.3c0.5-0.6,1.2-0.8,2-0.8c0.7,0,1.3,0.2,1.7,0.6c0.5,0.4,0.7,0.9,0.8,1.5h-1.2c-0.1-0.3-0.3-0.5-0.5-0.7
				s-0.5-0.2-0.9-0.2c-0.5,0-0.8,0.2-1.1,0.5s-0.4,0.8-0.4,1.5c0,0.6,0.1,1.1,0.4,1.5c0.3,0.4,0.7,0.5,1.2,0.5c0.4,0,0.7-0.1,1-0.3
				c0.3-0.2,0.4-0.5,0.4-0.9l0-0.1h-1.3v-0.9h2.5V304.7z"/>
		</g>
		<g class="st5">
			<path d="M179.3,301c0.9,0,1.6,0.3,2.1,0.8s0.8,1.3,0.8,2.3c0,1-0.3,1.7-0.8,2.3c-0.5,0.6-1.2,0.8-2.1,0.8c-0.9,0-1.6-0.3-2.1-0.8
				c-0.5-0.6-0.8-1.3-0.8-2.3c0-1,0.3-1.7,0.8-2.3C177.7,301.3,178.4,301,179.3,301z M180.4,302.6c-0.3-0.4-0.7-0.5-1.1-0.5
				s-0.9,0.2-1.1,0.5c-0.3,0.4-0.4,0.9-0.4,1.5c0,0.6,0.1,1.1,0.4,1.5c0.3,0.4,0.7,0.5,1.1,0.5c0.5,0,0.9-0.2,1.1-0.5
				c0.3-0.4,0.4-0.9,0.4-1.5C180.9,303.5,180.7,303,180.4,302.6z"/>
		</g>
		<g class="st5">
			<path d="M185.7,307h-1.5l-2-5.9h1.4l1.3,4.5h0.1l1.3-4.5h1.3L185.7,307z"/>
			<path d="M192.2,306v1.1h-3.9v-5.9h3.9v1.1h-2.7v1.4h2.5v1h-2.5v1.4H192.2z"/>
			<path d="M194.3,304.9v2.1H193v-5.9h2.5c0.6,0,1.2,0.2,1.5,0.5s0.6,0.8,0.6,1.4c0,0.4-0.1,0.7-0.3,1s-0.5,0.5-0.8,0.6l1.2,2.3
				h-1.4l-1.1-2.1H194.3z M194.3,302.2v1.8h1.1c0.3,0,0.6-0.1,0.7-0.2c0.2-0.2,0.3-0.4,0.3-0.7c0-0.3-0.1-0.5-0.3-0.7
				c-0.2-0.2-0.4-0.2-0.7-0.2H194.3z"/>
			<path d="M199.6,307h-1.2v-5.9h1l2.7,3.7h0.1v-3.7h1.2v5.9h-1l-2.7-3.7h-0.1V307z"/>
			<path d="M205.5,307h-1.1v-5.9h1.4l1.6,4h0.1l1.6-4h1.4v5.9h-1.1v-3.9h-0.1l-1.5,3.6h-0.8l-1.5-3.6h-0.1V307z"/>
			<path d="M215.5,306v1.1h-3.9v-5.9h3.9v1.1h-2.7v1.4h2.5v1h-2.5v1.4H215.5z"/>
			<path d="M217.6,307h-1.2v-5.9h1l2.7,3.7h0.1v-3.7h1.2v5.9h-1l-2.7-3.7h-0.1V307z"/>
			<path d="M225,307h-1.2v-4.8H222v-1.1h4.8v1.1H225V307z"/>
			<path d="M231.8,301c0.9,0,1.6,0.3,2.1,0.8c0.5,0.6,0.8,1.3,0.8,2.3c0,1-0.3,1.7-0.8,2.3c-0.5,0.6-1.2,0.8-2.1,0.8
				c-0.9,0-1.6-0.3-2.1-0.8c-0.5-0.6-0.8-1.3-0.8-2.3c0-1,0.3-1.7,0.8-2.3S230.9,301,231.8,301z M232.9,302.6
				c-0.3-0.4-0.7-0.5-1.1-0.5c-0.5,0-0.9,0.2-1.1,0.5c-0.3,0.4-0.4,0.9-0.4,1.5c0,0.6,0.1,1.1,0.4,1.5c0.3,0.4,0.7,0.5,1.1,0.5
				c0.5,0,0.9-0.2,1.1-0.5c0.3-0.4,0.4-0.9,0.4-1.5C233.3,303.5,233.2,303,232.9,302.6z"/>
			<path d="M236.6,307h-1.2v-5.9h3.8v1.1h-2.6v1.5h2.4v1h-2.4V307z"/>
			<path d="M244.3,307h-2.6v-5.9h2.6c0.6,0,1,0.1,1.3,0.4c0.3,0.3,0.5,0.6,0.5,1.1c0,0.3-0.1,0.6-0.3,0.8c-0.2,0.2-0.5,0.4-0.8,0.4
				v0.1c0.4,0,0.7,0.2,1,0.4c0.3,0.3,0.4,0.6,0.4,1c0,0.5-0.2,0.9-0.5,1.2C245.4,306.9,244.9,307,244.3,307z M242.9,302.1v1.5h0.9
				c0.3,0,0.6-0.1,0.8-0.2c0.2-0.1,0.3-0.3,0.3-0.5s-0.1-0.4-0.2-0.6c-0.2-0.1-0.4-0.2-0.7-0.2H242.9z M242.9,306.1h1.1
				c0.4,0,0.6-0.1,0.8-0.2c0.2-0.1,0.3-0.4,0.3-0.6c0-0.3-0.1-0.5-0.3-0.6s-0.5-0.2-0.8-0.2h-1.1V306.1z"/>
			<path d="M248.2,307H247v-5.9h1.2V307z"/>
			<path d="M254.4,307h-1.2v-2.5h-2.6v2.5h-1.2v-5.9h1.2v2.4h2.6v-2.4h1.2V307z"/>
			<path d="M259.1,307l-0.4-1.4h-2.1l-0.5,1.4h-1.2l2-5.9h1.4l2,5.9H259.1z M257.6,302.4l-0.7,2.3h1.5L257.6,302.4L257.6,302.4z"/>
			<path d="M262.3,304.9v2.1h-1.2v-5.9h2.5c0.6,0,1.2,0.2,1.5,0.5s0.6,0.8,0.6,1.4c0,0.4-0.1,0.7-0.3,1c-0.2,0.3-0.5,0.5-0.8,0.6
				l1.2,2.3h-1.4l-1.1-2.1H262.3z M262.3,302.2v1.8h1.1c0.3,0,0.5-0.1,0.7-0.2c0.2-0.2,0.3-0.4,0.3-0.7c0-0.3-0.1-0.5-0.3-0.7
				c-0.2-0.2-0.4-0.2-0.7-0.2H262.3z"/>
		</g>
		<g class="st5">
			<path d="M235.4,184.6h-1.2v-5.9h1l2.7,3.7h0.1v-3.7h1.2v5.9h-1l-2.7-3.7h-0.1V184.6z"/>
			<path d="M244.1,183.5v1.1h-3.9v-5.9h3.9v1.1h-2.7v1.4h2.5v1h-2.5v1.4H244.1z"/>
			<path d="M248.8,184.6l-0.4-1.4h-2.1l-0.5,1.4h-1.2l2-5.9h1.4l2,5.9H248.8z M247.3,179.9l-0.7,2.3h1.5L247.3,179.9L247.3,179.9z"
				/>
			<path d="M251.9,182.5v2.1h-1.2v-5.9h2.5c0.6,0,1.2,0.2,1.5,0.5s0.6,0.8,0.6,1.4c0,0.4-0.1,0.7-0.3,1c-0.2,0.3-0.5,0.5-0.8,0.6
				l1.2,2.3H254l-1.1-2.1H251.9z M251.9,179.7v1.8h1.1c0.3,0,0.5-0.1,0.7-0.2c0.2-0.2,0.3-0.4,0.3-0.7c0-0.3-0.1-0.5-0.3-0.7
				c-0.2-0.2-0.4-0.2-0.7-0.2H251.9z"/>
		</g>
		<g class="st5">
			<path d="M236.9,194.3h-1.2v-4.8h-1.8v-1.1h4.8v1.1h-1.8V194.3z"/>
			<path d="M244.4,194.3h-1.2v-2.5h-2.6v2.5h-1.2v-5.9h1.2v2.4h2.6v-2.4h1.2V194.3z"/>
			<path d="M246.7,192.2v2.1h-1.2v-5.9h2.5c0.6,0,1.2,0.2,1.5,0.5s0.6,0.8,0.6,1.4c0,0.4-0.1,0.7-0.3,1s-0.5,0.5-0.8,0.6l1.2,2.3
				h-1.4l-1.1-2.1H246.7z M246.7,189.4v1.8h1.1c0.3,0,0.6-0.1,0.7-0.2c0.2-0.2,0.3-0.4,0.3-0.7c0-0.3-0.1-0.5-0.3-0.7
				c-0.2-0.2-0.4-0.2-0.7-0.2H246.7z"/>
			<path d="M254.7,193.3v1.1h-3.9v-5.9h3.9v1.1H252v1.4h2.5v1H252v1.4H254.7z"/>
		</g>
		<g class="st5">
			<path d="M259.4,194.3l-0.4-1.4h-2.1l-0.5,1.4h-1.2l2-5.9h1.4l2,5.9H259.4z M257.9,189.7l-0.7,2.3h1.5L257.9,189.7L257.9,189.7z"
				/>
		</g>
		<g class="st5">
			<path d="M263.3,194.3h-1.2v-4.8h-1.8v-1.1h4.8v1.1h-1.8V194.3z"/>
			<path d="M269.6,193.3v1.1h-3.9v-5.9h3.9v1.1H267v1.4h2.5v1H267v1.4H269.6z"/>
			<path d="M271.7,194.3h-1.2v-5.9h1l2.7,3.7h0.1v-3.7h1.2v5.9h-1l-2.7-3.7h-0.1V194.3z"/>
			<path d="M276.5,188.4h2.3c0.9,0,1.6,0.3,2,0.8c0.5,0.5,0.7,1.2,0.7,2.1c0,1-0.2,1.7-0.7,2.2c-0.5,0.5-1.2,0.8-2,0.8h-2.3V188.4z
				 M277.7,189.5v3.8h0.9c0.5,0,1-0.2,1.3-0.5c0.3-0.3,0.4-0.8,0.4-1.4c0-0.6-0.1-1.1-0.4-1.4c-0.3-0.3-0.7-0.5-1.3-0.5H277.7z"/>
		</g>
		<g class="st5">
			<path d="M430.1,184.9c-0.9,0-1.5-0.3-2-0.8c-0.5-0.6-0.7-1.3-0.7-2.3c0-1,0.2-1.7,0.7-2.3s1.2-0.8,2-0.8c0.7,0,1.3,0.2,1.8,0.6
				c0.5,0.4,0.7,0.9,0.8,1.6h-1.2c-0.1-0.3-0.2-0.6-0.5-0.8c-0.2-0.2-0.5-0.3-0.9-0.3c-0.5,0-0.8,0.2-1.1,0.5
				c-0.3,0.4-0.4,0.8-0.4,1.5s0.1,1.1,0.4,1.5c0.3,0.4,0.6,0.5,1.1,0.5c0.4,0,0.7-0.1,0.9-0.3s0.4-0.5,0.5-0.8h1.2
				c-0.1,0.6-0.3,1.2-0.8,1.5C431.4,184.7,430.8,184.9,430.1,184.9z"/>
			<path d="M434.6,182.6v2.1h-1.2v-5.9h2.5c0.6,0,1.2,0.2,1.5,0.5s0.6,0.8,0.6,1.4c0,0.4-0.1,0.7-0.3,1s-0.5,0.5-0.8,0.6l1.2,2.3
				h-1.4l-1.1-2.1H434.6z M434.6,179.9v1.8h1.1c0.3,0,0.6-0.1,0.7-0.2c0.2-0.2,0.3-0.4,0.3-0.7c0-0.3-0.1-0.5-0.3-0.7
				c-0.2-0.2-0.4-0.2-0.7-0.2H434.6z"/>
			<path d="M440,184.8h-1.2v-5.9h1.2V184.8z"/>
			<path d="M443.6,184.8h-1.2v-4.8h-1.8v-1.1h4.8v1.1h-1.8V184.8z"/>
			<path d="M447.3,184.8h-1.2v-5.9h1.2V184.8z"/>
		</g>
		<g class="st5">
			<path d="M450.8,184.9c-0.9,0-1.5-0.3-2-0.8c-0.5-0.6-0.7-1.3-0.7-2.3c0-1,0.2-1.7,0.7-2.3c0.5-0.6,1.2-0.8,2-0.8
				c0.7,0,1.3,0.2,1.8,0.6c0.5,0.4,0.7,0.9,0.8,1.6h-1.2c-0.1-0.3-0.2-0.6-0.5-0.8c-0.2-0.2-0.5-0.3-0.9-0.3c-0.5,0-0.8,0.2-1.1,0.5
				s-0.4,0.8-0.4,1.5s0.1,1.1,0.4,1.5c0.3,0.4,0.6,0.5,1.1,0.5c0.4,0,0.7-0.1,0.9-0.3s0.4-0.5,0.5-0.8h1.2c-0.1,0.6-0.3,1.2-0.8,1.5
				C452.1,184.7,451.5,184.9,450.8,184.9z"/>
		</g>
		<g class="st5">
			<path d="M457.6,184.8l-0.4-1.4h-2.1l-0.5,1.4h-1.2l2-5.9h1.4l2,5.9H457.6z M456.1,180.1l-0.7,2.3h1.5L456.1,180.1L456.1,180.1z"
				/>
			<path d="M463.4,183.7v1.1h-3.8v-5.9h1.2v4.8H463.4z"/>
		</g>
		<g class="st5">
			<path d="M467.9,183.7v1.1h-3.8v-5.9h1.2v4.8H467.9z"/>
		</g>
		<g class="st5">
			<path d="M470.7,184.8h-1.2v-2.2l-2-3.7h1.3l1.3,2.5h0.1l1.3-2.5h1.3l-2,3.7V184.8z"/>
		</g>
		<g class="st5">
			<path d="M431.5,193.4v1.1h-3.9v-5.9h3.9v1.1h-2.7v1.4h2.5v1h-2.5v1.4H431.5z"/>
			<path d="M433.5,194.5h-1.2v-5.9h1l2.7,3.7h0.1v-3.7h1.2v5.9h-1l-2.7-3.7h-0.1V194.5z"/>
		</g>
		<g class="st5">
			<path d="M438.3,188.6h2.3c0.9,0,1.6,0.3,2,0.8c0.5,0.5,0.7,1.2,0.7,2.1c0,1-0.2,1.7-0.7,2.2c-0.5,0.5-1.2,0.8-2,0.8h-2.3V188.6z
				 M439.6,189.6v3.8h0.9c0.5,0,1-0.2,1.3-0.5s0.4-0.8,0.4-1.4c0-0.6-0.1-1.1-0.4-1.4c-0.3-0.3-0.7-0.5-1.3-0.5H439.6z"/>
		</g>
		<g class="st5">
			<path d="M447.7,194.5l-0.4-1.4h-2.1l-0.5,1.4h-1.2l2-5.9h1.4l2,5.9H447.7z M446.2,189.8l-0.7,2.3h1.5L446.2,189.8L446.2,189.8z"
				/>
			<path d="M450.8,194.5h-1.2v-5.9h1l2.7,3.7h0.1v-3.7h1.2v5.9h-1l-2.7-3.7h-0.1V194.5z"/>
			<path d="M460.7,192.1c0,0.8-0.2,1.4-0.7,1.9c-0.5,0.5-1.1,0.7-1.9,0.7c-0.9,0-1.6-0.3-2.1-0.8c-0.5-0.6-0.8-1.3-0.8-2.3
				c0-0.9,0.3-1.7,0.8-2.3s1.2-0.8,2-0.8c0.7,0,1.3,0.2,1.7,0.6c0.5,0.4,0.7,0.9,0.8,1.5h-1.2c-0.1-0.3-0.3-0.5-0.5-0.7
				s-0.5-0.2-0.9-0.2c-0.5,0-0.8,0.2-1.1,0.5c-0.3,0.4-0.4,0.8-0.4,1.5c0,0.6,0.1,1.1,0.4,1.5c0.3,0.4,0.7,0.5,1.2,0.5
				c0.4,0,0.7-0.1,1-0.3c0.3-0.2,0.4-0.5,0.4-0.9l0-0.1h-1.3v-0.9h2.5V192.1z"/>
			<path d="M465.4,193.4v1.1h-3.9v-5.9h3.9v1.1h-2.7v1.4h2.5v1h-2.5v1.4H465.4z"/>
			<path d="M467.5,192.3v2.1h-1.2v-5.9h2.5c0.6,0,1.2,0.2,1.5,0.5s0.6,0.8,0.6,1.4c0,0.4-0.1,0.7-0.3,1c-0.2,0.3-0.5,0.5-0.8,0.6
				l1.2,2.3h-1.4l-1.1-2.1H467.5z M467.5,189.6v1.8h1.1c0.3,0,0.5-0.1,0.7-0.2c0.2-0.2,0.3-0.4,0.3-0.7c0-0.3-0.1-0.5-0.3-0.7
				c-0.2-0.2-0.4-0.2-0.7-0.2H467.5z"/>
			<path d="M475.5,193.4v1.1h-3.9v-5.9h3.9v1.1h-2.7v1.4h2.5v1h-2.5v1.4H475.5z"/>
			<path d="M476.4,188.6h2.3c0.9,0,1.6,0.3,2,0.8c0.5,0.5,0.7,1.2,0.7,2.1c0,1-0.2,1.7-0.7,2.2c-0.5,0.5-1.2,0.8-2,0.8h-2.3V188.6z
				 M477.6,189.6v3.8h0.9c0.5,0,1-0.2,1.3-0.5s0.4-0.8,0.4-1.4c0-0.6-0.1-1.1-0.4-1.4c-0.3-0.3-0.7-0.5-1.3-0.5H477.6z"/>
		</g>
		<g class="st5">
			<path d="M500.5,183.7v1.1h-3.9v-5.9h3.9v1.1h-2.7v1.4h2.5v1h-2.5v1.4H500.5z"/>
			<path d="M501,184.8l1.9-3l-1.9-2.9h1.4l1.2,2.1h0.1l1.2-2.1h1.4l-1.9,2.9l1.9,2.9H505l-1.3-2h-0.1l-1.3,2H501z"/>
			<path d="M509.7,184.8h-1.2v-4.8h-1.8v-1.1h4.8v1.1h-1.8V184.8z"/>
			<path d="M513.4,184.8h-1.2v-5.9h1.2V184.8z"/>
			<path d="M515.6,184.8h-1.2v-5.9h1l2.7,3.7h0.1v-3.7h1.2v5.9h-1l-2.7-3.7h-0.1V184.8z"/>
		</g>
		<g class="st5">
			<path d="M522.8,184.9c-0.9,0-1.5-0.3-2-0.8c-0.5-0.6-0.7-1.3-0.7-2.3c0-1,0.2-1.7,0.7-2.3s1.2-0.8,2-0.8c0.7,0,1.3,0.2,1.8,0.6
				c0.5,0.4,0.7,0.9,0.8,1.6h-1.2c-0.1-0.3-0.2-0.6-0.5-0.8c-0.2-0.2-0.5-0.3-0.9-0.3c-0.5,0-0.8,0.2-1.1,0.5
				c-0.3,0.4-0.4,0.8-0.4,1.5s0.1,1.1,0.4,1.5c0.3,0.4,0.6,0.5,1.1,0.5c0.4,0,0.7-0.1,0.9-0.3s0.4-0.5,0.5-0.8h1.2
				c-0.1,0.6-0.3,1.2-0.8,1.5C524.1,184.7,523.6,184.9,522.8,184.9z"/>
		</g>
		<g class="st5">
			<path d="M528.6,184.8h-1.2v-4.8h-1.8v-1.1h4.8v1.1h-1.8V184.8z"/>
		</g>
		<g class="st5">
			<path d="M497.8,194.5h-1.2v-5.9h1.2V194.5z"/>
			<path d="M500,194.5h-1.2v-5.9h1l2.7,3.7h0.1v-3.7h1.2v5.9h-1l-2.7-3.7H500V194.5z"/>
			<path d="M509.2,194.5H508v-4.8h-1.8v-1.1h4.8v1.1h-1.8V194.5z"/>
			<path d="M516.8,194.5h-1.2V192h-2.6v2.5h-1.2v-5.9h1.2v2.4h2.6v-2.4h1.2V194.5z"/>
			<path d="M521.7,193.4v1.1h-3.9v-5.9h3.9v1.1H519v1.4h2.5v1H519v1.4H521.7z"/>
			<path d="M527.7,190.6l-1.1,3.9h-1.2l-1.6-5.9h1.3l0.9,4.1h0.1l1.1-4.1h1l1.1,4.1h0.1l0.9-4.1h1.3l-1.6,5.9h-1.2L527.7,190.6
				L527.7,190.6z"/>
			<path d="M533.5,194.5h-1.2v-5.9h1.2V194.5z"/>
			<path d="M538.4,193.4v1.1h-3.8v-5.9h1.2v4.8H538.4z"/>
			<path d="M539.1,188.6h2.3c0.9,0,1.6,0.3,2,0.8c0.5,0.5,0.7,1.2,0.7,2.1c0,1-0.2,1.7-0.7,2.2c-0.5,0.5-1.2,0.8-2,0.8h-2.3V188.6z
				 M540.3,189.6v3.8h0.9c0.5,0,1-0.2,1.3-0.5c0.3-0.3,0.4-0.8,0.4-1.4c0-0.6-0.1-1.1-0.4-1.4s-0.7-0.5-1.2-0.5H540.3z"/>
		</g>
		<g class="st5">
			<path class="st0" d="M574.5,188.4v1.1h-3.9v-5.9h3.9v1.1h-2.7v1.4h2.5v1h-2.5v1.4H574.5z"/>
			<path class="st0" d="M575.1,189.5l1.9-3l-1.9-2.9h1.4l1.2,2.1h0.1l1.2-2.1h1.4l-1.9,2.9l1.9,2.9H579l-1.3-2h-0.1l-1.3,2H575.1z"
				/>
			<path class="st0" d="M583.7,189.5h-1.2v-4.8h-1.8v-1.1h4.8v1.1h-1.8V189.5z"/>
			<path class="st0" d="M587.4,189.5h-1.2v-5.9h1.2V189.5z"/>
			<path class="st0" d="M589.6,189.5h-1.2v-5.9h1l2.7,3.7h0.1v-3.7h1.2v5.9h-1l-2.7-3.7h-0.1V189.5z"/>
		</g>
		<g class="st5">
			<path class="st0" d="M596.9,189.6c-0.9,0-1.5-0.3-2-0.8c-0.5-0.6-0.7-1.3-0.7-2.3c0-1,0.2-1.7,0.7-2.3c0.5-0.6,1.2-0.8,2-0.8
				c0.7,0,1.3,0.2,1.8,0.6c0.5,0.4,0.7,0.9,0.8,1.6h-1.2c-0.1-0.3-0.2-0.6-0.5-0.8c-0.2-0.2-0.5-0.3-0.9-0.3c-0.5,0-0.8,0.2-1.1,0.5
				c-0.3,0.4-0.4,0.8-0.4,1.5s0.1,1.1,0.4,1.5c0.3,0.4,0.6,0.5,1.1,0.5c0.4,0,0.7-0.1,0.9-0.3s0.4-0.5,0.5-0.8h1.2
				c-0.1,0.6-0.3,1.2-0.8,1.5C598.2,189.4,597.6,189.6,596.9,189.6z"/>
		</g>
		<g class="st5">
			<path class="st0" d="M602.7,189.5h-1.2v-4.8h-1.8v-1.1h4.8v1.1h-1.8V189.5z"/>
		</g>
		<g class="st5">
			<path d="M299.2,190.5h-1.5l-2-5.9h1.4l1.3,4.5h0.1l1.3-4.5h1.3L299.2,190.5z"/>
			<path d="M303,184.7v3.7c0,0.4,0.1,0.7,0.3,0.9c0.2,0.2,0.5,0.3,0.9,0.3c0.4,0,0.7-0.1,0.9-0.3c0.2-0.2,0.3-0.5,0.3-0.9v-3.7h1.2
				v3.8c0,0.7-0.2,1.2-0.7,1.6c-0.4,0.4-1,0.6-1.8,0.6c-0.7,0-1.3-0.2-1.8-0.6c-0.4-0.4-0.7-0.9-0.7-1.6v-3.8H303z"/>
			<path d="M311.6,189.5v1.1h-3.8v-5.9h1.2v4.8H311.6z"/>
			<path d="M313.4,190.5h-1.2v-5.9h1l2.7,3.7h0.1v-3.7h1.2v5.9h-1l-2.7-3.7h-0.1V190.5z"/>
			<path d="M322.1,189.5v1.1h-3.9v-5.9h3.9v1.1h-2.7v1.4h2.5v1h-2.5v1.4H322.1z"/>
			<path d="M324.2,188.4v2.1H323v-5.9h2.5c0.6,0,1.2,0.2,1.5,0.5s0.6,0.8,0.6,1.4c0,0.4-0.1,0.7-0.3,1c-0.2,0.3-0.5,0.5-0.8,0.6
				l1.2,2.3h-1.4l-1.1-2.1H324.2z M324.2,185.6v1.8h1.1c0.3,0,0.5-0.1,0.7-0.2c0.2-0.2,0.3-0.4,0.3-0.7c0-0.3-0.1-0.5-0.3-0.7
				c-0.2-0.2-0.4-0.2-0.7-0.2H324.2z"/>
			<path d="M332.2,190.5l-0.4-1.4h-2.1l-0.5,1.4H328l2-5.9h1.4l2,5.9H332.2z M330.7,185.9l-0.7,2.3h1.5L330.7,185.9L330.7,185.9z"/>
			<path d="M336.7,190.5h-2.6v-5.9h2.6c0.6,0,1,0.1,1.3,0.4s0.5,0.6,0.5,1.1c0,0.3-0.1,0.6-0.3,0.8c-0.2,0.2-0.5,0.4-0.8,0.4v0.1
				c0.4,0,0.7,0.2,1,0.4c0.3,0.3,0.4,0.6,0.4,1c0,0.5-0.2,0.9-0.5,1.2C337.8,190.4,337.3,190.5,336.7,190.5z M335.3,185.6v1.5h0.9
				c0.3,0,0.6-0.1,0.8-0.2c0.2-0.1,0.3-0.3,0.3-0.5s-0.1-0.4-0.2-0.6c-0.2-0.1-0.4-0.2-0.7-0.2H335.3z M335.3,189.6h1.1
				c0.4,0,0.6-0.1,0.8-0.2c0.2-0.1,0.3-0.4,0.3-0.6c0-0.3-0.1-0.5-0.3-0.6s-0.5-0.2-0.8-0.2h-1.1V189.6z"/>
			<path d="M343.3,189.5v1.1h-3.8v-5.9h1.2v4.8H343.3z"/>
			<path d="M347.9,189.5v1.1H344v-5.9h3.9v1.1h-2.7v1.4h2.5v1h-2.5v1.4H347.9z"/>
		</g>
		<g class="st5">
			<path d="M365,189.6v1.1h-3.9v-5.9h3.9v1.1h-2.7v1.4h2.5v1h-2.5v1.4H365z"/>
			<path d="M367.1,190.7h-1.2v-5.9h1l2.7,3.7h0.1v-3.7h1.2v5.9h-1l-2.7-3.7h-0.1V190.7z"/>
		</g>
		<g class="st5">
			<path d="M371.9,184.8h2.3c0.9,0,1.6,0.3,2,0.8c0.5,0.5,0.7,1.2,0.7,2.1c0,1-0.2,1.7-0.7,2.2c-0.5,0.5-1.2,0.8-2,0.8h-2.3V184.8z
				 M373.1,185.8v3.8h0.9c0.5,0,1-0.2,1.3-0.5s0.4-0.8,0.4-1.4c0-0.6-0.1-1.1-0.4-1.4c-0.3-0.3-0.7-0.5-1.3-0.5H373.1z"/>
		</g>
		<g class="st5">
			<path d="M381.2,190.7l-0.4-1.4h-2.1l-0.5,1.4H377l2-5.9h1.4l2,5.9H381.2z M379.7,186l-0.7,2.3h1.5L379.7,186L379.7,186z"/>
			<path d="M384.3,190.7h-1.2v-5.9h1l2.7,3.7h0.1v-3.7h1.2v5.9h-1l-2.7-3.7h-0.1V190.7z"/>
			<path d="M394.2,188.3c0,0.8-0.2,1.4-0.7,1.9c-0.5,0.5-1.1,0.7-1.9,0.7c-0.9,0-1.6-0.3-2.1-0.8c-0.5-0.6-0.8-1.3-0.8-2.3
				c0-0.9,0.3-1.7,0.8-2.3c0.5-0.6,1.2-0.8,2-0.8c0.7,0,1.3,0.2,1.7,0.6c0.5,0.4,0.7,0.9,0.8,1.5H393c-0.1-0.3-0.3-0.5-0.5-0.7
				s-0.5-0.2-0.9-0.2c-0.5,0-0.8,0.2-1.1,0.5c-0.3,0.4-0.4,0.8-0.4,1.5c0,0.6,0.1,1.1,0.4,1.5c0.3,0.4,0.7,0.5,1.2,0.5
				c0.4,0,0.7-0.1,1-0.3c0.3-0.2,0.4-0.5,0.4-0.9l0-0.1h-1.3v-0.9h2.5V188.3z"/>
			<path d="M398.9,189.6v1.1H395v-5.9h3.9v1.1h-2.7v1.4h2.5v1h-2.5v1.4H398.9z"/>
			<path d="M401,188.5v2.1h-1.2v-5.9h2.5c0.6,0,1.2,0.2,1.5,0.5c0.4,0.3,0.6,0.8,0.6,1.4c0,0.4-0.1,0.7-0.3,1
				c-0.2,0.3-0.5,0.5-0.8,0.6l1.2,2.3h-1.4l-1.1-2.1H401z M401,185.8v1.8h1.1c0.3,0,0.6-0.1,0.7-0.2c0.2-0.2,0.3-0.4,0.3-0.7
				c0-0.3-0.1-0.5-0.3-0.7c-0.2-0.2-0.4-0.2-0.7-0.2H401z"/>
			<path d="M409,189.6v1.1h-3.9v-5.9h3.9v1.1h-2.7v1.4h2.5v1h-2.5v1.4H409z"/>
			<path d="M409.9,184.8h2.3c0.9,0,1.6,0.3,2,0.8c0.5,0.5,0.7,1.2,0.7,2.1c0,1-0.2,1.7-0.7,2.2c-0.5,0.5-1.2,0.8-2,0.8h-2.3V184.8z
				 M411.2,185.8v3.8h0.9c0.5,0,1-0.2,1.3-0.5c0.3-0.3,0.4-0.8,0.4-1.4c0-0.6-0.2-1.1-0.4-1.4c-0.3-0.3-0.7-0.5-1.3-0.5H411.2z"/>
		</g>
		<rect x="91.6" y="169.7" class="st7" width="0" height="34"/>
		<rect x="91.6" y="169.7" class="st7" width="65.8" height="34"/>
		<rect x="157.4" y="169.7" class="st7" width="65.8" height="34"/>
		<rect x="223.3" y="169.7" class="st7" width="65.8" height="34"/>
		<rect x="289.1" y="169.7" class="st7" width="65.8" height="34"/>
		<rect x="354.9" y="169.7" class="st7" width="65.8" height="34"/>
		<rect x="420.7" y="169.7" class="st7" width="65.8" height="34"/>
		<rect x="486.6" y="169.7" class="st7" width="65.8" height="34"/>
		<rect x="552.4" y="169.7" class="st7" width="65.8" height="34"/>
	</g>
</g>
</svg>
