<svg xmlns="http://www.w3.org/2000/svg" viewBox="0 0 644 320"><defs><style>.cls-1{fill:#fff;}.cls-2{fill:#868686;}.cls-3{fill:#1d1d1b;}.cls-4{fill:#d2110c;}.cls-5{fill:#3a3838;}.cls-6{isolation:isolate;}.cls-7,.cls-8{fill:none;stroke:#4d4d4d;stroke-miterlimit:10;}.cls-8{stroke-width:0.25px;}</style></defs><g id="Layer_2" data-name="Layer 2"><g id="Layer_1-2" data-name="Layer 1"><g id="Layer_2-2" data-name="Layer 2"><g id="Layer_1-2-2" data-name="Layer 1-2"><rect class="cls-1" width="644" height="320"/><rect class="cls-2" x="25.77" y="169.67" width="65.68" height="33.78"/><rect class="cls-2" x="91.6" y="169.67" width="65.68" height="33.78"/><rect class="cls-3" x="552.48" y="169.67" width="65.68" height="33.78"/><circle class="cls-4" cx="35.4" cy="81.88" r="11.74"/><path class="cls-4" d="M47.13,56.42A11.68,11.68,0,1,1,35.45,44.74H47.13Z"/><circle class="cls-4" cx="56.61" cy="60.79" r="7.29"/><ellipse class="cls-4" cx="64.78" cy="47.5" rx="4.67" ry="3.49" transform="translate(-14.61 59.76) rotate(-45.03)"/><ellipse class="cls-4" cx="55.95" cy="48.87" rx="4.67" ry="3.49" transform="translate(-18.16 53.91) rotate(-45.03)"/><ellipse class="cls-4" cx="70.13" cy="52.88" rx="4.67" ry="3.49" transform="translate(-16.85 65.12) rotate(-45.03)"/><ellipse class="cls-4" cx="68.71" cy="61.63" rx="4.67" ry="3.49" transform="translate(-23.45 66.68) rotate(-45.03)"/><path class="cls-1" d="M36.7,84.36a5.07,5.07,0,1,1-2-6.89,5,5,0,0,1,2,2H35.07a3.72,3.72,0,1,0,0,4.9Z"/><path id="R" d="M49.79,71.88h4.74c1.63,0,3.25.75,3.25,2.62a2.39,2.39,0,0,1-1.46,2.33h0c1,.24,1.28,1.34,1.35,2.23a4.69,4.69,0,0,0,.39,2.09H55.67a4.13,4.13,0,0,1-.27-1.48c-.07-.94-.22-1.9-1.36-1.9H52.21v3.38H49.79Zm2.42,4h2A1,1,0,0,0,55.33,75a.81.81,0,0,0,0-.22c0-.69-.55-1-1.23-1H52.21v2.1Z"/><path id="E" d="M59,71.88h7.41v1.94h-5v1.63H66v1.87h-4.6v1.77h5.12v2.08H59Z"/><path id="D" d="M67.53,71.88h4a4.21,4.21,0,0,1,4.56,3.85,3.86,3.86,0,0,1,0,.76c0,3.05-1.73,4.68-4.56,4.68h-4ZM70,79.09h1.14c1.84,0,2.57-.75,2.57-2.61a2.26,2.26,0,0,0-2-2.5,2.66,2.66,0,0,0-.63,0H70Z"/><path id="L" d="M49.79,82.13h2.42v7.21h4.33v2.08H49.79Z"/><path id="I" d="M57.24,82.13h2.42v9.29H57.24Z"/><path id="S" d="M62.72,88.29c.05,1.1.72,1.45,1.75,1.45.73,0,1.49-.26,1.49-.95s-1.33-1-2.67-1.35-2.72-1-2.72-2.69c0-2,2-2.82,3.78-2.82s3.71.9,3.73,3H65.66c0-.84-.76-1.11-1.5-1.11-.52,0-1.17.18-1.17.79s1.34.84,2.69,1.22,2.69,1,2.69,2.68c0,2.36-2,3.11-4,3.11s-4-.93-4-3.32Z"/><path id="T" d="M76,84.21H73.19v7.21H70.77V84.21H68V82.13h8Z"/><path d="M77.05,71.49a1.15,1.15,0,0,1,.6.16,1.05,1.05,0,0,1,.46.45,1.24,1.24,0,0,1,0,1.22,1.08,1.08,0,0,1-.45.45,1.16,1.16,0,0,1-1.22,0,1.08,1.08,0,0,1-.45-.45,1.21,1.21,0,0,1,0-1.22,1.05,1.05,0,0,1,.46-.45A1.21,1.21,0,0,1,77.05,71.49Zm0,.2a1,1,0,0,0-.5.14.9.9,0,0,0-.38.37,1,1,0,0,0-.14.51,1,1,0,0,0,.14.51,1,1,0,0,0,.37.38,1.07,1.07,0,0,0,1,0,1,1,0,0,0,.38-.38,1.14,1.14,0,0,0,.13-.51,1,1,0,0,0-.14-.51.9.9,0,0,0-.38-.37A1,1,0,0,0,77.05,71.69Zm.39,1.22.2.06a.57.57,0,0,1-.2.32.67.67,0,0,1-.39.12.61.61,0,0,1-.46-.18.68.68,0,0,1-.18-.51.8.8,0,0,1,.08-.37.53.53,0,0,1,.23-.24.62.62,0,0,1,.35-.08.55.55,0,0,1,.35.1.51.51,0,0,1,.2.28h-.2a.52.52,0,0,0-.14-.19.43.43,0,0,0-.22-.06.37.37,0,0,0-.31.13.66.66,0,0,0,0,.76.38.38,0,0,0,.29.12.4.4,0,0,0,.26-.08A.42.42,0,0,0,77.44,72.91Z"/><path id="I-2" class="cls-1" d="M30.14,83.2V80.82h.47V83.2h-.47"/><path id="U" class="cls-1" d="M31.05,80.82h.5v1.29a2.67,2.67,0,0,0,0,.4.39.39,0,0,0,.15.23.68.68,0,0,0,.65,0,.3.3,0,0,0,.13-.21,2.67,2.67,0,0,0,0-.4V80.82H33v1.25a3,3,0,0,1,0,.6.85.85,0,0,1-.15.3.75.75,0,0,1-.3.2,1.7,1.7,0,0,1-1,0,.72.72,0,0,1-.29-.2.87.87,0,0,1-.14-.27,3,3,0,0,1-.05-.6V80.82"/><path id="C" class="cls-1" d="M33.33,82a1.55,1.55,0,0,1,.1-.6,1.46,1.46,0,0,1,.22-.33.71.71,0,0,1,.3-.21,1.25,1.25,0,0,1,.51-.1,1.09,1.09,0,0,1,.82.33,1,1,0,0,1,.28.53h-.5a.59.59,0,0,0-.6-.45.58.58,0,0,0-.47.21.88.88,0,0,0-.18.61m0,0a.84.84,0,0,0,.19.61.55.55,0,0,0,.46.21.58.58,0,0,0,.47-.21.61.61,0,0,0,.14-.29h.5a1.22,1.22,0,0,1-.28.57,1.22,1.22,0,0,1-1.66,0,1.28,1.28,0,0,1-.3-.9"/><path id="N" class="cls-1" d="M35.86,83.2V80.82h.42l1.09,1.65V80.82h.44V83.2h-.42l-1.11-1.67V83.2h-.46"/><path class="cls-4" d="M99.73,63.79H95.92V45.6h3.81Z"/><path class="cls-4" d="M106.7,45.6V57.12a3.69,3.69,0,0,0,1,2.75,4.41,4.41,0,0,0,5.62,0,3.73,3.73,0,0,0,1-2.75V45.6h3.8V57.51a6.29,6.29,0,0,1-2.07,4.9,9.24,9.24,0,0,1-11.1,0,6.29,6.29,0,0,1-2.07-4.9V45.6Z"/><path class="cls-4" d="M129,64.26a8,8,0,0,1-6.25-2.57,10.15,10.15,0,0,1-2.29-7,10.15,10.15,0,0,1,2.29-7,8.82,8.82,0,0,1,11.71-.64A7,7,0,0,1,136.9,52h-3.7a4.12,4.12,0,0,0-1.42-2.52,4.2,4.2,0,0,0-2.77-1,4,4,0,0,0-3.39,1.67,7.4,7.4,0,0,0-1.25,4.54,7.4,7.4,0,0,0,1.25,4.54A4,4,0,0,0,129,60.91a4.32,4.32,0,0,0,2.77-.9,3.78,3.78,0,0,0,1.41-2.4h3.71a6.74,6.74,0,0,1-2.43,4.8A8.22,8.22,0,0,1,129,64.26Z"/><path class="cls-4" d="M142.78,63.79h-3.65V45.6h3.18l8.38,11.33h.22V45.6h3.65V63.79h-3.15L143,52.41h-.23Z"/><path class="cls-4" d="M170.78,64.26a8,8,0,0,1-6.25-2.57,10.1,10.1,0,0,1-2.29-7,10.1,10.1,0,0,1,2.29-7,8.81,8.81,0,0,1,11.7-.64,6.85,6.85,0,0,1,2.44,4.9H175a4.12,4.12,0,0,0-1.42-2.52,4.2,4.2,0,0,0-2.77-1,4,4,0,0,0-3.39,1.67,7.4,7.4,0,0,0-1.25,4.54,7.4,7.4,0,0,0,1.25,4.54,4,4,0,0,0,3.4,1.68,4.37,4.37,0,0,0,2.78-.9,3.89,3.89,0,0,0,1.41-2.4h3.71a6.74,6.74,0,0,1-2.43,4.8A8.19,8.19,0,0,1,170.78,64.26Z"/><path class="cls-4" d="M184.34,64a4.68,4.68,0,0,1-3.28-1.15,3.88,3.88,0,0,1-1.27-3,3.54,3.54,0,0,1,1.39-3,7.12,7.12,0,0,1,4-1.23l3.36-.2V54.3a1.64,1.64,0,0,0-.6-1.35,2.81,2.81,0,0,0-1.74-.47c-1.36,0-2.2.43-2.51,1.29h-3.38a4,4,0,0,1,1.82-3.06,7.4,7.4,0,0,1,4.27-1.13,6.5,6.5,0,0,1,4.26,1.24,4.26,4.26,0,0,1,1.5,3.48v9.49h-3.55V62h-.23a3.68,3.68,0,0,1-1.61,1.49A5.36,5.36,0,0,1,184.34,64Zm1.22-2.76a3.24,3.24,0,0,0,2.13-.72,2.25,2.25,0,0,0,.85-1.78v-1l-2.81.17q-2.34.17-2.34,1.68A1.45,1.45,0,0,0,184,60.8a2.63,2.63,0,0,0,1.56.45Z"/><path class="cls-4" d="M195.53,46.58h3.67V50h2.88v2.89H199.2v6.26a1.8,1.8,0,0,0,.43,1.33,1.88,1.88,0,0,0,1.37.43h1.08v2.8a9.47,9.47,0,0,1-1.84.16,5.78,5.78,0,0,1-3.62-.88,3.54,3.54,0,0,1-1.09-3V52.91h-2.17V50h2.17Z"/><path class="cls-4" d="M212.74,59.83h3.41A4.79,4.79,0,0,1,214,63a7.3,7.3,0,0,1-4.24,1.15,6.53,6.53,0,0,1-5-1.9A7.41,7.41,0,0,1,203,57a7.64,7.64,0,0,1,1.79-5.36,6.33,6.33,0,0,1,4.9-2,6.22,6.22,0,0,1,4.79,1.85,7.33,7.33,0,0,1,1.73,5.17v1.13h-9.55v.19a3.5,3.5,0,0,0,.89,2.45,3,3,0,0,0,2.29.9,3.92,3.92,0,0,0,1.81-.37A2.11,2.11,0,0,0,212.74,59.83Zm-3-7.44a2.89,2.89,0,0,0-2.1.82,3.28,3.28,0,0,0-.93,2.17h5.93a3.27,3.27,0,0,0-.84-2.19,2.73,2.73,0,0,0-2-.8Z"/><path class="cls-4" d="M224.11,69.06A8.17,8.17,0,0,1,219.63,68a3.83,3.83,0,0,1-1.89-3h3.63a1.52,1.52,0,0,0,.88,1,4.14,4.14,0,0,0,1.93.38,3.62,3.62,0,0,0,2.3-.65,2.21,2.21,0,0,0,.82-1.82V61.35h-.23a4.35,4.35,0,0,1-4.19,2.24,5,5,0,0,1-4.11-1.86,7.73,7.73,0,0,1-1.51-5,8,8,0,0,1,1.53-5.15A5,5,0,0,1,223,49.66a4.91,4.91,0,0,1,2.54.65,4.14,4.14,0,0,1,1.68,1.81h.23V49.88H231V63.74a4.68,4.68,0,0,1-1.86,3.89A7.92,7.92,0,0,1,224.11,69.06Zm2.38-9.43a4.58,4.58,0,0,0,.84-2.91,4.51,4.51,0,0,0-.85-2.91,3,3,0,0,0-4.22-.41,3.18,3.18,0,0,0-.41.41,5.61,5.61,0,0,0,0,5.83,2.73,2.73,0,0,0,2.31,1.06A2.82,2.82,0,0,0,226.49,59.63Z"/><path class="cls-4" d="M244.55,62.17a7.51,7.51,0,0,1-10.05,0,7.45,7.45,0,0,1-1.82-5.34,7.43,7.43,0,0,1,1.83-5.31,7.45,7.45,0,0,1,10,0,7.43,7.43,0,0,1,1.83,5.31A7.5,7.5,0,0,1,244.55,62.17Zm-5-1.08A2.62,2.62,0,0,0,241.79,60a5.3,5.3,0,0,0,.81-3.15,5.31,5.31,0,0,0-.81-3.13,2.86,2.86,0,0,0-4-.53,2.66,2.66,0,0,0-.53.53,5.4,5.4,0,0,0-.8,3.13,5.29,5.29,0,0,0,.8,3.15,2.61,2.61,0,0,0,2.27,1.09Z"/><path class="cls-4" d="M248.07,63.79V49.88h3.56V52.1h.22a3.08,3.08,0,0,1,1.27-1.75,3.94,3.94,0,0,1,2.3-.69,4.66,4.66,0,0,1,1.44.17v3.34a5.11,5.11,0,0,0-1.74-.22,3.54,3.54,0,0,0-2.45.84,3,3,0,0,0-.93,2.3v7.7Z"/><path class="cls-4" d="M260,47.94a2.32,2.32,0,0,1-1.58-.52,1.82,1.82,0,0,1-.11-2.57,1.14,1.14,0,0,1,.11-.11,2.33,2.33,0,0,1,1.58-.51,2.29,2.29,0,0,1,1.57.51,1.8,1.8,0,0,1,.14,2.54,1.85,1.85,0,0,1-.14.14A2.29,2.29,0,0,1,260,47.94Zm-1.84,15.85V49.88h3.67V63.79Z"/><path class="cls-4" d="M273.24,59.83h3.42A4.82,4.82,0,0,1,274.55,63a7.3,7.3,0,0,1-4.24,1.15,6.53,6.53,0,0,1-5-1.9A7.41,7.41,0,0,1,263.53,57a7.64,7.64,0,0,1,1.79-5.36,6.33,6.33,0,0,1,4.9-2A6.22,6.22,0,0,1,275,51.45a7.33,7.33,0,0,1,1.73,5.17v1.13h-9.55v.19a3.5,3.5,0,0,0,.89,2.45,3,3,0,0,0,2.29.9,3.92,3.92,0,0,0,1.81-.37A2,2,0,0,0,273.24,59.83Zm-3-7.44a2.89,2.89,0,0,0-2.1.82,3.28,3.28,0,0,0-.93,2.17h5.93a3.27,3.27,0,0,0-.84-2.19,2.75,2.75,0,0,0-2-.8Z"/><path class="cls-4" d="M278.17,54a3.8,3.8,0,0,1,1.6-3.19,6.8,6.8,0,0,1,4.19-1.2,7.06,7.06,0,0,1,4.15,1.07,3.92,3.92,0,0,1,1.66,3.07h-3.39a1.58,1.58,0,0,0-.76-1.07A3.22,3.22,0,0,0,284,52.3a2.92,2.92,0,0,0-1.63.41,1.24,1.24,0,0,0-.65,1.06,1,1,0,0,0,.46.84,3.79,3.79,0,0,0,1.42.55l2.61.57a6,6,0,0,1,3,1.35,3.22,3.22,0,0,1,.94,2.46,3.94,3.94,0,0,1-1.69,3.32A7.14,7.14,0,0,1,284,64.1a7.66,7.66,0,0,1-4.38-1.1,4,4,0,0,1-1.79-3.09h3.58c.3,1,1.18,1.49,2.64,1.49a3.39,3.39,0,0,0,1.74-.41,1.23,1.23,0,0,0,.67-1.08,1,1,0,0,0-.42-.84,3.44,3.44,0,0,0-1.34-.52L282.18,58a6,6,0,0,1-3-1.43A3.51,3.51,0,0,1,278.17,54Z"/><path class="cls-5" d="M97.38,77.53h-.91V73h.8l2.09,2.84h.06V73h.91v4.56h-.79l-2.1-2.85h-.06Z"/><path class="cls-5" d="M103.83,77.12a1.86,1.86,0,0,1-2.52,0,2.16,2.16,0,0,1,0-2.66,1.61,1.61,0,0,1,1.26-.49,1.59,1.59,0,0,1,1.25.49,1.8,1.8,0,0,1,.46,1.33A1.85,1.85,0,0,1,103.83,77.12Zm-1.26-.27a.67.67,0,0,0,.57-.27,1.64,1.64,0,0,0,0-1.58.71.71,0,0,0-.57-.28A.68.68,0,0,0,102,75a1.46,1.46,0,0,0-.2.79,1.3,1.3,0,0,0,.2.79A.67.67,0,0,0,102.57,76.85Z"/><path class="cls-5" d="M105,73.22h.92v.86h.72v.72h-.72v1.57a.48.48,0,0,0,.11.34.47.47,0,0,0,.34.1h.27v.7a1.77,1.77,0,0,1-.46,0,1.46,1.46,0,0,1-.91-.22.88.88,0,0,1-.27-.73V74.8h-.54v-.72H105Z"/><path class="cls-5" d="M111.51,76.72v.81h-3V73h3v.82h-2.07v1.06h2v.76h-2v1.11Z"/><path class="cls-5" d="M111.8,74.05h1l.72,2.59h.06l.71-2.59h1l-1.2,3.48h-1Z"/><path class="cls-5" d="M116.39,77.58a1.17,1.17,0,0,1-.82-.28,1,1,0,0,1-.32-.76.91.91,0,0,1,.35-.75,1.78,1.78,0,0,1,1-.3h.84V75.2a.39.39,0,0,0-.15-.33.67.67,0,0,0-.43-.12c-.35,0-.55.1-.63.32h-.85a1,1,0,0,1,.46-.77,1.83,1.83,0,0,1,1.07-.28,1.56,1.56,0,0,1,1.06.31,1.12,1.12,0,0,1,.38.87v2.38h-.89v-.45h-.06a.9.9,0,0,1-.4.37A1.39,1.39,0,0,1,116.39,77.58Zm.3-.69a.8.8,0,0,0,.54-.18.58.58,0,0,0,.21-.44V76h-.7c-.39,0-.59.16-.59.42a.36.36,0,0,0,.15.3A.61.61,0,0,0,116.69,76.89Z"/><path class="cls-5" d="M119,77.53V72.72h.92v4.81Z"/><path class="cls-5" d="M123.66,74.05v3.48h-.89V77h0a1,1,0,0,1-1,.64,1.15,1.15,0,0,1-.89-.35,1.31,1.31,0,0,1-.33-.94v-2.3h.92v2c0,.49.21.73.64.73a.68.68,0,0,0,.52-.2.78.78,0,0,0,.18-.55V74Z"/><path class="cls-5" d="M125.22,77.58a1.15,1.15,0,0,1-.83-.28,1,1,0,0,1-.31-.76.89.89,0,0,1,.35-.75,1.68,1.68,0,0,1,1-.3h.85V75.2a.39.39,0,0,0-.15-.33.68.68,0,0,0-.44-.12c-.34,0-.55.1-.63.32h-.84a1,1,0,0,1,.45-.77,1.83,1.83,0,0,1,1.07-.28,1.59,1.59,0,0,1,1.07.31,1.08,1.08,0,0,1,.37.87v2.38h-.89v-.45h0a1,1,0,0,1-.41.37A1.36,1.36,0,0,1,125.22,77.58Zm.3-.69a.79.79,0,0,0,.53-.18.54.54,0,0,0,.22-.44V76h-.71c-.39,0-.58.16-.58.42a.36.36,0,0,0,.15.3A.61.61,0,0,0,125.52,76.89Z"/><path class="cls-5" d="M128,73.22h.92v.86h.72v.72h-.72v1.57a.47.47,0,0,0,.11.34.47.47,0,0,0,.34.1h.27v.7a1.77,1.77,0,0,1-.46,0,1.46,1.46,0,0,1-.91-.22.88.88,0,0,1-.27-.73V74.8h-.55v-.72H128Z"/><path class="cls-5" d="M132.33,76.54h.85a1.19,1.19,0,0,1-.53.78,1.91,1.91,0,0,1-1.06.29,1.6,1.6,0,0,1-1.24-.48,1.82,1.82,0,0,1-.45-1.32,1.91,1.91,0,0,1,.45-1.35,1.65,1.65,0,0,1,2.86,1.3V76h-2.39a.87.87,0,0,0,.22.61.78.78,0,0,0,.58.23,1,1,0,0,0,.45-.09A.66.66,0,0,0,132.33,76.54Zm-.75-1.86a.68.68,0,0,0-.52.2.84.84,0,0,0-.24.54h1.49a.78.78,0,0,0-.21-.54A.68.68,0,0,0,131.58,74.68Z"/><path class="cls-5" d="M134.89,77.58a1.26,1.26,0,0,1-1-.48,2.45,2.45,0,0,1,0-2.63,1.3,1.3,0,0,1,1.63-.32,1,1,0,0,1,.41.45h0V72.72h.92v4.81H136V77h0a1,1,0,0,1-.42.44A1.26,1.26,0,0,1,134.89,77.58Zm.89-2.54a.66.66,0,0,0-.58-.28.69.69,0,0,0-.58.27,1.27,1.27,0,0,0-.21.76,1.17,1.17,0,0,0,.21.75.74.74,0,0,0,1,.12l.12-.12A1.44,1.44,0,0,0,135.78,75Z"/><path class="cls-5" d="M138.28,78.76h-.73l.25-2h.91Z"/><path class="cls-5" d="M140.89,73h1.8a2.09,2.09,0,0,1,1.57.59,2.3,2.3,0,0,1,.57,1.66,2.42,2.42,0,0,1-.56,1.71,2,2,0,0,1-1.58.6h-1.8Zm1,.81v2.94h.68a1.22,1.22,0,0,0,1-.39,1.56,1.56,0,0,0,.34-1.1,1.54,1.54,0,0,0-.35-1.07,1.25,1.25,0,0,0-1-.38Z"/><path class="cls-5" d="M146.23,77.58a1.22,1.22,0,0,1-.82-.28,1,1,0,0,1-.32-.76.91.91,0,0,1,.35-.75,1.78,1.78,0,0,1,1-.3h.84V75.2a.39.39,0,0,0-.15-.33.67.67,0,0,0-.43-.12c-.34,0-.55.1-.63.32h-.85a1,1,0,0,1,.46-.77,1.83,1.83,0,0,1,1.07-.28,1.56,1.56,0,0,1,1.06.31,1.12,1.12,0,0,1,.38.87v2.38h-.89v-.45h-.06a.9.9,0,0,1-.4.37A1.39,1.39,0,0,1,146.23,77.58Zm.31-.69a.79.79,0,0,0,.53-.18.58.58,0,0,0,.21-.44V76h-.7c-.39,0-.59.16-.59.42a.36.36,0,0,0,.15.3A.66.66,0,0,0,146.54,76.89Z"/><path class="cls-5" d="M149,73.22h1v.86h.73v.72H150v1.57a.48.48,0,0,0,.11.34.47.47,0,0,0,.34.1h.28v.7a1.85,1.85,0,0,1-.47,0,1.43,1.43,0,0,1-.9-.22.88.88,0,0,1-.28-.73V74.8h-.54v-.72H149Z"/><path class="cls-5" d="M152.07,77.58a1.17,1.17,0,0,1-.82-.28,1,1,0,0,1-.32-.76.91.91,0,0,1,.35-.75,1.78,1.78,0,0,1,1-.3h.84V75.2a.39.39,0,0,0-.15-.33.68.68,0,0,0-.44-.12c-.34,0-.55.1-.62.32h-.85a1,1,0,0,1,.46-.77,1.83,1.83,0,0,1,1.07-.28,1.61,1.61,0,0,1,1.06.31,1.12,1.12,0,0,1,.38.87v2.38h-.89v-.45h-.06a.9.9,0,0,1-.4.37A1.39,1.39,0,0,1,152.07,77.58Zm.3-.69a.8.8,0,0,0,.54-.18.58.58,0,0,0,.21-.44V76h-.7c-.39,0-.59.16-.59.42a.36.36,0,0,0,.15.3.61.61,0,0,0,.39.17Z"/><path class="cls-5" d="M156.05,73h1.79a2.1,2.1,0,0,1,1.58.59,2.29,2.29,0,0,1,.56,1.66,2.42,2.42,0,0,1-.56,1.71,2,2,0,0,1-1.58.6h-1.79Zm.95.81v2.94h.69a1.21,1.21,0,0,0,1-.39,1.85,1.85,0,0,0,0-2.17,1.25,1.25,0,0,0-1-.38Z"/><path class="cls-5" d="M162.72,76.54h.85a1.19,1.19,0,0,1-.53.78,1.91,1.91,0,0,1-1.06.29,1.6,1.6,0,0,1-1.24-.48,1.82,1.82,0,0,1-.45-1.32,1.91,1.91,0,0,1,.45-1.35,1.65,1.65,0,0,1,2.86,1.3V76h-2.39a.87.87,0,0,0,.22.61.77.77,0,0,0,.57.23.9.9,0,0,0,.46-.09A.66.66,0,0,0,162.72,76.54ZM162,74.68a.69.69,0,0,0-.53.2.85.85,0,0,0-.23.54h1.49a.78.78,0,0,0-.21-.54A.68.68,0,0,0,162,74.68Z"/><path class="cls-5" d="M164.3,77.53V74.8h-.57v-.72h.57v-.34a.9.9,0,0,1,.3-.76,1.53,1.53,0,0,1,.93-.24H166v.66a1.5,1.5,0,0,0-.3,0,.55.55,0,0,0-.35.1.41.41,0,0,0-.11.32v.25h.74v.72h-.72v2.73Z"/><path class="cls-5" d="M166.81,73.56a.56.56,0,0,1-.39-.13.41.41,0,0,1-.15-.33.4.4,0,0,1,.15-.34.56.56,0,0,1,.39-.13.57.57,0,0,1,.4.13.4.4,0,0,1,.15.34.41.41,0,0,1-.15.33A.58.58,0,0,1,166.81,73.56Zm-.46,4V74.05h.92v3.48Z"/><path class="cls-5" d="M171,75.28h-.86a.61.61,0,0,0-.23-.41.68.68,0,0,0-.46-.14.69.69,0,0,0-.58.27,1.27,1.27,0,0,0-.2.78,1.33,1.33,0,0,0,.2.8.69.69,0,0,0,.58.27.75.75,0,0,0,.46-.13.59.59,0,0,0,.23-.4H171a1.32,1.32,0,0,1-.47.94,1.87,1.87,0,0,1-2.34-.13,1.9,1.9,0,0,1-.44-1.35,1.86,1.86,0,0,1,.44-1.34,1.9,1.9,0,0,1,2.35-.12A1.37,1.37,0,0,1,171,75.28Z"/><path class="cls-5" d="M171.82,73.56a.56.56,0,0,1-.39-.13.41.41,0,0,1-.15-.33.4.4,0,0,1,.15-.34.56.56,0,0,1,.39-.13.58.58,0,0,1,.4.13.44.44,0,0,1,.14.34.41.41,0,0,1-.15.33A.56.56,0,0,1,171.82,73.56Zm-.46,4V74.05h.92v3.48Z"/><path class="cls-5" d="M175.14,76.54H176a1.19,1.19,0,0,1-.53.78,1.91,1.91,0,0,1-1.06.29,1.6,1.6,0,0,1-1.24-.48,1.82,1.82,0,0,1-.45-1.32,1.91,1.91,0,0,1,.45-1.35,1.65,1.65,0,0,1,2.86,1.3V76h-2.39a.87.87,0,0,0,.22.61.77.77,0,0,0,.57.23.9.9,0,0,0,.46-.09A.64.64,0,0,0,175.14,76.54Zm-.75-1.86a.69.69,0,0,0-.53.2.85.85,0,0,0-.23.54h1.49a.78.78,0,0,0-.21-.54A.68.68,0,0,0,174.39,74.68Z"/><path class="cls-5" d="M176.45,77.53V74.05h.89v.56h.06a1,1,0,0,1,.38-.47,1.15,1.15,0,0,1,.65-.17,1.12,1.12,0,0,1,.88.34,1.39,1.39,0,0,1,.31,1v2.25h-.92v-2c0-.49-.22-.74-.64-.74a.66.66,0,0,0-.51.21.78.78,0,0,0-.18.55v2Z"/><path class="cls-5" d="M180.45,73.22h.92v.86h.72v.72h-.72v1.57a.52.52,0,0,0,.1.34.48.48,0,0,0,.35.1h.27v.7a1.77,1.77,0,0,1-.46,0,1.46,1.46,0,0,1-.91-.22.88.88,0,0,1-.27-.73V74.8h-.55v-.72h.55Z"/><path class="cls-5" d="M183.28,78.76h-.73l.25-2h.9Z"/><path class="cls-5" d="M188.87,76.7v.83h-3V73h1v3.7Z"/><path class="cls-5" d="M191.42,76.54h.85a1.19,1.19,0,0,1-.53.78,1.91,1.91,0,0,1-1.06.29,1.6,1.6,0,0,1-1.24-.48,1.82,1.82,0,0,1-.45-1.32,1.91,1.91,0,0,1,.45-1.35,1.65,1.65,0,0,1,2.86,1.3V76h-2.39a.87.87,0,0,0,.22.61.78.78,0,0,0,.58.23,1,1,0,0,0,.45-.09A.66.66,0,0,0,191.42,76.54Zm-.75-1.86a.68.68,0,0,0-.52.2.84.84,0,0,0-.24.54h1.49a.78.78,0,0,0-.21-.54A.68.68,0,0,0,190.67,74.68Z"/><path class="cls-5" d="M193.68,77.58a1.22,1.22,0,0,1-.82-.28,1,1,0,0,1-.32-.76.91.91,0,0,1,.35-.75,1.78,1.78,0,0,1,1-.3h.85V75.2a.39.39,0,0,0-.15-.33.68.68,0,0,0-.44-.12c-.34,0-.55.1-.63.32h-.85a1,1,0,0,1,.46-.77,1.85,1.85,0,0,1,1.07-.3,1.64,1.64,0,0,1,1.07.31,1.08,1.08,0,0,1,.37.87v2.38h-.89v-.45h-.05a1,1,0,0,1-.41.37A1.27,1.27,0,0,1,193.68,77.58Zm.31-.69a.79.79,0,0,0,.53-.18.54.54,0,0,0,.22-.44V76H194c-.39,0-.58.16-.58.42a.33.33,0,0,0,.15.3.6.6,0,0,0,.4.17Z"/><path class="cls-5" d="M196.14,75.07a1,1,0,0,1,.4-.8,1.72,1.72,0,0,1,1.05-.3,1.77,1.77,0,0,1,1,.27A1,1,0,0,1,199,75h-.85a.4.4,0,0,0-.19-.27.86.86,0,0,0-.41-.1.74.74,0,0,0-.41.11A.29.29,0,0,0,197,75a.26.26,0,0,0,.11.21.93.93,0,0,0,.36.14l.65.14a1.65,1.65,0,0,1,.75.34.84.84,0,0,1,.23.62,1,1,0,0,1-.42.83,1.76,1.76,0,0,1-1.11.32,1.82,1.82,0,0,1-1.09-.28,1,1,0,0,1-.45-.77h.9c.07.25.29.37.66.37a.8.8,0,0,0,.43-.1.31.31,0,0,0,.17-.27.28.28,0,0,0-.1-.21.83.83,0,0,0-.34-.13l-.63-.14a1.67,1.67,0,0,1-.76-.36A.94.94,0,0,1,196.14,75.07Z"/><path class="cls-5" d="M199.81,73.22h.92v.86h.72v.72h-.72v1.57a.48.48,0,0,0,.11.34.47.47,0,0,0,.34.1h.27v.7a1.77,1.77,0,0,1-.46,0,1.46,1.46,0,0,1-.91-.22.88.88,0,0,1-.27-.73V74.8h-.54v-.72h.54Z"/><path class="cls-5" d="M205.27,77.65A2,2,0,0,1,203.7,77a3,3,0,0,1,0-3.5,2,2,0,0,1,1.57-.64,2,2,0,0,1,1.36.48,1.7,1.7,0,0,1,.61,1.22h-.92a1,1,0,0,0-.36-.63,1.11,1.11,0,0,0-1.54.18,2.18,2.18,0,0,0,0,2.28,1,1,0,0,0,.85.42,1.08,1.08,0,0,0,.69-.23,1,1,0,0,0,.36-.6h.93a1.7,1.7,0,0,1-.61,1.2A2,2,0,0,1,205.27,77.65Z"/><path class="cls-5" d="M210.51,77.12a1.86,1.86,0,0,1-2.51,0,2.16,2.16,0,0,1,0-2.66,1.86,1.86,0,0,1,2.51,0A2.16,2.16,0,0,1,210.51,77.12Zm-1.26-.27a.67.67,0,0,0,.57-.27,1.59,1.59,0,0,0,0-1.58.71.71,0,0,0-1-.14.62.62,0,0,0-.14.14,1.29,1.29,0,0,0-.21.79,1.46,1.46,0,0,0,.2.79A.67.67,0,0,0,209.25,76.85Z"/><path class="cls-5" d="M211.4,77.53V74.05h.89v.56h.05a1,1,0,0,1,.39-.47,1.18,1.18,0,0,1,.64-.17,1.14,1.14,0,0,1,.89.34,1.43,1.43,0,0,1,.3,1v2.25h-.92v-2c0-.49-.21-.74-.64-.74a.64.64,0,0,0-.5.21.79.79,0,0,0-.19.55v2Z"/><path class="cls-5" d="M218.21,75.28h-.86a.64.64,0,0,0-.22-.41.72.72,0,0,0-.47-.14.67.67,0,0,0-.57.27,1.27,1.27,0,0,0-.2.78,1.33,1.33,0,0,0,.2.8.67.67,0,0,0,.57.27.78.78,0,0,0,.47-.13.62.62,0,0,0,.22-.4h.86a1.33,1.33,0,0,1-.46.94,1.88,1.88,0,0,1-2.35-.13,2,2,0,0,1-.44-1.35,1.91,1.91,0,0,1,.44-1.34,1.65,1.65,0,0,1,1.26-.47,1.6,1.6,0,0,1,1.09.35A1.32,1.32,0,0,1,218.21,75.28Z"/><path class="cls-5" d="M220.86,76.54h.86a1.22,1.22,0,0,1-.53.78,1.92,1.92,0,0,1-1.07.29,1.6,1.6,0,0,1-1.24-.48,1.87,1.87,0,0,1-.44-1.32,1.91,1.91,0,0,1,.45-1.35,1.79,1.79,0,0,1,2.42,0,1.82,1.82,0,0,1,.43,1.3V76h-2.39a.86.86,0,0,0,.23.61.77.77,0,0,0,.57.23,1,1,0,0,0,.45-.09A.54.54,0,0,0,220.86,76.54Zm-.75-1.86a.68.68,0,0,0-.52.2.78.78,0,0,0-.23.54h1.48a.78.78,0,0,0-.21-.54A.68.68,0,0,0,220.11,74.68Z"/><path class="cls-5" d="M222.17,77.53V74.05h.89v.55h.06a.8.8,0,0,1,.32-.44A1,1,0,0,1,224,74a1.09,1.09,0,0,1,.36,0v.84a1,1,0,0,0-.43-.06.88.88,0,0,0-.62.22.77.77,0,0,0-.23.57V77.5Z"/><path class="cls-5" d="M224.7,77.53V74.05h.89v.56h0a1,1,0,0,1,.39-.47,1.18,1.18,0,0,1,.64-.17,1.14,1.14,0,0,1,.89.34,1.43,1.43,0,0,1,.3,1v2.25h-.92v-2c0-.49-.21-.74-.64-.74a.64.64,0,0,0-.5.21.79.79,0,0,0-.19.55v2Z"/><path class="cls-5" d="M229.18,78.76h-.73l.25-2h.91Z"/><path class="cls-5" d="M97.38,85.12h-.91V80.56h.8l2.09,2.84h.06V80.56h.91v4.56h-.79l-2.1-2.86h-.06Z"/><path class="cls-5" d="M103.28,84.13h.85a1.19,1.19,0,0,1-.53.78,1.82,1.82,0,0,1-1.06.28,1.68,1.68,0,0,1-1.24-.47,1.85,1.85,0,0,1-.45-1.33,1.92,1.92,0,0,1,.45-1.34,1.59,1.59,0,0,1,1.23-.49,1.54,1.54,0,0,1,1.2.46,1.82,1.82,0,0,1,.43,1.3v.28h-2.39v.05a1,1,0,0,0,.22.61.74.74,0,0,0,.58.23,1,1,0,0,0,.45-.1A.55.55,0,0,0,103.28,84.13Zm-.75-1.87a.7.7,0,0,0-.53.21.85.85,0,0,0-.23.54h1.49a.86.86,0,0,0-.21-.55A.68.68,0,0,0,102.53,82.26Z"/><path class="cls-5" d="M105.54,85.17a1.12,1.12,0,0,1-.82-.29,1,1,0,0,1-.32-.76.9.9,0,0,1,.35-.74,1.79,1.79,0,0,1,1-.31h.84v-.28a.4.4,0,0,0-.15-.34.67.67,0,0,0-.43-.12q-.51,0-.63.33h-.85a1,1,0,0,1,.46-.77,1.83,1.83,0,0,1,1.07-.28,1.56,1.56,0,0,1,1.06.31,1,1,0,0,1,.38.87v2.38h-.89v-.46h-.06a.92.92,0,0,1-.4.38A1.39,1.39,0,0,1,105.54,85.17Zm.31-.69a.79.79,0,0,0,.53-.18.57.57,0,0,0,.21-.45V83.6h-.7c-.39,0-.59.17-.59.42a.37.37,0,0,0,.15.31A.7.7,0,0,0,105.85,84.48Z"/><path class="cls-5" d="M108.08,85.12V81.63H109v.56h0a.75.75,0,0,1,.32-.44.91.91,0,0,1,.57-.17,1.09,1.09,0,0,1,.36,0v.84a1,1,0,0,0-.43-.06.87.87,0,0,0-.62.21.74.74,0,0,0-.23.58v1.93Z"/><path class="cls-5" d="M114.07,85.12h-1V81.37h-1.36v-.81h3.69v.81H114Z"/><path class="cls-5" d="M115.9,85.12V80.3h.9v1.9h.06a1,1,0,0,1,.39-.46,1.19,1.19,0,0,1,.66-.17,1.12,1.12,0,0,1,.88.34,1.39,1.39,0,0,1,.31,1v2.25h-.92v-2a.75.75,0,0,0-.16-.54.61.61,0,0,0-.48-.19.7.7,0,0,0-.53.21.75.75,0,0,0-.2.55v2Z"/><path class="cls-5" d="M119.67,85.12V81.63h.89v.56h.06a.78.78,0,0,1,.31-.44,1,1,0,0,1,.58-.17,1.09,1.09,0,0,1,.36,0v.84a1.09,1.09,0,0,0-.44-.06.91.91,0,0,0-.61.21.74.74,0,0,0-.23.58v1.93Z"/><path class="cls-5" d="M124.33,84.13h.86a1.22,1.22,0,0,1-.53.78,1.82,1.82,0,0,1-1.06.28,1.6,1.6,0,0,1-1.24-.47,1.85,1.85,0,0,1-.45-1.33,1.92,1.92,0,0,1,.45-1.34,1.8,1.8,0,0,1,2.43,0,1.86,1.86,0,0,1,.43,1.3v.28h-2.39v.05a.87.87,0,0,0,.22.61.77.77,0,0,0,.57.23,1,1,0,0,0,.46-.1A.51.51,0,0,0,124.33,84.13Zm-.74-1.87a.7.7,0,0,0-.53.21.83.83,0,0,0-.23.54h1.48a.86.86,0,0,0-.21-.55A.7.7,0,0,0,123.59,82.26Z"/><path class="cls-5" d="M126.6,85.17a1.12,1.12,0,0,1-.82-.29,1,1,0,0,1-.32-.76.9.9,0,0,1,.35-.74,1.79,1.79,0,0,1,1-.31h.84v-.28a.4.4,0,0,0-.15-.34.68.68,0,0,0-.44-.12c-.34,0-.55.11-.62.33h-.85a1,1,0,0,1,.46-.77,1.83,1.83,0,0,1,1.07-.28,1.61,1.61,0,0,1,1.06.31,1,1,0,0,1,.38.87v2.38h-.89v-.46h-.06a.92.92,0,0,1-.4.38A1.39,1.39,0,0,1,126.6,85.17Zm.3-.69a.8.8,0,0,0,.54-.18.57.57,0,0,0,.21-.45V83.6H127c-.39,0-.59.17-.59.42a.37.37,0,0,0,.15.31A.7.7,0,0,0,126.9,84.48Z"/><path class="cls-5" d="M129.4,80.81h.92v.86H131v.72h-.72V84a.44.44,0,0,0,.11.33.47.47,0,0,0,.34.11H131v.7a1.77,1.77,0,0,1-.46,0,1.46,1.46,0,0,1-.91-.22.88.88,0,0,1-.27-.73v-1.8h-.54v-.72h.54Z"/><path class="cls-5" d="M133.71,84.13h.86a1.22,1.22,0,0,1-.53.78,1.82,1.82,0,0,1-1.06.28,1.63,1.63,0,0,1-1.25-.47,2.24,2.24,0,0,1,0-2.67,1.78,1.78,0,0,1,2.42,0,1.82,1.82,0,0,1,.44,1.3v.28h-2.4v.05a.91.91,0,0,0,.23.61.77.77,0,0,0,.57.23,1,1,0,0,0,.46-.1A.55.55,0,0,0,133.71,84.13ZM133,82.26a.7.7,0,0,0-.53.21.78.78,0,0,0-.23.54h1.48a.86.86,0,0,0-.21-.55A.7.7,0,0,0,133,82.26Z"/><path class="cls-5" d="M135,85.12V81.63h.89v.56H136a1,1,0,0,1,.39-.47,1.2,1.2,0,0,1,.64-.16,1.14,1.14,0,0,1,.89.34,1.43,1.43,0,0,1,.3,1v2.25h-.92v-2c0-.49-.21-.73-.64-.73a.64.64,0,0,0-.5.21.79.79,0,0,0-.19.55v2Z"/><path class="cls-5" d="M141,84.13h.86a1.22,1.22,0,0,1-.53.78,1.82,1.82,0,0,1-1.06.28,1.63,1.63,0,0,1-1.25-.47,2.24,2.24,0,0,1,0-2.67,1.78,1.78,0,0,1,2.42,0,1.82,1.82,0,0,1,.44,1.3v.28h-2.4v.05a.93.93,0,0,0,.23.61.77.77,0,0,0,.57.23,1,1,0,0,0,.46-.1A.55.55,0,0,0,141,84.13Zm-.74-1.87a.7.7,0,0,0-.53.21.78.78,0,0,0-.23.54H141a.86.86,0,0,0-.21-.55.68.68,0,0,0-.52-.2Z"/><path class="cls-5" d="M143.57,85.17a1.26,1.26,0,0,1-1-.48,2.45,2.45,0,0,1,0-2.63,1.26,1.26,0,0,1,1-.48,1.16,1.16,0,0,1,.63.16,1,1,0,0,1,.41.45h0V80.3h.92v4.82h-.89v-.55h0a1,1,0,0,1-.42.44A1.25,1.25,0,0,1,143.57,85.17Zm.89-2.55a.75.75,0,0,0-1.06-.09.76.76,0,0,0-.09.09,1.46,1.46,0,0,0,0,1.51.75.75,0,0,0,1.06.09.76.76,0,0,0,.09-.09,1.17,1.17,0,0,0,.21-.75A1.27,1.27,0,0,0,144.46,82.62Z"/><path class="cls-5" d="M147,86.34h-.74l.25-2h.91Z"/><path class="cls-5" d="M152,85.12h-1.16l-1.54-4.56h1.08l1,3.48h.06l1-3.48h1Z"/><path class="cls-5" d="M156.84,81.63v3.49H156v-.56h-.06a1,1,0,0,1-1,.63,1.19,1.19,0,0,1-.89-.34,1.32,1.32,0,0,1-.33-.95V81.63h.92v2c0,.48.22.72.64.72a.68.68,0,0,0,.52-.19.81.81,0,0,0,.19-.56v-2Z"/><path class="cls-5" d="M157.47,85.12V80.3h.92v4.82Z"/><path class="cls-5" d="M159,85.12V81.63h.89v.56H160a1,1,0,0,1,.38-.47,1.2,1.2,0,0,1,.64-.16,1.14,1.14,0,0,1,.89.34,1.39,1.39,0,0,1,.31,1v2.25h-.92v-2c0-.49-.22-.73-.64-.73a.66.66,0,0,0-.51.21.78.78,0,0,0-.18.55v2Z"/><path class="cls-5" d="M165,84.13h.85a1.19,1.19,0,0,1-.53.78,1.82,1.82,0,0,1-1.06.28,1.6,1.6,0,0,1-1.24-.47,1.85,1.85,0,0,1-.45-1.33,1.92,1.92,0,0,1,.45-1.34,1.59,1.59,0,0,1,1.23-.49,1.54,1.54,0,0,1,1.2.46,1.82,1.82,0,0,1,.43,1.3v.28H163.5v.05a.87.87,0,0,0,.22.61.77.77,0,0,0,.57.23,1,1,0,0,0,.46-.1A.57.57,0,0,0,165,84.13Zm-.75-1.87a.7.7,0,0,0-.53.21.85.85,0,0,0-.23.54H165a.86.86,0,0,0-.21-.55.69.69,0,0,0-.53-.2Z"/><path class="cls-5" d="M166.32,85.12V81.63h.89v.56h.06a.78.78,0,0,1,.31-.44,1,1,0,0,1,.58-.17,1.09,1.09,0,0,1,.36,0v.84a1.09,1.09,0,0,0-.44-.06.86.86,0,0,0-.61.21.74.74,0,0,0-.23.58v1.93Z"/><path class="cls-5" d="M169.7,85.17a1.12,1.12,0,0,1-.82-.29,1,1,0,0,1-.32-.76.9.9,0,0,1,.35-.74,1.79,1.79,0,0,1,1-.31h.84v-.28a.4.4,0,0,0-.15-.34.68.68,0,0,0-.44-.12c-.34,0-.55.11-.62.33h-.85a1,1,0,0,1,.46-.77,1.83,1.83,0,0,1,1.07-.28,1.61,1.61,0,0,1,1.06.31,1,1,0,0,1,.38.87v2.38h-.89v-.46h-.06a.92.92,0,0,1-.4.38A1.39,1.39,0,0,1,169.7,85.17Zm.3-.69a.8.8,0,0,0,.54-.18.57.57,0,0,0,.21-.45V83.6h-.7c-.39,0-.59.17-.59.42a.37.37,0,0,0,.15.31A.7.7,0,0,0,170,84.48Z"/><path class="cls-5" d="M174.29,85.17a1.23,1.23,0,0,1-.65-.16,1,1,0,0,1-.42-.44h-.06v.55h-.89V80.3h.92v1.89h.06a.94.94,0,0,1,.41-.45,1.16,1.16,0,0,1,.63-.16,1.28,1.28,0,0,1,1,.47,2.55,2.55,0,0,1,0,2.64A1.26,1.26,0,0,1,174.29,85.17Zm.26-2.55a.69.69,0,0,0-.58-.27.67.67,0,0,0-.57.27,1.42,1.42,0,0,0,0,1.51.75.75,0,0,0,1.06.09.76.76,0,0,0,.09-.09,1.46,1.46,0,0,0,0-1.51Z"/><path class="cls-5" d="M176.16,85.12V80.3h.92v4.82Z"/><path class="cls-5" d="M180,84.13h.86a1.22,1.22,0,0,1-.53.78,1.82,1.82,0,0,1-1.06.28,1.7,1.7,0,0,1-1.25-.47,2.24,2.24,0,0,1,0-2.67,1.8,1.8,0,0,1,2.43,0,1.86,1.86,0,0,1,.43,1.3v.28h-2.39v.05a.87.87,0,0,0,.22.61.77.77,0,0,0,.57.23,1,1,0,0,0,.46-.1A.53.53,0,0,0,180,84.13Zm-.74-1.87a.7.7,0,0,0-.53.21.83.83,0,0,0-.23.54H180a.86.86,0,0,0-.21-.55.7.7,0,0,0-.55-.2Z"/><path class="cls-5" d="M182,86.34h-.74l.25-2h.91Z"/><path class="cls-5" d="M187.66,84.3v.82h-3V80.56h3v.81h-2.07v1.07h1.95v.75h-1.95V84.3Z"/><path class="cls-5" d="M188.25,85.12V81.63h.89v.56h.05a1.11,1.11,0,0,1,.39-.47,1.2,1.2,0,0,1,.64-.16,1.14,1.14,0,0,1,.89.34,1.43,1.43,0,0,1,.3,1v2.25h-.92v-2c0-.49-.21-.73-.64-.73a.64.64,0,0,0-.5.21.79.79,0,0,0-.19.55v2Z"/><path class="cls-5" d="M193.23,85.17a1.26,1.26,0,0,1-1-.48,2.45,2.45,0,0,1,0-2.63,1.26,1.26,0,0,1,1-.48,1.16,1.16,0,0,1,.63.16,1,1,0,0,1,.41.45h0V80.3h.92v4.82h-.89v-.55h-.06a1,1,0,0,1-.42.44A1.21,1.21,0,0,1,193.23,85.17Zm.89-2.55a.75.75,0,0,0-1.06-.09.76.76,0,0,0-.09.09,1.17,1.17,0,0,0-.21.75,1.21,1.21,0,0,0,.2.76.76.76,0,0,0,1.16,0,1.17,1.17,0,0,0,.21-.75A1.27,1.27,0,0,0,194.12,82.62Z"/><path class="cls-5" d="M196.83,85.17a1.16,1.16,0,0,1-.83-.29,1,1,0,0,1-.31-.76.89.89,0,0,1,.34-.74,1.79,1.79,0,0,1,1-.31h.85v-.28a.4.4,0,0,0-.15-.34.68.68,0,0,0-.44-.12q-.51,0-.63.33h-.85a1,1,0,0,1,.46-.77,1.83,1.83,0,0,1,1.07-.28,1.59,1.59,0,0,1,1.07.31,1,1,0,0,1,.37.87v2.38h-.89v-.46h0a1.07,1.07,0,0,1-.41.38A1.32,1.32,0,0,1,196.83,85.17Zm.3-.69a.79.79,0,0,0,.53-.18.56.56,0,0,0,.22-.45V83.6h-.71c-.39,0-.58.17-.58.42a.37.37,0,0,0,.15.31A.7.7,0,0,0,197.13,84.48Z"/><path class="cls-5" d="M199.36,85.12V81.63h.9v.56h.05a1,1,0,0,1,.39-.47,1.2,1.2,0,0,1,.64-.16,1.14,1.14,0,0,1,.89.34,1.43,1.43,0,0,1,.3,1v2.25h-.92v-2c0-.49-.21-.73-.64-.73a.64.64,0,0,0-.5.21.79.79,0,0,0-.19.55v2Z"/><path class="cls-5" d="M204.64,86.44a2.11,2.11,0,0,1-1.13-.28,1,1,0,0,1-.47-.74h1a.37.37,0,0,0,.22.25,1.17,1.17,0,0,0,1.06-.06.54.54,0,0,0,.2-.46V84.5h0a1.07,1.07,0,0,1-1,.57,1.25,1.25,0,0,1-1-.47,1.93,1.93,0,0,1-.38-1.25,2.09,2.09,0,0,1,.38-1.3,1.29,1.29,0,0,1,1-.47,1.15,1.15,0,0,1,1.06.61h0v-.56h.89V85.1a1.18,1.18,0,0,1-.46,1A2,2,0,0,1,204.64,86.44Zm.59-2.37a1.36,1.36,0,0,0,0-1.45.77.77,0,0,0-1.09-.07l-.07.07a1.18,1.18,0,0,0-.21.73,1.12,1.12,0,0,0,.21.73.76.76,0,0,0,1.07.09l.09-.09Z"/><path class="cls-5" d="M209.2,84.13h.86a1.22,1.22,0,0,1-.53.78,1.82,1.82,0,0,1-1.06.28,1.6,1.6,0,0,1-1.24-.47,1.85,1.85,0,0,1-.45-1.33,1.92,1.92,0,0,1,.45-1.34,1.59,1.59,0,0,1,1.23-.49,1.54,1.54,0,0,1,1.2.46,1.82,1.82,0,0,1,.43,1.3v.28H207.7v.05a.87.87,0,0,0,.22.61.77.77,0,0,0,.57.23,1,1,0,0,0,.46-.1A.49.49,0,0,0,209.2,84.13Zm-.74-1.87a.7.7,0,0,0-.53.21.85.85,0,0,0-.23.54h1.49a.86.86,0,0,0-.21-.55.72.72,0,0,0-.52-.2Z"/><path class="cls-5" d="M210.52,85.12V81.63h.89v.56h.05a.83.83,0,0,1,.32-.44,1,1,0,0,1,.58-.17,1.09,1.09,0,0,1,.36,0v.84a1.09,1.09,0,0,0-.44-.06.86.86,0,0,0-.61.21.74.74,0,0,0-.23.58v1.93Z"/><path class="cls-5" d="M215.18,84.13H216a1.22,1.22,0,0,1-.53.78,1.82,1.82,0,0,1-1.06.28,1.63,1.63,0,0,1-1.25-.47,2.24,2.24,0,0,1,0-2.67,1.78,1.78,0,0,1,2.42,0,1.82,1.82,0,0,1,.44,1.3v.28h-2.4v.05a.93.93,0,0,0,.23.61.77.77,0,0,0,.57.23,1,1,0,0,0,.46-.1A.51.51,0,0,0,215.18,84.13Zm-.74-1.87a.7.7,0,0,0-.53.21.78.78,0,0,0-.23.54h1.48a.86.86,0,0,0-.21-.55.7.7,0,0,0-.51-.2Z"/><path class="cls-5" d="M217.74,85.17a1.26,1.26,0,0,1-1-.48,2.45,2.45,0,0,1,0-2.63,1.26,1.26,0,0,1,1-.48,1.16,1.16,0,0,1,.63.16,1,1,0,0,1,.41.45h.06V80.3h.91v4.82h-.89v-.55h-.05a1,1,0,0,1-.42.44A1.23,1.23,0,0,1,217.74,85.17Zm.89-2.55a.75.75,0,0,0-1.06-.09.76.76,0,0,0-.09.09,1.46,1.46,0,0,0,0,1.51.75.75,0,0,0,1.06.09.76.76,0,0,0,.09-.09,1.25,1.25,0,0,0,.22-.75A1.28,1.28,0,0,0,218.63,82.62Z"/><path class="cls-5" d="M221.14,86.34h-.74l.25-2h.91Z"/><path class="cls-5" d="M98.41,92.82a2,2,0,0,1-1.57-.64,3,3,0,0,1,0-3.51A2,2,0,0,1,98.41,88a2,2,0,0,1,1.36.48,1.69,1.69,0,0,1,.61,1.23h-.92a1,1,0,0,0-1.85-.45,1.82,1.82,0,0,0-.32,1.13,1.87,1.87,0,0,0,.32,1.14,1,1,0,0,0,.85.42,1.07,1.07,0,0,0,.69-.22,1,1,0,0,0,.36-.6h.93a1.7,1.7,0,0,1-.61,1.2A2,2,0,0,1,98.41,92.82Z"/><path class="cls-5" d="M100.85,92.7V89.22h.89v.56h.06a.71.71,0,0,1,.32-.44.9.9,0,0,1,.57-.18,1.09,1.09,0,0,1,.36,0V90a1,1,0,0,0-.43-.06.87.87,0,0,0-.62.21.77.77,0,0,0-.23.57v2Z"/><path class="cls-5" d="M103.84,88.73a.56.56,0,0,1-.39-.13.39.39,0,0,1-.15-.33.43.43,0,0,1,.15-.34.55.55,0,0,1,.39-.12.65.65,0,0,1,.4.12.48.48,0,0,1,.14.34.39.39,0,0,1-.15.33A.56.56,0,0,1,103.84,88.73Zm-.46,4V89.22h.92V92.7Z"/><path class="cls-5" d="M105.17,88.39h.91v.87h.73V90h-.73v1.57a.44.44,0,0,0,.11.33.49.49,0,0,0,.35.11h.27v.7a3.53,3.53,0,0,1-.46,0,1.46,1.46,0,0,1-.91-.22.9.9,0,0,1-.27-.74V90h-.55v-.72h.55Z"/><path class="cls-5" d="M107.72,88.73a.57.57,0,0,1-.4-.13.39.39,0,0,1-.15-.33.43.43,0,0,1,.15-.34.59.59,0,0,1,.4-.12.6.6,0,0,1,.39.12.43.43,0,0,1,.15.34.39.39,0,0,1-.15.33A.56.56,0,0,1,107.72,88.73Zm-.46,4V89.22h.91V92.7Z"/><path class="cls-5" d="M111.86,90.45H111a.62.62,0,0,0-.22-.4.72.72,0,0,0-.47-.15.67.67,0,0,0-.57.27,1.27,1.27,0,0,0-.2.78,1.33,1.33,0,0,0,.2.8.68.68,0,0,0,.57.28.7.7,0,0,0,.46-.14.58.58,0,0,0,.23-.39h.86a1.33,1.33,0,0,1-.46.93,1.6,1.6,0,0,1-1.09.35,1.65,1.65,0,0,1-1.26-.47,2,2,0,0,1-.44-1.36,1.9,1.9,0,0,1,.44-1.33,1.64,1.64,0,0,1,1.26-.48,1.6,1.6,0,0,1,1.09.36A1.33,1.33,0,0,1,111.86,90.45Z"/><path class="cls-5" d="M113.21,92.76a1.18,1.18,0,0,1-.82-.29,1,1,0,0,1-.32-.76.9.9,0,0,1,.35-.74,1.79,1.79,0,0,1,1-.31h.84v-.28a.4.4,0,0,0-.15-.34.68.68,0,0,0-.44-.12c-.34,0-.55.11-.62.32h-.85a1,1,0,0,1,.46-.76,1.84,1.84,0,0,1,1.07-.29,1.67,1.67,0,0,1,1.06.31,1.06,1.06,0,0,1,.38.88V92.7h-.89v-.45h-.06a.9.9,0,0,1-.4.37A1.43,1.43,0,0,1,113.21,92.76Zm.3-.69a.8.8,0,0,0,.54-.18.57.57,0,0,0,.21-.45v-.25h-.7c-.39,0-.59.17-.59.42a.33.33,0,0,0,.15.3A.64.64,0,0,0,113.51,92.07Z"/><path class="cls-5" d="M115.78,92.7V87.89h.92V92.7Z"/><path class="cls-5" d="M117.36,92.7V87.89h.92V92.7Z"/><path class="cls-5" d="M119.34,94H119v-.74h.21a.75.75,0,0,0,.41-.09.51.51,0,0,0,.21-.29v-.12l-1.22-3.51h1l.73,2.64h.06l.73-2.64h1l-1.2,3.54a2,2,0,0,1-.58.94A1.64,1.64,0,0,1,119.34,94Z"/><path class="cls-5" d="M126.91,91.89v.81h-3V88.15h3V89h-2.07v1h2v.75h-2v1.11Z"/><path class="cls-5" d="M127.5,92.7V89.22h.89v.56h.05a1.11,1.11,0,0,1,.39-.47,1.32,1.32,0,0,1,1.53.17,1.43,1.43,0,0,1,.3,1V92.7h-.91v-2c0-.49-.22-.73-.65-.73a.63.63,0,0,0-.5.2.82.82,0,0,0-.18.56v2Z"/><path class="cls-5" d="M132.48,92.76a1.26,1.26,0,0,1-1-.48A2.15,2.15,0,0,1,131.1,91a2,2,0,0,1,.38-1.31,1.26,1.26,0,0,1,1.63-.32,1,1,0,0,1,.41.45h0V87.89h.92V92.7h-.89v-.54h-.06a1,1,0,0,1-.42.44A1.21,1.21,0,0,1,132.48,92.76Zm.89-2.55a.73.73,0,0,0-1-.13.8.8,0,0,0-.13.13A1.23,1.23,0,0,0,132,91a1.36,1.36,0,0,0,.2.76.76.76,0,0,0,1.16,0,1.46,1.46,0,0,0,0-1.51Z"/><path class="cls-5" d="M136.08,92.76a1.21,1.21,0,0,1-.83-.29,1,1,0,0,1-.31-.76.88.88,0,0,1,.35-.74,1.77,1.77,0,0,1,1-.31h.85v-.28A.42.42,0,0,0,137,90a.68.68,0,0,0-.44-.12c-.34,0-.55.11-.63.32h-.84a1,1,0,0,1,.45-.76,1.92,1.92,0,0,1,1.07-.29,1.7,1.7,0,0,1,1.07.31,1.1,1.1,0,0,1,.37.88V92.7h-.89v-.45h0a1,1,0,0,1-.41.37A1.42,1.42,0,0,1,136.08,92.76Zm.3-.69a.79.79,0,0,0,.53-.18.56.56,0,0,0,.22-.45v-.25h-.71c-.39,0-.58.17-.58.42a.33.33,0,0,0,.15.3A.64.64,0,0,0,136.38,92.07Z"/><path class="cls-5" d="M138.62,92.7V89.22h.89v.56h.05a1,1,0,0,1,.39-.47,1.32,1.32,0,0,1,1.53.17,1.43,1.43,0,0,1,.3,1V92.7h-.92v-2c0-.49-.21-.73-.64-.73a.63.63,0,0,0-.5.2.83.83,0,0,0-.19.56v2Z"/><path class="cls-5" d="M143.89,94a2,2,0,0,1-1.12-.28,1,1,0,0,1-.48-.74h.91a.39.39,0,0,0,.22.25,1.12,1.12,0,0,0,.48.1.92.92,0,0,0,.58-.17.53.53,0,0,0,.2-.45v-.65h-.05a1.09,1.09,0,0,1-1,.56,1.25,1.25,0,0,1-1-.46,2.33,2.33,0,0,1,0-2.55,1.29,1.29,0,0,1,1-.48,1.27,1.27,0,0,1,.63.17,1.16,1.16,0,0,1,.43.45h.05v-.56h.89v3.47a1.18,1.18,0,0,1-.46,1A2,2,0,0,1,143.89,94Zm.59-2.37a1.37,1.37,0,0,0,0-1.46.76.76,0,0,0-1.16,0,1.37,1.37,0,0,0,0,1.46.76.76,0,0,0,1.07.09Z"/><path class="cls-5" d="M148.45,91.71h.86a1.19,1.19,0,0,1-.53.78,1.72,1.72,0,0,1-1.06.29,1.6,1.6,0,0,1-1.24-.47,2.12,2.12,0,0,1,0-2.65,1.59,1.59,0,0,1,1.23-.5,1.57,1.57,0,0,1,1.2.47,1.79,1.79,0,0,1,.43,1.29v.29H147a.88.88,0,0,0,.22.62.76.76,0,0,0,.57.22.9.9,0,0,0,.46-.09A.55.55,0,0,0,148.45,91.71Zm-.74-1.86a.78.78,0,0,0-.53.2.88.88,0,0,0-.23.55h1.49a.81.81,0,0,0-.21-.55.72.72,0,0,0-.52-.2Z"/><path class="cls-5" d="M149.77,92.7V89.22h.89v.56h.06a.7.7,0,0,1,.31-.44,1,1,0,0,1,.58-.18,1.09,1.09,0,0,1,.36,0V90a1.09,1.09,0,0,0-.44-.06.86.86,0,0,0-.61.21.72.72,0,0,0-.23.57v2Z"/><path class="cls-5" d="M154.43,91.71h.86a1.22,1.22,0,0,1-.53.78,1.74,1.74,0,0,1-1.06.29,1.7,1.7,0,0,1-1.25-.47,2.24,2.24,0,0,1,0-2.67,1.76,1.76,0,0,1,2.43,0,1.88,1.88,0,0,1,.43,1.29v.29h-2.39a.88.88,0,0,0,.22.62.76.76,0,0,0,.57.22,1.18,1.18,0,0,0,.46-.09A.47.47,0,0,0,154.43,91.71Zm-.74-1.86a.73.73,0,0,0-.53.2.85.85,0,0,0-.23.55h1.48a.81.81,0,0,0-.21-.55.7.7,0,0,0-.51-.2Z"/><path class="cls-5" d="M157,92.76a1.23,1.23,0,0,1-1-.48,2.07,2.07,0,0,1-.39-1.32,2,2,0,0,1,.39-1.31,1.24,1.24,0,0,1,1-.49,1.27,1.27,0,0,1,.63.17,1,1,0,0,1,.41.45h.06V87.89h.9V92.7h-.9v-.54h0a1.11,1.11,0,0,1-.42.44A1.26,1.26,0,0,1,157,92.76Zm.89-2.55a.73.73,0,0,0-1-.13.8.8,0,0,0-.13.13,1.17,1.17,0,0,0-.21.75,1.2,1.2,0,0,0,.21.76.76.76,0,0,0,1.16,0,1.42,1.42,0,0,0,0-1.51Z"/><path class="cls-5" d="M160.39,93.93h-.74l.25-2h.91Z"/><path class="cls-5" d="M166,91.89v.81h-3V88.15h3V89h-2v1h2v.75h-2v1.11Z"/><path class="cls-5" d="M168,91.57h0l-.65,1.13h-1l1.1-1.72-1.1-1.76h1.05l.62,1.14h.06l.61-1.14h1l-1.1,1.72,1.1,1.76h-1Z"/><path class="cls-5" d="M170.3,88.39h.92v.87H172V90h-.73v1.57a.44.44,0,0,0,.11.33.47.47,0,0,0,.34.11H172v.7a3.53,3.53,0,0,1-.46,0,1.46,1.46,0,0,1-.91-.22.89.89,0,0,1-.28-.74V90h-.54v-.72h.54Z"/><path class="cls-5" d="M172.85,88.73a.56.56,0,0,1-.39-.13.39.39,0,0,1-.15-.33.43.43,0,0,1,.15-.34.6.6,0,0,1,.39-.12.59.59,0,0,1,.4.12.43.43,0,0,1,.15.34.39.39,0,0,1-.15.33A.57.57,0,0,1,172.85,88.73Zm-.46,4V89.22h.92V92.7Z"/><path class="cls-5" d="M173.92,92.7V89.22h.89v.56h.06a1,1,0,0,1,.38-.47,1.15,1.15,0,0,1,.65-.17,1.12,1.12,0,0,1,.88.34,1.39,1.39,0,0,1,.31,1V92.7h-.92v-2c0-.49-.22-.73-.64-.73a.65.65,0,0,0-.51.2.82.82,0,0,0-.18.56v2Z"/><path class="cls-5" d="M180.74,90.45h-.86a.59.59,0,0,0-.23-.4.78.78,0,0,0-1,.12,1.27,1.27,0,0,0-.2.78,1.33,1.33,0,0,0,.2.8.77.77,0,0,0,1,.14.68.68,0,0,0,.23-.39h.86a1.4,1.4,0,0,1-.47.93,1.56,1.56,0,0,1-1.08.35,1.63,1.63,0,0,1-1.26-.47,1.93,1.93,0,0,1-.45-1.36,1.85,1.85,0,0,1,.45-1.33,1.61,1.61,0,0,1,1.26-.48,1.57,1.57,0,0,1,1.08.36A1.38,1.38,0,0,1,180.74,90.45Z"/><path class="cls-5" d="M181.42,88.39h.92v.87h.73V90h-.73v1.57a.44.44,0,0,0,.11.33.49.49,0,0,0,.35.11h.27v.7a3.53,3.53,0,0,1-.46,0,1.46,1.46,0,0,1-.91-.22.92.92,0,0,1-.28-.74V90h-.54v-.72h.54Z"/><path class="cls-5" d="M185.32,88.73a.58.58,0,0,1-.4-.13.44.44,0,0,1-.14-.33.48.48,0,0,1,.14-.34.65.65,0,0,1,.4-.12.55.55,0,0,1,.39.12.43.43,0,0,1,.15.34.39.39,0,0,1-.15.33A.56.56,0,0,1,185.32,88.73Zm-.46,4V89.22h.92V92.7Z"/><path class="cls-5" d="M186.38,92.7V89.22h.89v.56h.06a1,1,0,0,1,.39-.47,1.1,1.1,0,0,1,.64-.17,1.12,1.12,0,0,1,.88.34,1.39,1.39,0,0,1,.31,1V92.7h-.92v-2c0-.49-.21-.73-.64-.73a.63.63,0,0,0-.5.2.83.83,0,0,0-.19.56v2Z"/><path class="cls-5" d="M191.72,88.39h.92v.87h.73V90h-.73v1.57a.44.44,0,0,0,.11.33.49.49,0,0,0,.35.11h.27v.7a3.53,3.53,0,0,1-.46,0,1.46,1.46,0,0,1-.91-.22.92.92,0,0,1-.28-.74V90h-.54v-.72h.54Z"/><path class="cls-5" d="M193.84,92.7V87.89h.9v1.9h.06a1,1,0,0,1,.4-.47,1.24,1.24,0,0,1,.65-.17,1.13,1.13,0,0,1,.88.35,1.36,1.36,0,0,1,.32,1v2.2h-.92v-2a.84.84,0,0,0-.17-.55.62.62,0,0,0-.47-.18.71.71,0,0,0-.54.2.83.83,0,0,0-.19.56v2Z"/><path class="cls-5" d="M199.87,91.71h.85a1.19,1.19,0,0,1-.53.78,1.72,1.72,0,0,1-1.06.29,1.68,1.68,0,0,1-1.24-.47,1.85,1.85,0,0,1-.45-1.33,1.87,1.87,0,0,1,.45-1.34,1.59,1.59,0,0,1,1.23-.5,1.57,1.57,0,0,1,1.2.47,1.79,1.79,0,0,1,.43,1.29v.29h-2.39a.92.92,0,0,0,.22.62.77.77,0,0,0,.58.22,1,1,0,0,0,.45-.09A.58.58,0,0,0,199.87,91.71Zm-.75-1.86a.78.78,0,0,0-.53.2.88.88,0,0,0-.23.55h1.49a.81.81,0,0,0-.21-.55A.68.68,0,0,0,199.12,89.85Z"/><path class="cls-5" d="M205.3,89.69l-.85,3h-.9l-1.21-4.55h1l.71,3.21h0l.83-3.21h.81l.85,3.21h0l.7-3.21h1l-1.21,4.55h-.9l-.86-3Z"/><path class="cls-5" d="M209.2,88.73a.57.57,0,0,1-.4-.13.39.39,0,0,1-.15-.33.43.43,0,0,1,.15-.34.59.59,0,0,1,.4-.12.6.6,0,0,1,.39.12.43.43,0,0,1,.15.34.39.39,0,0,1-.15.33A.56.56,0,0,1,209.2,88.73Zm-.47,4V89.22h.92V92.7Z"/><path class="cls-5" d="M210.29,92.7V87.89h.92V92.7Z"/><path class="cls-5" d="M213.09,92.76a1.26,1.26,0,0,1-1-.48,2.15,2.15,0,0,1-.38-1.32,2,2,0,0,1,.38-1.31,1.31,1.31,0,0,1,1.67-.32,1,1,0,0,1,.41.45h.05V87.89h.92V92.7h-.89v-.54h-.06a1,1,0,0,1-.42.44A1.24,1.24,0,0,1,213.09,92.76Zm.89-2.55a.7.7,0,0,0-.58-.28.68.68,0,0,0-.57.28,1.13,1.13,0,0,0-.22.75,1.2,1.2,0,0,0,.21.76.76.76,0,0,0,1.16,0A1.46,1.46,0,0,0,214,90.21Z"/><path class="cls-5" d="M218,92.76a1.18,1.18,0,0,1-.82-.29,1,1,0,0,1-.32-.76.9.9,0,0,1,.35-.74,1.79,1.79,0,0,1,1-.31h.84v-.28a.4.4,0,0,0-.15-.34.68.68,0,0,0-.44-.12c-.34,0-.55.11-.62.32H217a1,1,0,0,1,.46-.76,1.91,1.91,0,0,1,1.06-.29,1.7,1.7,0,0,1,1.07.31,1.06,1.06,0,0,1,.38.88V92.7h-.89v-.45H219a.9.9,0,0,1-.4.37A1.39,1.39,0,0,1,218,92.76Zm.3-.69a.8.8,0,0,0,.54-.18.57.57,0,0,0,.21-.45v-.25h-.7c-.39,0-.59.17-.59.42a.33.33,0,0,0,.15.3.63.63,0,0,0,.42.16Z"/><path class="cls-5" d="M220.57,92.7V89.22h.89v.56h.06a1,1,0,0,1,.38-.47,1.15,1.15,0,0,1,.65-.17,1.12,1.12,0,0,1,.88.34,1.39,1.39,0,0,1,.31,1V92.7h-.92v-2c0-.49-.22-.73-.64-.73a.65.65,0,0,0-.51.2.82.82,0,0,0-.18.56v2Z"/><path class="cls-5" d="M225.55,92.76a1.26,1.26,0,0,1-1-.48,2.15,2.15,0,0,1-.38-1.32,2,2,0,0,1,.38-1.31,1.26,1.26,0,0,1,1.63-.32,1,1,0,0,1,.41.45h0V87.89h.92V92.7h-.89v-.54h0a1.11,1.11,0,0,1-.42.44A1.23,1.23,0,0,1,225.55,92.76Zm.89-2.55a.73.73,0,0,0-1-.13l-.13.13a1.17,1.17,0,0,0-.21.75,1.2,1.2,0,0,0,.21.76.75.75,0,0,0,1.06.09.76.76,0,0,0,.09-.09A1.46,1.46,0,0,0,226.44,90.21Z"/><path class="cls-5" d="M232.65,91.89v.81h-3V88.15h3V89h-2.07v1h1.95v.75h-1.95v1.11Z"/><path class="cls-5" d="M234.67,91.57h-.06L234,92.7h-1l1.08-1.7L233,89.22h1l.61,1.14h.06l.61-1.14h1l-1.09,1.72,1.1,1.76h-1Z"/><path class="cls-5" d="M236.94,88.39h.92v.87h.72V90h-.72v1.57a.44.44,0,0,0,.11.33.47.47,0,0,0,.34.11h.27v.7a3.53,3.53,0,0,1-.46,0,1.52,1.52,0,0,1-.91-.22.9.9,0,0,1-.27-.74V90h-.55v-.72h.55Z"/><path class="cls-5" d="M239.49,88.73a.57.57,0,0,1-.4-.13.39.39,0,0,1-.15-.33.43.43,0,0,1,.15-.34.59.59,0,0,1,.4-.12.6.6,0,0,1,.39.12.43.43,0,0,1,.15.34.39.39,0,0,1-.15.33A.56.56,0,0,1,239.49,88.73Zm-.46,4V89.22h1V92.7Z"/><path class="cls-5" d="M240.55,92.7V89.22h.89v.56h.06a1,1,0,0,1,.39-.47,1.1,1.1,0,0,1,.64-.17,1.12,1.12,0,0,1,.88.34,1.39,1.39,0,0,1,.31,1V92.7h-.92v-2c0-.49-.21-.73-.64-.73a.63.63,0,0,0-.5.2.83.83,0,0,0-.19.56v2Z"/><path class="cls-5" d="M247.37,90.45h-.86a.59.59,0,0,0-.23-.4.64.64,0,0,0-.46-.15.67.67,0,0,0-.57.27A1.24,1.24,0,0,0,245,91a1.27,1.27,0,0,0,.21.8.68.68,0,0,0,.57.28.7.7,0,0,0,.46-.14.58.58,0,0,0,.23-.39h.86a1.3,1.3,0,0,1-.47.93,1.56,1.56,0,0,1-1.08.35,1.65,1.65,0,0,1-1.26-.47,1.88,1.88,0,0,1-.44-1.36,1.85,1.85,0,0,1,.44-1.33,1.86,1.86,0,0,1,2.35-.12A1.35,1.35,0,0,1,247.37,90.45Z"/><path class="cls-5" d="M248.06,88.39H249v.87h.72V90H249v1.57a.44.44,0,0,0,.11.33.47.47,0,0,0,.34.11h.27v.7a3.53,3.53,0,0,1-.46,0,1.52,1.52,0,0,1-.91-.22.9.9,0,0,1-.27-.74V90h-.55v-.72h.55Z"/><path class="cls-5" d="M251.21,92.64a.56.56,0,0,1-.41.15.54.54,0,0,1-.4-.15.59.59,0,0,1-.16-.4.55.55,0,0,1,.16-.39.5.5,0,0,1,.4-.16.53.53,0,0,1,.56.5v0A.59.59,0,0,1,251.21,92.64Z"/><path class="cls-4" d="M559.23,27.51h58.93V86.44a58.93,58.93,0,0,1-58.93,58.93h0A58.93,58.93,0,0,1,500.3,86.44h0A58.93,58.93,0,0,1,559.23,27.51Z"/><g class="cls-6"><path class="cls-1" d="M555.37,97.61v6.23H532.29V69h23.08v6.23H539.58v8.13h14.89v5.77H539.58v8.48Z"/><path class="cls-1" d="M558.47,103.84l11.14-17.55L558.55,69h8.57l7.27,12.19h.43L582.16,69h8.16L578.85,86.41l11.3,17.43h-8.3L574.36,92h-.43l-7.58,11.81Z"/></g><rect x="85.61" y="44.74" width="0.5" height="47.19"/><line class="cls-7" x1="25.77" y1="169.67" x2="618.23" y2="169.67"/><line class="cls-7" x1="25.77" y1="203.67" x2="618.23" y2="203.67"/><g class="cls-6"><g class="cls-6"><path class="cls-1" d="M37.11,184.6H35.93v-5.88h1l2.7,3.66h.08v-3.66h1.17v5.88h-1l-2.71-3.68h-.07Z"/></g><g class="cls-6"><path class="cls-1" d="M44.49,178.57a2.65,2.65,0,0,1,2.06.83,3.74,3.74,0,0,1,0,4.52,2.65,2.65,0,0,1-2.06.83,2.69,2.69,0,0,1-2.07-.83,3.72,3.72,0,0,1,0-4.52A2.68,2.68,0,0,1,44.49,178.57Zm1.14,1.63a1.46,1.46,0,0,0-2.28,0,2.69,2.69,0,0,0,0,2.92,1.46,1.46,0,0,0,2.28,0,2.69,2.69,0,0,0,0-2.92Z"/></g><g class="cls-6"><path class="cls-1" d="M50.49,184.6H49.26v-4.83H47.49v-1.05h4.76v1.05H50.49Z"/></g><g class="cls-6"><path class="cls-1" d="M39.83,193.27v1h-3.9v-5.88h3.9v1.06H37.16v1.37h2.51v1H37.16v1.43Z"/></g><g class="cls-6"><path class="cls-1" d="M43.76,194.32H42.27l-2-5.88h1.39l1.34,4.5h.07l1.31-4.5h1.33Z"/></g><g class="cls-6"><path class="cls-1" d="M49.54,194.32l-.45-1.4H47l-.45,1.4H45.34l2-5.88h1.45l2,5.88ZM48,189.67l-.74,2.3h1.54l-.73-2.3Z"/></g><g class="cls-6"><path class="cls-1" d="M55.3,193.25v1.07H51.45v-5.88h1.23v4.81Z"/></g><g class="cls-6"><path class="cls-1" d="M57.13,188.44v3.73a1.17,1.17,0,0,0,.33.88,1.41,1.41,0,0,0,1.81,0,1.17,1.17,0,0,0,.33-.88v-3.73h1.23v3.85a2,2,0,0,1-.67,1.58,3,3,0,0,1-3.59,0,2,2,0,0,1-.66-1.58v-3.85Z"/></g><g class="cls-6"><path class="cls-1" d="M65.48,194.32l-.45-1.4H63l-.45,1.4H61.28l2-5.88h1.45l2,5.88ZM64,189.67l-.74,2.3h1.54l-.73-2.3Z"/></g><g class="cls-6"><path class="cls-1" d="M69.42,194.32H68.19V189.5H66.42v-1.06h4.76v1.06H69.42Z"/><path class="cls-1" d="M75.75,193.27v1h-3.9v-5.88h3.9v1.06H73.08v1.37h2.51v1H73.08v1.43Z"/><path class="cls-1" d="M76.62,188.44h2.32a2.65,2.65,0,0,1,2,.76,3,3,0,0,1,.72,2.14,3.1,3.1,0,0,1-.72,2.2,2.62,2.62,0,0,1-2,.78H76.62Zm1.23,1.05v3.78h.89a1.59,1.59,0,0,0,1.26-.49,2.08,2.08,0,0,0,.44-1.42A2,2,0,0,0,80,190a1.59,1.59,0,0,0-1.25-.49Z"/></g></g><g class="cls-6"><path class="cls-2" d="M46.17,232.79H42.23V213.14h3.44l9,12.24H55V213.14h3.94v19.65H55.48l-9.07-12.3h-.24Z"/><path class="cls-2" d="M75.28,229.28v3.51h-13V213.14h13v3.51H66.37v4.59h8.41v3.26H66.37v4.78Z"/></g><g class="cls-6"><path class="cls-2" d="M106.23,213.12H114a8.92,8.92,0,0,1,6.8,2.55q2.42,2.54,2.42,7.15,0,4.78-2.41,7.38a8.85,8.85,0,0,1-6.81,2.59h-7.74Zm4.12,3.52v12.64h3a5.37,5.37,0,0,0,4.21-1.64,6.91,6.91,0,0,0,1.47-4.75,6.62,6.62,0,0,0-1.49-4.61,5.41,5.41,0,0,0-4.19-1.64Z"/><path class="cls-2" d="M125.67,213.12h7.74a8.92,8.92,0,0,1,6.8,2.55q2.41,2.54,2.42,7.15,0,4.78-2.4,7.38a8.89,8.89,0,0,1-6.82,2.59h-7.74Zm4.12,3.52v12.64h3a5.36,5.36,0,0,0,4.2-1.64,6.91,6.91,0,0,0,1.48-4.75,6.58,6.58,0,0,0-1.5-4.61,5.4,5.4,0,0,0-4.18-1.64Z"/></g><g class="cls-6"><g class="cls-6"><path class="cls-2" d="M187.89,229.21v3.58H175V213.14h4.12v16.07Z"/></g><g class="cls-6"><path class="cls-2" d="M198,233.29a8.58,8.58,0,0,1-6.75-2.77,12.8,12.8,0,0,1,0-15.12,8.61,8.61,0,0,1,6.75-2.77,8.71,8.71,0,0,1,5.89,2.08,7.48,7.48,0,0,1,2.64,5.29h-4a4.41,4.41,0,0,0-1.53-2.72,4.54,4.54,0,0,0-3-1,4.33,4.33,0,0,0-3.66,1.8,9.59,9.59,0,0,0,0,9.81,4.34,4.34,0,0,0,3.67,1.8,4.68,4.68,0,0,0,3-1,4.1,4.1,0,0,0,1.53-2.58h4A7.3,7.3,0,0,1,204,231.3,8.87,8.87,0,0,1,198,233.29Z"/></g></g><g class="cls-6"><path class="cls-2" d="M243,232.79H239V213.14h3.43l9,12.24h.24V213.14h3.94v19.65h-3.41l-9.07-12.3H243Z"/><path class="cls-2" d="M267.94,232.79h-4.11V216.65h-5.9v-3.51h15.91v3.51h-5.9Z"/></g><g class="cls-6"><path class="cls-2" d="M316.45,232.79h-5l-6.65-19.65h4.64l4.47,15h.25l4.38-15H323Z"/><path class="cls-2" d="M329.11,213.14v12.45a4,4,0,0,0,1.08,3,4.77,4.77,0,0,0,6.07,0,4,4,0,0,0,1.09-3V213.14h4.11V226a6.74,6.74,0,0,1-2.24,5.28,10,10,0,0,1-12,0A6.74,6.74,0,0,1,325,226V213.14Z"/></g><g class="cls-6"><path class="cls-2" d="M383.25,229.28v3.51h-13V213.14h13v3.51h-8.9v4.59h8.4v3.26h-8.4v4.78Z"/><path class="cls-2" d="M390.12,232.79h-3.93V213.14h3.43l9,12.24h.25V213.14h3.93v19.65h-3.4l-9.07-12.3h-.25Z"/></g><g class="cls-6"><path class="cls-2" d="M447.38,233.29a8.58,8.58,0,0,1-6.75-2.77,12.8,12.8,0,0,1,0-15.12,8.61,8.61,0,0,1,6.75-2.77,8.71,8.71,0,0,1,5.89,2.08,7.48,7.48,0,0,1,2.64,5.29h-4a4.41,4.41,0,0,0-1.53-2.72,4.54,4.54,0,0,0-3-1,4.33,4.33,0,0,0-3.66,1.8,9.59,9.59,0,0,0,0,9.81,4.34,4.34,0,0,0,3.67,1.8,4.66,4.66,0,0,0,3-1,4.1,4.1,0,0,0,1.53-2.58h4a7.3,7.3,0,0,1-2.62,5.18A8.87,8.87,0,0,1,447.38,233.29Z"/><path class="cls-2" d="M462.42,225.67v7.12h-4.11V213.14h8.25a7.31,7.31,0,0,1,5.11,1.69,5.91,5.91,0,0,1,1.87,4.61,6.31,6.31,0,0,1-1,3.42A5.42,5.42,0,0,1,470,225l4.14,7.76h-4.66l-3.66-7.12Zm0-9.21v6H466a3.45,3.45,0,0,0,2.42-.8,3.24,3.24,0,0,0,0-4.43,3.45,3.45,0,0,0-2.43-.82Z"/></g><g class="cls-6"><path class="cls-2" d="M516.05,229.28v3.51H503V213.14h13v3.51h-8.9v4.59h8.4v3.26h-8.4v4.78Z"/><path class="cls-2" d="M530.56,219.79l-3.67,13H523l-5.21-19.65h4.28L525.14,227h.22l3.58-13.85h3.48L536.07,227h.21l3-13.85h4.25l-5.22,19.65H534.5l-3.72-13Z"/></g><g class="cls-6"><path class="cls-4" d="M582.18,229.28v3.51h-13V213.14h13v3.51h-8.9v4.59h8.4v3.26h-8.4v4.78Z"/><path class="cls-4" d="M583.93,232.79l6.28-9.9L584,213.14h4.84l4.1,6.88h.24l4.14-6.88h4.61L595.43,223l6.37,9.83h-4.68l-4.23-6.66h-.24l-4.28,6.66Z"/></g><g class="cls-6"><g class="cls-6"><path class="cls-1" d="M105.63,178.87H108a2.65,2.65,0,0,1,2,.76,3,3,0,0,1,.72,2.14A3.1,3.1,0,0,1,110,184a2.62,2.62,0,0,1-2,.78h-2.32Zm1.23,1v3.78h.89a1.59,1.59,0,0,0,1.26-.49,2.08,2.08,0,0,0,.44-1.42,2,2,0,0,0-.45-1.38,1.59,1.59,0,0,0-1.25-.49Z"/></g><g class="cls-6"><path class="cls-1" d="M115,184.75l-.45-1.4h-2.06l-.45,1.4h-1.24l2-5.88h1.45l2,5.88Zm-1.51-4.65-.74,2.3h1.54l-.73-2.3Z"/><path class="cls-1" d="M118.23,184.75H117v-4.83h-1.76v-1H120v1h-1.76Z"/></g><g class="cls-6"><path class="cls-1" d="M124.47,184.75l-.45-1.4H122l-.45,1.4h-1.24l2-5.88h1.45l2,5.88ZM123,180.1l-.74,2.3h1.54l-.73-2.3Z"/></g><g class="cls-6"><path class="cls-1" d="M105.63,188.59H108a2.65,2.65,0,0,1,2,.76,3,3,0,0,1,.72,2.14,3.1,3.1,0,0,1-.72,2.2,2.62,2.62,0,0,1-2,.78h-2.32Zm1.23,1v3.78h.89a1.59,1.59,0,0,0,1.26-.49,2.08,2.08,0,0,0,.44-1.42,2,2,0,0,0-.45-1.38,1.59,1.59,0,0,0-1.25-.49Z"/><path class="cls-1" d="M115.34,193.42v1.05h-3.89v-5.88h3.89v1h-2.66V191h2.51v1h-2.51v1.43Z"/><path class="cls-1" d="M117.45,194.47h-1.23v-5.88h3.85v1h-2.62v1.53h2.39v1h-2.39Z"/><path class="cls-1" d="M122,194.47h-1.23v-5.88H122Z"/><path class="cls-1" d="M125.52,194.62a2.58,2.58,0,0,1-2-.83,3.82,3.82,0,0,1,0-4.52,2.58,2.58,0,0,1,2-.83,2.63,2.63,0,0,1,1.76.62,2.25,2.25,0,0,1,.79,1.59h-1.2a1.33,1.33,0,0,0-.46-.82,1.35,1.35,0,0,0-.89-.3,1.32,1.32,0,0,0-1.1.53,2.9,2.9,0,0,0,0,2.94,1.31,1.31,0,0,0,1.1.54,1.43,1.43,0,0,0,.9-.29,1.25,1.25,0,0,0,.46-.78h1.19a2.15,2.15,0,0,1-.78,1.55A2.64,2.64,0,0,1,125.52,194.62Z"/><path class="cls-1" d="M130,194.47h-1.23v-5.88H130Z"/><path class="cls-1" d="M134.92,193.42v1.05H131v-5.88h3.89v1h-2.66V191h2.51v1h-2.51v1.43Z"/><path class="cls-1" d="M137,194.47H135.8v-5.88h1l2.71,3.66h.07v-3.66h1.18v5.88h-1l-2.71-3.68H137Z"/><path class="cls-1" d="M144.44,194.47h-1.23v-4.83h-1.76v-1h4.75v1h-1.76Z"/></g></g><g class="cls-6"><g class="cls-6"><path d="M175.39,183.68v1.07h-3.85v-5.88h1.23v4.81Z"/><path d="M180,183.7v1.05h-3.89v-5.88H180v1h-2.66v1.38h2.51v1h-2.51v1.43Z"/><path d="M184.63,184.75l-.44-1.4h-2.07l-.45,1.4h-1.23l2-5.88h1.44l2,5.88Zm-1.51-4.65-.73,2.3h1.54l-.73-2.3Z"/><path d="M186.28,183.12h1.19a.75.75,0,0,0,.38.57,1.55,1.55,0,0,0,.85.21,1.39,1.39,0,0,0,.79-.21.63.63,0,0,0,.3-.54.56.56,0,0,0-.23-.46,2.12,2.12,0,0,0-.78-.29l-.77-.16c-1.06-.23-1.59-.78-1.59-1.68a1.62,1.62,0,0,1,.61-1.33,2.83,2.83,0,0,1,3.23,0,1.6,1.6,0,0,1,.65,1.27h-1.15a.81.81,0,0,0-.34-.56,1.46,1.46,0,0,0-1.49,0,.61.61,0,0,0-.28.53.52.52,0,0,0,.23.44,2,2,0,0,0,.74.28l.71.15a2.59,2.59,0,0,1,1.29.59A1.44,1.44,0,0,1,191,183a1.69,1.69,0,0,1-.64,1.4,2.69,2.69,0,0,1-1.74.51,2.75,2.75,0,0,1-1.69-.48A1.66,1.66,0,0,1,186.28,183.12Z"/><path d="M194.42,184.75h-1.23v-4.83h-1.77v-1h4.76v1h-1.76Z"/></g><g class="cls-6"><path d="M174,194.62a2.58,2.58,0,0,1-2-.83,3.82,3.82,0,0,1,0-4.52,2.58,2.58,0,0,1,2-.83,2.63,2.63,0,0,1,1.76.62,2.25,2.25,0,0,1,.79,1.59h-1.2a1.33,1.33,0,0,0-.46-.82,1.35,1.35,0,0,0-.89-.3,1.32,1.32,0,0,0-1.1.53,2.9,2.9,0,0,0,0,2.94,1.31,1.31,0,0,0,1.1.54,1.43,1.43,0,0,0,.9-.29,1.25,1.25,0,0,0,.46-.78h1.19a2.15,2.15,0,0,1-.78,1.55A2.64,2.64,0,0,1,174,194.62Z"/><path d="M179.88,188.44a2.67,2.67,0,0,1,2.06.83,3.74,3.74,0,0,1,0,4.52,3,3,0,0,1-4.13,0,3.74,3.74,0,0,1,0-4.52A2.69,2.69,0,0,1,179.88,188.44Zm1.14,1.63a1.36,1.36,0,0,0-1.14-.55,1.38,1.38,0,0,0-1.15.55,2.32,2.32,0,0,0-.42,1.46,2.37,2.37,0,0,0,.42,1.47,1.48,1.48,0,0,0,2.29,0,2.37,2.37,0,0,0,.42-1.47A2.32,2.32,0,0,0,181,190.07Z"/><path d="M184.62,194.47h-1.17v-5.88h1l2.71,3.66h.07v-3.66h1.18v5.88h-1l-2.71-3.68h-.08Z"/><path d="M191.93,194.62a2.59,2.59,0,0,1-2-.83,3.82,3.82,0,0,1,0-4.52,2.84,2.84,0,0,1,3.78-.21,2.25,2.25,0,0,1,.79,1.59h-1.2a1.36,1.36,0,0,0-.45-.82,1.4,1.4,0,0,0-.9-.3,1.29,1.29,0,0,0-1.09.53,2.84,2.84,0,0,0,0,2.94,1.28,1.28,0,0,0,1.1.54,1.4,1.4,0,0,0,.89-.29,1.21,1.21,0,0,0,.46-.78h1.19a2.15,2.15,0,0,1-.78,1.55A2.64,2.64,0,0,1,191.93,194.62Z"/><path d="M199.09,193.42v1.05H195.2v-5.88h3.89v1h-2.66V191h2.51v1h-2.51v1.43Z"/><path d="M201.2,192.34v2.13H200v-5.88h2.47a2.21,2.21,0,0,1,1.53.51,1.78,1.78,0,0,1,.55,1.38,1.86,1.86,0,0,1-.28,1,1.6,1.6,0,0,1-.78.65l1.23,2.32H203.3l-1.09-2.13Zm0-2.75v1.81h1.08a1,1,0,0,0,.72-.24.83.83,0,0,0,.26-.66.86.86,0,0,0-.27-.67,1,1,0,0,0-.72-.24Z"/><path d="M206.52,194.47h-1.17v-5.88h1l2.71,3.66h.07v-3.66h1.18v5.88h-1l-2.71-3.68h-.08Z"/></g></g><g class="cls-6"><g class="cls-6"><path d="M28.1,305.42h1.19a.73.73,0,0,0,.37.57,1.59,1.59,0,0,0,.86.21,1.33,1.33,0,0,0,.78-.21.62.62,0,0,0,.31-.54.55.55,0,0,0-.24-.46,2.05,2.05,0,0,0-.78-.29l-.76-.16c-1.07-.23-1.6-.79-1.6-1.68a1.63,1.63,0,0,1,.62-1.33,2.82,2.82,0,0,1,3.22,0,1.61,1.61,0,0,1,.66,1.27H31.57a.78.78,0,0,0-.34-.56,1.27,1.27,0,0,0-.74-.21,1.25,1.25,0,0,0-.74.2.61.61,0,0,0-.28.53.51.51,0,0,0,.22.44,2,2,0,0,0,.75.28l.7.15a2.59,2.59,0,0,1,1.29.59,1.43,1.43,0,0,1,.4,1.08,1.71,1.71,0,0,1-.63,1.4,2.74,2.74,0,0,1-1.75.51,2.7,2.7,0,0,1-1.68-.48A1.62,1.62,0,0,1,28.1,305.42Z"/><path d="M37.35,307.05l-.44-1.4H34.84l-.45,1.4H33.16l2-5.88h1.44l2,5.88Zm-1.5-4.65-.74,2.3h1.54l-.73-2.3Z"/><path d="M40.45,307.05H39.27v-5.88h1L43,304.83h.07v-3.66h1.18v5.88h-1l-2.71-3.68h-.07Z"/></g><g class="cls-6"><path d="M44.85,305.32H46a.74.74,0,0,0,.79.78.75.75,0,0,0,.58-.22,1,1,0,0,0,.2-.66v-4.05h1.23v4.06a2,2,0,0,1-.53,1.46,2,2,0,0,1-1.47.51,2.05,2.05,0,0,1-1.45-.51A1.79,1.79,0,0,1,44.85,305.32Z"/></g><g class="cls-6"><path d="M53.48,307.05l-.45-1.4H51l-.45,1.4H49.28l2-5.88h1.45l2,5.88ZM52,302.4l-.74,2.3h1.54L52,302.4Z"/></g><g class="cls-6"><path d="M57.57,307.05H56.34v-2.16l-2.05-3.72h1.33l1.3,2.46H57l1.29-2.46h1.34l-2,3.72Z"/></g><g class="cls-6"><path d="M67.11,304.65a2.49,2.49,0,0,1-.7,1.86,2.62,2.62,0,0,1-1.91.69,2.65,2.65,0,0,1-2.06-.83,3.19,3.19,0,0,1-.76-2.26,3.22,3.22,0,0,1,.76-2.26,2.62,2.62,0,0,1,2-.83,2.74,2.74,0,0,1,1.75.56,2.16,2.16,0,0,1,.83,1.47H65.83a1.27,1.27,0,0,0-.49-.7,1.53,1.53,0,0,0-.87-.24,1.32,1.32,0,0,0-1.12.53,2.78,2.78,0,0,0,0,2.94,1.37,1.37,0,0,0,1.15.54,1.48,1.48,0,0,0,1-.33,1.14,1.14,0,0,0,.4-.86v-.1H64.64v-.93h2.47Z"/></g><g class="cls-6"><path d="M71.49,307.05l-.45-1.4H69l-.45,1.4H67.29l2-5.88h1.45l2,5.88ZM70,302.4l-.74,2.3h1.54l-.73-2.3Z"/><path d="M74.58,307.05H73.4v-5.88h1l2.7,3.66h.08v-3.66h1.17v5.88h-1l-2.72-3.68h-.07Z"/><path d="M79.39,301.17h2.32a2.65,2.65,0,0,1,2,.76,3,3,0,0,1,.72,2.14,3.1,3.1,0,0,1-.72,2.2,2.62,2.62,0,0,1-2,.78H79.39Zm1.23,1.05V306h.89a1.59,1.59,0,0,0,1.26-.49,2.08,2.08,0,0,0,.44-1.42,2,2,0,0,0-.45-1.38,1.59,1.59,0,0,0-1.25-.49Z"/><path d="M90.31,307.05H89.08v-2.46H86.44v2.46H85.21v-5.88h1.23v2.37h2.64v-2.37h1.23Z"/><path d="M92.55,307.05H91.32v-5.88h1.23Z"/><path d="M97.93,307.05H95.29v-5.88h2.57a2.1,2.1,0,0,1,1.34.39,1.33,1.33,0,0,1,.48,1.08,1.27,1.27,0,0,1-.3.83,1.19,1.19,0,0,1-.76.42V304a1.4,1.4,0,0,1,1,.44,1.3,1.3,0,0,1,.38,1,1.54,1.54,0,0,1-.54,1.23A2.28,2.28,0,0,1,97.93,307.05Zm-1.41-4.94v1.5h.93a1.27,1.27,0,0,0,.76-.2.65.65,0,0,0,.26-.55.68.68,0,0,0-.24-.55,1.06,1.06,0,0,0-.68-.2Zm0,4h1.1a1.28,1.28,0,0,0,.81-.22.73.73,0,0,0,.28-.63.71.71,0,0,0-.29-.61,1.39,1.39,0,0,0-.83-.21H96.52Z"/><path d="M101.89,307.05h-1.23v-5.88h1.23Z"/><path d="M105.47,301a2.68,2.68,0,0,1,2.06.83,3.74,3.74,0,0,1,0,4.52,3,3,0,0,1-4.13,0,3.74,3.74,0,0,1,0-4.52A2.69,2.69,0,0,1,105.47,301Zm1.14,1.63a1.47,1.47,0,0,0-2.29,0,2.33,2.33,0,0,0-.43,1.46,2.38,2.38,0,0,0,.43,1.47,1.48,1.48,0,0,0,2.29,0,2.37,2.37,0,0,0,.42-1.47A2.32,2.32,0,0,0,106.61,302.65Z"/></g><g class="cls-6"><path d="M112.86,306v1.07H109v-5.88h1.23V306Z"/></g><g class="cls-6"><path d="M116,301a2.65,2.65,0,0,1,2.06.83,3.74,3.74,0,0,1,0,4.52,2.65,2.65,0,0,1-2.06.83,2.69,2.69,0,0,1-2.07-.83,3.72,3.72,0,0,1,0-4.52A2.68,2.68,0,0,1,116,301Zm1.14,1.63a1.46,1.46,0,0,0-2.28,0,2.27,2.27,0,0,0-.43,1.46,2.32,2.32,0,0,0,.43,1.47,1.47,1.47,0,0,0,2.28,0,2.32,2.32,0,0,0,.43-1.47A2.27,2.27,0,0,0,117.1,302.65Z"/><path d="M124.7,304.65a2.49,2.49,0,0,1-.7,1.86,2.62,2.62,0,0,1-1.91.69,2.69,2.69,0,0,1-2.07-.83,3.23,3.23,0,0,1-.75-2.26,3.26,3.26,0,0,1,.75-2.26,2.65,2.65,0,0,1,2-.83,2.74,2.74,0,0,1,1.75.56,2.16,2.16,0,0,1,.83,1.47h-1.22a1.32,1.32,0,0,0-.49-.7,1.53,1.53,0,0,0-.87-.24,1.32,1.32,0,0,0-1.12.53,2.78,2.78,0,0,0,0,2.94,1.37,1.37,0,0,0,1.15.54,1.48,1.48,0,0,0,1-.33,1.17,1.17,0,0,0,.4-.86v-.1h-1.27v-.93h2.47Z"/><path d="M126.69,307.05h-1.23v-5.88h1.23Z"/></g><g class="cls-6"><path d="M130.19,307.2a2.58,2.58,0,0,1-2-.83,3.82,3.82,0,0,1,0-4.52,2.58,2.58,0,0,1,2-.83,2.63,2.63,0,0,1,1.76.62,2.25,2.25,0,0,1,.79,1.59h-1.2a1.33,1.33,0,0,0-.46-.82,1.35,1.35,0,0,0-.89-.3,1.32,1.32,0,0,0-1.1.53,2.9,2.9,0,0,0,0,2.94,1.31,1.31,0,0,0,1.1.54,1.43,1.43,0,0,0,.9-.29,1.2,1.2,0,0,0,.45-.78h1.2a2.15,2.15,0,0,1-.78,1.55A2.64,2.64,0,0,1,130.19,307.2Z"/></g><g class="cls-6"><path d="M137,307.05l-.45-1.4h-2.06l-.45,1.4h-1.24l2-5.88h1.45l2,5.88Zm-1.51-4.65-.74,2.3h1.54l-.73-2.3Z"/><path d="M142.8,306v1.07H139v-5.88h1.23V306Z"/></g><g class="cls-6"><path d="M145.22,301.17h2.45a1.92,1.92,0,0,1,2,2,1.92,1.92,0,0,1-.58,1.46,2.13,2.13,0,0,1-1.52.56h-1.16v1.82h-1.23Zm1.23,1v2.05h.89a1.18,1.18,0,0,0,.83-.27,1,1,0,0,0,.29-.75,1,1,0,0,0-.29-.76,1.16,1.16,0,0,0-.82-.27Z"/></g><g class="cls-6"><path d="M153.8,307.05l-.45-1.4h-2.06l-.45,1.4H149.6l2-5.88h1.45l2,5.88Zm-1.51-4.65-.74,2.3h1.54l-.73-2.3Z"/><path d="M156.94,304.92v2.13h-1.23v-5.88h2.47a2.18,2.18,0,0,1,1.53.51,1.79,1.79,0,0,1,.56,1.38,1.87,1.87,0,0,1-.29,1,1.6,1.6,0,0,1-.78.65l1.24,2.32h-1.39l-1.1-2.13Zm0-2.75V304H158a1.05,1.05,0,0,0,.73-.24,1,1,0,0,0,0-1.33,1.07,1.07,0,0,0-.73-.24Z"/><path d="M162.32,307.05h-1.23v-5.88h1.23v2.62h.07l2.17-2.62h1.37l-2.14,2.58,2.29,3.3h-1.47l-1.71-2.46-.58.69Z"/><path d="M167.44,308.63h-.95l.32-2.59H168Z"/><path d="M176,304.65a2.49,2.49,0,0,1-.7,1.86,2.62,2.62,0,0,1-1.91.69,2.65,2.65,0,0,1-2.06-.83,3.19,3.19,0,0,1-.76-2.26,3.22,3.22,0,0,1,.76-2.26,2.62,2.62,0,0,1,2-.83,2.74,2.74,0,0,1,1.75.56,2.16,2.16,0,0,1,.83,1.47h-1.22a1.27,1.27,0,0,0-.49-.7,1.53,1.53,0,0,0-.87-.24,1.32,1.32,0,0,0-1.12.53,2.78,2.78,0,0,0,0,2.94,1.39,1.39,0,0,0,1.15.54,1.48,1.48,0,0,0,1-.33,1.14,1.14,0,0,0,.4-.86v-.1H173.5v-.93H176Z"/></g><g class="cls-6"><path d="M179.28,301a2.65,2.65,0,0,1,2.06.83,3.74,3.74,0,0,1,0,4.52,2.65,2.65,0,0,1-2.06.83,2.69,2.69,0,0,1-2.07-.83,3.72,3.72,0,0,1,0-4.52A2.68,2.68,0,0,1,179.28,301Zm1.14,1.63a1.46,1.46,0,0,0-2.28,0,2.27,2.27,0,0,0-.43,1.46,2.32,2.32,0,0,0,.43,1.47,1.47,1.47,0,0,0,2.28,0,2.32,2.32,0,0,0,.43-1.47A2.27,2.27,0,0,0,180.42,302.65Z"/></g><g class="cls-6"><path d="M185.72,307.05h-1.49l-2-5.88h1.39l1.34,4.5H185l1.31-4.5h1.33Z"/><path d="M192.15,306v1.05h-3.89v-5.88h3.89v1.05h-2.66v1.38H192v1h-2.51V306Z"/><path d="M194.26,304.92v2.13H193v-5.88h2.47a2.19,2.19,0,0,1,1.53.51,1.78,1.78,0,0,1,.55,1.38,1.86,1.86,0,0,1-.28,1,1.6,1.6,0,0,1-.78.65l1.23,2.32h-1.39l-1.09-2.13Zm0-2.75V304h1.08a1,1,0,0,0,.72-.24.83.83,0,0,0,.26-.66.86.86,0,0,0-.27-.67,1,1,0,0,0-.72-.24Z"/><path d="M199.58,307.05h-1.17v-5.88h1l2.71,3.66h.07v-3.66h1.18v5.88h-1l-2.71-3.68h-.08Z"/><path d="M205.53,307.05h-1.14v-5.88h1.45l1.63,3.95h.07l1.63-3.95h1.45v5.88h-1.14v-3.93h-.07l-1.49,3.59h-.82l-1.5-3.59h-.07Z"/><path d="M215.52,306v1.05h-3.9v-5.88h3.9v1.05h-2.67v1.38h2.52v1h-2.52V306Z"/><path d="M217.57,307.05H216.4v-5.88h1l2.71,3.66h.07v-3.66h1.18v5.88h-1l-2.71-3.68h-.08Z"/><path d="M225,307.05h-1.23v-4.83h-1.76v-1.05h4.75v1.05H225Z"/><path d="M231.78,301a2.68,2.68,0,0,1,2.06.83,3.74,3.74,0,0,1,0,4.52,3,3,0,0,1-4.13,0,3.74,3.74,0,0,1,0-4.52A2.69,2.69,0,0,1,231.78,301Zm1.14,1.63a1.47,1.47,0,0,0-2.29,0,2.33,2.33,0,0,0-.43,1.46,2.38,2.38,0,0,0,.43,1.47,1.37,1.37,0,0,0,1.15.54,1.39,1.39,0,0,0,1.14-.54,2.37,2.37,0,0,0,.42-1.47A2.32,2.32,0,0,0,232.92,302.65Z"/><path d="M236.58,307.05h-1.23v-5.88h3.84v1.05h-2.61v1.53H239v1h-2.39Z"/><path d="M244.29,307.05h-2.64v-5.88h2.57a2.07,2.07,0,0,1,1.33.39,1.34,1.34,0,0,1,.49,1.08,1.27,1.27,0,0,1-.31.83,1.17,1.17,0,0,1-.76.42V304a1.44,1.44,0,0,1,1,.44,1.34,1.34,0,0,1,.38,1,1.55,1.55,0,0,1-.55,1.23A2.25,2.25,0,0,1,244.29,307.05Zm-1.41-4.94v1.5h.92a1.27,1.27,0,0,0,.76-.2.63.63,0,0,0,.27-.55.66.66,0,0,0-.25-.55,1,1,0,0,0-.68-.2Zm0,4H244a1.28,1.28,0,0,0,.81-.22.73.73,0,0,0,.28-.63.7.7,0,0,0-.28-.61,1.43,1.43,0,0,0-.84-.21h-1.06Z"/><path d="M248.24,307.05H247v-5.88h1.23Z"/><path d="M254.36,307.05h-1.23v-2.46h-2.65v2.46h-1.23v-5.88h1.23v2.37h2.65v-2.37h1.23Z"/><path d="M259.14,307.05l-.44-1.4h-2.07l-.45,1.4H255l2-5.88h1.44l2,5.88Zm-1.51-4.65-.73,2.3h1.54l-.73-2.3Z"/><path d="M262.29,304.92v2.13h-1.23v-5.88h2.46a2.18,2.18,0,0,1,1.53.51,1.79,1.79,0,0,1,.56,1.38,2,2,0,0,1-.28,1,1.58,1.58,0,0,1-.79.65l1.24,2.32h-1.39l-1.1-2.13Zm0-2.75V304h1.08a1,1,0,0,0,.72-.24,1,1,0,0,0,0-1.33,1.05,1.05,0,0,0-.73-.24Z"/></g></g><g class="cls-6"><g class="cls-6"><path d="M235.42,184.6h-1.18v-5.88h1l2.7,3.66h.08v-3.66h1.17v5.88h-1l-2.72-3.68h-.07Z"/><path d="M244.12,183.55v1h-3.89v-5.88h3.89v1.05h-2.66v1.38H244v1h-2.51v1.43Z"/><path d="M248.78,184.6l-.45-1.4h-2.06l-.45,1.4h-1.24l2-5.88h1.45l2,5.88ZM247.27,180l-.74,2.3h1.54l-.73-2.3Z"/><path d="M251.92,182.47v2.13h-1.23v-5.88h2.47a2.18,2.18,0,0,1,1.53.51,1.79,1.79,0,0,1,.56,1.38,1.87,1.87,0,0,1-.29,1,1.6,1.6,0,0,1-.78.65l1.24,2.32H254l-1.1-2.13Zm0-2.75v1.81H253a1.05,1.05,0,0,0,.73-.24.87.87,0,0,0,.25-.67.88.88,0,0,0-.26-.66,1.07,1.07,0,0,0-.73-.24Z"/></g><g class="cls-6"><path d="M236.9,194.32h-1.23V189.5H233.9v-1.06h4.76v1.06H236.9Z"/><path d="M244.44,194.32h-1.23v-2.46h-2.65v2.46h-1.23v-5.88h1.23v2.37h2.65v-2.37h1.23Z"/><path d="M246.68,192.19v2.13h-1.23v-5.88h2.46a2.18,2.18,0,0,1,1.53.51,1.79,1.79,0,0,1,.56,1.38,2,2,0,0,1-.28,1,1.58,1.58,0,0,1-.79.65l1.24,2.32h-1.39l-1.1-2.13Zm0-2.75v1.81h1.07a1,1,0,0,0,.73-.24,1,1,0,0,0,0-1.33,1.05,1.05,0,0,0-.73-.24Z"/><path d="M254.71,193.27v1h-3.89v-5.88h3.89v1.06h-2.66v1.37h2.51v1h-2.51v1.43Z"/></g><g class="cls-6"><path d="M259.36,194.32l-.45-1.4h-2.06l-.45,1.4h-1.24l2-5.88h1.45l2,5.88Zm-1.51-4.65-.74,2.3h1.54l-.73-2.3Z"/></g><g class="cls-6"><path d="M263.29,194.32h-1.23V189.5h-1.77v-1.06h4.76v1.06h-1.76Z"/><path d="M269.61,193.27v1h-3.89v-5.88h3.89v1.06H267v1.37h2.51v1H267v1.43Z"/><path d="M271.67,194.32h-1.18v-5.88h1l2.7,3.67h.08v-3.67h1.17v5.88h-1l-2.71-3.68h-.07Z"/><path d="M276.48,188.44h2.31a2.66,2.66,0,0,1,2,.76,3,3,0,0,1,.72,2.14,3.1,3.1,0,0,1-.72,2.2,2.64,2.64,0,0,1-2,.78h-2.31Zm1.23,1.05v3.78h.89a1.61,1.61,0,0,0,1.26-.49,2.08,2.08,0,0,0,.44-1.42,2,2,0,0,0-.45-1.38,1.61,1.61,0,0,0-1.25-.49Z"/></g></g><g class="cls-6"><g class="cls-6"><path d="M430.09,184.9a2.58,2.58,0,0,1-2-.83,3.82,3.82,0,0,1,0-4.52,2.58,2.58,0,0,1,2-.83,2.63,2.63,0,0,1,1.76.62,2.27,2.27,0,0,1,.79,1.59h-1.2a1.33,1.33,0,0,0-.46-.82,1.35,1.35,0,0,0-.89-.3,1.32,1.32,0,0,0-1.1.53,2.9,2.9,0,0,0,0,2.94,1.31,1.31,0,0,0,1.1.54,1.41,1.41,0,0,0,.9-.29,1.25,1.25,0,0,0,.46-.78h1.19a2.15,2.15,0,0,1-.78,1.55A2.64,2.64,0,0,1,430.09,184.9Z"/><path d="M434.59,182.62v2.13h-1.23v-5.88h2.47a2.17,2.17,0,0,1,1.52.51,1.79,1.79,0,0,1,.56,1.38,1.86,1.86,0,0,1-.28,1,1.58,1.58,0,0,1-.79.65l1.24,2.32h-1.39l-1.1-2.13Zm0-2.75v1.81h1.08a1,1,0,0,0,.72-.24,1,1,0,0,0,0-1.33,1.05,1.05,0,0,0-.73-.24Z"/><path d="M440,184.75h-1.23v-5.88H440Z"/><path d="M443.62,184.75h-1.23v-4.83h-1.76v-1h4.76v1h-1.77Z"/><path d="M447.29,184.75h-1.23v-5.88h1.23Z"/></g><g class="cls-6"><path d="M450.78,184.9a2.58,2.58,0,0,1-2-.83,3.82,3.82,0,0,1,0-4.52,2.58,2.58,0,0,1,2-.83,2.63,2.63,0,0,1,1.76.62,2.27,2.27,0,0,1,.79,1.59h-1.2a1.33,1.33,0,0,0-.46-.82,1.35,1.35,0,0,0-.89-.3,1.32,1.32,0,0,0-1.1.53,2.9,2.9,0,0,0,0,2.94,1.31,1.31,0,0,0,1.1.54,1.43,1.43,0,0,0,.9-.29,1.2,1.2,0,0,0,.45-.78h1.2a2.15,2.15,0,0,1-.78,1.55A2.64,2.64,0,0,1,450.78,184.9Z"/></g><g class="cls-6"><path d="M457.64,184.75l-.45-1.4h-2.06l-.45,1.4h-1.24l2-5.88h1.45l2,5.88Zm-1.51-4.65-.74,2.3h1.54l-.73-2.3Z"/><path d="M463.4,183.68v1.07h-3.85v-5.88h1.23v4.81Z"/></g><g class="cls-6"><path d="M467.94,183.68v1.07h-3.85v-5.88h1.23v4.81Z"/></g><g class="cls-6"><path d="M470.7,184.75h-1.23v-2.16l-2.05-3.72h1.33l1.3,2.46h.07l1.29-2.46h1.34l-2.05,3.72Z"/></g><g class="cls-6"><path d="M431.49,193.42v1.05h-3.9v-5.88h3.9v1h-2.67V191h2.51v1h-2.51v1.43Z"/><path d="M433.54,194.47h-1.18v-5.88h1l2.7,3.66h.08v-3.66h1.17v5.88h-1l-2.72-3.68h-.07Z"/></g><g class="cls-6"><path d="M438.34,188.59h2.32a2.65,2.65,0,0,1,2,.76,3,3,0,0,1,.72,2.14,3.1,3.1,0,0,1-.72,2.2,2.62,2.62,0,0,1-2,.78h-2.32Zm1.23,1v3.78h.89a1.59,1.59,0,0,0,1.26-.49,2.08,2.08,0,0,0,.44-1.42,2,2,0,0,0-.45-1.38,1.59,1.59,0,0,0-1.25-.49Z"/></g><g class="cls-6"><path d="M447.67,194.47l-.45-1.4h-2.06l-.45,1.4h-1.24l2-5.88H447l2,5.88Zm-1.51-4.65-.74,2.3H447l-.73-2.3Z"/><path d="M450.76,194.47h-1.18v-5.88h1l2.7,3.66h.08v-3.66h1.17v5.88h-1l-2.72-3.68h-.07Z"/><path d="M460.74,192.07a2.49,2.49,0,0,1-.7,1.86,2.62,2.62,0,0,1-1.91.69,2.65,2.65,0,0,1-2.06-.83,3.19,3.19,0,0,1-.76-2.26,3.22,3.22,0,0,1,.76-2.26,2.62,2.62,0,0,1,2-.83,2.74,2.74,0,0,1,1.75.56,2.16,2.16,0,0,1,.83,1.47h-1.22a1.27,1.27,0,0,0-.49-.7,1.53,1.53,0,0,0-.87-.24,1.32,1.32,0,0,0-1.12.53,2.78,2.78,0,0,0,0,2.94,1.37,1.37,0,0,0,1.15.54,1.48,1.48,0,0,0,1-.33,1.14,1.14,0,0,0,.4-.86v-.1h-1.27v-.93h2.47Z"/><path d="M465.39,193.42v1.05H461.5v-5.88h3.89v1h-2.66V191h2.51v1h-2.51v1.43Z"/><path d="M467.5,192.34v2.13h-1.23v-5.88h2.47a2.17,2.17,0,0,1,1.52.51,1.79,1.79,0,0,1,.56,1.38,1.86,1.86,0,0,1-.28,1,1.58,1.58,0,0,1-.79.65l1.24,2.32H469.6l-1.1-2.13Zm0-2.75v1.81h1.08a1,1,0,0,0,.72-.24,1,1,0,0,0,0-1.33,1.05,1.05,0,0,0-.73-.24Z"/><path d="M475.53,193.42v1.05h-3.89v-5.88h3.89v1h-2.66V191h2.51v1h-2.51v1.43Z"/><path d="M476.41,188.59h2.32a2.65,2.65,0,0,1,2,.76,3,3,0,0,1,.72,2.14,3.1,3.1,0,0,1-.72,2.2,2.63,2.63,0,0,1-2,.78h-2.32Zm1.23,1v3.78h.89a1.59,1.59,0,0,0,1.26-.49,2.08,2.08,0,0,0,.44-1.42,2,2,0,0,0-.45-1.38,1.61,1.61,0,0,0-1.25-.49Z"/></g></g><g class="cls-6"><g class="cls-6"><path d="M500.51,183.7v1.05h-3.9v-5.88h3.9v1h-2.67v1.38h2.52v1h-2.52v1.43Z"/><path d="M501,184.75l1.88-3L501,178.87h1.45l1.22,2.06h.08l1.23-2.06h1.38l-1.93,2.94,1.9,2.94H505l-1.26-2h-.07l-1.28,2Z"/><path d="M509.71,184.75h-1.23v-4.83h-1.77v-1h4.76v1h-1.76Z"/><path d="M513.37,184.75h-1.23v-5.88h1.23Z"/><path d="M515.55,184.75h-1.17v-5.88h1l2.71,3.67h.07v-3.67h1.18v5.88h-1l-2.71-3.68h-.08Z"/></g><g class="cls-6"><path d="M522.85,184.9a2.58,2.58,0,0,1-2-.83,3.82,3.82,0,0,1,0-4.52,2.58,2.58,0,0,1,2-.83,2.63,2.63,0,0,1,1.76.62,2.27,2.27,0,0,1,.79,1.59h-1.2a1.33,1.33,0,0,0-.46-.82,1.35,1.35,0,0,0-.89-.3,1.32,1.32,0,0,0-1.1.53,2.9,2.9,0,0,0,0,2.94,1.31,1.31,0,0,0,1.1.54,1.43,1.43,0,0,0,.9-.29,1.25,1.25,0,0,0,.46-.78h1.19a2.15,2.15,0,0,1-.78,1.55A2.64,2.64,0,0,1,522.85,184.9Z"/></g><g class="cls-6"><path d="M528.65,184.75h-1.23v-4.83h-1.77v-1h4.76v1h-1.76Z"/></g><g class="cls-6"><path d="M497.84,194.47h-1.23v-5.88h1.23Z"/><path d="M500,194.47h-1.18v-5.88h1l2.7,3.66h.07v-3.66h1.18v5.88h-1l-2.71-3.68H500Z"/><path d="M509.23,194.47H508v-4.83h-1.77v-1H511v1h-1.76Z"/><path d="M516.77,194.47h-1.23V192h-2.65v2.46h-1.23v-5.88h1.23V191h2.65v-2.37h1.23Z"/><path d="M521.67,193.42v1.05h-3.89v-5.88h3.89v1H519V191h2.51v1H519v1.43Z"/><path d="M527.74,190.58l-1.1,3.89h-1.16l-1.55-5.88h1.28l.91,4.15h.07l1.07-4.15h1l1.09,4.15h.06l.91-4.15h1.27l-1.56,5.88h-1.15l-1.11-3.89Z"/><path d="M533.51,194.47h-1.23v-5.88h1.23Z"/><path d="M538.36,193.4v1.07h-3.84v-5.88h1.23v4.81Z"/><path d="M539.06,188.59h2.32a2.65,2.65,0,0,1,2,.76,3,3,0,0,1,.72,2.14,3.1,3.1,0,0,1-.72,2.2,2.63,2.63,0,0,1-2,.78h-2.32Zm1.23,1v3.78h.89a1.6,1.6,0,0,0,1.26-.49,2.08,2.08,0,0,0,.44-1.42,2,2,0,0,0-.45-1.38,1.61,1.61,0,0,0-1.25-.49Z"/></g></g><g class="cls-6"><g class="cls-6"><path class="cls-1" d="M574.54,188.44v1.05h-3.9v-5.88h3.9v1.06h-2.67V186h2.51v1h-2.51v1.43Z"/><path class="cls-1" d="M575.06,189.49l1.88-3-1.87-2.92h1.45l1.22,2.06h.08l1.23-2.06h1.38l-1.93,2.94,1.9,2.94H579l-1.26-2h-.07l-1.28,2Z"/><path class="cls-1" d="M583.74,189.49h-1.23v-4.82h-1.77v-1.06h4.76v1.06h-1.76Z"/><path class="cls-1" d="M587.4,189.49h-1.23v-5.88h1.23Z"/><path class="cls-1" d="M589.58,189.49h-1.17v-5.88h1l2.71,3.67h.07v-3.67h1.18v5.88h-1l-2.71-3.68h-.08Z"/></g><g class="cls-6"><path class="cls-1" d="M596.88,189.64a2.58,2.58,0,0,1-2-.83,3.82,3.82,0,0,1,0-4.52,2.58,2.58,0,0,1,2-.83,2.63,2.63,0,0,1,1.76.62,2.27,2.27,0,0,1,.79,1.59h-1.2a1.33,1.33,0,0,0-.46-.82,1.35,1.35,0,0,0-.89-.3,1.32,1.32,0,0,0-1.1.53,2.9,2.9,0,0,0,0,2.94,1.31,1.31,0,0,0,1.1.54,1.41,1.41,0,0,0,.9-.29,1.2,1.2,0,0,0,.45-.77h1.2a2.15,2.15,0,0,1-.78,1.54A2.64,2.64,0,0,1,596.88,189.64Z"/></g><g class="cls-6"><path class="cls-1" d="M602.68,189.49h-1.23v-4.82h-1.77v-1.06h4.76v1.06h-1.76Z"/></g></g><g class="cls-6"><path d="M299.22,190.53h-1.49l-2-5.88h1.39l1.34,4.5h.07l1.31-4.5h1.33Z"/><path d="M303,184.65v3.73a1.17,1.17,0,0,0,.33.88,1.19,1.19,0,0,0,.9.33,1.21,1.21,0,0,0,.91-.33,1.17,1.17,0,0,0,.33-.88v-3.73h1.23v3.85a2,2,0,0,1-.67,1.58,3,3,0,0,1-3.59,0,2,2,0,0,1-.67-1.58v-3.85Z"/><path d="M311.56,189.46v1.07h-3.85v-5.88h1.23v4.81Z"/><path d="M313.43,190.53h-1.17v-5.88h1l2.71,3.67h.07v-3.67h1.18v5.88h-1l-2.71-3.68h-.08Z"/><path d="M322.14,189.48v1.05h-3.9v-5.88h3.9v1.06h-2.67v1.37H322v1h-2.52v1.43Z"/><path d="M324.25,188.4v2.13H323v-5.88h2.46a2.18,2.18,0,0,1,1.53.51,1.79,1.79,0,0,1,.56,1.38,2,2,0,0,1-.28,1,1.63,1.63,0,0,1-.79.65l1.24,2.32h-1.39l-1.1-2.13Zm0-2.75v1.81h1.07a1.05,1.05,0,0,0,.73-.24,1,1,0,0,0,0-1.33,1.05,1.05,0,0,0-.73-.24Z"/><path d="M332.16,190.53l-.44-1.4h-2.06l-.46,1.4H328l2-5.88h1.45l2,5.88Zm-1.5-4.65-.74,2.3h1.54l-.73-2.3Z"/><path d="M336.72,190.53h-2.64v-5.88h2.57A2.1,2.1,0,0,1,338,185a1.33,1.33,0,0,1,.48,1.08,1.27,1.27,0,0,1-.3.83,1.19,1.19,0,0,1-.76.42v.08a1.42,1.42,0,0,1,1,.44,1.34,1.34,0,0,1,.38,1,1.54,1.54,0,0,1-.54,1.23A2.28,2.28,0,0,1,336.72,190.53Zm-1.41-4.94v1.5h.92a1.29,1.29,0,0,0,.77-.2.65.65,0,0,0,.26-.55.68.68,0,0,0-.24-.55,1.06,1.06,0,0,0-.68-.2Zm0,4h1.1a1.28,1.28,0,0,0,.81-.22.76.76,0,0,0,.28-.63.71.71,0,0,0-.29-.61,1.39,1.39,0,0,0-.83-.21h-1.07Z"/><path d="M343.29,189.46v1.07h-3.84v-5.88h1.23v4.81Z"/><path d="M347.88,189.48v1.05H344v-5.88h3.89v1.06h-2.66v1.37h2.51v1h-2.51v1.43Z"/></g><g class="cls-6"><g class="cls-6"><path d="M365,189.63v1.05h-3.9V184.8H365v1h-2.67v1.38h2.51v1h-2.51v1.43Z"/><path d="M367.05,190.68h-1.18V184.8h1l2.7,3.66h.08V184.8h1.17v5.88h-1L367.12,187h-.07Z"/></g><g class="cls-6"><path d="M371.85,184.8h2.32a2.65,2.65,0,0,1,2,.76,3,3,0,0,1,.72,2.14,3.1,3.1,0,0,1-.72,2.2,2.63,2.63,0,0,1-2,.78h-2.32Zm1.23,1v3.78H374a1.59,1.59,0,0,0,1.26-.49,2.08,2.08,0,0,0,.44-1.42,2,2,0,0,0-.45-1.38,1.61,1.61,0,0,0-1.25-.49Z"/></g><g class="cls-6"><path d="M381.18,190.68l-.45-1.4h-2.06l-.45,1.4H377l2-5.88h1.45l2,5.88ZM379.67,186l-.74,2.3h1.54l-.73-2.3Z"/><path d="M384.27,190.68h-1.18V184.8h1l2.7,3.66h.08V184.8h1.17v5.88h-1L384.34,187h-.07Z"/><path d="M394.25,188.28a2.49,2.49,0,0,1-.7,1.86,2.62,2.62,0,0,1-1.91.69,2.65,2.65,0,0,1-2.06-.83,3.19,3.19,0,0,1-.76-2.26,3.22,3.22,0,0,1,.76-2.26,2.62,2.62,0,0,1,2-.83,2.74,2.74,0,0,1,1.75.56,2.16,2.16,0,0,1,.83,1.47H393a1.32,1.32,0,0,0-.49-.7,1.53,1.53,0,0,0-.87-.24,1.32,1.32,0,0,0-1.12.53,2.78,2.78,0,0,0,0,2.94,1.37,1.37,0,0,0,1.15.54,1.48,1.48,0,0,0,1-.33,1.14,1.14,0,0,0,.4-.86v-.1h-1.27v-.93h2.47Z"/><path d="M398.9,189.63v1.05H395V184.8h3.89v1h-2.66v1.38h2.51v1h-2.51v1.43Z"/><path d="M401,188.55v2.13h-1.23V184.8h2.47a2.17,2.17,0,0,1,1.52.51,1.79,1.79,0,0,1,.56,1.38,1.86,1.86,0,0,1-.28,1,1.58,1.58,0,0,1-.79.65l1.24,2.32h-1.39l-1.1-2.13Zm0-2.75v1.81h1.08a1,1,0,0,0,.72-.24,1,1,0,0,0,0-1.33,1.05,1.05,0,0,0-.73-.24Z"/><path d="M409,189.63v1.05h-3.89V184.8H409v1h-2.66v1.38h2.51v1h-2.51v1.43Z"/><path d="M409.92,184.8h2.32a2.65,2.65,0,0,1,2,.76,3,3,0,0,1,.72,2.14,3.1,3.1,0,0,1-.72,2.2,2.62,2.62,0,0,1-2,.78h-2.32Zm1.23,1v3.78H412a1.6,1.6,0,0,0,1.26-.49,2.08,2.08,0,0,0,.44-1.42,2,2,0,0,0-.45-1.38,1.61,1.61,0,0,0-1.25-.49Z"/></g></g><rect class="cls-8" x="91.6" y="169.67" height="34"/><rect class="cls-8" x="91.6" y="169.67" width="65.83" height="34"/><rect class="cls-8" x="157.43" y="169.67" width="65.83" height="34"/><rect class="cls-8" x="223.26" y="169.67" width="65.83" height="34"/><rect class="cls-8" x="289.09" y="169.67" width="65.83" height="34"/><rect class="cls-8" x="354.91" y="169.67" width="65.83" height="34"/><rect class="cls-8" x="420.74" y="169.67" width="65.83" height="34"/><rect class="cls-8" x="486.57" y="169.67" width="65.83" height="34"/><rect class="cls-8" x="552.4" y="169.67" width="65.83" height="34"/></g></g></g></g></svg>